<svg width="149" height="151" viewBox="0 0 149 151" fill="none" xmlns="http://www.w3.org/2000/svg">
<g filter="url(#filter0_i_413_234)">
<circle cx="74.7787" cy="77.0342" r="71.1703" fill="#FBF3FA"/>
</g>
<circle cx="74.7787" cy="77.0342" r="71.1703" stroke="#F3F4F6" stroke-width="0.708162"/>
<mask id="mask0_413_234" style="mask-type:alpha" maskUnits="userSpaceOnUse" x="3" y="5" width="144" height="144">
<circle cx="74.7787" cy="77.0342" r="71.1703" fill="#FBF3FA" stroke="#F3F4F6" stroke-width="0.708162"/>
</mask>
<g mask="url(#mask0_413_234)">
<g clip-path="url(#clip0_413_234)">
<path d="M68.1335 22.1526C68.1335 22.1526 51.9973 23.1476 45.4111 37.8572C38.6723 52.9089 43.1842 61.4009 34.4711 70.0297C25.7581 78.6585 23.0362 90.6515 32.6285 97.8694C44.0476 106.461 57.7516 96.5111 68.6337 100.854C94.3096 111.105 125.282 98.5748 118.306 79.6957C114.973 70.6772 108.882 73.5149 105.776 48.813C103.865 33.6138 92.8671 18.8727 68.1335 22.1526Z" fill="#19274B"/>
<path d="M142.303 148.569H9.08496C9.08496 148.569 10.875 140.093 13.4231 131.58C15.9712 123.066 21.2411 119.502 28.0589 117.754C29.9805 117.26 33.5026 116.238 37.5669 115.027C39.8676 114.338 42.3473 113.59 44.8059 112.842C53.3873 110.236 61.7582 107.63 61.7582 107.63L75.6149 106.525H75.6938H75.7728L88.2712 107.525C88.2712 107.525 95.7891 109.784 103.997 112.205C111.704 114.48 120.023 116.907 123.323 117.754C130.141 119.502 135.406 123.066 137.959 131.58C140.507 140.093 142.297 148.569 142.297 148.569H142.303Z" fill="#FFAC32"/>
<path d="M39.9729 136.628C39.6886 140.666 39.0463 144.609 36.9668 148.568H9.08496C9.08496 148.568 10.875 140.092 13.4231 131.579C15.9712 123.066 21.2411 119.502 28.0589 117.754C29.9805 117.259 33.5026 116.238 37.5669 115.027C39.5043 119.86 40.5046 129.131 39.9782 136.623L39.9729 136.628Z" fill="#FF8881"/>
<path d="M111.415 136.628C111.699 140.666 112.342 144.609 114.421 148.568H142.303C142.303 148.568 140.513 140.092 137.965 131.579C135.417 123.066 130.147 119.502 123.329 117.754C121.407 117.259 117.885 116.238 113.821 115.027C111.884 119.86 110.883 129.131 111.41 136.623L111.415 136.628Z" fill="#FF8881"/>
<path d="M104.002 112.21C102.233 121.724 96.1838 139.945 75.841 140.882C53.2818 141.924 46.522 120.655 44.8057 112.847C53.3871 110.241 61.758 107.635 61.758 107.635L75.6146 106.53H75.6936H75.7726L88.271 107.53C88.271 107.53 95.7889 109.789 103.997 112.21H104.002Z" fill="#FF8881"/>
<path d="M75.7725 125.393C66.7541 125.393 61.5631 120.844 58.7991 117.027C55.8193 112.921 54.977 108.857 54.9401 108.683C54.8401 108.188 55.1612 107.704 55.6561 107.604C56.1563 107.504 56.6354 107.825 56.7354 108.32C56.7512 108.399 57.5725 112.237 60.3206 116.006C63.9796 121.018 69.1759 123.561 75.7673 123.561C82.3586 123.561 87.2706 121.018 90.3715 116.011C92.7038 112.242 93.0881 108.457 93.0881 108.42C93.1355 107.914 93.5882 107.546 94.0884 107.593C94.5938 107.641 94.9623 108.088 94.9149 108.593C94.8991 108.767 94.4832 112.847 91.9299 116.975C89.5555 120.818 84.8225 125.398 75.7673 125.398L75.7725 125.393Z" fill="#F5EFFF"/>
<path d="M75.7748 106.519V106.53L75.6943 106.525L75.7748 106.519Z" fill="#5D46C2"/>
<path d="M75.6957 106.525L75.6152 106.53V106.519L75.6957 106.525Z" fill="#5D46C2"/>
<path d="M88.051 110.926C88.051 110.926 84.6026 117.38 74.963 117.38C65.3233 117.38 61.7275 110.605 61.7275 110.605L62.2961 105.961L62.3909 105.182L63.2859 97.8746L86.3294 98.5169L86.7138 101.297L86.8401 102.207L88.051 110.926Z" fill="#FF8881"/>
<path d="M86.7194 101.297C81.4968 105.719 73.0523 107.404 62.3018 105.961L62.3965 105.182L63.2915 97.8746L86.3351 98.5169L86.7194 101.297Z" fill="#19274B"/>
<path d="M54.6353 78.8533C49.4812 86.0502 38.3832 81.1856 39.1361 71.6354C39.8205 62.975 49.497 64.3438 49.497 64.3438L54.6353 78.8481V78.8533Z" fill="#F55B5D"/>
<path d="M51.6663 79.8641C55.3674 81.3698 57.9787 85.0077 57.9787 89.2406C57.9787 94.8211 53.4405 99.3646 47.8599 99.3646C42.2794 99.3646 37.7412 94.8211 37.7412 89.2406C37.7412 84.5234 40.979 80.5591 45.354 79.4377C46.012 79.2692 46.6912 79.1639 47.3967 79.1324C47.5072 79.464 47.5862 79.801 47.6125 80.159C47.1913 80.1695 46.7702 80.2116 46.3648 80.2801C42.0635 80.9961 38.7784 84.7392 38.7784 89.2406C38.7784 94.2525 42.8532 98.3327 47.8652 98.3327C52.8772 98.3327 56.9521 94.2525 56.9521 89.2406C56.9521 85.65 54.8567 82.5386 51.819 81.0645L51.6716 79.8694L51.6663 79.8641Z" fill="#F5EFFF"/>
<path d="M49.8922 79.0323C49.5815 79.0323 49.3025 78.8217 49.2235 78.5059C48.218 74.3994 43.9641 70.5825 43.922 70.5404C43.6377 70.2877 43.6114 69.8507 43.8641 69.5717C44.1168 69.2874 44.5538 69.2611 44.8328 69.5138C45.0223 69.6822 49.4499 73.6571 50.5608 78.1795C50.6503 78.548 50.4239 78.9218 50.0554 79.0113C50.0027 79.0271 49.9448 79.0323 49.8922 79.0323Z" fill="#D1373F"/>
<path d="M48.1178 75.1417C48.0441 75.1417 47.9704 75.1312 47.902 75.1049C46.0172 74.4731 44.2167 74.8574 44.2009 74.8627C43.8324 74.9417 43.4638 74.71 43.3796 74.3415C43.2954 73.973 43.527 73.6044 43.9008 73.5202C43.9903 73.4992 46.0804 73.0464 48.3389 73.8045C48.6969 73.9256 48.8917 74.3152 48.7706 74.6732C48.6759 74.9627 48.4074 75.1417 48.1178 75.1417Z" fill="#D1373F"/>
<path d="M92.7988 78.8533C97.953 86.0502 109.051 81.1856 108.298 71.6354C107.614 62.975 97.9372 64.3438 97.9372 64.3438L92.7988 78.8481V78.8533Z" fill="#F55B5D"/>
<path d="M97.0213 79.8641C93.3203 81.3698 90.709 85.0077 90.709 89.2406C90.709 94.8211 95.2471 99.3646 100.828 99.3646C106.408 99.3646 110.946 94.8211 110.946 89.2406C110.946 84.5234 107.709 80.5591 103.334 79.4377C102.676 79.2692 101.996 79.1639 101.291 79.1324C101.18 79.464 101.101 79.801 101.075 80.159C101.496 80.1695 101.918 80.2116 102.323 80.2801C106.624 80.9961 109.909 84.7392 109.909 89.2406C109.909 94.2525 105.834 98.3327 100.822 98.3327C95.8105 98.3327 91.7356 94.2525 91.7356 89.2406C91.7356 85.65 93.8309 82.5386 96.8687 81.0645L97.0161 79.8694L97.0213 79.8641Z" fill="#F5EFFF"/>
<path d="M97.5475 79.0323C97.4949 79.0323 97.437 79.0271 97.3843 79.0113C97.0158 78.9218 96.7894 78.548 96.8789 78.1795C97.9898 73.6624 102.417 69.6822 102.607 69.5138C102.891 69.2611 103.328 69.2874 103.576 69.5717C103.828 69.856 103.802 70.2877 103.518 70.5404C103.476 70.5772 99.2164 74.4047 98.2109 78.5059C98.1319 78.8217 97.8529 79.0323 97.5423 79.0323H97.5475Z" fill="#D1373F"/>
<path d="M99.3216 75.1417C99.032 75.1417 98.7635 74.9575 98.6688 74.6732C98.5477 74.3152 98.7425 73.9256 99.1005 73.8045C101.359 73.0464 103.449 73.5044 103.539 73.5202C103.907 73.6044 104.144 73.973 104.06 74.3415C103.976 74.71 103.607 74.9417 103.239 74.8627C103.212 74.8574 101.417 74.4784 99.5375 75.1049C99.4637 75.1312 99.39 75.1417 99.3216 75.1417Z" fill="#D1373F"/>
<path d="M47.449 53.825C47.449 53.825 44.9325 69.4348 51.4555 84.7024C57.3677 98.538 65.2332 102.855 73.604 102.987C83.1226 103.134 103.06 97.6325 99.9064 52.4562C97.7742 21.9368 49.9656 23.0108 47.449 53.825Z" fill="#FF8881"/>
<path d="M99.3215 55.415C86.4546 55.7467 77.4519 52.3036 71.6713 48.7867C74.0299 52.0298 78.0311 54.0936 78.0311 54.0936C69.7339 56.2152 64.3639 48.3287 62.0633 43.8748C55.9352 53.4407 47.1326 58 47.1326 58C41.81 25.5168 64.664 22.816 83.222 24.5744C100.569 26.217 109.235 55.157 99.3215 55.415Z" fill="#19274B"/>
<path d="M54.4456 51.6454C54.4456 51.6454 49.8916 60.6849 51.3868 70.035C52.8293 79.0534 52.1818 87.7191 47.7331 89.2458C47.7331 89.2458 50.755 84.9182 47.9963 77.474C45.2376 70.0297 44.5058 60.1584 46.3379 55.5939C48.1701 51.0294 54.4403 51.6401 54.4403 51.6401L54.4456 51.6454Z" fill="#19274B"/>
<path d="M93.6572 51.6454C93.6572 51.6454 98.2112 60.6849 96.716 70.035C95.2735 79.0534 95.921 87.7191 100.37 89.2458C100.37 89.2458 97.3478 84.9182 100.106 77.474C102.865 70.0297 103.597 60.1584 101.765 55.5939C99.9327 51.0294 93.6625 51.6401 93.6625 51.6401L93.6572 51.6454Z" fill="#19274B"/>
<path d="M56.3359 61.7325C56.3359 61.7325 59.9844 56.6574 66.2704 55.9993C67.2918 55.894 68.192 56.6732 68.2552 57.6998V57.7156C68.3184 58.7527 67.4971 59.6267 66.4599 59.6425C64.1014 59.674 59.958 60.011 56.3412 61.7273L56.3359 61.7325Z" fill="#19274B"/>
<path d="M91.5985 61.7325C91.5985 61.7325 87.95 56.6574 81.664 55.9993C80.6426 55.894 79.7424 56.6732 79.6792 57.6998V57.7156C79.616 58.7527 80.4373 59.6267 81.4745 59.6425C83.833 59.674 87.9764 60.011 91.5932 61.7273L91.5985 61.7325Z" fill="#19274B"/>
<path d="M74.7888 94.8844C72.825 94.8844 71.2772 94.2 71.1772 94.1526C70.8876 94.021 70.7613 93.684 70.8929 93.3945C71.0245 93.1049 71.3614 92.9786 71.651 93.1102C71.6984 93.1313 75.231 94.6738 78.0581 92.8101C78.3214 92.6364 78.6794 92.7101 78.8531 92.9733C79.0268 93.2365 78.9531 93.5945 78.6899 93.7683C77.3948 94.6212 76.0154 94.8844 74.7888 94.8844Z" fill="#F55B5D"/>
<path d="M76.8154 80.2748C76.8154 80.2748 76.7838 80.2748 76.768 80.2748L72.5773 79.9379C72.2614 79.9115 72.0245 79.6378 72.0508 79.3219C72.0771 79.006 72.3562 78.7691 72.6668 78.7954L76.1731 79.0797L75.078 68.424C75.0464 68.1081 75.2728 67.8291 75.5887 67.7975C75.8993 67.7659 76.1836 67.9923 76.2152 68.3082L77.3787 79.6483C77.3945 79.8168 77.3366 79.9853 77.2208 80.1063C77.1102 80.2169 76.9628 80.2801 76.8101 80.2801L76.8154 80.2748Z" fill="#F55B5D"/>
<path d="M65.791 84.8445C70.9451 85.65 76.1993 85.9975 83.2171 84.6023C83.2171 84.6023 82.6117 92.1098 74.2724 92.1414C67.1809 92.1677 65.791 84.8498 65.791 84.8498V84.8445Z" fill="#F5EFFF"/>
<path d="M65.3804 68.3608C65.3804 70.3508 64.4749 71.9618 63.364 71.9618C62.2532 71.9618 61.3477 70.3508 61.3477 68.3608C61.3477 66.3707 62.2532 64.7597 63.364 64.7597C64.4749 64.7597 65.3804 66.3707 65.3804 68.3608Z" fill="#19274B"/>
<path d="M86.8452 68.3608C86.8452 70.3508 85.9397 71.9618 84.8289 71.9618C83.718 71.9618 82.8125 70.3508 82.8125 68.3608C82.8125 66.3707 83.718 64.7597 84.8289 64.7597C85.9397 64.7597 86.8452 66.3707 86.8452 68.3608Z" fill="#19274B"/>
<path d="M58.0052 75.7419C58.0052 76.0841 57.7261 76.3632 57.3839 76.3632C57.0417 76.3632 56.7627 76.0841 56.7627 75.7419C56.7627 75.3997 57.0417 75.1207 57.3839 75.1207C57.7261 75.1207 58.0052 75.3997 58.0052 75.7419Z" fill="#F55B5D"/>
<path d="M61.0276 77.2371C61.0276 77.5793 60.7486 77.8584 60.4064 77.8584C60.0642 77.8584 59.7852 77.5793 59.7852 77.2371C59.7852 76.8949 60.0642 76.6159 60.4064 76.6159C60.7486 76.6159 61.0276 76.8949 61.0276 77.2371Z" fill="#F55B5D"/>
<path d="M58.0052 79.3904C58.0052 79.7326 57.7261 80.0116 57.3839 80.0116C57.0417 80.0116 56.7627 79.7326 56.7627 79.3904C56.7627 79.0482 57.0417 78.7691 57.3839 78.7691C57.7261 78.7691 58.0052 79.0482 58.0052 79.3904Z" fill="#F55B5D"/>
<path d="M62.1378 80.6276C62.4809 80.6276 62.7591 80.3494 62.7591 80.0063C62.7591 79.6632 62.4809 79.3851 62.1378 79.3851C61.7947 79.3851 61.5166 79.6632 61.5166 80.0063C61.5166 80.3494 61.7947 80.6276 62.1378 80.6276Z" fill="#F55B5D"/>
<path d="M65.3019 80.0116C65.645 80.0116 65.9231 79.7335 65.9231 79.3904C65.9231 79.0473 65.645 78.7691 65.3019 78.7691C64.9588 78.7691 64.6807 79.0473 64.6807 79.3904C64.6807 79.7335 64.9588 80.0116 65.3019 80.0116Z" fill="#F55B5D"/>
<path d="M64.4807 76.3632C64.4807 76.7054 64.2017 76.9845 63.8595 76.9845C63.5173 76.9845 63.2383 76.7054 63.2383 76.3632C63.2383 76.021 63.5173 75.742 63.8595 75.742C64.2017 75.742 64.4807 76.021 64.4807 76.3632Z" fill="#F55B5D"/>
<path d="M92.0099 76.3632C92.353 76.3632 92.6311 76.0851 92.6311 75.742C92.6311 75.3989 92.353 75.1208 92.0099 75.1208C91.6668 75.1208 91.3887 75.3989 91.3887 75.742C91.3887 76.0851 91.6668 76.3632 92.0099 76.3632Z" fill="#F55B5D"/>
<path d="M88.9874 77.8584C89.3305 77.8584 89.6087 77.5802 89.6087 77.2371C89.6087 76.894 89.3305 76.6159 88.9874 76.6159C88.6444 76.6159 88.3662 76.894 88.3662 77.2371C88.3662 77.5802 88.6444 77.8584 88.9874 77.8584Z" fill="#F55B5D"/>
<path d="M92.0099 80.0116C92.353 80.0116 92.6311 79.7335 92.6311 79.3904C92.6311 79.0473 92.353 78.7691 92.0099 78.7691C91.6668 78.7691 91.3887 79.0473 91.3887 79.3904C91.3887 79.7335 91.6668 80.0116 92.0099 80.0116Z" fill="#F55B5D"/>
<path d="M87.2609 80.6276C87.604 80.6276 87.8821 80.3494 87.8821 80.0063C87.8821 79.6632 87.604 79.3851 87.2609 79.3851C86.9178 79.3851 86.6396 79.6632 86.6396 80.0063C86.6396 80.3494 86.9178 80.6276 87.2609 80.6276Z" fill="#F55B5D"/>
<path d="M83.4756 79.3904C83.4756 79.7326 83.7546 80.0116 84.0968 80.0116C84.439 80.0116 84.7181 79.7326 84.7181 79.3904C84.7181 79.0482 84.439 78.7691 84.0968 78.7691C83.7546 78.7691 83.4756 79.0482 83.4756 79.3904Z" fill="#F55B5D"/>
<path d="M85.5343 76.9845C85.8774 76.9845 86.1556 76.7063 86.1556 76.3632C86.1556 76.0201 85.8774 75.742 85.5343 75.742C85.1912 75.742 84.9131 76.0201 84.9131 76.3632C84.9131 76.7063 85.1912 76.9845 85.5343 76.9845Z" fill="#F55B5D"/>
</g>
</g>
<defs>
<filter id="filter0_i_413_234" x="3.25391" y="5.5098" width="143.049" height="143.049" filterUnits="userSpaceOnUse" color-interpolation-filters="sRGB">
<feFlood flood-opacity="0" result="BackgroundImageFix"/>
<feBlend mode="normal" in="SourceGraphic" in2="BackgroundImageFix" result="shape"/>
<feColorMatrix in="SourceAlpha" type="matrix" values="0 0 0 0 0 0 0 0 0 0 0 0 0 0 0 0 0 0 127 0" result="hardAlpha"/>
<feOffset dy="-4.95714"/>
<feComposite in2="hardAlpha" operator="arithmetic" k2="-1" k3="1"/>
<feColorMatrix type="matrix" values="0 0 0 0 0.754167 0 0 0 0 0.741597 0 0 0 0 0.741597 0 0 0 0.19 0"/>
<feBlend mode="normal" in2="shape" result="effect1_innerShadow_413_234"/>
</filter>
<clipPath id="clip0_413_234">
<rect width="136.466" height="126.879" fill="white" transform="translate(5.83691 21.6893)"/>
</clipPath>
</defs>
</svg>
