<svg width="446" height="371" viewBox="0 0 446 371" fill="none" xmlns="http://www.w3.org/2000/svg">
<path d="M190.808 237.505L189.987 242.532L189.112 247.934L181.075 297.199H167.939L175.967 247.934L176.851 242.532L177.673 237.505H190.808Z" fill="#EBEBEB"/>
<path d="M188.906 237.505C188.21 242.496 187.469 247.479 186.719 252.453L184.397 267.392L181.968 282.305L180.718 289.752L179.414 297.199L180.486 289.716L181.602 282.242L183.95 267.312L186.379 252.399C187.174 247.425 188.013 242.46 188.906 237.505Z" fill="#C7C7C7"/>
<path d="M189.987 242.532L189.112 247.934H175.968L176.852 242.532H189.987Z" fill="#C7C7C7"/>
<path d="M255.673 237.505L256.495 242.532L257.37 247.934L265.407 297.199H278.542L270.514 247.934L269.63 242.532L268.809 237.505H255.673Z" fill="#EBEBEB"/>
<path d="M257.62 237.505C258.308 242.496 259.058 247.479 259.808 252.453L262.121 267.392L264.55 282.305L265.809 289.752L267.112 297.199L266.041 289.716L264.925 282.242L262.603 267.312L260.174 252.399C259.344 247.425 258.504 242.46 257.62 237.505Z" fill="#C7C7C7"/>
<path d="M256.495 242.532H269.631L270.515 247.934H257.37L256.495 242.532Z" fill="#C7C7C7"/>
<path d="M190.327 223.646H179.915L181.209 213.93H189.032L190.327 223.646Z" fill="#C7C7C7"/>
<path d="M194.686 208.695C195.617 203.416 192.093 198.381 186.814 197.449C181.535 196.517 176.5 200.041 175.568 205.321C174.636 210.6 178.16 215.635 183.44 216.567C188.719 217.498 193.754 213.974 194.686 208.695Z" fill="#DBDBDB"/>
<path d="M192.306 208.697C193.247 204.728 190.792 200.749 186.823 199.808C182.854 198.868 178.875 201.323 177.935 205.292C176.994 209.26 179.449 213.24 183.418 214.18C187.386 215.121 191.366 212.666 192.306 208.697Z" fill="white"/>
<path d="M191.291 206.563C191.222 205.683 190.973 204.827 190.558 204.048C190.143 203.269 189.572 202.584 188.88 202.036C188.183 201.495 187.384 201.101 186.53 200.879C185.677 200.656 184.787 200.609 183.915 200.741C183.049 200.878 182.222 201.194 181.486 201.671C180.751 202.148 180.124 202.774 179.646 203.509C179.142 204.295 178.812 205.18 178.678 206.104C178.544 207.028 178.609 207.97 178.87 208.867C179.313 210.417 180.349 211.729 181.754 212.519C183.124 213.297 184.732 213.545 186.272 213.216C187.762 212.897 189.099 212.078 190.058 210.894C191.006 209.725 191.554 208.282 191.621 206.778C191.621 206.715 191.621 206.653 191.559 206.653C191.496 206.653 191.496 206.706 191.496 206.778C191.462 207.386 191.345 207.987 191.148 208.564C190.942 209.13 190.669 209.669 190.335 210.171C189.983 210.657 189.576 211.101 189.121 211.492C188.653 211.883 188.141 212.216 187.594 212.484C186.808 212.854 185.953 213.056 185.084 213.078C184.216 213.1 183.352 212.94 182.549 212.609C181.743 212.267 181.02 211.755 180.432 211.108C179.843 210.46 179.401 209.693 179.137 208.858C178.866 208.001 178.784 207.095 178.895 206.203C179.006 205.311 179.308 204.453 179.78 203.688C180.237 202.962 180.844 202.343 181.56 201.872C182.277 201.4 183.085 201.088 183.933 200.955C185.077 200.774 186.25 200.904 187.326 201.333C188.403 201.762 189.344 202.474 190.049 203.393C190.389 203.867 190.665 204.384 190.871 204.929C191.07 205.483 191.202 206.059 191.264 206.644C191.264 206.644 191.291 206.59 191.291 206.563Z" fill="#EBEBEB"/>
<path d="M190.424 206.572C190.361 205.819 190.142 205.087 189.783 204.421C189.423 203.756 188.93 203.172 188.335 202.706C187.738 202.247 187.055 201.911 186.327 201.718C185.599 201.525 184.84 201.478 184.093 201.581C183.347 201.692 182.633 201.959 181.998 202.366C181.362 202.772 180.819 203.308 180.405 203.938C179.965 204.611 179.673 205.37 179.55 206.165C179.427 206.959 179.475 207.771 179.691 208.546C179.875 209.217 180.191 209.844 180.621 210.391C181.05 210.938 181.584 211.395 182.191 211.734C183.384 212.416 184.789 212.626 186.129 212.323C187.422 212.044 188.58 211.329 189.406 210.296C190.225 209.28 190.698 208.028 190.755 206.724C190.755 206.671 190.755 206.617 190.701 206.617C190.648 206.617 190.63 206.662 190.63 206.724C190.557 207.771 190.205 208.779 189.612 209.644C189.018 210.509 188.204 211.2 187.254 211.645C186.578 211.973 185.84 212.155 185.089 212.176C184.338 212.198 183.59 212.059 182.897 211.77C182.199 211.474 181.574 211.031 181.065 210.469C180.556 209.908 180.175 209.242 179.95 208.519C179.718 207.777 179.651 206.993 179.753 206.222C179.854 205.451 180.123 204.711 180.539 204.054C180.933 203.435 181.456 202.908 182.072 202.51C182.689 202.112 183.385 201.853 184.111 201.75C185.083 201.606 186.076 201.722 186.989 202.085C187.902 202.449 188.702 203.049 189.308 203.822C189.6 204.225 189.84 204.663 190.023 205.126C190.19 205.6 190.307 206.091 190.371 206.59L190.424 206.572Z" fill="#EBEBEB"/>
<path d="M189.559 206.581C189.494 205.954 189.303 205.346 188.996 204.795C188.689 204.243 188.273 203.761 187.773 203.376C186.769 202.612 185.506 202.272 184.254 202.429C183.628 202.512 183.026 202.726 182.489 203.059C181.952 203.391 181.491 203.834 181.138 204.358C180.756 204.923 180.5 205.565 180.387 206.238C180.275 206.911 180.309 207.601 180.486 208.26C180.636 208.835 180.901 209.373 181.265 209.843C181.629 210.312 182.084 210.703 182.602 210.993C183.626 211.565 184.826 211.737 185.969 211.475C187.071 211.219 188.049 210.587 188.737 209.689C189.418 208.827 189.817 207.776 189.88 206.68C189.88 206.626 189.88 206.581 189.818 206.581C189.807 206.582 189.797 206.586 189.787 206.591C189.778 206.596 189.77 206.603 189.763 206.611C189.757 206.619 189.752 206.629 189.749 206.639C189.746 206.649 189.745 206.66 189.746 206.671C189.677 207.549 189.378 208.394 188.88 209.122C188.381 209.849 187.701 210.432 186.906 210.814C186.337 211.095 185.715 211.252 185.08 211.273C184.446 211.295 183.814 211.181 183.227 210.939C182.634 210.694 182.103 210.32 181.672 209.844C181.241 209.368 180.922 208.803 180.736 208.189C180.551 207.563 180.503 206.905 180.596 206.259C180.688 205.614 180.919 204.996 181.272 204.447C181.609 203.936 182.052 203.504 182.572 203.181C183.091 202.857 183.674 202.649 184.281 202.572C185.084 202.477 185.897 202.572 186.656 202.849C187.421 203.139 188.091 203.633 188.594 204.277C188.843 204.606 189.047 204.967 189.201 205.349C189.351 205.741 189.456 206.148 189.514 206.563C189.514 206.563 189.568 206.59 189.559 206.581Z" fill="#EBEBEB"/>
<path d="M188.701 206.59C188.57 205.583 188.047 204.669 187.246 204.045C186.444 203.446 185.446 203.171 184.451 203.277C183.944 203.336 183.456 203.501 183.018 203.761C182.579 204.021 182.2 204.371 181.906 204.787C181.586 205.245 181.368 205.767 181.266 206.317C181.164 206.867 181.182 207.432 181.316 207.974C181.435 208.452 181.65 208.9 181.95 209.29C182.25 209.681 182.627 210.005 183.058 210.243C183.906 210.712 184.9 210.849 185.844 210.626C186.741 210.409 187.538 209.893 188.103 209.162C188.64 208.448 188.951 207.59 188.996 206.697C188.997 206.688 188.996 206.679 188.994 206.669C188.991 206.66 188.987 206.652 188.981 206.644C188.976 206.637 188.968 206.63 188.96 206.626C188.952 206.621 188.943 206.618 188.933 206.617C188.933 206.617 188.871 206.617 188.862 206.689C188.808 207.396 188.575 208.078 188.185 208.67C187.794 209.262 187.259 209.745 186.629 210.073C186.17 210.313 185.663 210.45 185.145 210.475C184.627 210.5 184.11 210.411 183.629 210.216C183.142 210.015 182.707 209.707 182.356 209.314C182.005 208.921 181.747 208.454 181.602 207.948C181.459 207.44 181.428 206.907 181.511 206.385C181.595 205.864 181.79 205.368 182.084 204.929C182.36 204.526 182.72 204.187 183.14 203.936C183.559 203.685 184.027 203.527 184.513 203.474C185.148 203.416 185.788 203.499 186.388 203.715C186.991 203.938 187.524 204.317 187.933 204.813C188.129 205.076 188.294 205.361 188.424 205.662C188.551 205.975 188.644 206.302 188.701 206.635V206.59Z" fill="#EBEBEB"/>
<path d="M266.344 223.646H255.923L257.218 213.93H265.049L266.344 223.646Z" fill="#C7C7C7"/>
<path d="M270.891 207.847C271.695 202.54 268.045 197.586 262.738 196.782C257.431 195.977 252.476 199.628 251.672 204.935C250.868 210.242 254.519 215.196 259.826 216C265.133 216.805 270.087 213.154 270.891 207.847Z" fill="#DBDBDB"/>
<path d="M268.428 208.103C269.043 204.072 266.273 200.305 262.241 199.69C258.209 199.075 254.442 201.845 253.827 205.877C253.212 209.909 255.982 213.676 260.014 214.291C264.046 214.906 267.813 212.135 268.428 208.103Z" fill="white"/>
<path d="M267.308 206.563C267.238 205.684 266.988 204.828 266.573 204.049C266.158 203.271 265.588 202.585 264.897 202.036C264.2 201.496 263.401 201.102 262.548 200.88C261.694 200.657 260.805 200.61 259.932 200.741C259.067 200.878 258.239 201.195 257.504 201.672C256.769 202.148 256.142 202.775 255.664 203.509C255.156 204.294 254.824 205.179 254.69 206.103C254.556 207.028 254.623 207.971 254.887 208.867C255.327 210.419 256.365 211.732 257.772 212.519C259.141 213.298 260.749 213.546 262.29 213.216C263.78 212.897 265.116 212.078 266.076 210.894C267.024 209.725 267.572 208.282 267.639 206.778C267.639 206.715 267.639 206.653 267.576 206.653C267.514 206.653 267.514 206.706 267.505 206.778C267.47 207.385 267.355 207.986 267.166 208.564C266.961 209.132 266.685 209.672 266.344 210.171C265.646 211.166 264.701 211.963 263.603 212.484C262.819 212.857 261.965 213.06 261.098 213.082C260.23 213.104 259.368 212.942 258.566 212.609C257.759 212.268 257.035 211.756 256.445 211.109C255.854 210.461 255.411 209.694 255.146 208.858C254.877 208 254.795 207.094 254.908 206.202C255.02 205.31 255.324 204.452 255.798 203.688C256.255 202.962 256.862 202.343 257.578 201.872C258.294 201.4 259.103 201.088 259.95 200.956C261.095 200.774 262.267 200.904 263.344 201.333C264.421 201.762 265.361 202.474 266.067 203.393C266.403 203.869 266.679 204.385 266.889 204.929C267.085 205.483 267.214 206.059 267.273 206.644C267.273 206.644 267.308 206.59 267.308 206.563Z" fill="#EBEBEB"/>
<path d="M266.443 206.572C266.375 205.82 266.154 205.089 265.795 204.424C265.436 203.76 264.945 203.175 264.353 202.706C263.756 202.247 263.073 201.911 262.345 201.718C261.617 201.525 260.858 201.478 260.111 201.581C259.364 201.691 258.648 201.958 258.011 202.364C257.374 202.77 256.83 203.307 256.415 203.938C255.974 204.611 255.683 205.37 255.559 206.165C255.436 206.959 255.484 207.771 255.7 208.546C255.885 209.217 256.201 209.844 256.63 210.391C257.059 210.938 257.593 211.395 258.201 211.734C259.394 212.414 260.798 212.624 262.139 212.323C263.435 212.046 264.596 211.33 265.425 210.296C266.24 209.278 266.712 208.027 266.773 206.724C266.773 206.671 266.773 206.617 266.71 206.617C266.648 206.617 266.648 206.662 266.639 206.724C266.568 207.77 266.218 208.778 265.626 209.643C265.034 210.508 264.222 211.199 263.273 211.645C262.597 211.973 261.859 212.155 261.107 212.176C260.356 212.198 259.609 212.059 258.915 211.77C258.215 211.476 257.588 211.033 257.077 210.471C256.567 209.91 256.185 209.244 255.959 208.519C255.73 207.776 255.665 206.993 255.766 206.222C255.868 205.452 256.135 204.712 256.549 204.054C256.944 203.436 257.467 202.911 258.083 202.513C258.7 202.116 259.395 201.856 260.12 201.75C261.095 201.602 262.092 201.715 263.009 202.079C263.925 202.443 264.728 203.045 265.335 203.822C265.63 204.223 265.87 204.662 266.05 205.126C266.225 205.598 266.342 206.09 266.398 206.59C266.406 206.59 266.414 206.589 266.422 206.586C266.43 206.583 266.437 206.578 266.443 206.572Z" fill="#EBEBEB"/>
<path d="M265.576 206.581C265.508 205.955 265.315 205.348 265.008 204.797C264.701 204.247 264.287 203.763 263.79 203.376C262.786 202.614 261.523 202.274 260.272 202.429C259.649 202.514 259.051 202.73 258.517 203.062C257.983 203.395 257.525 203.836 257.174 204.358C256.792 204.924 256.536 205.565 256.422 206.238C256.308 206.91 256.339 207.6 256.513 208.26C256.667 208.834 256.935 209.371 257.3 209.841C257.665 210.31 258.12 210.701 258.638 210.992C259.659 211.564 260.855 211.736 261.996 211.475C263.1 211.218 264.081 210.587 264.773 209.689C265.455 208.828 265.852 207.776 265.907 206.679C265.907 206.626 265.907 206.581 265.853 206.581C265.843 206.582 265.832 206.586 265.823 206.591C265.814 206.596 265.805 206.603 265.799 206.611C265.792 206.619 265.787 206.629 265.784 206.639C265.781 206.649 265.781 206.66 265.782 206.671C265.711 207.549 265.411 208.393 264.913 209.12C264.415 209.847 263.736 210.431 262.942 210.814C262.373 211.095 261.751 211.252 261.116 211.273C260.482 211.295 259.85 211.181 259.263 210.939C258.67 210.694 258.139 210.32 257.708 209.844C257.277 209.368 256.957 208.803 256.772 208.189C256.587 207.563 256.539 206.905 256.631 206.259C256.724 205.614 256.954 204.996 257.308 204.447C257.642 203.936 258.083 203.503 258.601 203.179C259.119 202.856 259.702 202.648 260.308 202.572C261.113 202.476 261.93 202.571 262.692 202.849C263.457 203.138 264.127 203.633 264.63 204.277C264.879 204.606 265.083 204.967 265.237 205.349C265.379 205.743 265.483 206.15 265.55 206.563C265.556 206.572 265.566 206.578 265.576 206.581Z" fill="#EBEBEB"/>
<path d="M264.71 206.59C264.649 206.092 264.489 205.61 264.241 205.173C263.993 204.737 263.661 204.353 263.264 204.045C262.462 203.446 261.464 203.172 260.469 203.277C259.961 203.332 259.472 203.496 259.033 203.756C258.594 204.016 258.215 204.368 257.924 204.786C257.604 205.245 257.386 205.767 257.284 206.316C257.182 206.866 257.2 207.432 257.334 207.974C257.453 208.452 257.669 208.9 257.968 209.29C258.268 209.68 258.645 210.005 259.076 210.242C259.921 210.712 260.912 210.848 261.853 210.626C262.752 210.407 263.551 209.891 264.121 209.162C264.658 208.448 264.97 207.59 265.014 206.697C265.017 206.688 265.017 206.679 265.016 206.67C265.015 206.661 265.011 206.652 265.006 206.644C265.001 206.637 264.994 206.63 264.986 206.626C264.978 206.621 264.969 206.618 264.96 206.617C264.941 206.617 264.923 206.624 264.91 206.638C264.896 206.651 264.889 206.669 264.889 206.688C264.824 207.399 264.577 208.082 264.172 208.67C263.767 209.258 263.217 209.732 262.576 210.046C262.118 210.285 261.613 210.421 261.096 210.446C260.58 210.471 260.064 210.383 259.585 210.189C259.098 209.988 258.662 209.68 258.311 209.287C257.96 208.894 257.702 208.427 257.558 207.921C257.415 207.413 257.384 206.88 257.467 206.359C257.55 205.837 257.746 205.341 258.04 204.902C258.316 204.499 258.675 204.16 259.095 203.908C259.514 203.657 259.983 203.5 260.469 203.447C261.101 203.389 261.738 203.472 262.335 203.688C262.939 203.908 263.473 204.288 263.88 204.786C264.082 205.047 264.25 205.332 264.38 205.635C264.507 205.948 264.599 206.275 264.657 206.608C264.657 206.608 264.719 206.599 264.71 206.59Z" fill="#EBEBEB"/>
<path d="M288.695 218.699H157.778V243.737H288.695V218.699Z" fill="#DBDBDB"/>
<path d="M184.692 218.699L175.191 243.737H158.278L167.779 218.699H184.692Z" fill="#EBEBEB"/>
<path d="M219.348 218.699L209.847 243.737H192.934L202.435 218.699H219.348Z" fill="#EBEBEB"/>
<path d="M253.995 218.699L244.503 243.737H227.59L237.091 218.699H253.995Z" fill="#EBEBEB"/>
<path d="M288.659 218.699L279.158 243.737H262.246L271.747 218.699H288.659Z" fill="#EBEBEB"/>
<path d="M286.052 266.892H160.43V282.742H286.052V266.892Z" fill="#DBDBDB"/>
<path d="M186.246 266.892L177.137 282.733H160.912L170.029 266.892H186.246Z" fill="#EBEBEB"/>
<path d="M219.508 266.892L210.391 282.733H194.157L203.274 266.892H219.508Z" fill="#EBEBEB"/>
<path d="M252.753 266.892L243.636 282.733H227.411L236.528 266.892H252.753Z" fill="#EBEBEB"/>
<path d="M286.007 266.892L276.89 282.733H260.665L269.782 266.892H286.007Z" fill="#EBEBEB"/>
<path d="M417.728 99.4434H316.663C316.663 99.4434 326.682 72.0741 342.103 72.0741C357.525 72.0741 362.356 90.9603 362.356 90.9603C362.356 90.9603 372.759 80.7001 381.313 80.7001C389.868 80.7001 397.288 94.2642 397.288 94.2642C397.288 94.2642 409.37 86.9687 417.728 99.4434Z" fill="#EBEBEB"/>
<path d="M126.492 16.1477H79.2627C79.2627 16.1477 89.8086 0.860107 98.131 0.860107C106.453 0.860107 108.9 11.0488 108.9 11.0488C108.9 11.0488 114.767 6.29826 120.205 7.14657C125.643 7.99489 126.492 16.1477 126.492 16.1477Z" fill="#EBEBEB"/>
<path d="M401.638 145.342H354.409C354.409 145.342 364.964 130.054 373.277 130.054C381.59 130.054 384.046 140.243 384.046 140.243C384.046 140.243 389.913 135.483 395.351 136.341C400.789 137.198 401.638 145.342 401.638 145.342Z" fill="#EBEBEB"/>
<path d="M120.756 73.5653H28.7534C28.7534 73.5653 41.3531 45.437 54.828 43.6778C68.3028 41.9187 74.75 64.5732 74.75 64.5732C74.75 64.5732 83.4475 56.5365 90.2786 56.5365C97.1098 56.5365 102.387 67.0824 102.387 67.0824C102.387 67.0824 116.085 59.8851 120.756 73.5653Z" fill="#EBEBEB"/>
<path d="M32.0659 297.422L79.4109 297.208L126.765 297.128L221.455 296.976L316.153 297.128L363.498 297.208L410.843 297.422L363.498 297.637L316.153 297.717L221.455 297.869L126.765 297.717L79.4109 297.637L32.0659 297.422Z" fill="#263238"/>
<path d="M223.241 367.797C326.851 367.797 410.844 358.006 410.844 345.928C410.844 333.851 326.851 324.06 223.241 324.06C119.631 324.06 35.6382 333.851 35.6382 345.928C35.6382 358.006 119.631 367.797 223.241 367.797Z" fill="#EBEBEB"/>
<path d="M247.77 350.009C249.628 350.634 302.795 350.822 304.831 349.545C305.608 349.063 306.081 341.321 306.393 331.953C306.465 329.926 306.518 327.837 306.572 325.703L310.876 297.351L275.336 297.119L271.979 325.488L272.113 331.739C272.113 331.739 251.726 340.776 249.646 342.41C247.565 344.044 245.922 349.375 247.77 350.009Z" fill="#EB9481"/>
<path d="M247.77 350.009C249.628 350.634 302.795 350.822 304.831 349.545C305.768 348.955 306.286 337.65 306.572 325.711L271.979 325.497L272.113 331.748C272.113 331.748 251.726 340.785 249.646 342.419C247.565 344.053 245.922 349.375 247.77 350.009Z" fill="white"/>
<path d="M247.77 350.009C249.628 350.634 302.795 350.822 304.831 349.545C305.608 349.062 306.081 341.32 306.393 331.953L272.113 331.73C272.113 331.73 251.726 340.767 249.646 342.401C247.565 344.035 245.922 349.375 247.77 350.009Z" fill="#FF8881"/>
<path d="M248.548 347.884C257.477 347.696 293.428 347.777 302.25 348.268C302.322 348.268 302.322 348.321 302.25 348.33C293.419 348.705 257.45 348.33 248.539 348.027C248.351 348.018 248.36 347.884 248.548 347.884Z" fill="#263238"/>
<path d="M253.074 340.499C254.071 340.471 255.063 340.652 255.986 341.03C256.909 341.409 257.742 341.976 258.432 342.696C259.68 343.973 260.389 345.68 260.415 347.464C260.415 347.518 260.307 347.518 260.298 347.464C260.007 345.704 259.154 344.086 257.866 342.851C256.578 341.617 254.925 340.832 253.155 340.615C253.139 340.626 253.12 340.63 253.102 340.627C253.083 340.623 253.067 340.613 253.057 340.597C253.046 340.582 253.042 340.563 253.045 340.545C253.048 340.526 253.059 340.51 253.074 340.499Z" fill="#263238"/>
<path d="M268.657 332.605C272.229 332.605 276.354 333.847 278.56 336.767C278.649 336.883 278.489 336.999 278.382 336.945C275.255 335.3 271.962 333.992 268.559 333.043C268.501 333.03 268.45 332.994 268.419 332.944C268.387 332.894 268.376 332.833 268.389 332.775C268.402 332.717 268.438 332.666 268.488 332.635C268.538 332.603 268.599 332.592 268.657 332.605Z" fill="#263238"/>
<path d="M265.898 333.668C269.47 333.668 273.595 334.909 275.801 337.838C275.89 337.945 275.729 338.07 275.622 338.008C272.498 336.36 269.204 335.055 265.8 334.114C265.749 334.093 265.708 334.055 265.683 334.007C265.657 333.959 265.65 333.903 265.662 333.85C265.673 333.797 265.703 333.749 265.747 333.716C265.79 333.683 265.843 333.666 265.898 333.668Z" fill="#263238"/>
<path d="M263.138 334.739C266.71 334.695 270.835 335.972 273.05 338.901C273.13 339.008 272.97 339.133 272.862 339.079C269.74 337.425 266.446 336.116 263.04 335.177C262.982 335.164 262.931 335.128 262.9 335.078C262.868 335.028 262.857 334.967 262.87 334.909C262.883 334.851 262.919 334.8 262.969 334.769C263.019 334.737 263.08 334.726 263.138 334.739Z" fill="#263238"/>
<path d="M260.379 335.802C263.951 335.802 268.086 337.034 270.291 339.963C270.372 340.07 270.211 340.195 270.104 340.142C266.981 338.487 263.688 337.179 260.281 336.24C260.223 336.226 260.173 336.191 260.141 336.141C260.109 336.09 260.098 336.03 260.111 335.972C260.124 335.914 260.16 335.863 260.21 335.831C260.26 335.799 260.321 335.789 260.379 335.802Z" fill="#263238"/>
<path d="M300.036 339.794C304.045 339.794 304.01 346.044 300.036 346.044C296.062 346.044 296 339.767 300.036 339.794Z" fill="#263238"/>
<path d="M265.103 328.301C267.014 330.793 269.943 332.373 272.479 334.132C272.538 334.166 272.605 334.185 272.673 334.189C272.742 334.192 272.81 334.179 272.872 334.152C272.935 334.124 272.99 334.082 273.033 334.029C273.077 333.976 273.107 333.913 273.122 333.847C273.136 333.85 273.15 333.849 273.164 333.845C273.178 333.842 273.19 333.835 273.201 333.825C273.211 333.816 273.219 333.804 273.224 333.79C273.229 333.777 273.231 333.763 273.229 333.748C272.981 330.475 271.875 327.324 270.023 324.613C268.916 323.051 266.648 321.586 264.835 323.078C263.022 324.569 263.978 326.855 265.103 328.301ZM264.942 325.346C265.317 321.47 268.809 324.453 269.577 325.64C270.061 326.415 270.493 327.22 270.872 328.051C271.624 329.782 272.288 331.549 272.863 333.347C271.675 332.4 270.407 331.561 269.184 330.668C267.728 329.605 264.746 327.489 264.942 325.346Z" fill="#263238"/>
<path d="M285.909 331.516C285.641 329.185 282.98 328.676 281.105 329.024C277.893 329.698 274.913 331.2 272.461 333.382C272.448 333.39 272.438 333.401 272.43 333.414C272.423 333.428 272.419 333.443 272.419 333.458C272.419 333.473 272.423 333.488 272.43 333.501C272.438 333.515 272.448 333.526 272.461 333.534C272.424 333.591 272.4 333.657 272.393 333.726C272.386 333.794 272.396 333.863 272.421 333.927C272.447 333.991 272.487 334.048 272.539 334.093C272.591 334.138 272.653 334.17 272.72 334.186C275.774 334.668 278.971 335.57 282.087 335.079C283.909 334.829 286.168 333.721 285.909 331.516ZM277.506 333.971C275.997 333.775 274.515 333.498 273.042 333.355C274.729 332.507 276.372 331.569 278.141 330.917C278.99 330.58 279.861 330.3 280.748 330.078C282.123 329.766 286.713 330.024 284.32 333.078C282.918 334.757 279.301 334.195 277.506 333.971Z" fill="#263238"/>
<path d="M363.115 166.264C363.115 166.264 321.833 236.486 320.726 241.416C319.029 248.997 310.01 323.809 310.01 323.809L267.059 323.042C267.059 323.042 274.461 257.069 281.471 235.343C286.525 219.69 322.949 167.773 322.949 167.773L363.115 166.264Z" fill="#37474F"/>
<path d="M270.979 316.451C277.149 316.407 299.009 316.166 307.215 316.925C307.232 316.925 307.248 316.931 307.26 316.943C307.271 316.955 307.278 316.971 307.278 316.987C307.278 317.004 307.271 317.02 307.26 317.031C307.248 317.043 307.232 317.05 307.215 317.05C304.394 317.452 277.149 316.818 270.979 316.621C270.966 316.626 270.951 316.627 270.937 316.625C270.923 316.622 270.91 316.617 270.899 316.609C270.887 316.6 270.878 316.589 270.872 316.577C270.865 316.564 270.862 316.55 270.862 316.536C270.862 316.522 270.865 316.508 270.872 316.496C270.878 316.483 270.887 316.472 270.899 316.464C270.91 316.456 270.923 316.45 270.937 316.448C270.951 316.446 270.966 316.447 270.979 316.451Z" fill="#263238"/>
<path d="M356.069 172.711C353.39 176.953 350.506 181.105 347.738 185.311C344.97 189.517 342.219 193.732 339.496 197.973C334.061 206.438 328.751 214.981 323.565 223.601C321.052 227.569 318.897 231.752 317.127 236.103C315.515 240.475 314.305 244.985 313.511 249.577C312.662 254.194 312.109 258.846 311.591 263.499C311.031 268.452 310.478 273.405 309.93 278.358C308.799 288.478 307.668 298.616 306.537 308.772C306.394 310.013 306.26 311.263 306.135 312.505C306.135 312.692 306.438 312.728 306.465 312.505C307.724 302.432 308.778 292.333 309.93 282.242L311.644 267.222C312.171 262.552 312.68 257.882 313.43 253.23C314.101 248.654 315.112 244.135 316.457 239.71C317.93 235.126 319.909 230.72 322.36 226.575C327.334 217.993 332.602 209.555 337.871 201.143C343.139 192.731 348.542 184.177 354.105 175.845C354.783 174.819 355.48 173.792 356.194 172.783C356.293 172.702 356.123 172.631 356.069 172.711Z" fill="#263238"/>
<path d="M326.619 355.912C328.575 356.037 381.331 342.133 382.974 340.383C383.047 340.277 383.09 340.154 383.099 340.026C383.305 338.293 380.608 331.819 378.715 323.524C378.599 322.997 377.608 320.479 376.215 317.077C372.384 307.745 365.553 291.708 365.553 291.708L331.111 300.548L343.791 326.042L345.506 332.034C345.506 332.034 328.084 345.973 326.494 348.107C324.905 350.241 324.673 355.769 326.619 355.912Z" fill="#EB9481"/>
<path d="M326.619 355.912C328.575 356.037 381.331 342.133 382.974 340.383C383.047 340.277 383.09 340.154 383.099 340.026C383.305 338.293 380.608 331.819 378.715 323.524C378.599 322.997 377.608 320.479 376.215 317.077L343.8 326.006L345.514 331.998C345.514 331.998 328.093 345.937 326.503 348.071C324.914 350.206 324.673 355.769 326.619 355.912Z" fill="white"/>
<path d="M326.619 355.903C328.575 356.046 381.331 342.133 382.974 340.383C383.599 339.722 382.233 332.588 378.715 323.524L345.514 332.043C345.514 332.043 328.093 345.964 326.503 348.116C324.914 350.268 324.673 355.769 326.619 355.903Z" fill="#FF8881"/>
<path d="M326.825 353.653C335.397 351.206 370.205 342.133 378.867 340.356C378.938 340.356 378.947 340.356 378.867 340.419C370.428 343.026 335.549 351.822 326.852 353.813C326.682 353.84 326.646 353.706 326.825 353.653Z" fill="#263238"/>
<path d="M329.334 345.366C330.286 345.091 331.285 345.017 332.268 345.149C333.25 345.281 334.194 345.617 335.04 346.134C336.569 347.053 337.687 348.523 338.165 350.241C338.165 350.295 338.076 350.322 338.058 350.241C337.323 348.608 336.078 347.257 334.51 346.392C332.941 345.528 331.134 345.195 329.361 345.446C329.355 345.454 329.347 345.461 329.338 345.465C329.329 345.469 329.319 345.471 329.309 345.469C329.299 345.468 329.29 345.464 329.282 345.457C329.274 345.451 329.269 345.443 329.265 345.433C329.262 345.424 329.262 345.413 329.264 345.404C329.267 345.394 329.272 345.385 329.279 345.378C329.286 345.371 329.295 345.366 329.305 345.364C329.314 345.362 329.325 345.362 329.334 345.366Z" fill="#263238"/>
<path d="M342.389 333.766C345.827 332.82 350.149 332.998 353.024 335.266C353.14 335.356 353.024 335.516 352.899 335.49C349.47 334.684 345.964 334.25 342.443 334.195C342.394 334.188 342.348 334.166 342.313 334.131C342.279 334.096 342.256 334.05 342.25 334.001C342.244 333.952 342.254 333.902 342.28 333.86C342.305 333.817 342.343 333.784 342.389 333.766Z" fill="#263238"/>
<path d="M339.996 335.498C343.434 334.552 347.756 334.73 350.631 336.999C350.747 337.088 350.631 337.249 350.497 337.222C347.067 336.434 343.561 336.017 340.041 335.981C339.977 335.987 339.913 335.967 339.864 335.926C339.814 335.885 339.783 335.826 339.777 335.762C339.771 335.698 339.791 335.634 339.832 335.585C339.873 335.535 339.932 335.504 339.996 335.498Z" fill="#263238"/>
<path d="M337.594 337.231C341.041 336.284 345.354 336.463 348.238 338.731C348.345 338.82 348.238 338.972 348.104 338.954C344.675 338.151 341.169 337.72 337.647 337.668C337.594 337.667 337.544 337.646 337.505 337.61C337.466 337.574 337.441 337.525 337.434 337.473C337.428 337.42 337.44 337.367 337.47 337.322C337.499 337.278 337.543 337.246 337.594 337.231Z" fill="#263238"/>
<path d="M335.201 338.954C338.639 338.017 342.961 338.195 345.836 340.463C345.952 340.553 345.836 340.704 345.711 340.678C342.281 339.883 338.775 339.455 335.255 339.401C335.195 339.408 335.136 339.391 335.089 339.354C335.042 339.317 335.012 339.263 335.005 339.204C334.997 339.145 335.014 339.085 335.051 339.038C335.088 338.992 335.142 338.961 335.201 338.954Z" fill="#263238"/>
<path d="M374.545 332.739C378.421 331.739 379.974 337.766 376.09 338.758C372.206 339.749 370.661 333.73 374.545 332.739Z" fill="#263238"/>
<path d="M337.853 330.507C340.344 332.427 343.577 333.186 346.47 334.266C346.536 334.284 346.606 334.287 346.673 334.273C346.741 334.26 346.804 334.23 346.858 334.188C346.912 334.145 346.955 334.09 346.984 334.028C347.012 333.966 347.026 333.897 347.024 333.829C347.038 333.828 347.053 333.824 347.066 333.817C347.078 333.81 347.089 333.8 347.097 333.788C347.105 333.775 347.11 333.761 347.111 333.746C347.112 333.732 347.11 333.717 347.104 333.704C346.03 330.595 344.158 327.823 341.675 325.667C340.21 324.444 337.639 323.595 336.263 325.506C334.888 327.417 336.406 329.391 337.853 330.507ZM336.96 327.694C336.335 323.845 340.469 325.854 341.514 326.801C342.182 327.424 342.805 328.092 343.38 328.801C344.553 330.279 345.647 331.817 346.658 333.409C345.264 332.802 343.827 332.319 342.416 331.757C340.719 331.096 337.299 329.81 336.951 327.694H336.96Z" fill="#263238"/>
<path d="M358.793 328.319C357.945 326.132 355.221 326.319 353.516 327.141C350.577 328.603 348.076 330.815 346.265 333.552C346.255 333.564 346.249 333.577 346.246 333.592C346.243 333.606 346.244 333.621 346.248 333.636C346.253 333.65 346.261 333.663 346.271 333.673C346.282 333.683 346.295 333.691 346.309 333.695C346.29 333.76 346.286 333.829 346.298 333.896C346.31 333.964 346.337 334.027 346.378 334.082C346.419 334.136 346.472 334.181 346.533 334.211C346.594 334.242 346.661 334.258 346.729 334.258C349.81 333.945 353.132 333.999 356.016 332.757C357.703 332.034 359.605 330.382 358.793 328.319ZM351.292 332.838C349.792 333.025 348.283 333.141 346.827 333.382C348.202 332.093 349.642 330.874 351.14 329.73C351.875 329.189 352.645 328.697 353.444 328.257C354.694 327.596 359.204 326.685 357.632 330.248C356.73 332.222 353.096 332.614 351.292 332.838Z" fill="#263238"/>
<path d="M341.433 324.372L380.027 314.246C380.027 314.246 343.076 241.532 343.416 236.513C343.684 232.049 370.481 193.044 371.991 185.74C374.411 173.783 368.588 163.103 362.945 156.495L323.029 167.746C323.029 167.746 326.208 174.649 332.048 179.007C332.048 179.007 306.965 220.887 306.322 234.674C305.679 248.461 341.433 324.372 341.433 324.372Z" fill="#37474F"/>
<path d="M340.701 317.228C346.291 315.63 344.666 316.014 350.283 314.469C353.033 313.719 371.098 308.781 373.777 308.522C373.839 308.522 373.866 308.611 373.777 308.638C371.312 309.745 353.167 314.371 350.408 315.067C344.764 316.496 346.363 316.023 340.701 317.398C340.639 317.407 340.594 317.228 340.701 317.228Z" fill="#263238"/>
<path d="M325.86 177.426C329.685 178.845 333.38 180.59 336.906 182.641C336.935 182.655 336.956 182.68 336.966 182.71C336.977 182.74 336.974 182.773 336.96 182.802C336.946 182.83 336.921 182.852 336.891 182.862C336.861 182.872 336.828 182.869 336.799 182.855C333.076 181.23 329.272 179.676 325.646 177.855C325.596 177.822 325.56 177.773 325.545 177.716C325.529 177.658 325.535 177.597 325.562 177.544C325.588 177.491 325.633 177.45 325.688 177.428C325.744 177.406 325.805 177.405 325.86 177.426Z" fill="#263238"/>
<path d="M330.548 176.444C330.832 177.145 331.071 177.864 331.263 178.596C331.472 179.167 331.566 179.774 331.54 180.382C331.528 180.402 331.511 180.419 331.491 180.431C331.47 180.443 331.447 180.449 331.424 180.449C331.4 180.449 331.377 180.443 331.357 180.431C331.336 180.419 331.319 180.402 331.307 180.382C330.973 179.848 330.72 179.267 330.557 178.658C330.316 177.989 330.057 177.328 329.843 176.658C329.691 176.229 330.397 176.015 330.548 176.444Z" fill="#263238"/>
<path d="M330.548 172.827C330.387 172.211 330.227 171.604 330.057 170.988C329.887 170.371 329.655 169.737 329.53 169.094C329.53 168.996 329.352 169.041 329.378 169.094C329.53 169.711 329.602 170.354 329.709 170.979C329.816 171.604 329.941 172.229 330.066 172.845C330.301 174.015 330.6 175.172 330.959 176.31C330.33 176.264 329.72 176.078 329.173 175.765C328.64 175.324 328.259 174.728 328.084 174.059C327.834 173.363 327.61 172.657 327.351 171.97C327.03 171.216 326.773 170.436 326.583 169.639C326.583 169.532 326.405 169.577 326.423 169.639C326.73 171.323 327.206 172.971 327.842 174.559C328.119 175.184 328.325 175.827 328.941 176.131C329.618 176.418 330.348 176.561 331.084 176.551C331.164 176.551 331.289 176.551 331.271 176.435C331.084 175.292 330.852 174.033 330.548 172.827Z" fill="#263238"/>
<path d="M331.209 180.4C329.691 183.141 327.959 185.757 326.333 188.436C324.708 191.115 323.244 193.723 321.761 196.401C318.779 201.813 316.011 207.367 313.484 213.011C312.233 215.803 311.043 218.627 309.912 221.485C308.735 224.328 307.765 227.253 307.01 230.236C306.299 233.213 306.166 236.299 306.617 239.326C307.181 242.431 307.981 245.487 309.01 248.47C311.079 255.302 313.596 261.99 316.546 268.49C316.645 268.705 317.002 268.544 316.922 268.321C314.814 262.374 312.635 256.444 310.733 250.462C308.903 244.622 306.724 238.567 307.733 232.361C308.297 229.384 309.146 226.469 310.269 223.655C311.352 220.762 312.507 217.901 313.734 215.073C316.162 209.492 318.877 204.072 321.663 198.67C323.217 195.642 324.851 192.651 326.432 189.633C328.012 186.615 329.566 183.489 331.343 180.56C331.396 180.391 331.289 180.319 331.209 180.4Z" fill="#263238"/>
<path d="M360.275 174.542C359.552 174.426 358.489 174.676 355.373 174.461C354.506 174.385 353.647 174.244 352.801 174.042C351.943 173.907 351.127 173.577 350.417 173.077C349.285 172.006 348.361 170.735 347.693 169.327C346.858 167.876 346.219 166.32 345.791 164.701C345.791 164.603 345.622 164.648 345.64 164.746C345.809 165.639 345.898 166.532 346.14 167.478C346.369 168.329 346.668 169.159 347.033 169.961C347.606 171.547 348.567 172.965 349.828 174.086C351.238 175.149 353.212 175.345 354.917 175.47C355.909 175.542 359.793 175.47 360.275 174.881C360.418 174.783 360.409 174.569 360.275 174.542Z" fill="#263238"/>
<path d="M370.446 305.941C365.576 296.047 360.814 286.091 356.159 276.072C351.503 266.053 346.985 255.959 342.604 245.791C341.392 243.404 340.425 240.9 339.719 238.317C339.121 235.486 339.996 232.959 341.193 230.396C343.419 225.749 345.908 221.232 348.649 216.868C351.328 212.475 354.221 208.18 357.052 203.866C359.979 199.642 362.662 195.253 365.088 190.722C367.285 186.338 368.508 181.667 367.883 176.756C367.258 171.845 365.142 167.309 362.883 162.996C362.284 161.861 361.668 160.736 361.097 159.593C361.052 159.513 360.918 159.593 360.972 159.674C363.49 164.192 365.91 168.934 367.089 173.961C367.696 176.467 367.883 179.056 367.642 181.623C367.328 184.214 366.599 186.738 365.481 189.097C363.383 193.705 360.454 197.955 357.695 202.179C354.935 206.403 351.997 210.796 349.247 215.171C346.453 219.552 343.887 224.073 341.559 228.718C340.541 230.798 339.425 232.968 339.175 235.299C338.907 237.862 339.826 240.308 340.818 242.621C345.104 252.676 349.622 262.65 354.212 272.571C358.802 282.492 363.561 292.449 368.392 302.307L370.178 306.031C370.294 306.236 370.518 306.093 370.446 305.941Z" fill="#263238"/>
<path d="M322.146 82.0218C323.038 77.9409 327.575 68.7077 336.531 70.5115C349.318 73.0921 351.167 97.729 357.534 105.408C369.062 119.321 369.437 133.09 359.989 135.296C349.399 137.761 339.094 126.366 339.451 101.81C339.692 86.433 335.361 79.6197 332.307 80.0751C329.254 80.5305 327.566 84.4149 327.566 84.4149L322.146 82.0218Z" fill="#263238"/>
<path d="M322.574 80.4946C323.207 78.5911 324.067 76.7711 325.137 75.0743C326.21 73.3358 327.633 71.8396 329.316 70.6809C331.058 69.5039 333.126 68.9041 335.228 68.9664C337.311 69.0293 339.349 69.5961 341.166 70.6184C342.937 71.6782 344.46 73.1065 345.631 74.8064C346.788 76.4768 347.75 78.2745 348.497 80.1642C349.916 83.9109 350.91 87.8047 351.462 91.7728C350.488 87.9363 349.229 84.1783 347.693 80.5303C346.897 78.7466 345.918 77.05 344.773 75.4672C343.661 73.905 342.231 72.5964 340.576 71.6275C338.92 70.6827 337.061 70.147 335.156 70.0648C333.27 69.9765 331.402 70.4622 329.798 71.4578C328.153 72.4952 326.725 73.8416 325.592 75.4226C325.001 76.2119 324.455 77.0348 323.958 77.8872C323.458 78.7087 323.003 79.5927 322.574 80.4946Z" fill="#263238"/>
<path d="M339.406 93.3354C339.54 95.7732 339.406 98.22 339.353 100.658C339.299 103.096 339.201 105.524 339.192 107.953C339.183 110.382 339.264 112.802 339.514 115.204C339.717 117.595 340.154 119.961 340.817 122.267C341.445 124.559 342.503 126.711 343.934 128.608C345.435 130.454 347.248 132.023 349.292 133.242C351.337 134.484 353.647 135.224 356.033 135.403C357.227 135.495 358.428 135.432 359.605 135.215C360.211 135.102 360.807 134.947 361.391 134.751C361.973 134.579 362.526 134.323 363.034 133.992C362.039 134.717 360.905 135.231 359.704 135.501C358.505 135.813 357.272 135.966 356.033 135.957C354.784 135.934 353.543 135.757 352.337 135.43C351.134 135.092 349.974 134.615 348.881 134.01C347.785 133.409 346.75 132.704 345.791 131.903L345.086 131.295L344.407 130.661C343.947 130.228 343.517 129.762 343.121 129.268C341.586 127.277 340.446 125.009 339.764 122.589C338.527 117.809 338.051 112.864 338.353 107.935C338.424 105.489 338.612 103.051 338.826 100.622C339.04 98.1932 339.326 95.7732 339.406 93.3354Z" fill="#263238"/>
<path d="M321.413 82.0931C321.27 80.9591 321.958 79.4142 322.672 79.1374C323.386 78.8606 329.084 80.6912 329.682 82.0574C330.28 83.4237 327.976 84.8792 327.976 84.8792L321.413 82.0931Z" fill="#FF8881"/>
<path d="M328.236 122.312C324.726 127.322 299.348 148.047 285.507 148.815C279.257 149.155 254.807 146.494 249.36 144.252C242.672 141.502 255.897 124.938 260.076 125.643C265.309 126.536 283.864 128.492 287.561 128.59C293.49 128.742 311.671 118.767 323.914 116.169C330.245 114.838 330.95 118.455 328.236 122.312Z" fill="#EB9481"/>
<path d="M327.959 123.259C324.083 130.018 310.403 141.609 310.403 141.609L308.073 137.305L300.357 123.098C300.357 123.098 313.323 117.937 321.923 115.427C322.932 115.118 323.966 114.891 325.012 114.749C330.566 114.034 331.29 117.454 327.959 123.259Z" fill="#DBDBDB"/>
<path d="M327.959 123.259C324.083 130.019 310.403 141.609 310.403 141.609L308.072 137.305L306.483 134.376L300.348 123.107C300.348 123.107 313.323 117.928 321.922 115.419C322.934 115.117 323.966 114.893 325.012 114.749C325.122 114.741 325.232 114.741 325.342 114.749C330.593 114.177 331.236 117.571 327.959 123.259Z" fill="#DBDBDB"/>
<path d="M311.787 119.607C312.085 120.839 312.085 122.125 311.787 123.357C311.49 122.125 311.49 120.839 311.787 119.607ZM308.117 126.965C307.488 126.954 306.86 127.029 306.251 127.188C306.861 127.342 307.488 127.417 308.117 127.411C308.749 127.416 309.379 127.341 309.992 127.188C309.38 127.03 308.75 126.955 308.117 126.965ZM327.084 116.481C326.452 116.472 325.821 116.547 325.209 116.704C325.821 116.862 326.452 116.937 327.084 116.928C327.713 116.932 328.34 116.857 328.95 116.704C328.34 116.552 327.713 116.477 327.084 116.481ZM319.779 125.804C320.221 126.253 320.719 126.643 321.262 126.965C320.941 126.422 320.55 125.924 320.101 125.482C319.657 125.035 319.159 124.645 318.619 124.321C318.942 124.862 319.332 125.36 319.779 125.804ZM312.573 134.733C313.015 135.186 313.513 135.579 314.056 135.903C313.737 135.359 313.347 134.86 312.895 134.421C312.453 133.969 311.955 133.575 311.412 133.251C311.72 133.793 312.099 134.291 312.537 134.733H312.573Z" fill="white"/>
<path d="M312.787 138.439C311.493 135.823 305.778 125.286 304.394 123.089C304.295 122.937 304.179 122.955 304.251 123.089C306.782 128.354 309.596 133.478 312.68 138.439C312.716 138.546 312.823 138.511 312.787 138.439Z" fill="#263238"/>
<path d="M327.958 123.259C324.083 130.019 310.403 141.609 310.403 141.609L308.072 137.305L306.482 134.376C313.903 127.054 322.842 118.044 325.342 114.731C330.592 114.177 331.235 117.571 327.958 123.259Z" fill="#A6A6A6"/>
<path d="M315.305 154.396L317.332 176.72C320.063 176.595 322.784 176.32 325.485 175.899C332.608 174.83 339.665 173.361 346.622 171.497C353.524 169.711 361.614 167.246 370.866 163.96C370.866 163.96 349.943 126.223 335.504 115.811C335.174 115.57 334.852 115.347 334.522 115.142C334.459 115.088 334.397 115.061 334.334 115.017C327.771 110.864 321.833 114.124 318.547 118.749C317.716 119.91 309.68 138.18 310.081 144.306C310.448 149.69 315.305 154.396 315.305 154.396Z" fill="#DBDBDB"/>
<path d="M326.914 130.501C327.072 131.11 327.148 131.738 327.137 132.367C327.147 132.999 327.072 133.63 326.914 134.242C326.757 133.63 326.681 132.999 326.691 132.367C326.685 131.738 326.76 131.111 326.914 130.501ZM331.781 153.878C331.776 154.51 331.851 155.141 332.004 155.754C332.166 155.142 332.241 154.511 332.227 153.878C332.237 153.246 332.162 152.616 332.004 152.003C331.851 152.616 331.776 153.246 331.781 153.878ZM347.363 140.573C347.354 141.205 347.429 141.836 347.586 142.448C347.884 141.216 347.884 139.93 347.586 138.698C347.429 139.31 347.354 139.941 347.363 140.573ZM318.788 151.03C318.779 151.662 318.854 152.293 319.011 152.905C319.309 151.673 319.309 150.387 319.011 149.155C318.854 149.767 318.779 150.398 318.788 151.03ZM336.79 134.573C336.158 134.567 335.528 134.642 334.915 134.796C336.148 135.093 337.433 135.093 338.666 134.796C338.055 134.643 337.428 134.568 336.799 134.573H336.79ZM350.078 151.226C349.445 151.212 348.814 151.287 348.202 151.45C349.435 151.747 350.72 151.747 351.953 151.45C351.343 151.293 350.716 151.218 350.087 151.226H350.078ZM329.879 164.424C329.25 164.414 328.622 164.489 328.013 164.648C328.622 164.806 329.25 164.881 329.879 164.871C330.511 164.88 331.142 164.805 331.754 164.648C331.144 164.495 330.517 164.42 329.888 164.424H329.879ZM353.408 161.853C352.779 161.847 352.152 161.923 351.542 162.076C352.772 162.374 354.054 162.374 355.284 162.076C354.671 161.922 354.04 161.847 353.408 161.853ZM327.084 116.454C326.452 116.445 325.821 116.52 325.209 116.678C325.821 116.835 326.452 116.91 327.084 116.901C327.713 116.905 328.34 116.83 328.95 116.678C328.339 116.534 327.712 116.468 327.084 116.481V116.454ZM336.639 120.589C337.08 121.041 337.578 121.434 338.121 121.759C337.805 121.213 337.414 120.714 336.96 120.276C336.519 119.824 336.02 119.431 335.478 119.106C335.8 119.659 336.193 120.166 336.648 120.616L336.639 120.589ZM356.15 141.475C356.591 141.927 357.09 142.321 357.632 142.645C357.313 142.101 356.923 141.603 356.471 141.163C356.028 140.712 355.53 140.319 354.989 139.993C355.308 140.545 355.698 141.052 356.15 141.502V141.475ZM324.95 143.708C325.391 144.16 325.889 144.553 326.432 144.877C325.765 143.784 324.847 142.865 323.753 142.198C324.082 142.761 324.484 143.278 324.95 143.734V143.708ZM342.898 158.825C343.34 159.278 343.838 159.671 344.381 159.995C343.714 158.902 342.795 157.983 341.702 157.316C342.032 157.87 342.435 158.377 342.898 158.825ZM319.824 125.786C320.266 126.235 320.764 126.625 321.306 126.947C320.985 126.404 320.595 125.906 320.146 125.464C319.702 125.017 319.204 124.627 318.663 124.303C318.972 124.848 319.347 125.352 319.779 125.804L319.824 125.786ZM318.556 137.519C319.006 137.076 319.399 136.578 319.726 136.037C319.182 136.355 318.683 136.746 318.244 137.198C317.791 137.639 317.398 138.138 317.074 138.68C317.597 138.359 318.08 137.975 318.511 137.537L318.556 137.519ZM360.927 153.468C361.379 153.028 361.77 152.53 362.088 151.985C360.992 152.649 360.073 153.568 359.409 154.664C359.949 154.337 360.444 153.94 360.883 153.486L360.927 153.468ZM320.869 159.861C321.318 159.42 321.709 158.921 322.03 158.379C320.933 159.042 320.014 159.962 319.351 161.058C319.891 160.73 320.386 160.334 320.824 159.879L320.869 159.861ZM344.782 129.081C345.235 128.639 345.628 128.141 345.952 127.598C345.408 127.92 344.91 128.314 344.47 128.768C344.018 129.21 343.624 129.708 343.3 130.251C343.826 129.929 344.309 129.542 344.738 129.099L344.782 129.081ZM338.853 169.175C339.307 168.735 339.701 168.237 340.023 167.693C339.479 168.015 338.98 168.408 338.541 168.862C338.088 169.304 337.695 169.802 337.371 170.345C337.897 170.023 338.38 169.636 338.808 169.193L338.853 169.175ZM338.853 145.065C339.31 144.628 339.704 144.129 340.023 143.583C338.929 144.249 338.011 145.168 337.344 146.261C337.89 145.928 338.389 145.523 338.826 145.056L338.853 145.065Z" fill="white"/>
<path d="M330.236 114.633C330.111 115.526 326.557 121.33 322.681 121.482C321.413 121.526 320.851 114.651 320.851 114.651L320.69 114.15L318.484 107.176L326.378 101.131L327.53 100.318C327.53 100.318 328.003 102.274 328.575 104.703L328.655 105.051C328.655 105.185 328.727 105.31 328.753 105.444L329.021 106.542C329.084 106.828 329.146 107.105 329.2 107.435L329.387 108.328C329.814 110.408 330.097 112.514 330.236 114.633Z" fill="#EB9481"/>
<path d="M328.611 104.703C328.066 106.763 327.078 108.68 325.716 110.319C324.354 111.959 322.651 113.282 320.726 114.195L318.52 107.221L326.378 101.131L327.53 100.318C327.53 100.318 328.003 102.229 328.611 104.703Z" fill="#263238"/>
<path d="M308.698 96.6664C308.635 109.507 316.324 110.998 319.092 111.007C321.601 111.007 330.164 110.731 331.593 97.9612C333.022 85.1918 327.03 81.1109 321.288 80.7805C315.547 80.4501 308.76 83.7988 308.698 96.6664Z" fill="#EB9481"/>
<path d="M330.852 98.8273C328.754 99.0416 328.173 94.6393 328.173 94.6393C328.173 94.6393 323.896 94.7643 322.333 88.6386C322.499 90.4813 323.2 92.2352 324.351 93.6839C324.351 93.6839 316.77 93.0945 313.43 86.8437C313.43 86.8437 314.779 90.0316 315.993 91.1478C314.065 90.6039 312.376 89.4277 311.198 87.8082C311.198 87.8082 309.966 91.4872 308.974 92.5141C308.974 92.5141 307.51 86.049 310.198 82.6915C315.859 75.5478 325.155 81.7985 325.155 81.7985C325.155 81.7985 330.352 82.5843 332.209 86.4776C335.076 92.4337 330.852 98.8273 330.852 98.8273Z" fill="#263238"/>
<path d="M329.504 98.9076C329.504 98.9076 331.968 94.6838 333.87 95.5321C335.772 96.3805 334.138 102.345 332.084 103.31C331.83 103.453 331.55 103.543 331.261 103.576C330.971 103.608 330.678 103.582 330.399 103.498C330.12 103.415 329.86 103.276 329.636 103.09C329.411 102.905 329.227 102.676 329.093 102.417L329.504 98.9076Z" fill="#EB9481"/>
<path d="M310.305 94.0678C310.607 94.0154 310.905 93.9438 311.198 93.8535C311.513 93.8181 311.808 93.6801 312.037 93.4606C312.1 93.3804 312.134 93.2813 312.134 93.1793C312.134 93.0773 312.1 92.9782 312.037 92.898C311.884 92.7642 311.699 92.6731 311.5 92.6339C311.301 92.5947 311.095 92.6088 310.903 92.6748C310.494 92.7523 310.129 92.9781 309.876 93.3088C309.827 93.3841 309.799 93.4715 309.797 93.5614C309.794 93.6512 309.816 93.7402 309.86 93.8185C309.904 93.8968 309.969 93.9614 310.047 94.0054C310.126 94.0494 310.215 94.0709 310.305 94.0678Z" fill="#263238"/>
<path d="M318.681 95.0679C318.38 95.0381 318.082 94.9904 317.788 94.925C317.461 94.9188 317.147 94.8024 316.895 94.5946C316.83 94.5151 316.795 94.4158 316.795 94.3134C316.795 94.2109 316.83 94.1116 316.895 94.0321C317.034 93.8859 317.211 93.7805 317.406 93.727C317.601 93.6735 317.807 93.674 318.002 93.7285C318.416 93.7743 318.799 93.9676 319.082 94.2732C319.14 94.3467 319.176 94.4352 319.185 94.5283C319.195 94.6214 319.177 94.7152 319.135 94.7986C319.093 94.8821 319.027 94.9518 318.947 94.9995C318.867 95.0472 318.774 95.071 318.681 95.0679Z" fill="#263238"/>
<path d="M317.002 97.6931C317.002 97.6931 317.065 97.6931 317.065 97.7735C317.065 98.6665 317.181 99.6666 317.958 99.9434V99.997C317.002 99.8719 316.815 98.5325 317.002 97.6931Z" fill="#263238"/>
<path d="M317.744 96.7645C319.154 96.6306 319.315 99.4434 318.003 99.5952C316.69 99.747 316.556 96.8717 317.744 96.7645Z" fill="#263238"/>
<path d="M318.306 96.8805C318.565 97.0323 318.824 97.3002 319.127 97.318C319.431 97.3359 319.717 97.0144 319.931 96.7197H319.976C319.976 97.2644 319.833 97.8359 319.261 97.952C318.69 98.0681 318.368 97.5948 318.154 97.0591C318.127 96.9787 318.208 96.8269 318.306 96.8805Z" fill="#263238"/>
<path d="M312.082 97.7377C312.082 97.7377 312.011 97.7823 312.02 97.818C312.1 98.711 312.02 99.7201 311.27 100.059C311.27 100.059 311.27 100.113 311.27 100.059C312.243 99.9076 312.296 98.5592 312.082 97.7377Z" fill="#263238"/>
<path d="M311.234 96.8717C309.814 96.8717 309.885 99.6935 311.234 99.7113C312.582 99.7292 312.43 96.8896 311.234 96.8717Z" fill="#263238"/>
<path d="M310.653 97.0681C310.43 97.2288 310.216 97.5056 309.948 97.5324C309.68 97.5592 309.394 97.2556 309.189 96.9609H309.144C309.144 97.5056 309.34 98.0682 309.867 98.1575C310.394 98.2468 310.68 97.7646 310.76 97.2199C310.823 97.1574 310.751 97.0056 310.653 97.0681Z" fill="#263238"/>
<path d="M313.555 101.631C313.555 101.631 313.43 102.917 313.43 103.569C314.632 103.532 315.834 103.659 317.002 103.944C317.279 104.024 317.261 103.792 316.949 103.622C316.017 103.121 314.957 102.907 313.904 103.006C313.859 102.837 314.136 100.979 314.037 100.979C313.558 101.04 313.089 101.166 312.644 101.354C312.823 98.5951 313.448 95.8805 313.582 93.1302C313.582 93.1089 313.574 93.0884 313.559 93.0733C313.543 93.0583 313.523 93.0498 313.502 93.0498C313.48 93.0498 313.46 93.0583 313.445 93.0733C313.43 93.0884 313.421 93.1089 313.421 93.1302C312.667 96.0117 312.2 98.961 312.028 101.935C312.055 102.265 313.314 101.747 313.555 101.631Z" fill="#263238"/>
<path d="M314.886 103.569C315.333 104.157 315.96 104.583 316.672 104.783C317.752 104.89 317.824 103.89 316.618 103.435C316.039 103.32 315.44 103.367 314.886 103.569Z" fill="#263238"/>
<path d="M316.689 104.783C316.282 104.715 315.902 104.536 315.591 104.265C315.787 103.917 316.287 103.524 317.466 104.087C317.654 104.498 317.377 104.855 316.689 104.783Z" fill="#FF99BA"/>
<path d="M328.352 113.097C329.923 113.097 332.566 113.49 336.138 116.204C336.138 116.204 328.691 122.196 321.762 122.196C319.288 122.196 318.547 118.74 318.547 118.74C318.547 118.74 321.878 113.15 328.352 113.097Z" fill="#EB9481"/>
<path d="M446 370.199H416.827C395.628 370.199 382.662 355.545 380.331 328.944C379.179 315.826 378.474 299.95 377.733 283.144C375.447 231.504 372.312 160.808 352.212 160.808H329.111V155.45H352.212C377.429 155.45 380.304 220.252 383.082 282.921C383.823 299.673 384.528 315.496 385.671 328.462C387.127 345.053 393.708 364.832 416.827 364.832H446V370.199Z" fill="#FF8881"/>
<path opacity="0.2" d="M346.077 155.432L344.934 160.79H329.111V155.432H346.077Z" fill="black"/>
<path d="M285.569 126.045H276.229V191.312H285.569V126.045Z" fill="#FF8881"/>
<path d="M276.238 130.867H240.725V185.82H276.238V130.867Z" fill="#FF8881"/>
<path opacity="0.2" d="M276.229 130.876V185.829H267.407L263.451 130.876H276.229Z" fill="black"/>
<path d="M213.472 140.734H240.716V148.949H213.472C212.539 148.949 211.644 148.579 210.984 147.919C210.324 147.259 209.954 146.364 209.954 145.431V144.261C209.952 143.799 210.043 143.34 210.219 142.912C210.395 142.484 210.654 142.095 210.981 141.768C211.308 141.44 211.696 141.18 212.123 141.003C212.551 140.825 213.009 140.734 213.472 140.734Z" fill="#DBDBDB"/>
<path d="M240.716 140.734H231.153V148.94H240.716V140.734Z" fill="#A6A6A6"/>
<path d="M213.472 167.746H240.716V175.961H213.472C212.539 175.961 211.644 175.591 210.984 174.931C210.324 174.271 209.954 173.376 209.954 172.443V171.273C209.952 170.811 210.043 170.352 210.219 169.924C210.395 169.496 210.654 169.107 210.981 168.78C211.308 168.452 211.696 168.192 212.123 168.015C212.551 167.838 213.009 167.746 213.472 167.746Z" fill="#DBDBDB"/>
<path d="M240.716 167.746H231.153V175.953H240.716V167.746Z" fill="#A6A6A6"/>
<path d="M340.764 153.102H313.02V164.058H340.764V153.102Z" fill="#FF8881"/>
<path d="M340.764 153.111H313.02V164.067H340.764V153.111Z" fill="#FF8881"/>
<path opacity="0.2" d="M322.762 153.111L321.851 164.067H313.02V153.111H322.762Z" fill="black"/>
<path d="M285.57 132.938H307.528C308.984 132.938 310.381 133.517 311.411 134.547C312.441 135.577 313.02 136.974 313.02 138.43V178.265C313.02 179.722 312.441 181.119 311.411 182.149C310.381 183.178 308.984 183.757 307.528 183.757H285.57V132.938Z" fill="#FF8881"/>
<path opacity="0.2" d="M297.25 132.938L293.294 183.757H285.579V132.938H297.25Z" fill="black"/>
<g opacity="0.2">
<path d="M295.205 143.208H293.455V173.479H295.205V143.208Z" fill="black"/>
<path d="M300.17 143.208H298.419V173.479H300.17V143.208Z" fill="black"/>
<path d="M305.134 143.208H303.384V173.479H305.134V143.208Z" fill="black"/>
</g>
<path d="M338.192 122.446C341.264 131.063 336.862 162.629 331.656 169.318C323.923 179.23 308.644 188.347 302.804 191.195C300.25 192.437 288.811 174.149 291.303 172.443C296.661 168.773 313.725 160.013 315.172 158.272C316.618 156.531 324.405 139.805 327.521 130.402C331.709 117.776 336.648 118.097 338.192 122.446Z" fill="#EB9481"/>
<path d="M302.786 191.249C294.687 195.875 278.569 195.196 276.372 194.526L273.533 193.633C270.148 192.678 269.238 190.812 269.238 190.812C269.238 190.812 265.005 190.865 264.541 188.311C264.023 185.445 270.068 185.927 273.559 184.159C281.596 180.114 291.794 172.113 293.982 170.72L302.786 191.249Z" fill="#EB9481"/>
<path d="M284.927 185.82C282.602 187.038 280.194 188.091 277.721 188.972C274.961 189.772 272.147 190.369 269.3 190.758C269.286 190.763 269.275 190.772 269.266 190.784C269.258 190.796 269.253 190.81 269.253 190.825C269.253 190.84 269.258 190.854 269.266 190.866C269.275 190.878 269.286 190.887 269.3 190.892C274.887 190.74 280.326 189.06 285.025 186.034C285.141 185.963 285.043 185.766 284.927 185.82Z" fill="#263238"/>
<path d="M288.07 190.294C285.695 191.276 281.507 192.972 273.524 193.562C273.524 193.562 273.524 193.606 273.524 193.615C278.594 193.966 283.661 192.899 288.16 190.535C288.302 190.427 288.231 190.231 288.07 190.294Z" fill="#263238"/>
<path d="M282.891 178.685C283.721 177.792 283.23 177.31 281.033 177.703C278.837 178.096 270.488 181.542 269.532 178.533C268.577 175.524 280.435 170.827 284.141 170.443C287.489 170.27 290.846 170.368 294.178 170.738C292.053 172.113 287.016 175.935 282.891 178.685Z" fill="#EB9481"/>
<path d="M329.575 124.616C334.978 113.249 339.907 116.258 340.38 127.5C340.539 135.308 340.187 143.117 339.326 150.878L319.744 145.27C319.744 145.27 326.119 131.894 329.575 124.616Z" fill="#DBDBDB"/>
<path d="M334.451 117.99C335.544 118.657 336.463 119.575 337.13 120.669C336.036 120.002 335.117 119.084 334.451 117.99ZM326.691 132.385C326.681 133.017 326.756 133.648 326.914 134.26C327.072 133.648 327.147 133.017 327.137 132.385C327.147 131.755 327.072 131.128 326.914 130.519C326.76 131.129 326.685 131.756 326.691 132.385ZM336.799 134.59C336.167 134.585 335.537 134.66 334.924 134.814C336.156 135.111 337.442 135.111 338.674 134.814C338.062 134.654 337.432 134.573 336.799 134.573V134.59ZM324.949 143.734C325.391 144.187 325.889 144.58 326.432 144.904C325.765 143.81 324.847 142.892 323.753 142.225C324.084 142.779 324.486 143.286 324.949 143.734ZM338.826 145.056C339.283 144.619 339.677 144.12 339.996 143.574C338.902 144.24 337.984 145.159 337.317 146.253C337.872 145.924 338.38 145.522 338.826 145.056Z" fill="white"/>
<path d="M327.718 128.081C326.985 129.572 326.217 131.036 325.449 132.546C325.58 131.849 325.688 131.144 325.771 130.429H325.717C325.61 130.983 325.476 131.536 325.369 132.09C325.324 132.358 325.271 132.626 325.217 132.894C325.217 132.947 325.217 133.001 325.217 133.063C324.619 134.206 324.03 135.358 323.431 136.519C322.753 137.912 322.119 139.314 321.476 140.716C320.833 142.118 320.235 143.833 319.511 145.252C320.127 145.509 320.767 145.7 321.422 145.824C321.592 145.886 321.681 145.717 321.503 145.69C321.324 145.663 319.859 145.083 319.842 145.074C320.485 143.654 321.279 142.315 321.958 140.922C322.637 139.528 323.333 138.153 323.985 136.751C325.307 133.912 326.467 130.992 327.78 128.143C327.78 128.072 327.718 128.045 327.718 128.081Z" fill="#263238"/>
<path d="M341.193 134.849C341.014 135.43 340.809 136.01 340.657 136.635C340.603 136.885 340.541 137.126 340.478 137.377C340.55 135.341 340.615 133.311 340.675 131.286C340.398 134.608 340.112 137.921 339.898 141.243C339.587 144.424 339.441 147.619 339.46 150.816C338.873 150.677 338.276 150.584 337.674 150.539C338.324 150.815 339.004 151.01 339.701 151.119C340.192 147.905 340.228 144.351 340.389 141.118C340.434 140.225 340.46 139.332 340.496 138.377C340.603 137.814 340.764 137.26 340.916 136.707C341.068 136.153 341.184 135.51 341.309 134.921C341.264 134.832 341.202 134.814 341.193 134.849Z" fill="#263238"/>
<path d="M338.531 147.913C335.772 146.931 324.342 143.324 321.824 142.707C321.645 142.663 321.574 142.761 321.752 142.824C327.231 144.859 332.817 146.591 338.487 148.012C338.558 148.038 338.603 147.931 338.531 147.913Z" fill="#263238"/>
<path d="M242.529 144.886C245.208 145.708 244.663 142.047 244.663 142.047C244.663 142.047 246.762 147.119 249.878 146.895C252.994 146.672 252.03 142.27 251.976 141.948C252.084 142.216 254.137 146.824 257.245 146.279C260.352 145.735 258.861 141.431 258.754 141.163C258.942 141.377 261.433 144.226 263.719 143.27C267.612 141.627 261.397 134.162 261.853 130.769L267.327 130.929C267.506 130.912 267.685 130.885 267.862 130.849L268.068 128.054C266.318 127.344 264.628 126.496 263.013 125.518C260.951 124.357 258.959 123.303 257.477 123.268C256.812 123.232 256.153 123.412 255.598 123.78C255.043 124.149 254.622 124.686 254.396 125.313C254.396 125.313 252.789 122.777 250.324 123.134C249.065 123.321 248.244 125.509 248.244 125.509C247.848 124.949 247.305 124.51 246.674 124.24C246.043 123.97 245.35 123.881 244.672 123.982C242.94 124.339 242.386 126.482 242.386 126.482C242.386 126.482 240.189 125.188 238.537 126.134C235.224 127.974 236.742 143.1 242.529 144.886Z" fill="#EB9481"/>
<path d="M262.531 130.447L267.3 130.885C267.48 130.867 267.658 130.84 267.835 130.804C273.854 129.715 277.604 122.821 273.193 122.33C269.88 121.946 266.291 126.348 262.942 125.464L262.531 130.447Z" fill="#EB9481"/>
<path d="M242.27 126.759H242.19C241.431 132.041 242.297 137.429 244.672 142.207C244.753 142.359 245.029 142.288 244.976 142.109C243.333 137.151 242.421 131.98 242.27 126.759Z" fill="#263238"/>
<path d="M248.244 125.393C248.244 125.33 248.146 125.33 248.137 125.393C247.333 131.217 248.638 137.136 251.816 142.082C251.932 142.252 252.209 142.288 252.084 142.082C250.101 138.635 248.244 130.295 248.244 125.393Z" fill="#263238"/>
<path d="M259.111 141.377C256.031 136.519 254.807 131.162 254.352 125.482C254.352 125.411 254.245 125.429 254.227 125.482C253.7 128.322 254.37 131.912 255.12 134.662C255.775 137.227 257.089 139.575 258.933 141.475C259.022 141.556 259.183 141.484 259.111 141.377Z" fill="#263238"/>
<path d="M183.683 344.91C181.834 345.526 128.908 345.375 126.89 344.098C126.131 343.615 125.703 335.9 125.453 326.569C125.39 324.56 125.354 322.479 125.319 320.363C125.319 317.862 125.247 315.326 125.229 312.862C125.167 301.807 125.319 292.073 125.319 292.073H159.778V312.862V320.363L159.6 326.569C159.6 326.569 179.834 335.695 181.924 337.338C184.013 338.981 185.531 344.339 183.683 344.91Z" fill="#AD6359"/>
<path d="M183.683 344.91C181.834 345.526 128.909 345.375 126.89 344.098C126.131 343.615 125.703 335.9 125.453 326.569C125.39 324.56 125.354 322.479 125.319 320.363C125.319 317.862 125.247 315.326 125.229 312.862H159.76V320.363L159.582 326.569C159.582 326.569 179.816 335.695 181.906 337.338C183.995 338.981 185.531 344.339 183.683 344.91Z" fill="white"/>
<path d="M183.844 345.026C182.638 345.428 160.1 345.509 143.66 345.169C139.856 345.08 136.383 344.982 133.588 344.857C129.721 344.678 127.132 344.473 126.712 344.205C125.774 343.607 125.337 332.284 125.123 320.336H159.743L159.564 326.587C159.564 326.587 179.915 335.766 181.987 337.418C184.058 339.07 185.737 344.401 183.844 345.026Z" fill="#FF8881"/>
<path d="M183.058 342.901C174.128 342.651 138.141 342.508 129.301 342.946C129.23 342.946 129.23 342.99 129.301 342.999C138.141 343.437 174.137 343.285 183.058 343.044C183.272 343.035 183.281 342.901 183.058 342.901Z" fill="#263238"/>
<path d="M160.858 324.604C157.349 323.943 153.054 324.47 150.366 326.962C150.259 327.06 150.366 327.203 150.518 327.167C153.875 326.091 157.339 325.382 160.849 325.051C160.909 325.052 160.966 325.029 161.009 324.988C161.051 324.947 161.076 324.891 161.077 324.832C161.078 324.773 161.056 324.715 161.015 324.673C160.974 324.63 160.918 324.605 160.858 324.604Z" fill="#263238"/>
<path d="M163.412 326.158C159.903 325.488 155.608 326.015 152.911 328.515C152.813 328.605 152.911 328.756 153.063 328.721C156.426 327.638 159.896 326.923 163.412 326.586C163.459 326.573 163.499 326.545 163.528 326.506C163.557 326.467 163.573 326.42 163.573 326.372C163.573 326.324 163.557 326.277 163.528 326.238C163.499 326.2 163.459 326.171 163.412 326.158Z" fill="#263238"/>
<path d="M165.922 327.676C162.412 327.006 158.117 327.533 155.429 330.025C155.322 330.123 155.429 330.275 155.572 330.239C158.931 329.166 162.394 328.454 165.904 328.114C165.955 328.106 166.001 328.08 166.036 328.042C166.07 328.003 166.09 327.954 166.092 327.902C166.094 327.851 166.078 327.8 166.047 327.759C166.016 327.717 165.972 327.688 165.922 327.676Z" fill="#263238"/>
<path d="M168.449 329.212C164.939 328.542 160.644 329.069 157.956 331.56C157.849 331.659 157.956 331.81 158.108 331.775C161.463 330.697 164.924 329.984 168.431 329.649C168.482 329.641 168.529 329.616 168.563 329.577C168.597 329.539 168.617 329.49 168.619 329.438C168.621 329.386 168.606 329.336 168.575 329.294C168.543 329.253 168.499 329.224 168.449 329.212Z" fill="#263238"/>
<path d="M167.368 316.505C165.993 314.603 163.421 315.451 161.957 316.675C159.474 318.831 157.601 321.603 156.527 324.711C156.522 324.725 156.519 324.74 156.52 324.754C156.521 324.769 156.526 324.783 156.534 324.796C156.542 324.808 156.553 324.818 156.566 324.825C156.579 324.832 156.593 324.836 156.608 324.836C156.608 325.104 156.858 325.39 157.153 325.274C160.055 324.211 163.296 323.435 165.779 321.506C167.234 320.381 168.672 318.309 167.368 316.505ZM161.224 322.756C159.814 323.31 158.376 323.801 156.983 324.408C157.996 322.814 159.09 321.273 160.26 319.791C160.833 319.08 161.457 318.412 162.126 317.791C163.171 316.836 167.314 314.826 166.68 318.684C166.332 320.8 162.912 322.086 161.224 322.756Z" fill="#263238"/>
<path d="M147.607 323.756C150.491 324.997 153.858 324.944 156.894 325.256C156.962 325.256 157.03 325.24 157.091 325.209C157.152 325.179 157.205 325.135 157.247 325.08C157.288 325.026 157.316 324.963 157.33 324.896C157.343 324.829 157.34 324.759 157.323 324.694C157.334 324.685 157.343 324.674 157.349 324.662C157.355 324.65 157.358 324.636 157.358 324.622C157.358 324.608 157.355 324.595 157.349 324.582C157.343 324.57 157.334 324.559 157.323 324.551C155.521 321.814 153.033 319.597 150.107 318.121C148.375 317.3 145.643 317.121 144.821 319.309C144 321.497 145.919 323.033 147.607 323.756ZM146.027 321.256C144.455 317.684 148.964 318.577 150.215 319.246C151.016 319.691 151.789 320.186 152.527 320.729C154.031 321.87 155.473 323.089 156.849 324.381C155.349 324.14 153.84 324.024 152.331 323.836C150.527 323.613 146.893 323.22 146.027 321.256Z" fill="#263238"/>
<path d="M164.671 317.907L121.97 318.675C121.97 318.675 116.157 280.894 112.335 257.4C110.888 248.568 109.745 241.746 109.281 239.692C108.174 234.79 86.5371 156.977 86.5371 156.977L117.577 156.932H128.185C128.185 156.932 127.506 169.943 127.908 171.309C133.445 190.142 144.758 223.539 148.295 235.174C153.715 253.06 164.671 317.907 164.671 317.907Z" fill="#A6A6A6"/>
<path d="M160.787 311.361C154.661 311.317 132.927 311.076 124.765 311.835C124.753 311.839 124.743 311.847 124.736 311.858C124.729 311.868 124.726 311.88 124.726 311.893C124.726 311.905 124.729 311.918 124.736 311.928C124.743 311.938 124.753 311.946 124.765 311.951C127.578 312.353 154.661 311.728 160.796 311.531C160.81 311.535 160.824 311.535 160.838 311.532C160.851 311.529 160.864 311.523 160.875 311.514C160.886 311.505 160.895 311.494 160.901 311.481C160.906 311.468 160.909 311.454 160.908 311.44C160.907 311.426 160.903 311.412 160.896 311.4C160.889 311.388 160.879 311.378 160.868 311.37C160.856 311.362 160.842 311.358 160.828 311.356C160.814 311.355 160.8 311.356 160.787 311.361Z" fill="#263238"/>
<path d="M122.666 279.161C121.19 269.392 119.544 259.647 117.728 249.926C116.835 245.148 115.862 240.38 114.612 235.638C113.362 230.897 111.772 226.209 110.147 221.556C106.95 212.305 103.896 203.009 101.03 193.651C98.1636 184.293 95.4936 174.899 92.9933 165.425C92.6718 164.228 92.3593 163.031 92.011 161.853C92.011 161.754 91.8414 161.799 91.8592 161.853C92.8326 166.621 94.0916 171.345 95.2971 176.06C96.5026 180.775 97.7974 185.472 99.1458 190.151C101.86 199.545 104.804 208.873 107.977 218.136C109.558 222.744 111.201 227.343 112.603 232.013C114.005 236.683 115.094 241.416 116.067 246.184C118.041 255.864 119.72 265.606 121.273 275.348C122.827 285.091 124.158 294.994 125.461 304.816C125.631 306.057 125.792 307.308 125.953 308.558C125.997 308.906 126.551 308.906 126.515 308.558C125.506 298.762 124.122 288.948 122.666 279.161Z" fill="#263238"/>
<path d="M117.577 156.915L112.335 257.4C110.888 248.568 109.745 241.746 109.281 239.692C108.174 234.79 86.5371 156.977 86.5371 156.977L117.577 156.915Z" fill="#263238"/>
<path d="M130.721 353.376C128.873 353.992 75.9466 353.84 73.9285 352.554C73.1694 352.081 72.7408 344.366 72.4908 335.034C72.4283 333.016 72.3926 330.944 72.3568 328.828C72.3568 326.319 72.2854 323.792 72.2675 321.327C72.205 310.272 72.3568 300.539 72.3568 300.539H106.807V328.837L106.629 335.043C106.629 335.043 126.863 344.169 128.953 345.812C131.042 347.455 132.569 352.768 130.721 353.376Z" fill="#AD6359"/>
<path d="M130.721 353.376C128.873 353.992 75.9466 353.84 73.9285 352.554C73.1695 352.081 72.7408 344.366 72.4908 335.034C72.4283 333.016 72.3926 330.944 72.3569 328.828C72.3569 326.319 72.2854 323.792 72.2676 321.327H106.798V328.837L106.62 335.043C106.62 335.043 126.854 344.169 128.944 345.812C131.034 347.455 132.569 352.768 130.721 353.376Z" fill="white"/>
<path d="M130.882 353.456C129.676 353.849 107.129 353.929 90.6984 353.59C86.9033 353.51 83.4297 353.402 80.6258 353.286C76.7682 353.108 74.1786 352.894 73.75 352.626C72.857 352.027 72.3748 340.713 72.1694 328.766H106.79L106.611 335.016C106.611 335.016 126.98 344.187 129.051 345.803C131.123 347.42 132.739 352.831 130.882 353.456Z" fill="#FF8881"/>
<path d="M130.123 351.322C121.193 351.081 85.198 350.929 76.3666 351.366C76.2951 351.366 76.2951 351.42 76.3666 351.429C85.198 351.857 121.202 351.715 130.123 351.473C130.311 351.464 130.311 351.331 130.123 351.322Z" fill="#263238"/>
<path d="M107.897 333.034C104.388 332.364 100.093 332.891 97.4049 335.382C97.2977 335.481 97.4049 335.632 97.5477 335.597C100.907 334.524 104.37 333.812 107.879 333.471C107.93 333.463 107.977 333.438 108.011 333.399C108.046 333.361 108.066 333.312 108.068 333.26C108.07 333.208 108.054 333.158 108.023 333.116C107.992 333.075 107.947 333.046 107.897 333.034Z" fill="#263238"/>
<path d="M110.424 334.57C106.914 333.9 102.619 334.427 99.9315 336.918C99.8244 337.016 99.9315 337.168 100.083 337.133C103.441 336.054 106.905 335.341 110.415 335.007C110.466 334.998 110.512 334.972 110.545 334.932C110.578 334.893 110.597 334.844 110.598 334.792C110.599 334.741 110.583 334.69 110.551 334.65C110.519 334.609 110.474 334.581 110.424 334.57Z" fill="#263238"/>
<path d="M112.96 336.097C109.451 335.436 105.156 335.963 102.459 338.454C102.361 338.552 102.459 338.695 102.611 338.66C105.97 337.589 109.433 336.879 112.942 336.543C113.001 336.546 113.059 336.524 113.103 336.484C113.146 336.444 113.172 336.388 113.174 336.329C113.177 336.27 113.156 336.212 113.115 336.168C113.075 336.125 113.019 336.099 112.96 336.097Z" fill="#263238"/>
<path d="M115.487 337.633C111.978 336.972 107.683 337.499 104.995 339.99C104.888 340.088 104.995 340.231 105.138 340.196C108.497 339.126 111.96 338.416 115.469 338.079C115.528 338.082 115.586 338.06 115.63 338.02C115.673 337.98 115.699 337.924 115.701 337.865C115.704 337.806 115.682 337.748 115.642 337.704C115.602 337.661 115.546 337.635 115.487 337.633Z" fill="#263238"/>
<path d="M114.407 324.935C113.032 323.024 110.46 323.872 108.987 325.104C106.504 327.261 104.631 330.032 103.557 333.141C103.553 333.155 103.553 333.17 103.555 333.185C103.558 333.199 103.563 333.213 103.572 333.225C103.581 333.237 103.592 333.247 103.605 333.254C103.618 333.261 103.632 333.265 103.647 333.266C103.643 333.334 103.655 333.402 103.683 333.465C103.711 333.527 103.753 333.582 103.806 333.625C103.86 333.668 103.922 333.697 103.989 333.711C104.056 333.725 104.126 333.722 104.191 333.703C107.094 332.641 110.326 331.864 112.818 329.935C114.3 328.837 115.702 326.729 114.407 324.935ZM108.263 331.185C106.844 331.748 105.415 332.23 104.022 332.846C105.084 331.284 106.076 329.685 107.29 328.23C107.868 327.52 108.491 326.849 109.156 326.22C110.21 325.274 114.344 323.265 113.719 327.113C113.407 329.23 109.951 330.516 108.263 331.176V331.185Z" fill="#263238"/>
<path d="M94.6543 332.186C97.5475 333.427 100.905 333.373 103.95 333.686C104.019 333.686 104.088 333.67 104.149 333.639C104.211 333.608 104.265 333.563 104.306 333.507C104.347 333.451 104.374 333.387 104.385 333.318C104.396 333.25 104.391 333.18 104.37 333.114C104.384 333.11 104.396 333.102 104.407 333.092C104.417 333.082 104.425 333.069 104.431 333.056C104.436 333.042 104.438 333.027 104.436 333.013C104.435 332.998 104.431 332.984 104.423 332.971C102.604 330.238 100.101 328.028 97.1635 326.56C95.4312 325.738 92.6987 325.56 91.8772 327.748C91.0557 329.935 92.9487 331.462 94.6543 332.186ZM93.0827 329.676C91.5111 326.104 96.0205 326.997 97.2707 327.676C98.074 328.114 98.8467 328.607 99.5835 329.15C101.085 330.297 102.527 331.519 103.905 332.811C102.396 332.561 100.887 332.453 99.3781 332.266C97.5654 332.043 93.931 331.65 93.0648 329.676H93.0827Z" fill="#263238"/>
<path d="M111.621 325.828H69.8389C69.8389 325.828 78.9203 196.276 77.4558 189.017C75.0538 177.131 76.6522 163.478 82.2779 156.87H119.452C119.452 156.87 120.193 167.3 116.353 173.533C116.353 173.533 112.862 175.738 111.174 176.712L111.621 325.828Z" fill="#A6A6A6"/>
<path d="M107.727 319.068C101.941 318.925 103.611 318.88 97.8156 318.8C94.9849 318.755 76.3845 318.496 73.7056 318.916C73.6431 318.916 73.6431 319.023 73.7056 319.032C76.3845 319.487 94.976 319.425 97.8156 319.407C103.602 319.407 101.941 319.327 107.727 319.237C107.745 319.231 107.761 319.22 107.772 319.205C107.783 319.19 107.789 319.171 107.789 319.153C107.789 319.134 107.783 319.115 107.772 319.1C107.761 319.085 107.745 319.074 107.727 319.068Z" fill="#263238"/>
<path d="M118.675 171.898C115.02 173.66 111.522 175.731 108.218 178.087C108.191 178.103 108.172 178.13 108.164 178.161C108.157 178.192 108.162 178.225 108.178 178.252C108.195 178.279 108.221 178.299 108.252 178.306C108.283 178.314 108.316 178.309 108.343 178.292C111.915 176.336 115.487 174.443 118.916 172.3C118.969 172.268 119.008 172.216 119.023 172.156C119.038 172.096 119.028 172.032 118.996 171.979C118.964 171.925 118.913 171.887 118.852 171.872C118.792 171.857 118.728 171.866 118.675 171.898Z" fill="#263238"/>
<path d="M113.933 171.363C113.722 172.084 113.555 172.817 113.433 173.559C113.282 174.142 113.242 174.748 113.317 175.345C113.317 175.461 113.505 175.452 113.558 175.345C113.839 174.782 114.031 174.18 114.13 173.559C114.308 172.872 114.505 172.193 114.657 171.505C114.764 171.068 114.076 170.916 113.933 171.363Z" fill="#263238"/>
<path d="M113.603 167.782C113.701 167.157 113.799 166.541 113.915 165.925C114.031 165.308 114.192 164.639 114.255 163.996C114.255 163.889 114.433 163.924 114.415 163.996C114.317 164.621 114.308 165.264 114.255 165.889C114.201 166.514 114.148 167.148 114.085 167.773C113.959 168.951 113.775 170.123 113.531 171.282C114.148 171.177 114.734 170.936 115.246 170.577C115.721 170.088 116.033 169.464 116.139 168.791C116.317 168.077 116.478 167.362 116.666 166.648C116.919 165.874 117.101 165.079 117.21 164.273C117.21 164.165 117.389 164.201 117.371 164.273C117.226 165.97 116.909 167.649 116.425 169.282C116.32 169.93 115.988 170.519 115.487 170.943C114.842 171.287 114.134 171.497 113.406 171.559C113.326 171.559 113.201 171.559 113.21 171.461C113.28 170.229 113.411 169.001 113.603 167.782Z" fill="#263238"/>
<path d="M83.4922 188.543C83.2243 185.811 82.7778 183.096 82.4831 180.364C81.9248 174.893 82.2565 169.369 83.4654 164.005C83.4654 163.906 83.3315 163.862 83.3136 164.005C82.2563 168.716 81.7647 173.536 81.8491 178.363C82.0902 183.185 82.9475 187.936 83.0189 192.767C83.0904 197.598 82.7153 202.545 82.4028 207.42C82.0902 212.296 81.7688 217.243 81.4562 222.145C80.1882 241.871 79.0184 261.597 77.8129 281.331C77.4796 286.832 77.1581 292.338 76.8485 297.851C76.5271 303.45 76.1342 309.058 75.9556 314.674C75.9556 315.157 76.6521 315.121 76.6967 314.674C77.5361 304.771 78.0183 294.833 78.6523 284.93C79.2863 275.027 79.8489 265.284 80.4382 255.462C81.0276 245.639 81.6259 235.817 82.2242 225.994C82.5099 221.089 82.8076 216.183 83.1171 211.278C83.4029 206.394 83.7601 201.5 83.8315 196.607C83.8708 193.915 83.7575 191.222 83.4922 188.543Z" fill="#263238"/>
<path d="M96.6545 163.639C96.6465 163.626 96.6354 163.615 96.6221 163.608C96.6088 163.6 96.5938 163.596 96.5786 163.596C96.5634 163.596 96.5485 163.6 96.5352 163.608C96.5219 163.615 96.5107 163.626 96.5027 163.639C96.281 164.286 96.1634 164.964 96.1545 165.648C96.0388 166.38 95.8687 167.102 95.6455 167.809C95.2355 169.23 94.4667 170.521 93.4131 171.559C91.0735 173.747 87.9392 174.56 84.921 175.292C84.901 175.298 84.8835 175.311 84.8711 175.327C84.8587 175.344 84.8521 175.365 84.8521 175.386C84.8521 175.407 84.8587 175.427 84.8711 175.444C84.8835 175.461 84.901 175.473 84.921 175.479C86.7144 175.56 88.5058 175.281 90.1895 174.658C91.6914 174.199 93.077 173.422 94.2525 172.381C95.3748 171.313 96.1417 169.926 96.4492 168.407C96.6088 167.613 96.6925 166.806 96.6992 165.996C96.6992 165.612 96.6992 165.228 96.6992 164.835C96.7632 164.437 96.748 164.031 96.6545 163.639Z" fill="#263238"/>
<path d="M114.157 113.526C114.925 119.598 126.819 142.172 139.481 152.173C144.125 155.843 168.744 158.013 174.905 157.531C182.111 156.977 183.192 139.823 179.156 138.484C174.11 136.814 150.768 134.751 146.187 133.126C140.615 131.108 130.471 118.151 120.827 110.132C115.871 105.98 113.567 108.855 114.157 113.526Z" fill="#AD6359"/>
<path d="M174.905 157.54C177.182 157.477 187.603 156.28 190.434 155.298C193.265 154.316 201.149 150.905 200.649 148.664C200.149 146.422 197.72 147.235 197.72 147.235C197.72 147.235 200.837 145.261 200.096 143.056C199.355 140.85 195.631 142.243 195.631 142.243C195.631 142.243 198.685 139.984 197.783 137.832C196.881 135.68 193.407 137.707 193.407 137.707C193.407 137.707 196.301 135.769 194.818 134.305C193.032 132.519 188.103 136.725 184.906 137.573C184.174 137.769 169.887 140.439 169.887 140.439L174.905 157.54Z" fill="#AD6359"/>
<path d="M193.773 137.537C190.139 140.591 188.022 141.305 183.397 141.939C183.381 141.945 183.367 141.955 183.358 141.969C183.348 141.982 183.343 141.999 183.343 142.015C183.343 142.032 183.348 142.048 183.358 142.062C183.367 142.076 183.381 142.086 183.397 142.091C187.978 141.877 190.764 141.368 193.925 137.707C194.059 137.528 193.916 137.394 193.773 137.537Z" fill="#263238"/>
<path d="M195.943 141.993C191.898 144.886 189.612 145.628 184.844 146.672C184.781 146.672 184.799 146.806 184.844 146.797C189.63 146.181 192.398 145.61 196.068 142.234C196.22 142.065 196.131 141.859 195.943 141.993Z" fill="#263238"/>
<path d="M197.47 147.28C193.353 149.753 190.88 150.726 186.094 151.128C186.07 151.128 186.047 151.138 186.031 151.154C186.014 151.171 186.004 151.194 186.004 151.217C186.004 151.241 186.014 151.264 186.031 151.281C186.047 151.297 186.07 151.307 186.094 151.307C190.267 151.558 194.372 150.16 197.524 147.413C197.765 147.226 197.729 147.128 197.47 147.28Z" fill="#263238"/>
<path d="M166.583 138.564C168.988 137.01 171.504 135.634 174.11 134.448C176.628 133.555 187.255 133.555 187.371 135.859C187.531 138.823 181.397 140.011 178.316 140.207C178.316 140.207 178.7 147.056 174.476 148.869C170.253 150.682 166.583 138.564 166.583 138.564Z" fill="#AD6359"/>
<path d="M187.156 136.689C185.37 139.493 181.29 139.484 178.316 139.895C178.271 139.897 178.227 139.911 178.189 139.934C178.151 139.958 178.119 139.991 178.097 140.03C178.074 140.069 178.062 140.113 178.062 140.158C178.061 140.203 178.072 140.248 178.093 140.288C178.093 143.172 177.2 147.226 174.655 148.931C174.574 148.985 174.655 149.101 174.717 149.056C177.673 147.592 178.87 143.699 178.7 140.511C181.754 140.145 185.844 139.975 187.183 136.698C187.192 136.68 187.165 136.671 187.156 136.689Z" fill="#263238"/>
<path d="M153.635 157.209C153.635 157.209 141.026 153.762 139.49 152.557C137.814 151.24 136.216 149.826 134.704 148.324C123.229 137.046 116.3 121.669 114.424 116.311C112.442 110.605 114.264 105.14 119.577 108.819C120.004 109.122 120.416 109.447 120.809 109.793C127.06 115.24 143.776 131.804 145.812 132.653C147.848 133.501 157.662 134.787 157.662 134.787L153.635 157.209Z" fill="#455A64"/>
<path d="M134.704 148.324C123.229 137.046 116.3 121.669 114.424 116.311C112.442 110.605 114.264 105.14 119.577 108.819L134.704 148.324Z" fill="#263238"/>
<path d="M153.59 134.394C153.003 136.117 152.517 137.874 152.134 139.654C151.697 141.44 151.241 143.225 150.875 145.011C150.08 148.514 149.484 152.059 149.089 155.629C149.089 155.65 149.098 155.67 149.113 155.686C149.128 155.701 149.148 155.709 149.17 155.709C149.191 155.709 149.211 155.701 149.227 155.686C149.242 155.67 149.25 155.65 149.25 155.629C150.214 152.128 150.929 148.547 151.661 144.993C152.027 143.208 152.358 141.475 152.724 139.725C153.09 137.975 153.527 136.153 153.724 134.421C153.727 134.403 153.724 134.385 153.714 134.37C153.704 134.354 153.688 134.344 153.67 134.34C153.652 134.337 153.634 134.341 153.619 134.351C153.604 134.361 153.593 134.376 153.59 134.394Z" fill="#263238"/>
<path d="M126.39 125.893C126.685 127.215 126.917 128.572 127.096 129.965C127.091 129.911 127.091 129.858 127.096 129.804C127.167 129.045 127.221 128.268 127.355 127.518C127.355 127.518 127.426 127.473 127.426 127.518C127.472 128.29 127.442 129.065 127.337 129.831C127.292 130.197 127.247 130.563 127.194 130.92C127.256 131.536 127.31 132.153 127.346 132.76C127.417 133.921 127.64 138.877 127.614 139.725C127.614 139.904 127.408 139.921 127.364 139.725C127.194 138.832 126.747 133.751 126.622 132.581C126.389 130.351 126.275 128.109 126.283 125.866C126.301 125.839 126.372 125.848 126.39 125.893Z" fill="#263238"/>
<path d="M127.81 162.987C126.024 164.594 123.845 166.943 111.308 167.818C110.522 167.818 109.718 167.88 108.915 167.818C96.8416 167.478 79.9021 157.995 78.8931 157.245C78.8931 157.245 91.9036 122.044 109.111 108.534C111.567 106.596 116.835 107.552 120.13 109.543C121.309 110.257 125.202 116.767 125.988 122.696C126.774 128.625 129.587 161.379 127.81 162.987Z" fill="#455A64"/>
<path d="M118.032 118.365C114.996 118.615 110.647 113.365 109.218 109.436C109.12 109.168 109.906 106.605 110.71 103.444C111.192 101.524 111.683 99.3809 111.986 97.3896C112.049 96.9788 113.326 97.9432 113.326 97.9432L115.808 98.9612L124.024 102.337C122.926 104.718 122.125 107.225 121.639 109.802C121.613 110.081 121.613 110.362 121.639 110.641C121.643 110.686 121.643 110.731 121.639 110.775C121.613 112.356 120.961 118.097 118.032 118.365Z" fill="#AD6359"/>
<path d="M121.604 110.632C121.608 110.677 121.608 110.721 121.604 110.766C121.17 110.761 120.737 110.719 120.309 110.641C111.915 109.168 112.514 98.3003 112.514 98.3003L115.818 98.9522L124.033 102.328C122.935 104.709 122.135 107.216 121.649 109.793C121.607 110.071 121.593 110.352 121.604 110.632Z" fill="#263238"/>
<path d="M111.138 84.3075C109.54 88.7188 111.245 101.774 114.282 104.846C118.684 109.311 126.229 110.052 130.06 104.676C133.784 99.479 131.257 82.4948 127.837 79.6731C122.791 75.5386 113.496 77.7978 111.138 84.3075Z" fill="#AD6359"/>
<path d="M123.033 93.3446C123.033 93.3446 122.97 93.3982 122.979 93.4339C123.113 94.3269 123.131 95.3359 122.363 95.7288C122.363 95.7288 122.363 95.7824 122.363 95.7735C123.336 95.5145 123.309 94.1483 123.033 93.3446Z" fill="#263238"/>
<path d="M122.131 92.5229C120.702 92.5943 120.952 95.4429 122.274 95.3803C123.596 95.3178 123.328 92.4604 122.131 92.5229Z" fill="#263238"/>
<path d="M128.444 92.755C128.444 92.755 128.515 92.755 128.515 92.8264C128.569 93.7194 128.774 94.7195 129.596 94.9517C128.587 94.9428 128.346 93.6033 128.444 92.755Z" fill="#263238"/>
<path d="M129.158 91.7638C130.569 91.5406 130.944 94.3802 129.614 94.5945C128.283 94.8088 127.971 91.9603 129.158 91.7638Z" fill="#263238"/>
<path d="M121.023 90.4156C121.398 90.2816 121.729 90.0941 122.095 89.9244C122.493 89.8083 122.842 89.5634 123.086 89.2279C123.145 89.1078 123.163 88.9712 123.135 88.84C123.108 88.7089 123.037 88.5908 122.934 88.5046C122.702 88.3706 122.439 88.3 122.171 88.3C121.903 88.3 121.639 88.3706 121.407 88.5046C120.895 88.6981 120.474 89.0775 120.229 89.5673C120.184 89.6805 120.172 89.8042 120.195 89.9238C120.218 90.0435 120.274 90.1542 120.357 90.2431C120.441 90.3319 120.547 90.3953 120.665 90.4259C120.783 90.4564 120.907 90.4528 121.023 90.4156Z" fill="#263238"/>
<path d="M130.051 90.7995C129.661 90.7565 129.273 90.6909 128.89 90.6031C128.473 90.5897 128.071 90.439 127.747 90.1744C127.668 90.069 127.625 89.9405 127.625 89.8083C127.625 89.6762 127.668 89.5477 127.747 89.4422C127.931 89.247 128.164 89.1056 128.422 89.0333C128.68 88.9609 128.953 88.9603 129.212 89.0315C129.758 89.088 130.264 89.3458 130.632 89.7548C130.709 89.8556 130.755 89.9767 130.764 90.1033C130.773 90.2298 130.745 90.3563 130.684 90.4672C130.622 90.5782 130.529 90.6687 130.417 90.7277C130.305 90.7868 130.177 90.8117 130.051 90.7995Z" fill="#263238"/>
<path d="M127.203 97.5592C127.292 98.2018 127.349 98.8485 127.372 99.4969C126.165 99.5018 124.963 99.67 123.801 99.997C123.533 100.086 123.533 99.8541 123.801 99.6755C124.71 99.1342 125.763 98.882 126.819 98.9522C126.819 98.7825 126.515 96.9341 126.613 96.9252C127.093 96.974 127.564 97.0851 128.015 97.2556C127.738 94.5053 127.024 91.8174 126.783 89.076C126.783 88.9778 126.917 88.9421 126.944 89.0314C127.807 91.8863 128.378 94.8213 128.649 97.7914C128.73 98.1396 127.453 97.6574 127.203 97.5592Z" fill="#263238"/>
<path d="M112.085 95.1929C114.335 95.0321 114.049 89.5315 114.049 89.5315C114.049 89.5315 117.478 88.8707 119.094 84.1737C119.094 84.1737 123.559 86.8526 127.247 86.1739C133.034 85.0488 132.784 77.5032 130.596 75.9941C127.488 73.851 122.041 77.0925 122.041 77.0925C122.041 77.0925 113.719 74.8868 111.326 80.5304C110.251 80.6184 109.25 81.1107 108.524 81.9078C107.798 82.7049 107.402 83.7476 107.414 84.8255C107.2 88.8885 110.415 95.3089 112.085 95.1929Z" fill="#263238"/>
<path d="M113.255 90.1923C114.92 89.8842 116.435 89.0295 117.559 87.7635C118.163 87.0791 118.593 86.259 118.812 85.3728C119.031 84.4867 119.033 83.5607 118.818 82.6736C118.824 82.6578 118.834 82.6442 118.847 82.6345C118.861 82.6248 118.877 82.6196 118.894 82.6196C118.911 82.6196 118.927 82.6248 118.941 82.6345C118.954 82.6442 118.964 82.6578 118.97 82.6736C119.237 83.6024 119.296 84.5788 119.141 85.5328C118.987 86.4869 118.623 87.395 118.077 88.1921C117.531 88.9476 116.797 89.5477 115.949 89.9329C115.1 90.3182 114.165 90.4753 113.237 90.3888C113.183 90.3441 113.157 90.2102 113.255 90.1923Z" fill="#263238"/>
<path d="M121.818 77.3424C122.535 76.1583 123.659 75.2759 124.979 74.8599C126.585 74.4043 128.301 74.5569 129.801 75.2886C130.398 75.6013 130.902 76.0654 131.262 76.6343C131.623 77.2033 131.827 77.8571 131.855 78.53C131.873 80.0914 131.353 81.6113 130.382 82.8341C130.382 82.8341 130.301 82.8341 130.328 82.8341C131.103 81.6797 131.499 80.3128 131.462 78.9229C131.438 78.2616 131.227 77.6207 130.854 77.074C130.481 76.5273 129.962 76.0972 129.355 75.8333C126.962 74.8064 123.479 75.0207 121.943 77.4585C121.898 77.512 121.765 77.4227 121.818 77.3424Z" fill="#263238"/>
<path d="M113.407 94.9875C113.407 94.9875 110.612 90.7102 108.674 91.7014C106.736 92.6926 108.763 98.8451 110.969 99.7381C111.243 99.8722 111.542 99.9494 111.847 99.9652C112.152 99.981 112.457 99.9349 112.744 99.8298C113.031 99.7248 113.294 99.5628 113.517 99.3537C113.739 99.1446 113.918 98.8926 114.041 98.6129L113.407 94.9875Z" fill="#AD6359"/>
<path d="M109.254 93.4427C109.254 93.4427 109.254 93.4874 109.254 93.5053C109.96 93.8849 110.578 94.4085 111.069 95.0423C111.56 95.676 111.912 96.4058 112.102 97.1843C112.017 97.0239 111.897 96.8841 111.752 96.7747C111.607 96.6652 111.44 96.5887 111.263 96.5504C111.085 96.5122 110.901 96.5131 110.724 96.5532C110.546 96.5933 110.38 96.6715 110.236 96.7824C110.236 96.7824 110.236 96.8717 110.236 96.8628C110.514 96.784 110.809 96.7932 111.08 96.8892C111.352 96.9852 111.588 97.1632 111.754 97.3986C112.031 97.795 112.265 98.2201 112.451 98.6666C112.522 98.8095 112.772 98.738 112.728 98.5773C112.853 96.5503 111.388 93.7106 109.254 93.4427Z" fill="#263238"/>
<path d="M29.1731 370.199H0V364.841H29.1731C52.283 364.841 58.8731 345.062 60.3286 328.471C61.4716 315.478 62.1681 299.655 62.9093 282.93C65.6864 220.262 68.5618 155.459 93.7791 155.459H116.889V160.817H93.7612C73.6695 160.817 70.5441 231.531 68.2492 283.153C67.4991 299.967 66.7937 315.844 65.6507 328.962C63.329 355.546 50.3721 370.199 29.1731 370.199Z" fill="#FF8881"/>
<path opacity="0.2" d="M116.889 155.432V160.79H98.4579L97.3149 155.432H116.889Z" fill="black"/>
<path d="M197.059 192.722H206.899V123.982H197.059V192.722Z" fill="#FF8881"/>
<path d="M197.059 127.241H159.662V188.749H197.059V127.241Z" fill="#FF8881"/>
<path opacity="0.2" d="M197.059 127.241V188.749H187.772L183.602 127.241H197.059Z" fill="black"/>
<path d="M103.012 163.585H130.757V152.628H103.012V163.585Z" fill="#FF8881"/>
<path d="M130.757 152.637H103.012V163.594H130.757V152.637Z" fill="#FF8881"/>
<path opacity="0.2" d="M121.015 163.585L121.925 152.637H130.757V163.585H121.015Z" fill="black"/>
<path d="M159.662 185.105H136.249C134.792 185.105 133.395 184.527 132.365 183.497C131.335 182.467 130.757 181.07 130.757 179.614V137.073C130.757 135.616 131.335 134.22 132.365 133.19C133.395 132.16 134.792 131.581 136.249 131.581H159.662V185.105Z" fill="#FF8881"/>
<path opacity="0.2" d="M147.357 185.105L151.527 131.59H159.662V185.105H147.357Z" fill="black"/>
<g opacity="0.2">
<path d="M149.509 174.283H151.357V142.404H149.509V174.283Z" fill="black"/>
<path d="M144.285 174.283H146.133V142.404H144.285V174.283Z" fill="black"/>
<path d="M139.052 174.283H140.901V142.404H139.052V174.283Z" fill="black"/>
</g>
<path d="M101.307 120.91C100.414 133.805 99.3957 160.067 105.093 167.773C112.567 177.881 133.668 184.016 139.918 185.855C142.597 186.65 149.018 168.889 147.428 166.335C145.839 163.781 124.059 158.299 122.345 156.798C120.63 155.298 115.201 134.367 112.621 123.705C109.281 110.257 101.673 115.82 101.307 120.91Z" fill="#AD6359"/>
<path d="M163.52 173.158C166.958 173.979 172.173 172.211 172.342 174.845C172.494 177.185 168.77 178.051 168.77 178.051C168.77 178.051 173.289 178.435 172.735 180.998C172.182 183.561 167.895 183.677 167.895 183.677C167.895 183.677 172.039 184.239 171.297 186.757C170.556 189.276 166.583 189.624 166.583 189.624C166.583 189.624 167.627 190.401 166.306 191.946C164.422 194.16 158.135 193.901 154.894 192.99C151.652 192.08 140.428 186.329 138.722 185.409L144.41 164.514C144.41 164.514 150.938 163.478 154.313 163.353C157.689 163.228 168.913 165.907 168.44 168.711C167.967 171.515 160.064 169.514 158.019 169.443C155.974 169.371 155.617 169.827 156.51 170.577C157.09 171.104 161.993 172.791 163.52 173.158Z" fill="#AD6359"/>
<path d="M168.565 178.006C163.287 178.899 160.823 178.31 155.983 176.221C155.885 176.176 155.804 176.31 155.903 176.363C160.457 178.819 163.448 179.935 168.618 178.248C168.877 178.176 168.824 177.971 168.565 178.006Z" fill="#263238"/>
<path d="M168.101 183.587C162.537 183.989 159.867 183.427 154.635 181.623C154.563 181.623 154.51 181.721 154.581 181.757C159.573 183.945 162.573 185.007 168.083 183.873C168.333 183.829 168.36 183.57 168.101 183.587Z" fill="#263238"/>
<path d="M166.511 189.588C161.091 189.588 158.135 189.088 153.277 186.695C153.255 186.684 153.229 186.682 153.205 186.689C153.181 186.696 153.161 186.712 153.148 186.734C153.136 186.755 153.132 186.781 153.138 186.805C153.143 186.829 153.158 186.851 153.179 186.865C157.894 189.794 161.582 190.436 166.493 189.758C166.823 189.704 166.85 189.588 166.511 189.588Z" fill="#263238"/>
<path d="M123.443 181.668C123.443 181.668 106.414 173.113 103.798 166.559C100.583 158.379 99.2705 134.528 100.521 122.294C101.771 110.061 110.29 111.579 113.022 122.393C115.701 132.947 121.746 154.03 122.371 155.021C123.166 156.298 132.882 158.7 132.882 158.7" fill="#455A64"/>
<path d="M121.737 152.289C121.443 151.28 120.925 149.003 120.63 148.021C120.032 146.056 119.434 144.083 118.844 142.118C118.255 140.154 117.621 138.18 116.969 136.225C116.853 135.894 116.746 135.555 116.639 135.225C116.692 135.01 116.451 132.421 116.469 131.787C116.469 131.688 116.308 131.679 116.317 131.787C116.341 132.421 116.32 133.057 116.255 133.689C116.255 133.805 116.255 133.93 116.255 134.046C115.844 132.76 115.433 131.483 115.013 130.233C115.013 130.144 114.835 130.179 114.862 130.233C115.665 132.912 116.058 134.599 116.648 136.769C117.237 138.939 117.844 140.957 118.433 143.02C119.023 145.083 119.71 147.181 120.362 149.271C120.729 150.509 121.158 151.728 121.648 152.923C122.023 153.727 122.041 153.352 121.737 152.289Z" fill="#263238"/>
<path d="M102.531 159.495C102.182 157.29 101.834 155.03 101.566 152.852C101.021 148.387 100.673 143.993 100.477 139.528C100.361 136.975 100.173 134.439 100.03 131.894C100.03 131.868 100.02 131.843 100.002 131.824C99.9831 131.806 99.9581 131.795 99.9321 131.795C99.906 131.795 99.881 131.806 99.8626 131.824C99.8442 131.843 99.8338 131.868 99.8338 131.894C99.8338 134.162 99.7535 136.421 99.8338 138.689C99.8338 139.019 99.8338 139.35 99.8338 139.68L99.7267 139.216C99.3963 137.921 98.9319 136.653 98.6462 135.34C98.6384 135.325 98.6254 135.313 98.6096 135.307C98.5938 135.301 98.5763 135.3 98.5601 135.305C98.5439 135.311 98.5302 135.322 98.5214 135.336C98.5126 135.351 98.5094 135.368 98.5122 135.385C98.8337 136.689 99.0034 138.064 99.307 139.341C99.4677 139.993 99.6284 140.645 99.807 141.297L99.8963 141.573C99.9499 142.877 100.012 144.181 100.102 145.485C100.344 149.959 100.86 154.414 101.647 158.825C102.186 161.71 102.966 164.545 103.977 167.3C103.982 167.313 103.991 167.325 104.003 167.333C104.015 167.342 104.03 167.346 104.044 167.346C104.059 167.346 104.073 167.342 104.085 167.333C104.097 167.325 104.106 167.313 104.111 167.3C103.584 165.094 102.888 161.701 102.531 159.495Z" fill="#263238"/>
<path d="M129.72 158.691C128.788 160.295 127.953 161.953 127.22 163.656C126.434 165.335 125.64 167.014 124.898 168.711C123.396 172.052 122.081 175.474 120.96 178.962C120.958 178.981 120.963 179.001 120.973 179.018C120.983 179.035 120.999 179.047 121.017 179.055C121.035 179.062 121.055 179.063 121.074 179.057C121.093 179.052 121.11 179.04 121.121 179.024C122.782 175.72 124.202 172.282 125.649 168.88C126.363 167.201 127.05 165.505 127.756 163.826C128.461 162.147 129.265 160.46 129.81 158.727C129.828 158.674 129.747 158.647 129.72 158.691Z" fill="#263238"/>
<path d="M223.384 112.481C223.266 112.481 223.152 112.434 223.068 112.35C222.985 112.266 222.938 112.153 222.938 112.034V99.4703C222.938 99.3519 222.985 99.2383 223.068 99.1546C223.152 99.0709 223.266 99.0238 223.384 99.0238C223.502 99.0238 223.616 99.0709 223.7 99.1546C223.783 99.2383 223.83 99.3519 223.83 99.4703V112.034C223.83 112.153 223.783 112.266 223.7 112.35C223.616 112.434 223.502 112.481 223.384 112.481Z" fill="#263238"/>
<path d="M200.649 118.499C200.57 118.5 200.492 118.479 200.423 118.44C200.354 118.401 200.296 118.344 200.256 118.276L194.005 107.391C193.969 107.34 193.943 107.283 193.93 107.222C193.917 107.161 193.917 107.097 193.93 107.036C193.942 106.975 193.968 106.917 194.005 106.867C194.041 106.816 194.088 106.774 194.142 106.742C194.196 106.711 194.256 106.691 194.318 106.685C194.38 106.678 194.443 106.684 194.503 106.703C194.562 106.722 194.617 106.754 194.664 106.795C194.71 106.837 194.748 106.888 194.773 106.944L201.024 117.83C201.054 117.88 201.074 117.936 201.082 117.994C201.091 118.052 201.087 118.111 201.072 118.167C201.057 118.224 201.031 118.277 200.995 118.323C200.959 118.37 200.914 118.408 200.863 118.437C200.799 118.477 200.725 118.498 200.649 118.499Z" fill="#263238"/>
<path d="M194.113 208.081C194.034 208.082 193.957 208.06 193.889 208.019C193.839 207.987 193.797 207.945 193.763 207.895C193.73 207.846 193.708 207.79 193.697 207.731C193.686 207.673 193.687 207.613 193.7 207.555C193.713 207.497 193.738 207.442 193.773 207.394L200.024 196.518C200.053 196.467 200.092 196.422 200.139 196.386C200.186 196.35 200.239 196.324 200.296 196.308C200.353 196.293 200.412 196.289 200.47 196.297C200.528 196.304 200.585 196.323 200.636 196.352C200.687 196.382 200.732 196.421 200.767 196.467C200.803 196.514 200.83 196.567 200.845 196.624C200.86 196.681 200.864 196.74 200.857 196.798C200.849 196.857 200.83 196.913 200.801 196.964L194.55 207.84C194.51 207.92 194.446 207.985 194.368 208.028C194.29 208.071 194.201 208.09 194.113 208.081Z" fill="#263238"/>
<path d="M223.098 215.922C222.98 215.922 222.866 215.875 222.783 215.791C222.699 215.707 222.652 215.594 222.652 215.475V202.929C222.652 202.811 222.699 202.697 222.783 202.613C222.866 202.53 222.98 202.483 223.098 202.483C223.216 202.485 223.328 202.533 223.412 202.616C223.495 202.699 223.543 202.811 223.545 202.929V215.493C223.54 215.608 223.491 215.717 223.408 215.797C223.325 215.877 223.214 215.922 223.098 215.922Z" fill="#263238"/>
<path d="M252.12 208.224C252.042 208.224 251.965 208.203 251.898 208.164C251.831 208.125 251.775 208.069 251.736 208.001L245.485 197.125C245.456 197.074 245.437 197.017 245.429 196.959C245.421 196.901 245.425 196.841 245.441 196.785C245.456 196.728 245.483 196.675 245.518 196.628C245.554 196.581 245.599 196.542 245.65 196.513C245.701 196.484 245.757 196.465 245.816 196.457C245.874 196.45 245.933 196.454 245.99 196.469C246.047 196.484 246.1 196.511 246.147 196.547C246.193 196.583 246.232 196.627 246.262 196.678L252.512 207.555C252.543 207.605 252.563 207.661 252.571 207.719C252.579 207.777 252.576 207.836 252.561 207.892C252.546 207.949 252.519 208.002 252.484 208.048C252.448 208.094 252.403 208.133 252.352 208.162C252.282 208.205 252.201 208.227 252.12 208.224Z" fill="#263238"/>
<path d="M246.083 118.642C246.005 118.643 245.927 118.621 245.86 118.58C245.809 118.551 245.764 118.512 245.728 118.466C245.692 118.42 245.666 118.367 245.651 118.31C245.636 118.253 245.633 118.194 245.641 118.136C245.649 118.078 245.669 118.023 245.699 117.972L251.95 107.087C252.015 106.998 252.111 106.936 252.219 106.913C252.327 106.89 252.44 106.908 252.536 106.964C252.631 107.019 252.703 107.108 252.736 107.214C252.77 107.319 252.764 107.433 252.718 107.534L246.467 118.419C246.427 118.485 246.371 118.54 246.304 118.579C246.237 118.618 246.161 118.64 246.083 118.642Z" fill="#263238"/>
</svg>
