<svg width="111" height="42" viewBox="0 0 111 42" fill="none" xmlns="http://www.w3.org/2000/svg">
<path d="M14.0558 8.60237C14.0628 11.2712 14.0628 13.9399 14.0699 16.6087C14.0769 18.9093 13.3229 21.1502 11.1907 22.325C8.69371 23.6892 5.15521 23.3456 2.37069 23.058C2.26548 23.051 2.16729 23.037 2.0691 23.0299C2.16028 21.1081 2.12521 19.1688 2.03403 17.254C1.91479 14.6589 3.48941 11.5657 6.27392 11.1274C9.30042 10.6504 11.9306 10.3278 13.3579 8.65848C13.407 8.60938 13.4491 8.56029 13.4912 8.50418C13.7016 8.22012 13.9261 7.94306 14.1505 7.66602C14.0804 7.96761 14.0558 8.28675 14.0558 8.60237Z" fill="#8807F7"/>
<path d="M4.90967 40.4388C6.99279 40.5721 9.08994 40.5405 11.1766 40.5756C13.6104 40.6177 16.1003 40.9193 18.45 40.4914C21.8202 39.8777 25.6112 37.6788 26.8631 34.4209C28.0239 31.4049 27.4769 27.8033 25.4779 25.2713C25.3376 25.0959 25.1903 24.9276 25.029 24.7593C23.009 22.5499 19.8738 21.3961 16.8964 21.7924C13.1896 22.2834 9.9246 25.1976 8.9637 28.8063C8.36401 31.0577 8.88654 33.4565 8.53585 35.75C8.24828 37.6508 6.62807 39.5971 4.90967 40.4388Z" fill="#8807F7"/>
<path d="M25.741 0C25.5551 0.564618 25.7796 1.17833 26.0216 1.72191C29.1112 8.61656 37.3981 13.2808 37.114 21.5607C36.9843 25.3061 35.1151 29.7073 31.9904 31.9272C31.7624 32.0885 31.5555 32.2323 31.289 32.306C30.6928 31.1908 30.6297 29.5565 30.1212 28.3256C29.4864 26.7825 28.6448 25.264 27.4699 24.0682C26.3442 22.9249 24.9344 22.2656 23.8087 21.1434C21.445 18.7832 19.9546 15.5463 19.7582 12.2077C19.4706 7.44524 21.8518 2.72139 25.741 0Z" fill="#8807F7"/>
<path d="M4.22933 16.6262C4.22933 16.6262 4.12061 14.5466 6.24933 14.6518C6.25284 14.6518 7.02787 16.9243 4.22933 16.6262Z" fill="white" stroke="#8807F7" stroke-width="0.5" stroke-miterlimit="10"/>
<path d="M3.52799 34.2205C5.47644 34.2205 7.05597 32.641 7.05597 30.6925C7.05597 28.7441 5.47644 27.1646 3.52799 27.1646C1.57953 27.1646 0 28.7441 0 30.6925C0 32.641 1.57953 34.2205 3.52799 34.2205Z" fill="#8807F7"/>
<path d="M40.6694 31.2334L46.5386 15.549H49.6843L55.5535 31.2334H52.4855L51.0516 27.4318H45.2047L43.7707 31.2334H40.6694ZM46.1829 24.8863H50.0956L48.117 18.8949L46.1829 24.8863ZM57.1319 31.2334V20.6067H59.9109V23.1078C60.1702 22.1963 60.5741 21.5145 61.1225 21.0625C61.6709 20.603 62.2711 20.3733 62.9232 20.3733C63.5828 20.3733 64.1645 20.503 64.6684 20.7623L64.1904 23.2634C63.768 23.0707 63.2308 22.9744 62.5786 22.9744C60.8001 22.9744 59.9109 24.475 59.9109 27.4763V31.2334H57.1319ZM66.0356 28.2099C65.754 27.5133 65.6132 26.7537 65.6132 25.9312C65.6132 25.1086 65.754 24.3453 66.0356 23.6413C66.3172 22.9373 66.6952 22.3482 67.1695 21.8739C67.6437 21.3996 68.1958 21.0328 68.8257 20.7734C69.463 20.5067 70.13 20.3733 70.8266 20.3733C71.5528 20.3733 72.2197 20.5178 72.8274 20.8068C73.4351 21.0958 73.8834 21.4997 74.1724 22.0184V14.8154H76.9291V31.2334H74.1724V29.7995C73.8834 30.3182 73.4313 30.7258 72.8163 31.0222C72.2086 31.3112 71.5454 31.4557 70.8266 31.4557C70.13 31.4557 69.4667 31.326 68.8368 31.0667C68.2069 30.7999 67.6511 30.4331 67.1695 29.9662C66.6952 29.4919 66.3172 28.9065 66.0356 28.2099ZM68.4811 25.8867C68.4811 26.7463 68.7479 27.4466 69.2815 27.9876C69.8224 28.5286 70.4894 28.799 71.2823 28.799C72.0678 28.799 72.7385 28.5323 73.2943 27.9987C73.85 27.4577 74.1279 26.7537 74.1279 25.8867C74.1279 25.0197 73.8426 24.3268 73.272 23.8081C72.7088 23.2819 72.0456 23.0188 71.2823 23.0188C70.4894 23.0188 69.8224 23.2856 69.2815 23.8192C68.7479 24.3453 68.4811 25.0345 68.4811 25.8867ZM79.6636 16.4828C79.6636 16.0159 79.8415 15.6231 80.1972 15.3045C80.5529 14.9784 80.9753 14.8154 81.4644 14.8154C81.946 14.8154 82.3573 14.9784 82.6982 15.3045C83.0465 15.6231 83.2206 16.0159 83.2206 16.4828C83.2206 16.957 83.0465 17.3572 82.6982 17.6833C82.3573 18.0019 81.946 18.1612 81.4644 18.1612C80.9678 18.1612 80.5417 18.0019 80.186 17.6833C79.8377 17.3572 79.6636 16.957 79.6636 16.4828ZM80.0749 31.2334V20.6067H82.8316V31.2334H80.0749ZM85.9662 31.2334V14.8154H88.7452V31.2334H85.9662ZM91.8798 31.2334V14.8154H94.6588V31.2334H91.8798ZM97.1376 25.9089C97.1376 25.079 97.2858 24.312 97.5822 23.608C97.8861 22.904 98.2899 22.3185 98.7939 21.8517C99.2978 21.3848 99.8721 21.0217 100.517 20.7623C101.169 20.503 101.847 20.3733 102.551 20.3733C103.136 20.3733 103.744 20.4993 104.374 20.7512C105.004 20.9958 105.497 21.3848 105.852 21.9184V20.6067H108.631V31.2334H105.852V29.8662C105.541 30.3701 105.059 30.7591 104.407 31.0333C103.763 31.3001 103.144 31.4335 102.551 31.4335C101.61 31.4335 100.728 31.2149 99.9054 30.7777C99.0903 30.333 98.4233 29.6846 97.9046 28.8324C97.3933 27.9728 97.1376 26.9983 97.1376 25.9089ZM100.005 25.9089C100.005 26.7389 100.298 27.4244 100.884 27.9654C101.469 28.5063 102.155 28.7768 102.94 28.7768C103.733 28.7768 104.415 28.5174 104.985 27.9987C105.563 27.48 105.852 26.7834 105.852 25.9089C105.852 25.0345 105.56 24.3379 104.974 23.8192C104.396 23.3004 103.718 23.0411 102.94 23.0411C102.147 23.0411 101.458 23.3116 100.873 23.8525C100.294 24.3861 100.005 25.0715 100.005 25.9089Z" fill="#3D0072"/>
<rect x="84.6694" y="12.2334" width="6" height="6" fill="#FBF3FA"/>
</svg>
