<svg width="82" height="76" viewBox="0 0 82 76" fill="none" xmlns="http://www.w3.org/2000/svg">
<g filter="url(#filter0_d_869_14160)">
<rect x="13" y="7.91309" width="56" height="50" rx="10.0998" fill="white" shape-rendering="crispEdges"/>
<path d="M30.5518 38.279C29.7092 36.5938 29.2037 34.7401 29.2037 32.8022C29.2037 26.3142 34.512 21.0059 41 21.0059V22.691C35.4389 22.691 30.8889 27.241 30.8889 32.8022C30.8889 34.4873 31.3102 36.004 32.0685 37.4364L30.5518 38.279ZM51.1111 32.8022C51.1111 38.3633 46.5611 42.9133 41 42.9133C38.5565 42.9133 36.2815 42.0707 34.512 40.554L39.3148 35.7512L38.1352 34.4873L32.6583 39.9642C32.3213 40.3012 32.3213 40.8068 32.6583 41.1438C34.849 43.3346 37.8824 44.5985 41 44.5985C47.4879 44.5985 52.7963 39.2901 52.7963 32.8022H51.1111Z" fill="#3D0072"/>
<path d="M42.6852 40.3849C42.6009 40.3849 42.4324 40.3849 42.3482 40.3006C42.0954 40.2164 41.8426 39.9636 41.8426 39.6265L41.2528 35.4136L42.938 35.1608L43.275 37.9414L45.1287 36.5089V31.9589C45.1287 31.7062 45.213 31.5377 45.3815 31.3691L48.0778 28.6728C48.8361 27.9145 49.3417 26.8191 49.3417 25.7238V24.3756H48.0778C46.9824 24.3756 45.887 24.7969 45.1287 25.6395L42.4324 28.3358C42.2639 28.5043 42.0954 28.5886 41.8426 28.5886H37.2083L35.7759 30.4423L38.5565 30.7793L38.3037 32.4645L34.0907 31.8747C33.7537 31.8747 33.5009 31.6219 33.4167 31.3691C33.3324 31.1164 33.3324 30.7793 33.5009 30.5265L36.0287 27.1562C36.2815 26.9877 36.5343 26.9034 36.787 26.9034H41.5056L44.0333 24.3756C45.1287 23.2802 46.6454 22.6904 48.162 22.6904H49.4259C50.3528 22.6904 51.1111 23.4488 51.1111 24.3756V25.6395C51.1111 27.2404 50.5213 28.6728 49.4259 29.7682L46.8982 32.296V37.0145C46.8982 37.2673 46.8139 37.5201 46.5611 37.6886L43.1907 40.2164C43.0222 40.3006 42.8537 40.3849 42.6852 40.3849Z" fill="#3D0072"/>
</g>
<defs>
<filter id="filter0_d_869_14160" x="0.3752" y="0.338206" width="81.2496" height="75.2496" filterUnits="userSpaceOnUse" color-interpolation-filters="sRGB">
<feFlood flood-opacity="0" result="BackgroundImageFix"/>
<feColorMatrix in="SourceAlpha" type="matrix" values="0 0 0 0 0 0 0 0 0 0 0 0 0 0 0 0 0 0 127 0" result="hardAlpha"/>
<feOffset dy="5.04992"/>
<feGaussianBlur stdDeviation="6.3124"/>
<feComposite in2="hardAlpha" operator="out"/>
<feColorMatrix type="matrix" values="0 0 0 0 0.533333 0 0 0 0 0.027451 0 0 0 0 0.968627 0 0 0 0.07 0"/>
<feBlend mode="normal" in2="BackgroundImageFix" result="effect1_dropShadow_869_14160"/>
<feBlend mode="normal" in="SourceGraphic" in2="effect1_dropShadow_869_14160" result="shape"/>
</filter>
</defs>
</svg>
