<svg width="81" height="74" viewBox="0 0 81 74" fill="none" xmlns="http://www.w3.org/2000/svg">
<g filter="url(#filter0_d_652_30707)">
<rect x="13" y="7.91309" width="55" height="49" rx="9.73913" fill="white" shape-rendering="crispEdges"/>
<path d="M38.2083 26.3711C38.2083 26.4411 38.2117 26.5111 38.2175 26.5794H36.5417C36.4864 26.5794 36.4334 26.6014 36.3943 26.6404C36.3553 26.6795 36.3333 26.7325 36.3333 26.7877V36.3711C36.3333 36.4861 36.4267 36.5794 36.5417 36.5794H44.4583C44.5136 36.5794 44.5666 36.5575 44.6056 36.5184C44.6447 36.4793 44.6667 36.4263 44.6667 36.3711V26.7877C44.6667 26.7325 44.6447 26.6795 44.6056 26.6404C44.5666 26.6014 44.5136 26.5794 44.4583 26.5794H42.7825C42.8101 26.2712 42.7751 25.9606 42.6794 25.6664C42.5838 25.3721 42.4296 25.1002 42.226 24.8672C42.0225 24.6341 41.7739 24.4447 41.4951 24.3104C41.2164 24.176 40.9134 24.0995 40.6043 24.0854C40.2952 24.0713 39.9864 24.12 39.6966 24.2284C39.4068 24.3369 39.142 24.5029 38.9181 24.7165C38.6942 24.9301 38.5159 25.1868 38.3939 25.4712C38.272 25.7555 38.2088 26.0617 38.2083 26.3711ZM41.9583 26.3711C41.9583 26.4419 41.9533 26.5111 41.9433 26.5794H39.0567C39.028 26.3811 39.0405 26.1791 39.0934 25.9859C39.1463 25.7926 39.2384 25.6124 39.364 25.4563C39.4896 25.3003 39.6461 25.1718 39.8235 25.0788C40.001 24.9859 40.1957 24.9305 40.3956 24.9162C40.5954 24.9018 40.796 24.9288 40.9849 24.9954C41.1739 25.0621 41.3471 25.1669 41.4937 25.3034C41.6403 25.4399 41.7572 25.6052 41.8372 25.7889C41.9171 25.9725 41.9584 26.1707 41.9583 26.3711ZM33 27.4127C33 27.1917 33.0878 26.9798 33.2441 26.8235C33.4003 26.6672 33.6123 26.5794 33.8333 26.5794H35.2917C35.3469 26.5794 35.3999 26.6014 35.439 26.6404C35.478 26.6795 35.5 26.7325 35.5 26.7877V36.3711C35.5 36.4263 35.478 36.4793 35.439 36.5184C35.3999 36.5575 35.3469 36.5794 35.2917 36.5794H33.8333C33.6123 36.5794 33.4003 36.4916 33.2441 36.3353C33.0878 36.1791 33 35.9671 33 35.7461V27.4127ZM45.7083 36.5794C45.6531 36.5794 45.6001 36.5575 45.561 36.5184C45.5219 36.4793 45.5 36.4263 45.5 36.3711V26.7877C45.5 26.7325 45.5219 26.6795 45.561 26.6404C45.6001 26.6014 45.6531 26.5794 45.7083 26.5794H47.1667C47.3877 26.5794 47.5996 26.6672 47.7559 26.8235C47.9122 26.9798 48 27.1917 48 27.4127V35.7461C48 35.9671 47.9122 36.1791 47.7559 36.3353C47.5996 36.4916 47.3877 36.5794 47.1667 36.5794H45.7083ZM48.4167 38.2461C48.5272 38.2461 48.6331 38.29 48.7113 38.3681C48.7894 38.4463 48.8333 38.5522 48.8333 38.6627C48.8333 38.7733 48.7894 38.8792 48.7113 38.9574C48.6331 39.0355 48.5272 39.0794 48.4167 39.0794H46.3333C46.3333 39.3004 46.2455 39.5124 46.0892 39.6687C45.933 39.8249 45.721 39.9127 45.5 39.9127C45.279 39.9127 45.067 39.8249 44.9107 39.6687C44.7545 39.5124 44.6667 39.3004 44.6667 39.0794H43C43 39.3004 42.9122 39.5124 42.7559 39.6687C42.5996 39.8249 42.3877 39.9127 42.1667 39.9127C41.9456 39.9127 41.7337 39.8249 41.5774 39.6687C41.4211 39.5124 41.3333 39.3004 41.3333 39.0794H39.6667C39.6667 39.3004 39.5789 39.5124 39.4226 39.6687C39.2663 39.8249 39.0543 39.9127 38.8333 39.9127C38.6123 39.9127 38.4003 39.8249 38.2441 39.6687C38.0878 39.5124 38 39.3004 38 39.0794H36.3333C36.3333 39.3004 36.2455 39.5124 36.0892 39.6687C35.933 39.8249 35.721 39.9127 35.5 39.9127C35.279 39.9127 35.067 39.8249 34.9107 39.6687C34.7545 39.5124 34.6667 39.3004 34.6667 39.0794H32.5833C32.4728 39.0794 32.3668 39.0355 32.2887 38.9574C32.2106 38.8792 32.1667 38.7733 32.1667 38.6627C32.1667 38.5522 32.2106 38.4463 32.2887 38.3681C32.3668 38.29 32.4728 38.2461 32.5833 38.2461H48.4167Z" fill="#3D0072"/>
<path d="M32.1667 19.9131C31.6195 19.9131 31.0777 20.0209 30.5722 20.2303C30.0666 20.4396 29.6073 20.7466 29.2204 21.1335C28.439 21.9149 28 22.9747 28 24.0798V40.7464C28 41.8515 28.439 42.9113 29.2204 43.6927C29.6073 44.0796 30.0666 44.3865 30.5722 44.5959C31.0777 44.8053 31.6195 44.9131 32.1667 44.9131H48.8333C49.9384 44.9131 50.9982 44.4741 51.7796 43.6927C52.561 42.9113 53 41.8515 53 40.7464V24.0798C53 23.5326 52.8922 22.9908 52.6828 22.4852C52.4734 21.9797 52.1665 21.5204 51.7796 21.1335C51.3927 20.7466 50.9334 20.4396 50.4278 20.2303C49.9223 20.0209 49.3805 19.9131 48.8333 19.9131H32.1667ZM29.6667 24.0798C29.6667 23.4167 29.9301 22.7808 30.3989 22.312C30.8677 21.8431 31.5036 21.5798 32.1667 21.5798H48.8333C49.4964 21.5798 50.1323 21.8431 50.6011 22.312C51.0699 22.7808 51.3333 23.4167 51.3333 24.0798V40.7464C51.3333 41.4095 51.0699 42.0453 50.6011 42.5142C50.1323 42.983 49.4964 43.2464 48.8333 43.2464H32.1667C31.5036 43.2464 30.8677 42.983 30.3989 42.5142C29.9301 42.0453 29.6667 41.4095 29.6667 40.7464V24.0798Z" fill="#3D0072"/>
</g>
<defs>
<filter id="filter0_d_652_30707" x="0.826086" y="0.608737" width="79.3478" height="73.3478" filterUnits="userSpaceOnUse" color-interpolation-filters="sRGB">
<feFlood flood-opacity="0" result="BackgroundImageFix"/>
<feColorMatrix in="SourceAlpha" type="matrix" values="0 0 0 0 0 0 0 0 0 0 0 0 0 0 0 0 0 0 127 0" result="hardAlpha"/>
<feOffset dy="4.86957"/>
<feGaussianBlur stdDeviation="6.08696"/>
<feComposite in2="hardAlpha" operator="out"/>
<feColorMatrix type="matrix" values="0 0 0 0 0.533333 0 0 0 0 0.027451 0 0 0 0 0.968627 0 0 0 0.07 0"/>
<feBlend mode="normal" in2="BackgroundImageFix" result="effect1_dropShadow_652_30707"/>
<feBlend mode="normal" in="SourceGraphic" in2="effect1_dropShadow_652_30707" result="shape"/>
</filter>
</defs>
</svg>
