<svg width="239" height="244" viewBox="0 0 239 244" fill="none" xmlns="http://www.w3.org/2000/svg">
<g filter="url(#filter0_i_308_389)">
<circle cx="120.075" cy="124.993" r="115.478" fill="#FBF3FA"/>
</g>
<circle cx="120.075" cy="124.993" r="115.478" stroke="#F3F4F6" stroke-width="1.14904"/>
<mask id="mask0_308_389" style="mask-type:alpha" maskUnits="userSpaceOnUse" x="0" y="-4" width="239" height="240">
<path d="M239 115.822C239 181.82 185.498 235.322 119.5 235.322C53.502 235.322 0 181.82 0 115.822C0 49.8241 53.502 -3.67789 119.5 -3.67789C185.498 -3.67789 239 49.8241 239 115.822Z" fill="white"/>
</mask>
<g mask="url(#mask0_308_389)">
<g clip-path="url(#clip0_308_389)">
<path d="M214.885 235.127H24.8597C24.8597 235.127 27.4101 223.09 31.0443 211.002C34.6785 198.914 42.1893 193.848 51.9188 191.372C61.6356 188.883 99.9926 176.999 99.9926 176.999L119.758 175.424L119.872 175.411L119.987 175.424L137.814 176.846C137.814 176.846 178.097 188.883 187.813 191.372C197.543 193.861 205.054 198.914 208.688 211.002C212.322 223.09 214.885 235.127 214.885 235.127Z" fill="#E9356E"/>
<path d="M175.177 226.226H151.994C151.446 226.226 151.012 226.658 151.012 227.204V235.127H152.976V228.182H174.195V235.127H176.159V227.204C176.159 226.671 175.725 226.226 175.177 226.226Z" fill="#C4205C"/>
<path d="M118.725 205.783C119.964 205.783 120.969 204.783 120.969 203.549C120.969 202.314 119.964 201.314 118.725 201.314C117.485 201.314 116.48 202.314 116.48 203.549C116.48 204.783 117.485 205.783 118.725 205.783Z" fill="#F5EFFF"/>
<path d="M118.725 217.605C119.964 217.605 120.969 216.604 120.969 215.37C120.969 214.136 119.964 213.135 118.725 213.135C117.485 213.135 116.48 214.136 116.48 215.37C116.48 216.604 117.485 217.605 118.725 217.605Z" fill="#F5EFFF"/>
<path d="M118.725 229.439C119.964 229.439 120.969 228.438 120.969 227.204C120.969 225.97 119.964 224.969 118.725 224.969C117.485 224.969 116.48 225.97 116.48 227.204C116.48 228.438 117.485 229.439 118.725 229.439Z" fill="#F5EFFF"/>
<path d="M119.988 175.399V175.411H119.873L119.988 175.399Z" fill="#5D46C2"/>
<path d="M119.873 175.411H119.758V175.399L119.873 175.411Z" fill="#5D46C2"/>
<path d="M137.495 181.658C137.495 181.658 132.573 190.826 118.827 190.826C105.54 190.826 99.9543 181.201 99.9543 181.201L100.77 174.611L100.911 173.507L102.186 163.12L135.06 164.034L135.608 167.983L135.787 169.278L137.495 181.658Z" fill="#FF8881"/>
<path d="M100.898 173.507C100.898 173.507 89.1792 175.475 80.5336 182.966C80.5336 182.966 83.0711 197.708 99.9544 212.284L118.827 190.826C118.827 190.826 106.203 186.052 100.898 173.507Z" fill="#C4205C"/>
<path d="M136.271 173.507C136.271 173.507 147.99 175.475 156.636 182.966C156.636 182.966 154.098 197.708 137.215 212.284L118.342 190.826C118.342 190.826 130.966 186.052 136.271 173.507Z" fill="#C4205C"/>
<path d="M135.595 167.983C128.148 174.268 116.098 176.656 100.771 174.611L100.911 173.507L102.186 163.12L135.06 164.034L135.595 167.983Z" fill="#19274B"/>
<path d="M89.8296 136.1C82.4718 146.322 66.647 139.414 67.7181 125.853C68.7 113.55 82.4973 115.505 82.4973 115.505L89.8296 136.1Z" fill="#F55B5D"/>
<path d="M83.0584 136.367C82.6121 136.367 82.2168 136.062 82.102 135.618C80.6738 129.802 74.5913 124.355 74.5403 124.304C74.1322 123.949 74.094 123.327 74.4638 122.92C74.8208 122.514 75.4457 122.476 75.8537 122.844C76.1215 123.085 82.4463 128.736 84.0275 135.148C84.155 135.668 83.8362 136.202 83.3134 136.329C83.2242 136.354 83.1349 136.367 83.0584 136.367Z" fill="#D1373F"/>
<path d="M80.5335 130.831C80.4315 130.831 80.3295 130.818 80.2275 130.78C77.5369 129.878 74.9738 130.424 74.9483 130.437C74.4255 130.551 73.8899 130.221 73.7751 129.701C73.6604 129.18 73.9919 128.66 74.5147 128.533C74.6423 128.507 77.6262 127.86 80.8523 128.939C81.3624 129.104 81.6429 129.663 81.4772 130.171C81.3241 130.577 80.9416 130.831 80.5335 130.831Z" fill="#D1373F"/>
<path d="M144.267 136.1C151.624 146.322 167.449 139.414 166.378 125.853C165.396 113.55 151.599 115.505 151.599 115.505L144.267 136.1Z" fill="#F55B5D"/>
<path d="M151.038 136.367C150.961 136.367 150.885 136.354 150.808 136.341C150.285 136.214 149.954 135.681 150.094 135.161C151.675 128.748 158 123.098 158.268 122.857C158.676 122.501 159.288 122.539 159.658 122.933C160.015 123.339 159.977 123.949 159.581 124.317C159.518 124.368 153.448 129.802 152.02 135.63C151.879 136.062 151.484 136.367 151.038 136.367Z" fill="#D1373F"/>
<path d="M153.563 130.831C153.154 130.831 152.772 130.577 152.632 130.158C152.453 129.65 152.734 129.091 153.256 128.926C156.483 127.847 159.467 128.494 159.594 128.52C160.117 128.634 160.461 129.155 160.334 129.688C160.219 130.209 159.683 130.539 159.161 130.424C159.122 130.412 156.559 129.878 153.881 130.767C153.779 130.818 153.677 130.831 153.563 130.831Z" fill="#D1373F"/>
<path d="M79.5772 100.56C79.5772 100.56 75.9812 122.73 85.2899 144.417C93.7188 164.072 104.94 170.193 116.889 170.383C130.469 170.599 158.905 162.777 154.404 98.6175C151.356 55.2687 83.1732 56.7924 79.5772 100.56Z" fill="#FF8881"/>
<g opacity="0.5">
<path d="M95.5041 140.303C100.716 140.303 104.94 138.365 104.94 135.973C104.94 133.582 100.716 131.643 95.5041 131.643C90.2926 131.643 86.0679 133.582 86.0679 135.973C86.0679 138.365 90.2926 140.303 95.5041 140.303Z" fill="#F55B5D"/>
</g>
<g opacity="0.5">
<path d="M142.545 140.303C147.756 140.303 151.981 138.365 151.981 135.973C151.981 133.582 147.756 131.643 142.545 131.643C137.333 131.643 133.109 133.582 133.109 135.973C133.109 138.365 137.333 140.303 142.545 140.303Z" fill="#F55B5D"/>
</g>
<path d="M156.011 116.483C156.011 116.483 156.661 132.532 151.879 152.632C144.215 184.845 117.922 180.554 117.922 180.554C117.922 180.554 92.1376 184.845 84.4739 152.632C79.692 132.532 77.6262 117.537 77.6262 117.537L83.6705 109.575C83.6705 109.575 86.6162 137.332 97.2893 142.144C97.2893 142.144 102.033 134.957 117.922 141.674C133.81 134.957 139.077 142.144 139.077 142.144C149.75 137.332 150.655 110.617 150.655 110.617L156.011 116.483Z" fill="#19274B"/>
<path d="M87.6235 87.1137C87.6235 87.1137 90.1611 103.76 83.0711 109.842V123.581L78.9014 124.825C78.9014 124.825 75.2671 106.465 73.8772 96.2432C71.1866 76.448 89.8423 73.9339 89.8423 73.9339L87.6235 87.1137Z" fill="#19274B"/>
<path d="M146.09 87.1137C146.09 87.1137 143.552 103.76 150.642 109.842V123.581L154.812 124.825C154.812 124.825 158.446 106.465 159.836 96.2432C162.527 76.448 143.871 73.9339 143.871 73.9339L146.09 87.1137Z" fill="#19274B"/>
<path d="M76.4914 86.0599C76.4914 86.0599 64.0075 64.1061 93.5786 56.0687C114.198 50.4691 142.111 56.3607 151.038 41.7841C151.038 41.7841 153.537 51.7516 148.602 58.1511C148.602 58.1511 162.055 54.1387 165.791 46.2409C165.791 46.2409 170.42 58.5955 163.254 68.1185C163.254 68.1185 168.788 69.9088 173.71 66.0361C173.71 66.0361 173.251 92.9672 153.231 91.4817C153.231 91.4817 148.997 88.2819 141.678 86.0599C134.358 83.8251 128.416 95.0623 109.352 90.3008C92.3544 86.0472 85.3538 83.368 76.4914 86.0599Z" fill="#19274B"/>
<path d="M118.572 159.59C115.779 159.59 113.56 158.613 113.42 158.549C113.012 158.359 112.821 157.876 113.012 157.47C113.203 157.064 113.675 156.873 114.096 157.064C114.172 157.089 119.197 159.286 123.239 156.645C123.621 156.403 124.119 156.505 124.374 156.873C124.616 157.254 124.514 157.749 124.144 158.003C122.295 159.222 120.319 159.59 118.572 159.59Z" fill="#33476D"/>
<path d="M121.467 138.119C121.441 138.119 121.428 138.119 121.403 138.119L115.422 137.637C114.976 137.599 114.632 137.205 114.67 136.76C114.708 136.316 115.103 135.973 115.55 136.011L120.548 136.418L118.993 121.282C118.942 120.838 119.273 120.432 119.72 120.394C120.166 120.343 120.574 120.673 120.612 121.117L122.27 137.218C122.295 137.459 122.206 137.7 122.04 137.865C121.9 138.043 121.683 138.119 121.467 138.119Z" fill="#F55B5D"/>
<path d="M105.744 145.509C113.101 146.652 120.587 147.147 130.609 145.166C130.609 145.166 129.742 155.832 117.845 155.87C107.733 155.908 105.744 145.509 105.744 145.509Z" fill="#F5EFFF"/>
<path d="M105.157 121.206C105.157 124.025 103.869 126.323 102.275 126.323C100.681 126.323 99.3933 124.038 99.3933 121.206C99.3933 118.387 100.681 116.089 102.275 116.089C103.869 116.089 105.157 118.375 105.157 121.206Z" fill="#19274B"/>
<path d="M135.774 121.206C135.774 124.025 134.486 126.323 132.892 126.323C131.298 126.323 130.01 124.038 130.01 121.206C130.01 118.387 131.298 116.089 132.892 116.089C134.486 116.089 135.774 118.375 135.774 121.206Z" fill="#19274B"/>
<path d="M97.1745 110.007C99.1893 108.928 102.148 107.595 105.017 107.176C106.56 106.947 107.529 105.411 107.006 103.95L106.904 103.658C106.521 102.605 105.476 101.944 104.354 102.059C101.791 102.325 97.2638 103.227 94.2926 106.16C93.6551 106.795 93.4255 107.747 93.7061 108.598C94.1524 110.045 95.8229 110.731 97.1745 110.007Z" fill="#19274B"/>
<path d="M138.082 110.007C136.067 108.928 133.109 107.595 130.24 107.176C128.697 106.947 127.728 105.411 128.25 103.95L128.352 103.658C128.735 102.605 129.781 101.944 130.903 102.059C133.466 102.325 137.993 103.227 140.951 106.16C141.589 106.795 141.818 107.747 141.538 108.598C141.104 110.045 139.421 110.731 138.082 110.007Z" fill="#19274B"/>
</g>
</g>
<defs>
<filter id="filter0_i_308_389" x="4.02173" y="8.93991" width="232.106" height="232.106" filterUnits="userSpaceOnUse" color-interpolation-filters="sRGB">
<feFlood flood-opacity="0" result="BackgroundImageFix"/>
<feBlend mode="normal" in="SourceGraphic" in2="BackgroundImageFix" result="shape"/>
<feColorMatrix in="SourceAlpha" type="matrix" values="0 0 0 0 0 0 0 0 0 0 0 0 0 0 0 0 0 0 127 0" result="hardAlpha"/>
<feOffset dy="-8.04327"/>
<feComposite in2="hardAlpha" operator="arithmetic" k2="-1" k3="1"/>
<feColorMatrix type="matrix" values="0 0 0 0 0.754167 0 0 0 0 0.741597 0 0 0 0 0.741597 0 0 0 0.19 0"/>
<feBlend mode="normal" in2="shape" result="effect1_innerShadow_308_389"/>
</filter>
<clipPath id="clip0_308_389">
<rect width="190" height="193" fill="white" transform="translate(25 42)"/>
</clipPath>
</defs>
</svg>
