<svg width="86" height="20" viewBox="0 0 86 20" fill="none" xmlns="http://www.w3.org/2000/svg">
<path d="M10.6084 19.1514C16.9156 19.1514 20.9111 15.641 20.9111 9.59072C20.9111 3.5404 16.9156 0.0300773 10.6084 0.0300773H0.933628V19.1514H10.6084ZM10.6084 4.85321C14.0046 4.85321 15.1747 5.2813 15.1747 9.59072C15.1747 13.9001 14.0046 14.3282 10.6084 14.3282H6.29901V4.85321H10.6084ZM27.6961 19.1514V11.7312C27.6961 9.87611 28.2954 9.27679 30.7783 9.27679C33.2327 9.27679 34.0032 9.90465 34.0032 11.9024V19.1514H39.3686V10.1044C39.3686 6.90803 37.5421 4.4822 33.7179 4.4822C30.0363 4.4822 28.4381 6.70826 27.9815 9.13409H27.6961V0.0300773H22.3307V19.1514H27.6961ZM45.6279 19.4368C48.7386 19.4368 50.5081 18.1525 51.0503 16.1262H51.3357V19.1514H56.3586V10.9606C56.3586 6.93657 53.9328 4.4822 48.9099 4.4822C44.0297 4.4822 40.8333 6.93657 40.8333 10.7608V10.8179H46.1986V10.7038C46.1986 9.5051 46.7409 9.16263 48.5103 9.16263C50.4225 9.16263 51.0503 9.39095 51.0503 10.8464V11.1318L45.1998 11.7026C41.9463 12.0166 40.5479 13.4721 40.5479 15.4983C40.5479 17.9527 42.3744 19.4368 45.6279 19.4368ZM45.9418 15.1559C45.9418 14.8419 46.1416 14.6707 46.6267 14.6136L51.0218 14.0999C50.8791 15.3842 49.8231 15.6981 47.2261 15.6981C46.3984 15.6981 45.9418 15.6125 45.9418 15.1559ZM68.7083 19.1514V14.3282H66.1398C64.9126 14.3282 64.5701 14.0428 64.5701 12.9013V9.16263H68.7083V4.76759H64.5701V2.28468H59.2047V4.76759H57.0928V9.16263H59.2047V13.6718C59.2047 17.4105 61.3452 19.1514 64.9411 19.1514H68.7083ZM74.6409 19.4368C77.7517 19.4368 79.5211 18.1525 80.0633 16.1262H80.3487V19.1514H85.3716V10.9606C85.3716 6.93657 82.9458 4.4822 77.9229 4.4822C73.0427 4.4822 69.8463 6.93657 69.8463 10.7608V10.8179H75.2117V10.7038C75.2117 9.5051 75.7539 9.16263 77.5234 9.16263C79.4355 9.16263 80.0633 9.39095 80.0633 10.8464V11.1318L74.2128 11.7026C70.9593 12.0166 69.5609 13.4721 69.5609 15.4983C69.5609 17.9527 71.3874 19.4368 74.6409 19.4368ZM74.9548 15.1559C74.9548 14.8419 75.1546 14.6707 75.6398 14.6136L80.0348 14.0999C79.8921 15.3842 78.8362 15.6981 76.2391 15.6981C75.4115 15.6981 74.9548 15.6125 74.9548 15.1559Z" fill="#1D2996"/>
</svg>
