<svg width="30" height="30" viewBox="0 0 30 30" fill="none" xmlns="http://www.w3.org/2000/svg">
<g clip-path="url(#clip0_505_34871)">
<path d="M15 30C23.2843 30 30 23.2843 30 15C30 6.71573 23.2843 0 15 0C6.71573 0 0 6.71573 0 15C0 23.2843 6.71573 30 15 30Z" fill="#3D0072"/>
<path d="M19.8775 4.60449H16.5546C14.5827 4.60449 12.3894 5.43385 12.3894 8.2922C12.399 9.28816 12.3894 10.242 12.3894 11.3155H10.1082V14.9456H12.46V25.396H16.7815V14.8766H19.6339L19.892 11.3053H16.7071C16.7071 11.3053 16.7142 9.71661 16.7071 9.25526C16.7071 8.1257 17.8824 8.19038 17.9531 8.19038C18.5124 8.19038 19.5999 8.19201 19.8791 8.19038V4.60449H19.8775Z" fill="white"/>
</g>
<defs>
<clipPath id="clip0_505_34871">
<rect width="30" height="30" fill="white"/>
</clipPath>
</defs>
</svg>
