<svg width="86" height="86" viewBox="0 0 86 86" fill="none" xmlns="http://www.w3.org/2000/svg">
<g filter="url(#filter0_d_669_15784)">
<rect x="9.76834" y="6.51221" width="65.8475" height="65.8475" rx="9.68345" fill="#FFD4E2"/>
</g>
<path d="M44.7982 29.9706C46.977 30.4548 48.7846 31.5684 50.221 33.3114C51.6574 35.0544 52.3755 37.096 52.3755 39.4362C52.3755 40.9049 52.0808 42.2606 51.4914 43.5033C50.9027 44.746 50.0999 45.8112 49.0832 46.6988H50.4389C50.7132 46.6988 50.943 46.7918 51.1283 46.9777C51.3142 47.163 51.4072 47.3928 51.4072 47.6671C51.4072 47.9415 51.3142 48.1713 51.1283 48.3566C50.943 48.5425 50.7132 48.6355 50.4389 48.6355H46.5655C46.2911 48.6355 46.0613 48.5425 45.876 48.3566C45.6901 48.1713 45.5971 47.9415 45.5971 47.6671V43.7938C45.5971 43.5194 45.6901 43.2893 45.876 43.1033C46.0613 42.9181 46.2911 42.8254 46.5655 42.8254C46.8398 42.8254 47.0697 42.9181 47.2549 43.1033C47.4409 43.2893 47.5338 43.5194 47.5338 43.7938V45.4642C48.4215 44.7379 49.1277 43.8583 49.6526 42.8254C50.1768 41.7925 50.4389 40.6628 50.4389 39.4362C50.4389 37.5802 49.8701 35.9621 48.7326 34.5819C47.5945 33.2023 46.162 32.3108 44.4351 31.9073C44.2092 31.8589 44.0236 31.7459 43.8783 31.5684C43.7331 31.3909 43.6604 31.1891 43.6604 30.9632C43.6604 30.6404 43.7734 30.3741 43.9994 30.1643C44.2253 29.9545 44.4916 29.8899 44.7982 29.9706ZM40.5859 48.9018C38.4072 48.4176 36.5996 47.304 35.1632 45.561C33.7268 43.818 33.0086 41.7764 33.0086 39.4362C33.0086 37.9676 33.3033 36.6119 33.8927 35.3692C34.4815 34.1265 35.2842 33.0613 36.301 32.1736H34.9453C34.671 32.1736 34.4411 32.0807 34.2559 31.8947C34.0699 31.7095 33.977 31.4796 33.977 31.2053C33.977 30.9309 34.0699 30.7008 34.2559 30.5148C34.4411 30.3296 34.671 30.2369 34.9453 30.2369H38.8187C39.0931 30.2369 39.3232 30.3296 39.5091 30.5148C39.6944 30.7008 39.7871 30.9309 39.7871 31.2053V35.0787C39.7871 35.353 39.6944 35.5832 39.5091 35.7691C39.3232 35.9544 39.0931 36.047 38.8187 36.047C38.5443 36.047 38.3142 35.9544 38.1283 35.7691C37.943 35.5832 37.8504 35.353 37.8504 35.0787V33.4083C36.9627 34.1184 36.2565 34.9941 35.7316 36.0354C35.2074 37.076 34.9453 38.2096 34.9453 39.4362C34.9453 41.2922 35.5144 42.91 36.6525 44.2896C37.79 45.6698 39.2222 46.5616 40.9491 46.9651C41.175 47.0135 41.3606 47.1265 41.5059 47.304C41.6511 47.4815 41.7237 47.6833 41.7237 47.9092C41.7237 48.232 41.6108 48.4983 41.3848 48.7081C41.1589 48.9179 40.8926 48.9825 40.5859 48.9018ZM41.3122 43.4791C41.1831 43.4791 41.062 43.459 40.9491 43.419C40.8361 43.3783 40.7312 43.3096 40.6344 43.2128L37.8988 40.453C37.7213 40.2754 37.6286 40.0534 37.6209 39.7868C37.6125 39.5208 37.7051 39.291 37.8988 39.0973C38.0763 38.9198 38.3023 38.831 38.5766 38.831C38.851 38.831 39.0769 38.9198 39.2545 39.0973L41.3122 41.155L46.1297 36.3375C46.3234 36.1438 46.5493 36.0509 46.8076 36.0586C47.0658 36.067 47.2917 36.168 47.4854 36.3617C47.6629 36.5554 47.7559 36.7813 47.7643 37.0396C47.772 37.2978 47.6791 37.5237 47.4854 37.7174L41.99 43.2128C41.8932 43.3096 41.7883 43.3783 41.6753 43.419C41.5624 43.459 41.4413 43.4791 41.3122 43.4791Z" fill="#E8356D"/>
<defs>
<filter id="filter0_d_669_15784" x="0.0848885" y="0.702136" width="85.2144" height="85.2146" filterUnits="userSpaceOnUse" color-interpolation-filters="sRGB">
<feFlood flood-opacity="0" result="BackgroundImageFix"/>
<feColorMatrix in="SourceAlpha" type="matrix" values="0 0 0 0 0 0 0 0 0 0 0 0 0 0 0 0 0 0 127 0" result="hardAlpha"/>
<feOffset dy="3.87338"/>
<feGaussianBlur stdDeviation="4.84173"/>
<feComposite in2="hardAlpha" operator="out"/>
<feColorMatrix type="matrix" values="0 0 0 0 0.533333 0 0 0 0 0.027451 0 0 0 0 0.968627 0 0 0 0.07 0"/>
<feBlend mode="normal" in2="BackgroundImageFix" result="effect1_dropShadow_669_15784"/>
<feBlend mode="normal" in="SourceGraphic" in2="effect1_dropShadow_669_15784" result="shape"/>
</filter>
</defs>
</svg>
