<svg width="87" height="86" viewBox="0 0 87 86" fill="none" xmlns="http://www.w3.org/2000/svg">
<g filter="url(#filter0_d_602_13154)">
<rect x="10.6389" y="6.51221" width="65.8475" height="65.8475" rx="9.68345" fill="#FFD4E2"/>
</g>
<path d="M38.4731 32.3268L41.2974 33.9084L39.7158 31.0841L41.2974 28.2598L38.4731 29.8414L35.6487 28.2598L37.2304 31.0841L35.6487 33.9084L38.4731 32.3268ZM52.0299 43.3982L49.2056 41.8166L50.7872 44.6409L49.2056 47.4653L52.0299 45.8836L54.8542 47.4653L53.2726 44.6409L54.8542 41.8166L52.0299 43.3982ZM54.8542 28.2598L52.0299 29.8414L49.2056 28.2598L50.7872 31.0841L49.2056 33.9084L52.0299 32.3268L54.8542 33.9084L53.2726 31.0841L54.8542 28.2598ZM46.2343 34.2361C46.1298 34.1313 46.0057 34.0483 45.869 33.9916C45.7324 33.9349 45.5858 33.9057 45.4379 33.9057C45.2899 33.9057 45.1434 33.9349 45.0067 33.9916C44.8701 34.0483 44.7459 34.1313 44.6414 34.2361L31.4574 47.4201C31.3527 47.5246 31.2696 47.6488 31.2129 47.7854C31.1562 47.9221 31.127 48.0686 31.127 48.2166C31.127 48.3645 31.1562 48.511 31.2129 48.6477C31.2696 48.7844 31.3527 48.9085 31.4574 49.013L34.101 51.6566C34.5416 52.0972 35.2533 52.0972 35.6939 51.6566L48.8666 38.4839C48.9714 38.3794 49.0545 38.2552 49.1111 38.1185C49.1678 37.9819 49.197 37.8354 49.197 37.6874C49.197 37.5395 49.1678 37.3929 49.1111 37.2563C49.0545 37.1196 48.9714 36.9955 48.8666 36.891L46.2343 34.2361ZM45.0707 40.4383L42.6757 38.0433L45.4322 35.2867L47.8273 37.6818L45.0707 40.4383Z" fill="#E8356D"/>
<defs>
<filter id="filter0_d_602_13154" x="0.955402" y="0.702136" width="85.2144" height="85.2146" filterUnits="userSpaceOnUse" color-interpolation-filters="sRGB">
<feFlood flood-opacity="0" result="BackgroundImageFix"/>
<feColorMatrix in="SourceAlpha" type="matrix" values="0 0 0 0 0 0 0 0 0 0 0 0 0 0 0 0 0 0 127 0" result="hardAlpha"/>
<feOffset dy="3.87338"/>
<feGaussianBlur stdDeviation="4.84173"/>
<feComposite in2="hardAlpha" operator="out"/>
<feColorMatrix type="matrix" values="0 0 0 0 0.533333 0 0 0 0 0.027451 0 0 0 0 0.968627 0 0 0 0.07 0"/>
<feBlend mode="normal" in2="BackgroundImageFix" result="effect1_dropShadow_602_13154"/>
<feBlend mode="normal" in="SourceGraphic" in2="effect1_dropShadow_602_13154" result="shape"/>
</filter>
</defs>
</svg>
