<svg width="448" height="263" viewBox="0 0 448 263" fill="none" xmlns="http://www.w3.org/2000/svg">
<g filter="url(#filter0_i_435_152)">
<circle cx="193.359" cy="153.551" r="98.4406" fill="#FBF3FA"/>
</g>
<circle cx="193.359" cy="153.551" r="98.4406" stroke="#F3F4F6" stroke-width="0.979508"/>
<mask id="mask0_435_152" style="mask-type:alpha" maskUnits="userSpaceOnUse" x="91" y="43" width="204" height="205">
<path d="M294.738 145.734C294.738 201.994 249.129 247.602 192.869 247.602C136.608 247.602 91 201.994 91 145.734C91 89.473 136.608 43.8647 192.869 43.8647C249.129 43.8647 294.738 89.473 294.738 145.734Z" fill="white"/>
</mask>
<g mask="url(#mask0_435_152)">
<g clip-path="url(#clip0_435_152)">
<path d="M274.181 247.436H112.192C112.192 247.436 114.366 237.175 117.464 226.871C120.562 216.566 126.965 212.247 135.259 210.137C143.542 208.015 176.24 197.884 176.24 197.884L193.089 196.542L193.186 196.531L193.284 196.542L208.481 197.754C208.481 197.754 242.82 208.015 251.103 210.137C259.397 212.258 265.8 216.566 268.898 226.871C271.996 237.175 274.181 247.436 274.181 247.436Z" fill="#E8356D"/>
<path d="M240.331 239.848H220.569C220.101 239.848 219.732 240.216 219.732 240.682V247.436H221.406V241.515H239.494V247.436H241.168V240.682C241.168 240.227 240.798 239.848 240.331 239.848Z" fill="#C4205C"/>
<path d="M192.208 222.422C193.265 222.422 194.121 221.569 194.121 220.517C194.121 219.465 193.265 218.612 192.208 218.612C191.151 218.612 190.295 219.465 190.295 220.517C190.295 221.569 191.151 222.422 192.208 222.422Z" fill="#F5EFFF"/>
<path d="M192.208 232.499C193.265 232.499 194.121 231.646 194.121 230.594C194.121 229.542 193.265 228.689 192.208 228.689C191.151 228.689 190.295 229.542 190.295 230.594C190.295 231.646 191.151 232.499 192.208 232.499Z" fill="#F5EFFF"/>
<path d="M192.208 242.587C193.265 242.587 194.121 241.734 194.121 240.682C194.121 239.63 193.265 238.777 192.208 238.777C191.151 238.777 190.295 239.63 190.295 240.682C190.295 241.734 191.151 242.587 192.208 242.587Z" fill="#F5EFFF"/>
<path d="M193.285 196.52V196.531H193.186L193.285 196.52Z" fill="#5D46C2"/>
<path d="M193.187 196.531H193.089V196.52L193.187 196.531Z" fill="#5D46C2"/>
<path d="M208.209 201.856C208.209 201.856 204.013 209.671 192.295 209.671C180.968 209.671 176.207 201.467 176.207 201.467L176.903 195.849L177.022 194.907L178.109 186.053L206.133 186.833L206.6 190.199L206.752 191.303L208.209 201.856Z" fill="#FF8881"/>
<path d="M177.011 194.907C177.011 194.907 167.021 196.585 159.651 202.971C159.651 202.971 161.815 215.538 176.207 227.964L192.295 209.671C192.295 209.671 181.533 205.601 177.011 194.907Z" fill="#C4205C"/>
<path d="M207.165 194.907C207.165 194.907 217.155 196.585 224.525 202.971C224.525 202.971 222.362 215.538 207.97 227.964L191.882 209.671C191.882 209.671 202.643 205.601 207.165 194.907Z" fill="#C4205C"/>
<path d="M206.589 190.199C200.241 195.557 189.969 197.592 176.903 195.849L177.022 194.907L178.109 186.053L206.133 186.833L206.589 190.199Z" fill="#19274B"/>
<path d="M167.576 163.02C161.304 171.733 147.814 165.845 148.727 154.285C149.564 143.797 161.326 145.463 161.326 145.463L167.576 163.02Z" fill="#F55B5D"/>
<path d="M161.804 163.247C161.423 163.247 161.086 162.987 160.988 162.609C159.771 157.651 154.586 153.008 154.542 152.964C154.195 152.661 154.162 152.131 154.477 151.785C154.782 151.438 155.314 151.406 155.662 151.72C155.89 151.925 161.282 156.742 162.63 162.208C162.739 162.652 162.467 163.106 162.021 163.215C161.945 163.236 161.869 163.247 161.804 163.247Z" fill="#D1373F"/>
<path d="M159.651 158.528C159.564 158.528 159.477 158.517 159.391 158.485C157.097 157.716 154.912 158.182 154.89 158.192C154.445 158.29 153.988 158.008 153.89 157.565C153.792 157.121 154.075 156.677 154.521 156.569C154.629 156.547 157.173 155.995 159.923 156.915C160.358 157.056 160.597 157.532 160.456 157.965C160.325 158.312 159.999 158.528 159.651 158.528Z" fill="#D1373F"/>
<path d="M213.981 163.02C220.253 171.733 233.743 165.845 232.83 154.285C231.993 143.797 220.232 145.463 220.232 145.463L213.981 163.02Z" fill="#F55B5D"/>
<path d="M219.753 163.247C219.688 163.247 219.623 163.237 219.558 163.226C219.112 163.117 218.829 162.663 218.949 162.219C220.297 156.753 225.688 151.936 225.917 151.731C226.265 151.428 226.786 151.46 227.102 151.796C227.406 152.142 227.373 152.661 227.036 152.975C226.982 153.019 221.808 157.651 220.59 162.62C220.471 162.988 220.134 163.247 219.753 163.247Z" fill="#D1373F"/>
<path d="M221.906 158.528C221.558 158.528 221.232 158.311 221.112 157.954C220.96 157.521 221.199 157.045 221.645 156.904C224.395 155.984 226.939 156.536 227.047 156.558C227.493 156.655 227.786 157.099 227.678 157.554C227.58 157.997 227.123 158.279 226.678 158.182C226.645 158.171 224.46 157.716 222.177 158.474C222.09 158.517 222.004 158.528 221.906 158.528Z" fill="#D1373F"/>
<path d="M158.836 132.723C158.836 132.723 155.771 151.622 163.706 170.11C170.891 186.865 180.457 192.082 190.643 192.245C202.22 192.429 226.46 185.761 222.623 131.067C220.025 94.1143 161.902 95.4132 158.836 132.723Z" fill="#FF8881"/>
<g opacity="0.5">
<path d="M172.413 166.603C176.856 166.603 180.457 164.95 180.457 162.912C180.457 160.873 176.856 159.221 172.413 159.221C167.971 159.221 164.369 160.873 164.369 162.912C164.369 164.95 167.971 166.603 172.413 166.603Z" fill="#F55B5D"/>
</g>
<g opacity="0.5">
<path d="M212.514 166.603C216.956 166.603 220.558 164.95 220.558 162.912C220.558 160.873 216.956 159.221 212.514 159.221C208.071 159.221 204.47 160.873 204.47 162.912C204.47 164.95 208.071 166.603 212.514 166.603Z" fill="#F55B5D"/>
</g>
<path d="M223.993 146.297C223.993 146.297 224.547 159.978 220.471 177.113C213.938 204.573 191.523 200.915 191.523 200.915C191.523 200.915 169.543 204.573 163.01 177.113C158.934 159.978 157.173 147.195 157.173 147.195L162.326 140.408C162.326 140.408 164.837 164.07 173.935 168.172C173.935 168.172 177.979 162.046 191.523 167.771C205.068 162.046 209.557 168.172 209.557 168.172C218.655 164.07 219.427 141.296 219.427 141.296L223.993 146.297Z" fill="#19274B"/>
<path d="M165.695 121.261C165.695 121.261 167.859 135.451 161.815 140.636V152.347L158.26 153.408C158.26 153.408 155.162 137.757 153.977 129.043C151.684 112.169 167.587 110.026 167.587 110.026L165.695 121.261Z" fill="#19274B"/>
<path d="M215.536 121.261C215.536 121.261 213.372 135.451 219.416 140.636V152.347L222.971 153.408C222.971 153.408 226.069 137.757 227.254 129.043C229.547 112.169 213.644 110.026 213.644 110.026L215.536 121.261Z" fill="#19274B"/>
<path d="M156.206 120.362C156.206 120.362 145.564 101.648 170.772 94.7962C188.349 90.0229 212.144 95.0452 219.753 82.6193C219.753 82.6193 221.884 91.1161 217.677 96.5714C217.677 96.5714 229.145 93.151 232.33 86.4185C232.33 86.4185 236.276 96.9502 230.167 105.068C230.167 105.068 234.885 106.594 239.081 103.293C239.081 103.293 238.689 126.251 221.623 124.984C221.623 124.984 218.014 122.257 211.775 120.362C205.535 118.457 200.469 128.037 184.218 123.978C169.728 120.352 163.761 118.068 156.206 120.362Z" fill="#19274B"/>
<path d="M192.078 183.044C189.697 183.044 187.806 182.211 187.686 182.157C187.338 181.994 187.175 181.583 187.338 181.237C187.501 180.89 187.903 180.728 188.262 180.89C188.327 180.912 192.61 182.785 196.056 180.533C196.382 180.328 196.806 180.414 197.024 180.728C197.23 181.053 197.143 181.475 196.828 181.691C195.252 182.73 193.567 183.044 192.078 183.044Z" fill="#33476D"/>
<path d="M194.545 164.741C194.523 164.741 194.513 164.741 194.491 164.741L189.393 164.33C189.012 164.297 188.719 163.962 188.751 163.583C188.784 163.204 189.121 162.912 189.501 162.944L193.763 163.29L192.436 150.388C192.393 150.009 192.675 149.663 193.056 149.631C193.436 149.587 193.784 149.869 193.817 150.248L195.23 163.972C195.252 164.178 195.176 164.384 195.034 164.524C194.915 164.676 194.73 164.741 194.545 164.741Z" fill="#F55B5D"/>
<path d="M181.142 171.04C187.414 172.014 193.795 172.437 202.339 170.748C202.339 170.748 201.6 179.84 191.458 179.873C182.838 179.905 181.142 171.04 181.142 171.04Z" fill="#F5EFFF"/>
<path d="M180.642 150.323C180.642 152.726 179.544 154.685 178.185 154.685C176.827 154.685 175.729 152.737 175.729 150.323C175.729 147.92 176.827 145.961 178.185 145.961C179.544 145.961 180.642 147.909 180.642 150.323Z" fill="#19274B"/>
<path d="M206.741 150.323C206.741 152.726 205.644 154.685 204.285 154.685C202.926 154.685 201.828 152.737 201.828 150.323C201.828 147.92 202.926 145.961 204.285 145.961C205.644 145.961 206.741 147.909 206.741 150.323Z" fill="#19274B"/>
<path d="M173.837 140.776C175.555 139.856 178.077 138.72 180.522 138.363C181.838 138.168 182.664 136.858 182.218 135.613L182.131 135.364C181.805 134.466 180.914 133.903 179.957 134.001C177.772 134.228 173.913 134.996 171.381 137.497C170.837 138.038 170.641 138.85 170.881 139.575C171.261 140.809 172.685 141.393 173.837 140.776Z" fill="#19274B"/>
<path d="M208.709 140.776C206.992 139.856 204.47 138.72 202.024 138.363C200.709 138.168 199.883 136.858 200.328 135.613L200.415 135.364C200.741 134.466 201.633 133.903 202.589 134.001C204.774 134.228 208.633 134.996 211.155 137.497C211.699 138.038 211.894 138.85 211.655 139.575C211.285 140.809 209.851 141.393 208.709 140.776Z" fill="#19274B"/>
</g>
</g>
<g clip-path="url(#clip1_435_152)">
<path d="M377.861 45.1673C377.861 61.2669 364.803 74.3346 348.693 74.3346C342.186 74.3346 336.175 72.2007 331.315 68.5878L317.033 72.2324L322.98 58.9322C320.773 54.8334 319.526 50.143 319.526 45.1779C319.526 29.0677 332.594 16 348.693 16C364.793 16 377.861 29.0571 377.861 45.1673Z" fill="white"/>
<path d="M350.677 49.4257V52.3606C350.677 53.6211 349.725 54.5737 348.464 54.5737C347.29 54.5737 346.251 53.6211 346.251 52.3606V47.6648C346.251 47.6648 346.299 47.6167 346.299 47.5782C346.299 47.5782 346.283 47.5494 346.251 47.4916C346.251 46.3177 347.29 45.2785 348.464 45.2785C351.312 45.2785 353.612 43.0172 353.612 40.2171C353.612 37.4169 351.312 35.1557 348.464 35.1557C346.617 35.1557 344.99 36.1468 344.124 37.6383C343.489 38.7256 342.142 39.0816 341.055 38.4465C340.016 37.8115 339.65 36.5028 340.285 35.4251C341.911 32.625 344.981 30.7294 348.464 30.7294C353.708 30.7294 358 34.9729 358 40.2171C358 44.6915 354.882 48.4346 350.677 49.4353V49.4257ZM350.677 59.3176V60.1259C350.677 61.3864 349.725 62.339 348.464 62.339C347.29 62.339 346.251 61.3864 346.251 60.1259V59.3176C346.251 58.0955 347.29 57.1044 348.464 57.1044C349.725 57.1044 350.677 58.0955 350.677 59.3176Z" fill="#3D0072"/>
</g>
<path d="M392.394 220.3L385.217 230.616C382.13 235.054 376.479 236.066 372.041 232.979C367.925 230.11 366.591 224.241 369.678 219.803L381.153 203.304C381.258 203.147 381.424 203.261 381.537 203.104C381.502 202.923 381.523 202.781 381.598 202.676C384.467 198.552 390.658 197.435 394.774 200.304C404.767 207.254 418.38 204.961 425.216 195.125C432.166 185.131 429.48 171.729 419.487 164.779C412.982 160.253 404.846 159.782 398.193 162.913C393.327 165.18 387.685 163.139 385.426 158.265C383.316 153.512 385.252 148.027 390.126 145.769C402.675 139.909 418.101 140.746 430.309 149.239C448.717 162.041 453.408 187.434 440.607 205.833C429.681 221.538 409.581 227.093 392.402 220.317L392.394 220.3ZM368.23 255.032L366.242 257.883C363.155 262.322 357.504 263.342 353.057 260.246C348.941 257.378 347.607 251.509 350.694 247.07L352.682 244.219C355.665 239.937 361.734 238.987 365.858 241.856C370.297 244.943 371.204 250.75 368.23 255.032Z" fill="#E5E7EB"/>
<path d="M16.9457 211.089L12.5508 203.154C10.6585 199.735 11.8008 195.75 15.2191 193.858C18.3932 192.097 22.6225 193.108 24.5148 196.526L31.5519 209.232C31.6217 209.354 31.4909 209.423 31.5606 209.546C31.6885 209.58 31.7757 209.639 31.8222 209.72C33.5837 212.894 32.328 217.263 29.1626 219.016C21.4714 223.28 18.62 232.837 22.8143 240.406C27.0785 248.097 36.6183 250.626 44.3181 246.362C49.3235 243.589 52.2273 238.461 52.3145 233.151C52.393 229.27 55.5148 226.271 59.3952 226.358C63.1449 226.506 66.0835 229.515 65.9963 233.386C65.7958 243.388 60.337 253.12 50.9367 258.335C36.7665 266.183 18.8118 261.134 10.9637 246.972C4.26666 234.886 7.07453 220.079 16.937 211.106L16.9457 211.089ZM2.13023 184.353L0.909412 182.156C-0.982852 178.737 0.159483 174.752 3.57777 172.851C6.75189 171.09 10.9811 172.101 12.8734 175.52L14.0942 177.717C15.9167 181.013 14.6 185.251 11.4259 187.013C8.00759 188.905 3.95273 187.641 2.13023 184.353Z" fill="#E5E7EB"/>
<defs>
<filter id="filter0_i_435_152" x="94.4283" y="54.621" width="197.861" height="197.861" filterUnits="userSpaceOnUse" color-interpolation-filters="sRGB">
<feFlood flood-opacity="0" result="BackgroundImageFix"/>
<feBlend mode="normal" in="SourceGraphic" in2="BackgroundImageFix" result="shape"/>
<feColorMatrix in="SourceAlpha" type="matrix" values="0 0 0 0 0 0 0 0 0 0 0 0 0 0 0 0 0 0 127 0" result="hardAlpha"/>
<feOffset dy="-6.85656"/>
<feComposite in2="hardAlpha" operator="arithmetic" k2="-1" k3="1"/>
<feColorMatrix type="matrix" values="0 0 0 0 0.754167 0 0 0 0 0.741597 0 0 0 0 0.741597 0 0 0 0.19 0"/>
<feBlend mode="normal" in2="shape" result="effect1_innerShadow_435_152"/>
</filter>
<clipPath id="clip0_435_152">
<rect width="161.967" height="164.525" fill="white" transform="translate(112.312 82.8032)"/>
</clipPath>
<clipPath id="clip1_435_152">
<rect width="78.2647" height="74.67" fill="white" transform="translate(316)"/>
</clipPath>
</defs>
</svg>
