<svg width="204" height="208" viewBox="0 0 204 208" fill="none" xmlns="http://www.w3.org/2000/svg">
<g filter="url(#filter0_i_308_389)">
<circle cx="102.359" cy="106.551" r="98.4406" fill="#FBF3FA"/>
</g>
<circle cx="102.359" cy="106.551" r="98.4406" stroke="#F3F4F6" stroke-width="0.979508"/>
<mask id="mask0_308_389" style="mask-type:alpha" maskUnits="userSpaceOnUse" x="3" y="7" width="199" height="199">
<circle cx="102.359" cy="106.551" r="98.4406" fill="#FBF3FA" stroke="#F3F4F6" stroke-width="0.979508"/>
</mask>
<g mask="url(#mask0_308_389)">
<path d="M149.311 185.117C127.543 178.653 112.183 167.22 98.0085 162.069C83.8415 167.22 68.4736 178.653 46.7057 185.117C12.1695 195.364 3.5413 149.237 28.1853 133.158C49.882 119.007 47.2983 116.637 52.9714 92.356C53.3428 90.7837 53.7457 89.1165 54.1882 87.3388C54.6781 85.3951 55.2154 83.3328 55.8238 81.1363C56.1793 79.8484 56.5507 78.6158 56.9378 77.4227C62.8717 59.2104 79.8435 47.7062 97.9927 48.3383C116.142 47.7062 133.122 59.2104 139.047 77.4227C139.435 78.6158 139.806 79.8563 140.162 81.1363C140.77 83.3328 141.315 85.3951 141.797 87.3388C142.247 89.1086 142.65 90.7758 143.014 92.356C148.687 116.637 146.103 118.999 167.8 133.158C192.476 149.237 183.84 195.364 149.311 185.117Z" fill="#5A184A"/>
<path d="M187.198 209.089H16.6731C16.6731 209.089 18.9645 198.24 22.2277 187.345C25.4909 176.449 32.2306 171.89 40.9615 169.646C43.4267 169.014 47.9304 167.702 53.1294 166.154C56.0766 165.277 59.245 164.313 62.3975 163.357C73.3882 160.022 84.1022 156.68 84.1022 156.68L101.841 155.266L101.943 155.258L102.046 155.266L118.046 156.546C118.046 156.546 127.67 159.438 138.178 162.535C148.039 165.442 158.698 168.548 162.917 169.638C171.648 171.874 178.388 176.441 181.651 187.337C184.906 198.24 187.198 209.089 187.198 209.089Z" fill="#8807F7"/>
<path d="M35.3991 186.001C35.2095 186.001 35.0198 185.938 34.8539 185.812L30.3344 182.272C29.9551 181.972 29.884 181.419 30.1843 181.04C30.4845 180.66 31.0376 180.589 31.4169 180.889L35.9364 184.429C36.3156 184.729 36.3867 185.282 36.0865 185.662C35.9206 185.883 35.6598 186.001 35.3991 186.001Z" fill="#C4205C"/>
<path d="M35.3991 205.099C35.2095 205.099 35.0198 205.036 34.8539 204.909L30.3344 201.369C29.9551 201.069 29.884 200.516 30.1843 200.137C30.4845 199.758 31.0376 199.686 31.4169 199.987L35.9364 203.526C36.3156 203.827 36.3867 204.38 36.0865 204.759C35.9127 204.98 35.6598 205.099 35.3991 205.099Z" fill="#C4205C"/>
<path d="M61.7891 179.001C61.6311 179.001 61.4731 178.961 61.3309 178.867C60.92 178.614 60.7936 178.069 61.0464 177.658L64.0568 172.775C64.3096 172.364 64.8548 172.238 65.2657 172.49C65.6766 172.743 65.803 173.288 65.5501 173.699L62.5398 178.582C62.3738 178.851 62.0815 179.001 61.7891 179.001Z" fill="#C4205C"/>
<path d="M47.3142 198.027C47.1561 198.027 46.9981 197.988 46.8559 197.893C46.445 197.64 46.3186 197.095 46.5715 196.684L49.5818 191.801C49.8347 191.39 50.3798 191.264 50.7907 191.517C51.2016 191.769 51.328 192.315 51.0752 192.725L48.0648 197.608C47.8989 197.877 47.6144 198.027 47.3142 198.027Z" fill="#C4205C"/>
<path d="M53.7536 174.071C53.8089 174.221 53.8248 174.379 53.7931 174.545C53.6983 175.019 53.2322 175.327 52.7581 175.232L47.1324 174.094C46.6583 174 46.3502 173.533 46.445 173.059C46.5398 172.585 47.006 172.277 47.4801 172.372L53.1057 173.51C53.4139 173.573 53.6509 173.794 53.7536 174.071Z" fill="#C4205C"/>
<path d="M73.1354 195.515C72.9458 195.515 72.7562 195.451 72.5902 195.325L68.0707 191.785C67.6915 191.485 67.6204 190.932 67.9206 190.553C68.2208 190.173 68.7739 190.102 69.1532 190.402L73.6727 193.942C74.052 194.242 74.1231 194.796 73.8228 195.175C73.6569 195.396 73.3962 195.515 73.1354 195.515Z" fill="#C4205C"/>
<path d="M56.9694 204.957C56.8509 204.885 56.7561 204.783 56.685 204.656C56.4401 204.238 56.5902 203.7 57.0089 203.455L61.9788 200.595C62.3976 200.35 62.9349 200.5 63.1798 200.919C63.4247 201.338 63.2746 201.875 62.8559 202.12L57.886 204.98C57.5936 205.146 57.2381 205.13 56.9694 204.957Z" fill="#C4205C"/>
<path d="M135.302 186.001C135.113 186.001 134.923 185.938 134.757 185.812L130.238 182.272C129.858 181.972 129.787 181.419 130.088 181.04C130.388 180.66 130.941 180.589 131.32 180.889L135.84 184.429C136.219 184.729 136.29 185.282 135.99 185.662C135.824 185.883 135.563 186.001 135.302 186.001Z" fill="#C4205C"/>
<path d="M135.302 205.099C135.113 205.099 134.923 205.036 134.757 204.909L130.238 201.369C129.858 201.069 129.787 200.516 130.088 200.137C130.388 199.758 130.941 199.686 131.32 199.987L135.84 203.526C136.219 203.827 136.29 204.38 135.99 204.759C135.824 204.98 135.563 205.099 135.302 205.099Z" fill="#C4205C"/>
<path d="M161.692 179.001C161.534 179.001 161.376 178.961 161.234 178.867C160.823 178.614 160.697 178.069 160.95 177.658L163.96 172.775C164.213 172.364 164.758 172.238 165.169 172.49C165.58 172.743 165.706 173.288 165.453 173.699L162.443 178.582C162.277 178.851 161.985 179.001 161.692 179.001Z" fill="#C4205C"/>
<path d="M147.225 198.027C147.067 198.027 146.909 197.988 146.767 197.893C146.356 197.64 146.23 197.095 146.483 196.684L149.493 191.801C149.746 191.39 150.291 191.264 150.702 191.517C151.113 191.769 151.239 192.315 150.986 192.725L147.976 197.608C147.802 197.877 147.518 198.027 147.225 198.027Z" fill="#C4205C"/>
<path d="M178.024 206.102C177.866 206.102 177.708 206.063 177.566 205.968C177.155 205.715 177.029 205.17 177.282 204.759L180.292 199.876C180.545 199.465 181.09 199.339 181.501 199.592C181.912 199.844 182.038 200.39 181.785 200.8L178.775 205.683C178.609 205.96 178.317 206.102 178.024 206.102Z" fill="#C4205C"/>
<path d="M153.657 174.071C153.712 174.221 153.728 174.379 153.696 174.545C153.602 175.019 153.135 175.327 152.661 175.232L147.036 174.094C146.562 174 146.253 173.533 146.348 173.059C146.443 172.585 146.909 172.277 147.383 172.372L153.009 173.51C153.317 173.573 153.554 173.794 153.657 174.071Z" fill="#C4205C"/>
<path d="M173.039 191.88C172.849 191.88 172.659 191.817 172.494 191.69L167.974 188.151C167.595 187.85 167.524 187.297 167.824 186.918C168.124 186.539 168.677 186.468 169.057 186.768L173.576 190.308C173.955 190.608 174.026 191.161 173.726 191.54C173.56 191.769 173.299 191.88 173.039 191.88Z" fill="#C4205C"/>
<path d="M156.873 204.957C156.754 204.885 156.659 204.783 156.588 204.656C156.343 204.238 156.493 203.7 156.912 203.455L161.882 200.595C162.301 200.35 162.838 200.5 163.083 200.919C163.328 201.338 163.178 201.875 162.759 202.12L157.789 204.98C157.497 205.146 157.141 205.13 156.873 204.957Z" fill="#C4205C"/>
<path d="M101.864 189.32C101.706 189.32 101.548 189.28 101.406 189.186C100.995 188.933 100.869 188.388 101.122 187.977L104.132 183.094C104.385 182.683 104.93 182.557 105.341 182.809C105.752 183.062 105.878 183.607 105.625 184.018L102.615 188.901C102.449 189.17 102.164 189.32 101.864 189.32Z" fill="#C4205C"/>
<path d="M87.9187 204.672C87.7606 204.672 87.6026 204.633 87.4604 204.538C87.0495 204.285 86.9231 203.74 87.1759 203.329L90.1863 198.446C90.4392 198.035 90.9843 197.909 91.3952 198.161C91.8061 198.414 91.9325 198.959 91.6796 199.37L88.6693 204.253C88.5034 204.522 88.211 204.672 87.9187 204.672Z" fill="#C4205C"/>
<path d="M89.0089 186.262C89.0642 186.412 89.08 186.57 89.0484 186.736C88.9536 187.21 88.4874 187.519 88.0133 187.424L82.3877 186.286C81.9136 186.191 81.6054 185.725 81.7002 185.251C81.7951 184.777 82.2612 184.469 82.7353 184.563L88.361 185.701C88.6691 185.772 88.9062 185.986 89.0089 186.262Z" fill="#C4205C"/>
<path d="M122.005 191.295C121.815 191.295 121.625 191.232 121.459 191.106L116.94 187.566C116.561 187.266 116.49 186.713 116.79 186.333C117.09 185.954 117.643 185.883 118.022 186.183L122.542 189.723C122.921 190.023 122.992 190.576 122.692 190.956C122.526 191.185 122.265 191.295 122.005 191.295Z" fill="#C4205C"/>
<path d="M104.843 205.17C104.724 205.099 104.63 204.996 104.559 204.87C104.314 204.451 104.464 203.914 104.882 203.669L109.852 200.808C110.271 200.563 110.808 200.714 111.053 201.132C111.298 201.551 111.148 202.088 110.729 202.333L105.76 205.194C105.459 205.359 105.112 205.344 104.843 205.17Z" fill="#C4205C"/>
<path d="M102.038 155.258V155.274L101.935 155.266L102.038 155.258Z" fill="#5D46C2"/>
<path d="M101.936 155.266L101.841 155.274V155.258L101.936 155.266Z" fill="#5D46C2"/>
<path d="M117.754 160.899C117.754 160.899 113.337 169.156 101.003 169.156C89.08 169.156 84.0627 160.488 84.0627 160.488L84.7897 154.547L84.9161 153.551L86.0618 144.196L115.557 145.018L116.047 148.573L116.213 149.743L117.754 160.899Z" fill="#FF8881"/>
<path d="M129.321 173.683C121.981 183.133 106.06 178.045 100.884 171.139C95.7092 178.053 79.7882 183.133 72.4479 173.683C65.3763 164.589 84.5289 156.656 84.5289 156.656C86.4884 165.466 97.2341 168.295 100.884 168.974C104.535 168.287 115.209 165.466 117.169 156.656C117.169 156.656 136.393 164.581 129.321 173.683Z" fill="#F5EFFF"/>
<path d="M116.047 148.573C109.363 154.239 98.5536 156.396 84.7897 154.547L84.9161 153.551L86.0618 144.196L115.557 145.018L116.047 148.573Z" fill="#19274B"/>
<path d="M74.9842 119.844C68.3867 129.057 54.1803 122.831 55.1442 110.608C56.0213 99.5225 68.4104 101.277 68.4104 101.277L74.9842 119.844Z" fill="#F55B5D"/>
<path d="M68.1259 124.633C68.1259 126.892 66.2928 128.733 64.0252 128.733C61.7654 128.733 59.9244 126.9 59.9244 124.633C59.9244 122.373 61.7575 120.532 64.0252 120.532C66.2928 120.532 68.1259 122.365 68.1259 124.633Z" fill="#FFAC32"/>
<path d="M68.9082 120.081C68.5131 120.081 68.1497 119.813 68.0548 119.41C66.7669 114.163 61.323 109.265 61.2677 109.217C60.9042 108.893 60.8726 108.34 61.1966 107.977C61.5205 107.613 62.0736 107.582 62.4371 107.906C62.6741 108.119 68.3472 113.215 69.7694 118.999C69.8879 119.473 69.5956 119.947 69.1215 120.066C69.0504 120.074 68.9793 120.081 68.9082 120.081Z" fill="#D1373F"/>
<path d="M66.6326 115.096C66.5378 115.096 66.443 115.08 66.3561 115.048C63.9462 114.242 61.639 114.732 61.6153 114.732C61.1413 114.835 60.6751 114.535 60.5645 114.061C60.4618 113.587 60.7541 113.121 61.2282 113.01C61.3388 112.986 64.0173 112.402 66.9092 113.373C67.3674 113.531 67.6203 114.029 67.4623 114.487C67.3437 114.859 67.004 115.096 66.6326 115.096Z" fill="#D1373F"/>
<path d="M123.838 119.844C130.435 129.057 144.642 122.831 143.678 110.608C142.801 99.5225 130.411 101.277 130.411 101.277L123.838 119.844Z" fill="#F55B5D"/>
<path d="M139.245 124.633C139.245 126.892 137.412 128.733 135.144 128.733C132.885 128.733 131.044 126.9 131.044 124.633C131.044 122.373 132.877 120.532 135.144 120.532C137.412 120.532 139.245 122.365 139.245 124.633Z" fill="#FFAC32"/>
<path d="M129.906 120.081C129.835 120.081 129.764 120.074 129.692 120.058C129.218 119.939 128.934 119.465 129.045 118.991C130.467 113.207 136.132 108.111 136.377 107.898C136.74 107.574 137.293 107.605 137.617 107.969C137.941 108.332 137.91 108.885 137.546 109.209C137.491 109.257 132.047 114.156 130.759 119.402C130.664 119.813 130.301 120.081 129.906 120.081Z" fill="#D1373F"/>
<path d="M132.182 115.096C131.81 115.096 131.47 114.867 131.344 114.495C131.186 114.037 131.439 113.531 131.897 113.381C134.789 112.409 137.468 112.994 137.578 113.018C138.052 113.121 138.352 113.595 138.242 114.069C138.139 114.543 137.665 114.843 137.191 114.732C137.167 114.724 134.86 114.235 132.45 115.048C132.363 115.08 132.268 115.096 132.182 115.096Z" fill="#D1373F"/>
<path d="M65.7793 87.8129C65.7793 87.8129 62.5557 107.795 70.9073 127.335C78.4766 145.049 88.5507 150.572 99.2648 150.738C111.448 150.928 136.969 143.88 132.932 86.0588C130.198 46.9872 69.0031 48.3699 65.7793 87.8129Z" fill="#FF8881"/>
<path d="M64.0331 96.6464C64.0331 96.6464 64.6731 109.02 69.8089 108.561C74.9447 108.095 72.4479 80.2119 72.4479 80.2119C72.4479 80.2119 77.0227 86.9595 85.3743 86.2247C93.7259 85.4899 86.1486 74.6336 86.1486 74.6336C86.1486 74.6336 93.8523 85.3477 100.908 84.9052C107.956 84.4627 100.908 71.2598 100.908 71.2598C100.908 71.2598 110.121 86.2247 116.742 85.7901C123.363 85.3477 117.754 72.8795 117.754 72.8795C117.754 72.8795 123.024 86.6751 128.057 87.7022C128.057 87.7022 126.793 108.024 132.173 107.171C137.554 106.318 135.563 83.5936 133.351 76.6958C131.138 69.798 119.279 52.4864 96.444 54.683C73.6173 56.8795 64.436 69.4978 64.0331 96.6464Z" fill="#5A184A"/>
<path d="M77.157 97.9343C77.157 97.9343 81.8266 91.4395 89.8701 90.602C91.1817 90.4677 92.3274 91.4711 92.4064 92.7827V92.8064C92.4854 94.1338 91.4345 95.2558 90.1071 95.2716C87.0888 95.3032 81.7871 95.7378 77.157 97.9343Z" fill="#5A184A"/>
<path d="M122.289 97.9343C122.289 97.9343 117.619 91.4395 109.576 90.602C108.264 90.4677 107.118 91.4711 107.039 92.7827V92.8064C106.96 94.1338 108.011 95.2558 109.339 95.2716C112.357 95.3032 117.659 95.7378 122.289 97.9343Z" fill="#5A184A"/>
<path d="M100.774 140.364C98.2612 140.364 96.278 139.487 96.1516 139.432C95.7802 139.266 95.6222 138.831 95.7881 138.46C95.9541 138.088 96.3886 137.922 96.76 138.096C96.8232 138.128 101.343 140.095 104.961 137.717C105.301 137.496 105.752 137.591 105.981 137.922C106.202 138.262 106.107 138.713 105.775 138.942C104.108 140.024 102.338 140.364 100.774 140.364Z" fill="#F55B5D"/>
<path d="M103.373 121.67C103.358 121.67 103.334 121.67 103.318 121.67L97.9531 121.235C97.5501 121.203 97.2499 120.848 97.2815 120.445C97.3131 120.042 97.6686 119.742 98.0716 119.773L102.559 120.137L101.161 106.499C101.121 106.096 101.414 105.733 101.817 105.693C102.22 105.654 102.583 105.946 102.623 106.349L104.116 120.864C104.14 121.077 104.061 121.298 103.911 121.448C103.76 121.583 103.571 121.67 103.373 121.67Z" fill="#F55B5D"/>
<path d="M89.2617 127.517C95.8593 128.544 102.583 128.994 111.567 127.201C111.567 127.201 110.793 136.808 100.118 136.848C91.0395 136.887 89.2617 127.517 89.2617 127.517Z" fill="#F5EFFF"/>
<path d="M88.7324 106.42C88.7324 108.964 87.5788 111.027 86.1486 111.027C84.7185 111.027 83.5649 108.964 83.5649 106.42C83.5649 103.876 84.7185 101.814 86.1486 101.814C87.5788 101.806 88.7324 103.868 88.7324 106.42Z" fill="#19274B"/>
<path d="M113.621 111.027C115.048 111.027 116.205 108.964 116.205 106.42C116.205 103.876 115.048 101.814 113.621 101.814C112.194 101.814 111.038 103.876 111.038 106.42C111.038 108.964 112.194 111.027 113.621 111.027Z" fill="#19274B"/>
<path d="M79.2905 115.862C79.2905 116.297 78.9349 116.652 78.5003 116.652C78.0658 116.652 77.7102 116.297 77.7102 115.862C77.7102 115.428 78.0658 115.072 78.5003 115.072C78.9349 115.072 79.2905 115.428 79.2905 115.862Z" fill="#F55B5D"/>
<path d="M82.3719 118.564C82.8083 118.564 83.162 118.211 83.162 117.774C83.162 117.338 82.8083 116.984 82.3719 116.984C81.9355 116.984 81.5818 117.338 81.5818 117.774C81.5818 118.211 81.9355 118.564 82.3719 118.564Z" fill="#F55B5D"/>
<path d="M79.2905 120.532C79.2905 120.966 78.9349 121.322 78.5003 121.322C78.0658 121.322 77.7102 120.966 77.7102 120.532C77.7102 120.097 78.0658 119.742 78.5003 119.742C78.9349 119.742 79.2905 120.097 79.2905 120.532Z" fill="#F55B5D"/>
<path d="M85.3744 121.322C85.3744 121.757 85.0189 122.112 84.5843 122.112C84.1497 122.112 83.7942 121.757 83.7942 121.322C83.7942 120.887 84.1497 120.532 84.5843 120.532C85.0189 120.532 85.3744 120.887 85.3744 121.322Z" fill="#F55B5D"/>
<path d="M89.4277 120.532C89.4277 120.966 89.0721 121.322 88.6375 121.322C88.203 121.322 87.8474 120.966 87.8474 120.532C87.8474 120.097 88.203 119.742 88.6375 119.742C89.0721 119.742 89.4277 120.097 89.4277 120.532Z" fill="#F55B5D"/>
<path d="M87.5867 116.66C87.5867 117.095 87.2312 117.45 86.7966 117.45C86.362 117.45 86.0065 117.095 86.0065 116.66C86.0065 116.226 86.362 115.87 86.7966 115.87C87.2312 115.862 87.5867 116.218 87.5867 116.66Z" fill="#F55B5D"/>
<path d="M122.028 115.862C122.028 116.297 122.384 116.652 122.818 116.652C123.253 116.652 123.608 116.297 123.608 115.862C123.608 115.428 123.253 115.072 122.818 115.072C122.384 115.072 122.028 115.428 122.028 115.862Z" fill="#F55B5D"/>
<path d="M118.954 118.564C119.391 118.564 119.745 118.211 119.745 117.774C119.745 117.338 119.391 116.984 118.954 116.984C118.518 116.984 118.164 117.338 118.164 117.774C118.164 118.211 118.518 118.564 118.954 118.564Z" fill="#F55B5D"/>
<path d="M122.028 120.532C122.028 120.966 122.384 121.322 122.818 121.322C123.253 121.322 123.608 120.966 123.608 120.532C123.608 120.097 123.253 119.742 122.818 119.742C122.384 119.742 122.028 120.097 122.028 120.532Z" fill="#F55B5D"/>
<path d="M115.952 121.322C115.952 121.757 116.307 122.112 116.742 122.112C117.177 122.112 117.532 121.757 117.532 121.322C117.532 120.887 117.177 120.532 116.742 120.532C116.3 120.532 115.952 120.887 115.952 121.322Z" fill="#F55B5D"/>
<path d="M111.899 120.532C111.899 120.966 112.254 121.322 112.689 121.322C113.123 121.322 113.479 120.966 113.479 120.532C113.479 120.097 113.123 119.742 112.689 119.742C112.254 119.742 111.899 120.097 111.899 120.532Z" fill="#F55B5D"/>
<path d="M113.74 116.66C113.74 117.095 114.095 117.45 114.53 117.45C114.964 117.45 115.32 117.095 115.32 116.66C115.32 116.226 114.964 115.87 114.53 115.87C114.095 115.862 113.74 116.218 113.74 116.66Z" fill="#F55B5D"/>
<path d="M85.1135 121.504C77.9787 121.504 72.1713 115.696 72.1713 108.561C72.1713 101.427 77.9787 95.6193 85.1135 95.6193C92.2483 95.6193 98.0557 101.427 98.0557 108.561C98.0557 115.704 92.2483 121.504 85.1135 121.504ZM85.1135 96.8044C78.6266 96.8044 73.3486 102.082 73.3486 108.569C73.3486 115.056 78.6266 120.334 85.1135 120.334C91.6004 120.334 96.8784 115.056 96.8784 108.569C96.8784 102.082 91.6004 96.8044 85.1135 96.8044Z" fill="#F5EFFF"/>
<path d="M116.268 121.504C109.133 121.504 103.326 115.696 103.326 108.561C103.326 101.427 109.133 95.6193 116.268 95.6193C123.403 95.6193 129.21 101.427 129.21 108.561C129.202 115.704 123.403 121.504 116.268 121.504ZM116.268 96.8044C109.781 96.8044 104.503 102.082 104.503 108.569C104.503 115.056 109.781 120.334 116.268 120.334C122.755 120.334 128.033 115.056 128.033 108.569C128.033 102.082 122.755 96.8044 116.268 96.8044Z" fill="#F5EFFF"/>
<path d="M127.883 104.959C127.741 104.959 127.598 104.911 127.488 104.808C127.251 104.587 127.227 104.216 127.448 103.979C127.606 103.805 131.431 99.6805 137.159 100.621C137.483 100.676 137.696 100.976 137.641 101.292C137.586 101.616 137.285 101.83 136.969 101.774C131.865 100.937 128.349 104.721 128.317 104.761C128.207 104.895 128.041 104.959 127.883 104.959Z" fill="#F5EFFF"/>
<path d="M73.5856 104.721C73.4355 104.721 73.2775 104.658 73.1669 104.54C73.1037 104.469 68.4814 99.8464 62.7688 101.759C62.4607 101.861 62.1288 101.695 62.0261 101.387C61.9234 101.079 62.0893 100.747 62.3975 100.644C68.8291 98.4874 73.799 103.505 74.0044 103.726C74.2335 103.955 74.2256 104.326 73.9886 104.556C73.8859 104.666 73.7358 104.721 73.5856 104.721Z" fill="#F5EFFF"/>
<path d="M97.4712 107.384C97.4554 107.384 97.4475 107.384 97.4317 107.384C97.1077 107.36 96.8628 107.084 96.8865 106.76C96.9497 105.733 97.8346 103.789 100.695 103.789C103.555 103.789 104.44 105.733 104.503 106.76C104.527 107.084 104.282 107.36 103.958 107.384C103.634 107.408 103.358 107.163 103.334 106.839C103.318 106.649 103.105 104.966 100.695 104.966C98.206 104.966 98.0638 106.768 98.0559 106.839C98.0321 107.147 97.7714 107.384 97.4712 107.384Z" fill="#F5EFFF"/>
</g>
<defs>
<filter id="filter0_i_308_389" x="3.42834" y="7.62091" width="197.861" height="197.861" filterUnits="userSpaceOnUse" color-interpolation-filters="sRGB">
<feFlood flood-opacity="0" result="BackgroundImageFix"/>
<feBlend mode="normal" in="SourceGraphic" in2="BackgroundImageFix" result="shape"/>
<feColorMatrix in="SourceAlpha" type="matrix" values="0 0 0 0 0 0 0 0 0 0 0 0 0 0 0 0 0 0 127 0" result="hardAlpha"/>
<feOffset dy="-6.85656"/>
<feComposite in2="hardAlpha" operator="arithmetic" k2="-1" k3="1"/>
<feColorMatrix type="matrix" values="0 0 0 0 0.754167 0 0 0 0 0.741597 0 0 0 0 0.741597 0 0 0 0.19 0"/>
<feBlend mode="normal" in2="shape" result="effect1_innerShadow_308_389"/>
</filter>
</defs>
</svg>
