<svg width="239" height="244" viewBox="0 0 239 244" fill="none" xmlns="http://www.w3.org/2000/svg">
<g filter="url(#filter0_i_308_343)">
<circle cx="120.075" cy="124.993" r="115.478" fill="#FBF3FA"/>
</g>
<circle cx="120.075" cy="124.993" r="115.478" stroke="#F3F4F6" stroke-width="1.14904"/>
<mask id="mask0_308_343" style="mask-type:alpha" maskUnits="userSpaceOnUse" x="0" y="0" width="239" height="240">
<circle cx="119.5" cy="119.822" r="119.5" fill="white"/>
</mask>
<g mask="url(#mask0_308_343)">
<path d="M193.237 205.559C186.683 187.948 146.602 179.535 139.585 174.431C130.571 167.876 133.44 146.171 133.44 146.171L118.697 146.556L103.954 146.171C103.954 146.171 106.822 167.876 97.8084 174.431C90.7916 179.535 50.7111 187.948 44.1569 205.559C37.6028 223.17 35.1508 238.731 35.1508 238.731H117.88H119.514H202.243C202.243 238.731 199.791 223.17 193.237 205.559Z" fill="#965450"/>
<path d="M101.224 170.39C108.125 169.689 115.065 168.285 121.072 164.923C125.452 162.471 129.399 159.58 133.054 156.326C132.838 150.751 133.44 146.178 133.44 146.178L118.697 146.564L103.954 146.178C103.954 146.178 105.997 161.623 101.224 170.39Z" fill="#76413B"/>
<path d="M194.401 205.312C192.003 198.866 185.141 193.638 177.044 189.359C162.579 199.236 142.076 205.405 119.321 205.405C96.567 205.405 76.0641 199.228 61.5987 189.359C53.4947 193.646 46.6321 198.866 44.2341 205.312C37.6337 223.055 35.1585 238.731 35.1585 238.731H118.496H120.147H203.484C203.477 238.731 201.002 223.055 194.401 205.312Z" fill="#8807F7"/>
<path d="M37.3484 199.167H199.722" stroke="white" stroke-width="0.8855" stroke-miterlimit="10"/>
<path d="M37.3484 232.963H204.124" stroke="white" stroke-width="0.8855" stroke-miterlimit="10"/>
<path d="M30 216.578H210" stroke="white" stroke-width="0.8855" stroke-miterlimit="10"/>
<path d="M93.9377 112.336C91.555 104.949 85.9185 106.661 85.3864 106.838C84.8313 106.9 79.0019 107.771 80.012 115.466C81.0221 123.208 85.5175 127.403 89.7276 126.169C94.0688 125.483 96.3357 119.769 93.9377 112.336Z" fill="#76413B"/>
<path d="M142.716 112.336C145.099 104.949 150.735 106.661 151.267 106.838C151.822 106.9 157.652 107.771 156.642 115.466C155.631 123.208 151.136 127.403 146.926 126.169C142.585 125.483 140.318 119.769 142.716 112.336Z" fill="#76413B"/>
<path d="M147.635 100.716C144.682 68.3306 120.062 70.1426 117.741 70.3893C115.42 70.1426 90.7994 68.3306 87.8461 100.716C84.8775 133.294 99.3891 154.575 117.741 153.403C136.092 154.568 150.604 133.294 147.635 100.716Z" fill="#965450"/>
<path d="M121.257 111.773C122.352 116.037 122.992 120.378 123.447 124.743C122.12 125.915 120.771 127.048 119.368 128.128C119.915 127.464 120.509 126.848 121.08 126.208C121.666 125.583 122.252 124.966 122.853 124.357L122.753 124.658C121.989 120.386 121.396 116.106 121.257 111.773Z" fill="#76413B"/>
<path d="M103.484 132.893L132.7 132.584C132.7 132.584 121.018 144.081 103.484 132.893Z" fill="white"/>
<path d="M110.978 138.761C117.286 141.205 124.418 140.742 129.862 136.609C125.174 141.83 116.746 142.4 110.978 138.761Z" fill="#76413B"/>
<path d="M102.42 112.259C102.42 114.695 103.322 116.677 104.44 116.677C105.558 116.677 106.46 114.703 106.46 112.259C106.46 109.814 105.558 107.841 104.44 107.841C103.329 107.841 102.42 109.822 102.42 112.259Z" fill="#352C38"/>
<path d="M130.209 112.259C130.209 114.695 131.111 116.677 132.229 116.677C133.347 116.677 134.25 114.703 134.25 112.259C134.25 109.814 133.347 107.841 132.229 107.841C131.111 107.841 130.209 109.822 130.209 112.259Z" fill="#352C38"/>
<path d="M97.4538 105.034C100.561 99.297 108.249 98.3023 111.541 104.448C110.662 103.923 109.853 103.299 108.943 102.859C105.087 100.616 100.785 102.605 97.4538 105.034Z" fill="#352C38"/>
<path d="M125.436 105.034C128.544 99.297 136.231 98.3023 139.524 104.448C138.645 103.923 137.835 103.299 136.925 102.859C133.07 100.616 128.767 102.605 125.436 105.034Z" fill="#352C38"/>
<path d="M103.476 64.4906C103.476 64.4906 85.4867 58.322 88.571 50.0946C91.6553 41.8672 105.535 53.1789 105.535 53.1789C105.535 53.1789 82.4024 33.1309 93.714 27.479C105.026 21.827 117.872 49.5857 117.872 49.5857C117.872 49.5857 95.2562 21.827 115.813 18.226C136.378 14.6251 121.465 55.2377 121.465 55.2377C121.465 55.2377 128.659 26.4534 140.488 30.5633C156.164 36.0148 127.634 58.8386 127.634 58.8386C127.634 58.8386 145.114 43.9337 148.707 47.018C152.308 50.1023 143.711 57.8825 134.311 64.4983C120.44 74.2601 120.44 73.7435 103.476 64.4906Z" fill="#352C38"/>
<path d="M117.802 76.6505C125.715 76.6505 132.129 72.456 132.129 67.2819C132.129 62.1078 125.715 57.9133 117.802 57.9133C109.89 57.9133 103.476 62.1078 103.476 67.2819C103.476 72.456 109.89 76.6505 117.802 76.6505Z" fill="#8807F7"/>
<path d="M117.116 80.3902C117.116 80.3902 117.247 93.7298 90.2519 101.448C90.2519 101.448 91.902 121.836 88.0466 120.733C84.1912 119.63 66.8035 62.0077 117.54 63.7889L117.116 80.3902Z" fill="#352C38"/>
<path d="M117.116 80.3902C117.116 80.3902 117.563 93.7298 144.567 101.448C144.567 101.448 142.916 121.836 146.772 120.733C150.627 119.63 167.521 62.9407 117.548 63.7889L117.116 80.3902Z" fill="#352C38"/>
<path d="M125.421 92.4575C117.062 82.5029 115.875 75.7252 119.337 64.6988C118.982 64.6371 118.643 64.56 118.327 64.4597C114.595 73.6664 111.603 89.0956 127.418 98.6493C127.418 98.6493 135.599 104.579 125.421 92.4575Z" fill="#352C38"/>
<path d="M118.35 91.5322C114.348 81.6779 115.135 76.0953 120.609 68.3845C120.347 68.2534 120.108 68.1069 119.884 67.945C114.656 74.1753 108.442 85.433 118.35 96.8527C118.35 96.8527 123.223 103.53 118.35 91.5322Z" fill="#352C38"/>
</g>
<defs>
<filter id="filter0_i_308_343" x="4.02167" y="8.93991" width="232.106" height="232.106" filterUnits="userSpaceOnUse" color-interpolation-filters="sRGB">
<feFlood flood-opacity="0" result="BackgroundImageFix"/>
<feBlend mode="normal" in="SourceGraphic" in2="BackgroundImageFix" result="shape"/>
<feColorMatrix in="SourceAlpha" type="matrix" values="0 0 0 0 0 0 0 0 0 0 0 0 0 0 0 0 0 0 127 0" result="hardAlpha"/>
<feOffset dy="-8.04327"/>
<feComposite in2="hardAlpha" operator="arithmetic" k2="-1" k3="1"/>
<feColorMatrix type="matrix" values="0 0 0 0 0.754167 0 0 0 0 0.741597 0 0 0 0 0.741597 0 0 0 0.19 0"/>
<feBlend mode="normal" in2="shape" result="effect1_innerShadow_308_343"/>
</filter>
</defs>
</svg>
