<svg width="38" height="41" viewBox="0 0 38 41" fill="none" xmlns="http://www.w3.org/2000/svg">
<path d="M14.0555 8.60262C14.0625 11.2714 14.0625 13.9402 14.0695 16.609C14.0765 18.9095 13.3225 21.1505 11.1903 22.3253C8.69335 23.6895 5.15484 23.3458 2.37033 23.0582C2.26512 23.0512 2.16692 23.0372 2.06873 23.0302C2.15991 21.1084 2.12484 19.169 2.03366 17.2542C1.91442 14.6591 3.48904 11.566 6.27356 11.1276C9.30005 10.6507 11.9303 10.328 13.3576 8.65873C13.4067 8.60963 13.4488 8.56053 13.4908 8.50442C13.7013 8.22036 13.9257 7.94331 14.1502 7.66626C14.08 7.96786 14.0555 8.28699 14.0555 8.60262Z" fill="#8807F7"/>
<path d="M4.91016 40.4386C6.99328 40.5718 9.09043 40.5403 11.1771 40.5753C13.6109 40.6174 16.1008 40.919 18.4505 40.4912C21.8206 39.8775 25.6116 37.6786 26.8636 34.4206C28.0244 31.4047 27.4773 27.803 25.4784 25.271C25.3381 25.0957 25.1908 24.9273 25.0295 24.759C23.0095 22.5496 19.8743 21.3959 16.8969 21.7921C13.1901 22.2831 9.92509 25.1974 8.96418 28.806C8.3645 31.0575 8.88703 33.4562 8.53634 35.7498C8.24877 37.6505 6.62856 39.5969 4.91016 40.4386Z" fill="#8807F7"/>
<path d="M25.7406 0C25.5548 0.564618 25.7792 1.17833 26.0212 1.72191C29.1108 8.61656 37.3977 13.2808 37.1137 21.5607C36.9839 25.3061 35.1147 29.7073 31.99 31.9272C31.7621 32.0885 31.5552 32.2323 31.2886 32.306C30.6925 31.1908 30.6293 29.5565 30.1208 28.3256C29.4861 26.7825 28.6444 25.264 27.4696 24.0682C26.3438 22.9249 24.9341 22.2656 23.8083 21.1434C21.4446 18.7832 19.9542 15.5463 19.7578 12.2077C19.4702 7.44524 21.8514 2.72139 25.7406 0Z" fill="#8807F7"/>
<path d="M4.22945 16.6265C4.22945 16.6265 4.12073 14.5468 6.24945 14.6521C6.25296 14.6521 7.02799 16.9246 4.22945 16.6265Z" fill="white" stroke="#8807F7" stroke-width="0.5" stroke-miterlimit="10"/>
<path d="M3.52799 34.2208C5.47644 34.2208 7.05597 32.6412 7.05597 30.6928C7.05597 28.7443 5.47644 27.1648 3.52799 27.1648C1.57953 27.1648 0 28.7443 0 30.6928C0 32.6412 1.57953 34.2208 3.52799 34.2208Z" fill="#8807F7"/>
</svg>
