<svg width="87" height="87" viewBox="0 0 87 87" fill="none" xmlns="http://www.w3.org/2000/svg">
<g filter="url(#filter0_d_602_13203)">
<rect x="10.6389" y="6.7998" width="65.8475" height="65.8475" rx="9.68345" fill="#FFD4E2"/>
</g>
<path d="M44 46.3585C43.8445 46.3585 43.7037 46.334 43.5777 46.285C43.4509 46.2368 43.3292 46.1641 43.2125 46.0668C42.3764 45.3279 41.7153 44.409 41.2292 43.31C40.7431 42.2118 40.5 41.1085 40.5 40.0002C40.5 38.8918 40.7431 37.7882 41.2292 36.6892C41.7153 35.5909 42.3667 34.6724 43.1834 33.9335C43.3 33.8363 43.4264 33.7585 43.5625 33.7002C43.6986 33.6418 43.8445 33.6127 44 33.6127C44.1556 33.6127 44.2967 33.6418 44.4235 33.7002C44.5495 33.7585 44.6709 33.8363 44.7875 33.9335C45.6236 34.6724 46.2847 35.5909 46.7709 36.6892C47.257 37.7882 47.5 38.8918 47.5 40.0002C47.5 41.1085 47.257 42.2118 46.7709 43.31C46.2847 44.409 45.6334 45.3279 44.8167 46.0668C44.7195 46.1641 44.5981 46.2368 44.4527 46.285C44.3065 46.334 44.1556 46.3585 44 46.3585ZM48.6667 48.1668C48.1417 48.1668 47.6315 48.1182 47.136 48.021C46.6398 47.9238 46.1584 47.7779 45.6917 47.5835C46.7806 46.8641 47.6459 45.7363 48.2875 44.2002C48.9292 42.6641 49.25 41.2641 49.25 40.0002C49.25 38.7363 48.9292 37.3363 48.2875 35.8002C47.6459 34.2641 46.7806 33.1363 45.6917 32.4168C46.1584 32.2224 46.6398 32.0766 47.136 31.9793C47.6315 31.8821 48.1417 31.8335 48.6667 31.8335C50.9417 31.8335 52.8714 32.6257 54.4557 34.21C56.0408 35.7951 56.8334 37.7252 56.8334 40.0002C56.8334 42.2752 56.0408 44.2048 54.4557 45.7892C52.8714 47.3743 50.9417 48.1668 48.6667 48.1668ZM39.3334 48.1668C37.0584 48.1668 35.1287 47.3743 33.5444 45.7892C31.9592 44.2048 31.1667 42.2752 31.1667 40.0002C31.1667 37.7252 31.9592 35.7951 33.5444 34.21C35.1287 32.6257 37.0584 31.8335 39.3334 31.8335C39.8584 31.8335 40.3686 31.8821 40.864 31.9793C41.3602 32.0766 41.8417 32.2224 42.3084 32.4168C41.2195 33.1363 40.3542 34.2641 39.7125 35.8002C39.0709 37.3363 38.75 38.7363 38.75 40.0002C38.75 41.2641 39.0709 42.6641 39.7125 44.2002C40.3542 45.7363 41.2195 46.8641 42.3084 47.5835C41.8417 47.7779 41.3602 47.9238 40.864 48.021C40.3686 48.1182 39.8584 48.1668 39.3334 48.1668Z" fill="#E6346D"/>
<defs>
<filter id="filter0_d_602_13203" x="0.955402" y="0.989733" width="85.2144" height="85.2146" filterUnits="userSpaceOnUse" color-interpolation-filters="sRGB">
<feFlood flood-opacity="0" result="BackgroundImageFix"/>
<feColorMatrix in="SourceAlpha" type="matrix" values="0 0 0 0 0 0 0 0 0 0 0 0 0 0 0 0 0 0 127 0" result="hardAlpha"/>
<feOffset dy="3.87338"/>
<feGaussianBlur stdDeviation="4.84173"/>
<feComposite in2="hardAlpha" operator="out"/>
<feColorMatrix type="matrix" values="0 0 0 0 0.533333 0 0 0 0 0.027451 0 0 0 0 0.968627 0 0 0 0.07 0"/>
<feBlend mode="normal" in2="BackgroundImageFix" result="effect1_dropShadow_602_13203"/>
<feBlend mode="normal" in="SourceGraphic" in2="effect1_dropShadow_602_13203" result="shape"/>
</filter>
</defs>
</svg>
