<svg width="182" height="181" viewBox="0 0 182 181" fill="none" xmlns="http://www.w3.org/2000/svg">
<g filter="url(#filter0_i_1236_16142)">
<path d="M181.5 90.5C181.5 140.482 140.982 181 91 181C41.0182 181 0.5 140.482 0.5 90.5C0.5 40.5182 41.0182 0 91 0C140.982 0 181.5 40.5182 181.5 90.5Z" fill="white"/>
</g>
<mask id="mask0_1236_16142" style="mask-type:alpha" maskUnits="userSpaceOnUse" x="0" y="0" width="182" height="181">
<circle cx="91" cy="90.5" r="90.5" fill="#D9D9D9"/>
</mask>
<g mask="url(#mask0_1236_16142)">
<path d="M158.95 163.31C153 147.33 116.64 139.7 110.27 135.07C102.09 129.12 104.7 109.43 104.7 109.43L91.3198 109.78L77.9398 109.43C77.9398 109.43 80.5398 129.13 72.3698 135.07C65.9998 139.7 29.6298 147.33 23.6898 163.31C17.7398 179.29 15.5098 193.41 15.5098 193.41H167.12C167.12 193.41 164.89 179.29 158.94 163.31H158.95Z" fill="#965450"/>
<path d="M75.4492 131.4C81.7092 130.76 88.0092 129.49 93.4592 126.44C97.4292 124.22 101.009 121.59 104.339 118.64C104.139 113.58 104.689 109.43 104.689 109.43L91.3092 109.78L77.9292 109.43C77.9292 109.43 79.7792 123.45 75.4492 131.4Z" fill="#76413B"/>
<path d="M160 163.09C154.21 147.52 119.77 139.82 111.7 135.11C105.33 138.82 97.55 141 89.16 141C81.86 141 75.04 139.35 69.19 136.49C57.88 141.3 29 148.95 23.74 163.09C17.75 179.19 15.5 193.42 15.5 193.42H168.24C168.24 193.42 165.99 179.19 160 163.1V163.09Z" fill="#E6356D"/>
<path d="M69.1895 136.49C69.1895 136.49 74.0595 133.33 75.1695 128.44L107.389 126.88C107.389 126.88 108.499 133.32 112.949 135.77C112.949 135.77 89.4295 149.2 69.1895 136.49Z" fill="#FFEEF6"/>
<path d="M68.8505 78.7193C66.6905 72.0193 61.5705 73.5693 61.0905 73.7293C60.5905 73.7893 55.3005 74.5693 56.2105 81.5593C57.1305 88.5893 61.2105 92.3893 65.0305 91.2693C68.9605 90.6493 71.0205 85.4593 68.8505 78.7193Z" fill="#965450"/>
<path d="M113.11 78.7193C115.27 72.0193 120.39 73.5693 120.87 73.7293C121.37 73.7893 126.66 74.5693 125.75 81.5593C124.83 88.5893 120.75 92.3893 116.93 91.2693C113 90.6493 110.94 85.4593 113.11 78.7193Z" fill="#965450"/>
<path d="M117.571 68.1797C114.891 38.7897 92.5513 40.4397 90.4413 40.6597C88.3313 40.4397 65.9913 38.7897 63.3113 68.1797C60.6213 97.7397 73.7813 117.05 90.4413 115.99C107.091 117.05 120.261 97.7397 117.571 68.1797Z" fill="#965450"/>
<path d="M93.6319 78.2109C93.7919 78.6809 93.9119 79.1609 94.0419 79.6409C94.1819 80.1209 94.2919 80.5909 94.4019 81.0709C94.6219 82.0309 94.8119 82.9909 94.9819 83.9609C95.1419 84.9309 95.3019 85.8909 95.4219 86.8709C95.5519 87.8409 95.6519 88.8209 95.7419 89.7909L95.7619 90.0409L95.6019 90.1709C95.0119 90.6709 94.4119 91.1709 93.8019 91.6509C93.1719 92.1109 92.5719 92.6109 91.9219 93.0409C92.3919 92.4109 92.9219 91.8409 93.4119 91.2409C93.9319 90.6609 94.4519 90.0809 94.9819 89.5209L94.8519 89.9109C94.6619 88.9509 94.4819 87.9809 94.3319 87.0109C94.1719 86.0409 94.0619 85.0709 93.9419 84.1009C93.8319 83.1309 93.7419 82.1509 93.6919 81.1709C93.6619 80.6809 93.6419 80.1909 93.6319 79.6909C93.6319 79.2009 93.6119 78.7009 93.6319 78.2109Z" fill="#B26E59"/>
<path d="M77.502 97.3699L104.012 97.0898C104.012 97.0898 93.412 107.52 77.502 97.3699Z" fill="white"/>
<path d="M84.3008 102.7C84.3008 102.7 84.5808 102.76 85.0708 102.89C85.5608 103 86.2408 103.27 87.0808 103.4C87.5008 103.47 87.9408 103.55 88.4108 103.65C88.8708 103.78 89.3908 103.74 89.9008 103.81C90.4208 103.86 90.9508 103.93 91.5008 103.88C92.0408 103.86 92.6008 103.86 93.1408 103.82C93.6808 103.73 94.2308 103.65 94.7608 103.56C95.3008 103.51 95.8008 103.28 96.3008 103.16C96.7908 103 97.2908 102.91 97.7208 102.68C98.1508 102.48 98.5708 102.3 98.9608 102.13C99.3608 101.98 99.6708 101.76 99.9808 101.59C100.281 101.41 100.541 101.26 100.751 101.13C101.181 100.88 101.451 100.74 101.451 100.74C101.451 100.74 101.251 100.95 100.891 101.3C100.701 101.47 100.481 101.68 100.221 101.93C99.9608 102.17 99.6808 102.48 99.2908 102.68C98.9208 102.92 98.5208 103.17 98.0808 103.43C97.6608 103.72 97.1508 103.89 96.6308 104.09C96.3708 104.19 96.1008 104.29 95.8408 104.39L95.4308 104.54L95.0008 104.62C94.4208 104.72 93.8408 104.83 93.2608 104.93C92.6708 104.96 92.0708 104.95 91.4908 104.96C90.9008 105 90.3408 104.87 89.7908 104.79C89.2508 104.69 88.7108 104.65 88.2308 104.47C87.7408 104.32 87.2908 104.16 86.8808 104.01C86.4508 103.89 86.1108 103.7 85.8008 103.53C85.4908 103.36 85.2208 103.22 85.0008 103.1C84.5608 102.86 84.3108 102.71 84.3108 102.71L84.3008 102.7Z" fill="#B26E59"/>
<path d="M76.541 78.6506C76.541 80.8606 77.361 82.6606 78.371 82.6606C79.381 82.6606 80.201 80.8706 80.201 78.6506C80.201 76.4306 79.381 74.6406 78.371 74.6406C77.361 74.6406 76.541 76.4306 76.541 78.6506Z" fill="#352C38"/>
<path d="M101.762 78.6506C101.762 80.8606 102.582 82.6606 103.592 82.6606C104.602 82.6606 105.422 80.8706 105.422 78.6506C105.422 76.4306 104.602 74.6406 103.592 74.6406C102.582 74.6406 101.762 76.4306 101.762 78.6506Z" fill="#352C38"/>
<path d="M72.041 72.1004C72.041 72.1004 72.361 71.1404 73.351 70.0204C73.611 69.7604 73.871 69.4404 74.221 69.1804C74.551 68.9004 74.921 68.6304 75.341 68.3904C75.741 68.1204 76.231 67.9604 76.701 67.7604C77.211 67.6404 77.711 67.4604 78.261 67.4404C78.531 67.4204 78.801 67.4104 79.071 67.4004C79.341 67.4204 79.611 67.4704 79.871 67.5004C80.411 67.5304 80.881 67.7804 81.351 67.9404C81.821 68.1104 82.191 68.4304 82.571 68.6604C82.961 68.8804 83.201 69.2404 83.481 69.5004C83.741 69.7704 83.981 70.0204 84.121 70.2904C84.291 70.5404 84.411 70.7804 84.521 70.9604C84.731 71.3404 84.821 71.5604 84.821 71.5604C84.821 71.5604 84.591 71.4504 84.221 71.2604C84.041 71.1604 83.811 71.0404 83.581 70.9004C83.351 70.7404 83.051 70.6304 82.751 70.4904C82.441 70.3704 82.151 70.1604 81.791 70.0704C81.441 69.9804 81.101 69.8004 80.731 69.7404C80.361 69.6904 79.991 69.5504 79.611 69.5704C79.421 69.5604 79.231 69.5504 79.041 69.5304L78.461 69.5804C78.071 69.5604 77.691 69.7104 77.291 69.7504C76.911 69.8804 76.521 69.9404 76.151 70.1004C75.781 70.2304 75.421 70.3704 75.081 70.5304C74.731 70.6704 74.421 70.8504 74.101 70.9804C73.801 71.1404 73.521 71.2904 73.271 71.4204C73.021 71.5604 72.801 71.6804 72.621 71.7804C72.251 71.9904 72.041 72.1004 72.041 72.1004Z" fill="#352C38"/>
<path d="M97.4316 72.1004C97.4316 72.1004 97.7516 71.1404 98.7416 70.0204C99.0016 69.7604 99.2616 69.4404 99.6116 69.1804C99.9416 68.9004 100.312 68.6304 100.732 68.3904C101.132 68.1204 101.622 67.9604 102.092 67.7604C102.602 67.6404 103.102 67.4604 103.652 67.4404C103.922 67.4204 104.192 67.4104 104.462 67.4004C104.732 67.4204 105.002 67.4704 105.262 67.5004C105.802 67.5304 106.272 67.7804 106.742 67.9404C107.212 68.1104 107.582 68.4304 107.962 68.6604C108.352 68.8804 108.592 69.2404 108.872 69.5004C109.132 69.7704 109.372 70.0204 109.512 70.2904C109.682 70.5404 109.802 70.7804 109.912 70.9604C110.122 71.3404 110.212 71.5604 110.212 71.5604C110.212 71.5604 109.982 71.4504 109.612 71.2604C109.432 71.1604 109.202 71.0404 108.972 70.9004C108.742 70.7404 108.442 70.6304 108.142 70.4904C107.832 70.3704 107.542 70.1604 107.182 70.0704C106.832 69.9804 106.492 69.8004 106.122 69.7404C105.752 69.6904 105.382 69.5504 105.002 69.5704C104.812 69.5604 104.622 69.5504 104.432 69.5304L103.852 69.5804C103.462 69.5604 103.082 69.7104 102.682 69.7504C102.302 69.8804 101.912 69.9404 101.542 70.1004C101.172 70.2304 100.812 70.3704 100.472 70.5304C100.122 70.6704 99.8116 70.8504 99.4916 70.9804C99.1916 71.1404 98.9116 71.2904 98.6616 71.4204C98.4116 71.5604 98.1916 71.6804 98.0116 71.7804C97.6416 71.9904 97.4316 72.1004 97.4316 72.1004Z" fill="#352C38"/>
<path d="M117.721 84.33C125.391 65.33 122.051 42.66 122.051 42.66C124.721 33.66 121.381 25.33 121.381 25.33C121.381 31 116.381 38 116.381 38C120.711 31.33 117.051 18 117.051 18C114.381 23 102.721 31.67 102.721 31.67L108.391 23.34C95.0609 22.67 86.7209 29.34 86.7209 29.34L93.0509 22.34C75.0509 24.01 67.7209 36.34 67.7209 36.34C49.3909 44.01 63.3909 85.67 63.3909 85.67H65.3909V70.34C65.3909 70.34 72.0609 67.01 71.7209 50.01C71.7209 50.01 88.3909 55.34 108.391 50.01C108.391 50.01 106.061 67.34 115.721 69.01L115.391 84.68L117.721 84.35V84.33Z" fill="#352C38"/>
<path opacity="0.1" d="M87.7606 52.3199C84.1006 50.7399 80.5406 48.8599 77.3406 46.6399C72.9906 43.6199 70.2406 39.6699 68.5806 35.1299C68.0106 35.8699 67.7306 36.3399 67.7306 36.3399C49.4006 44.0099 63.4006 85.6699 63.4006 85.6699H65.4006V70.3399C65.4006 70.3399 72.0706 67.0099 71.7306 50.0099C71.7306 50.0099 78.1406 52.0499 87.7706 52.3299L87.7606 52.3199Z" fill="#352C38"/>
<path d="M19.6191 166.5H170.619" stroke="white" stroke-width="3" stroke-miterlimit="10"/>
<path d="M19.6191 171.17H170.619" stroke="white" stroke-miterlimit="10"/>
</g>
<defs>
<filter id="filter0_i_1236_16142" x="0.5" y="-8.54525" width="181" height="189.545" filterUnits="userSpaceOnUse" color-interpolation-filters="sRGB">
<feFlood flood-opacity="0" result="BackgroundImageFix"/>
<feBlend mode="normal" in="SourceGraphic" in2="BackgroundImageFix" result="shape"/>
<feColorMatrix in="SourceAlpha" type="matrix" values="0 0 0 0 0 0 0 0 0 0 0 0 0 0 0 0 0 0 127 0" result="hardAlpha"/>
<feOffset dy="-8.54525"/>
<feGaussianBlur stdDeviation="4.27263"/>
<feComposite in2="hardAlpha" operator="arithmetic" k2="-1" k3="1"/>
<feColorMatrix type="matrix" values="0 0 0 0 0.791667 0 0 0 0 0.791667 0 0 0 0 0.791667 0 0 0 0.25 0"/>
<feBlend mode="normal" in2="shape" result="effect1_innerShadow_1236_16142"/>
</filter>
</defs>
</svg>
