<svg width="208" height="213" viewBox="0 0 208 213" fill="none" xmlns="http://www.w3.org/2000/svg">
<g filter="url(#filter0_i_308_99)">
<circle cx="104.5" cy="108.78" r="100.5" fill="#FBF3FA"/>
</g>
<circle cx="104.5" cy="108.78" r="100.5" stroke="#F3F4F6"/>
<mask id="mask0_308_99" style="mask-type:alpha" maskUnits="userSpaceOnUse" x="0" y="0" width="208" height="209">
<path d="M208 104.28C208 161.718 161.438 208.28 104 208.28C46.5624 208.28 0 161.718 0 104.28C0 46.8427 46.5624 0.280334 104 0.280334C161.438 0.280334 208 46.8427 208 104.28Z" fill="white"/>
</mask>
<g mask="url(#mask0_308_99)">
<path d="M182.063 192.016C175.356 173.982 134.311 165.371 127.125 160.143C117.898 153.43 120.836 131.207 120.836 131.207L105.74 131.604L90.6439 131.207C90.6439 131.207 93.5815 153.435 84.3552 160.143C77.169 165.371 36.1242 173.982 29.4167 192.016C22.7037 210.049 20.1904 225.988 20.1904 225.988H104.908H106.583H191.3C191.289 225.988 188.776 210.049 182.063 192.016Z" fill="#965450"/>
<path d="M87.8423 156.003C94.9088 155.279 102.013 153.849 108.166 150.405C112.654 147.897 116.691 144.932 120.439 141.598C120.216 135.886 120.83 131.202 120.83 131.202L105.734 131.599L90.6385 131.202C90.6385 131.202 92.7274 147.021 87.8423 156.003Z" fill="#76413B"/>
<path d="M183.254 191.765C176.715 174.2 137.847 165.507 128.74 160.192C121.548 164.375 112.774 166.839 103.297 166.839C95.0611 166.839 87.3581 164.979 80.7594 161.747C67.9971 167.182 35.4061 175.815 29.4656 191.765C22.7037 209.93 20.1686 225.988 20.1686 225.988H105.511H107.203H192.546C192.551 225.988 190.016 209.935 183.254 191.765Z" fill="#8807F7"/>
<path d="M15 195.143H194.422" stroke="#FFEEF6" stroke-miterlimit="10"/>
<path d="M15 205.745H194.422" stroke="#FFEEF6" stroke-miterlimit="10"/>
<path d="M15 184.546H194.422" stroke="#FFEEF6" stroke-miterlimit="10"/>
<path d="M80.384 96.5545C77.9469 88.9875 72.1696 90.7392 71.631 90.9241C71.0653 90.9894 65.0976 91.8761 66.1258 99.7587C67.1648 107.685 71.7616 111.982 76.0755 110.72C80.5146 110.013 82.8374 104.165 80.384 96.5545Z" fill="#76413B"/>
<path d="M130.329 96.5545C132.766 88.9875 138.543 90.7392 139.082 90.9241C139.647 90.9894 145.615 91.8761 144.587 99.7587C143.548 107.685 138.951 111.982 134.637 110.72C130.198 110.013 127.875 104.165 130.329 96.5545Z" fill="#76413B"/>
<path d="M135.366 84.6518C132.347 51.4896 107.132 53.3446 104.755 53.5949C102.378 53.3446 77.1635 51.4896 74.1443 84.6518C71.1034 118.015 85.9655 139.803 104.755 138.606C123.545 139.803 138.407 118.015 135.366 84.6518Z" fill="#965450"/>
<path d="M106.425 112.722C107.459 111.286 108.716 110.068 110.065 108.941L109.994 109.154L109.145 102.571C108.884 100.373 108.601 98.1811 108.357 95.9779C108.737 98.1593 109.085 100.341 109.45 102.528L110.478 109.083L110.494 109.192C109.265 110.514 107.954 111.743 106.425 112.722Z" fill="#76413B"/>
<path d="M89.0662 96.473C89.0662 98.9699 89.991 100.994 91.1389 100.994C92.2813 100.994 93.2115 98.9699 93.2115 96.473C93.2115 93.976 92.2867 91.9523 91.1389 91.9523C89.991 91.9523 89.0662 93.976 89.0662 96.473Z" fill="#352C38"/>
<path d="M117.523 96.473C117.523 98.9699 118.448 100.994 119.596 100.994C120.738 100.994 121.668 98.9699 121.668 96.473C121.668 93.976 120.743 91.9523 119.596 91.9523C118.448 91.9523 117.523 93.976 117.523 96.473Z" fill="#352C38"/>
<path d="M83.9853 89.0746C87.4887 83.5312 94.7402 82.4922 98.4122 88.4762C93.3312 84.0534 88.8976 85.0381 83.9853 89.0746Z" fill="#352C38"/>
<path d="M112.638 89.0746C116.141 83.5312 123.393 82.4922 127.065 88.4762C121.984 84.0534 117.55 85.0381 112.638 89.0746Z" fill="#352C38"/>
<path d="M92.129 117.553L120.074 117.286C120.074 117.286 107.927 128.558 92.129 117.553Z" fill="white"/>
<path d="M72.3817 65.639C72.3817 65.639 70.6899 107.114 75.4825 126.578C79.0947 141.233 89.5885 145.199 89.5885 145.199C89.5885 145.199 114.417 154.79 128.24 139.275C132.222 134.809 138.396 111.346 135.573 69.3056L125.416 65.0733C125.416 65.0733 127.108 85.6691 132.189 88.2096C132.189 88.2096 130.693 125.017 124.29 129.401C118.932 133.068 127.957 112.472 117.517 112.755C107.078 113.038 106.795 113.321 106.795 113.321C106.795 113.321 88.174 110.22 88.4569 117.553C88.7398 124.886 90.7145 129.684 88.1741 129.684C85.6336 129.684 76.3257 123.76 78.0176 85.1088C78.0176 85.1088 83.376 83.1341 83.376 69.5939C83.3814 51.7834 72.3817 65.639 72.3817 65.639Z" fill="#352C38"/>
<path d="M92 119.28L118.51 119C118.51 119 107.91 129.43 92 119.28Z" fill="white"/>
<path d="M82.2554 63.3869C82.2554 63.3869 90.3718 74.392 100.028 74.392C105.386 74.392 100.028 65.0842 100.028 65.0842C100.028 65.0842 107.644 76.9325 115.543 76.6496C123.442 76.3667 116.669 65.0842 116.669 65.0842C116.669 65.0842 122.593 77.2154 129.932 76.6496C137.265 76.0838 131.058 64.2355 131.058 64.2355C131.058 64.2355 134.441 76.9325 141.497 75.2406C148.553 73.5488 139.805 62.5437 139.805 62.5437C139.805 62.5437 145.729 68.185 148.27 67.9021C150.81 67.6192 150.81 60.0032 142.063 56.3366C142.063 56.3366 150.81 56.0538 151.093 51.8214C151.414 47.0288 145.735 45.3315 132.755 46.7405C132.755 46.7405 143.477 42.2253 141.22 38.2758C138.962 34.3264 129.371 39.9677 129.371 39.9677C129.371 39.9677 138.962 34.6093 133.321 30.3769C128.691 26.9062 104.543 26.9933 89.8714 44.4829C89.8714 44.4829 120.341 28.4022 116.674 26.1446C114.085 24.5507 77.6313 32.6944 72.0989 48.1494C65.3261 67.0534 70.407 77.7757 72.5939 90.6467L82.2554 63.3869Z" fill="#352C38"/>
</g>
<defs>
<filter id="filter0_i_308_99" x="3.50006" y="7.78036" width="202" height="202" filterUnits="userSpaceOnUse" color-interpolation-filters="sRGB">
<feFlood flood-opacity="0" result="BackgroundImageFix"/>
<feBlend mode="normal" in="SourceGraphic" in2="BackgroundImageFix" result="shape"/>
<feColorMatrix in="SourceAlpha" type="matrix" values="0 0 0 0 0 0 0 0 0 0 0 0 0 0 0 0 0 0 127 0" result="hardAlpha"/>
<feOffset dy="-7"/>
<feComposite in2="hardAlpha" operator="arithmetic" k2="-1" k3="1"/>
<feColorMatrix type="matrix" values="0 0 0 0 0.754167 0 0 0 0 0.741597 0 0 0 0 0.741597 0 0 0 0.19 0"/>
<feBlend mode="normal" in2="shape" result="effect1_innerShadow_308_99"/>
</filter>
</defs>
</svg>
