<svg width="111" height="42" viewBox="0 0 111 42" fill="none" xmlns="http://www.w3.org/2000/svg">
<path d="M14.3864 8.60262C14.3934 11.2714 14.3934 13.9402 14.4004 16.609C14.4074 18.9095 13.6534 21.1505 11.5212 22.3253C9.02428 23.6895 5.48577 23.3458 2.70126 23.0582C2.59605 23.0512 2.49786 23.0372 2.39966 23.0302C2.49084 21.1084 2.45577 19.169 2.36459 17.2542C2.24536 14.6591 3.81998 11.566 6.60449 11.1276C9.63098 10.6507 12.2612 10.328 13.6885 8.65873C13.7376 8.60963 13.7797 8.56053 13.8218 8.50442C14.0322 8.22036 14.2566 7.94331 14.4811 7.66626C14.4109 7.96786 14.3864 8.28699 14.3864 8.60262Z" fill="#8807F7"/>
<path d="M5.2403 40.4386C7.32342 40.5718 9.42057 40.5403 11.5072 40.5753C13.941 40.6174 16.431 40.919 18.7806 40.4912C22.1508 39.8775 25.9418 37.6786 27.1938 34.4206C28.3546 31.4047 27.8075 27.803 25.8085 25.271C25.6682 25.0957 25.521 24.9273 25.3596 24.759C23.3396 22.5496 20.2044 21.3959 17.227 21.7921C13.5202 22.2831 10.2552 25.1974 9.29432 28.806C8.69463 31.0575 9.21717 33.4562 8.86647 35.7498C8.57891 37.6505 6.9587 39.5969 5.2403 40.4386Z" fill="#8807F7"/>
<path d="M26.0715 0C25.8856 0.564618 26.1101 1.17833 26.3521 1.72191C29.4417 8.61656 37.7286 13.2808 37.4445 21.5607C37.3148 25.3061 35.4456 29.7073 32.3209 31.9272C32.0929 32.0885 31.886 32.2323 31.6195 32.306C31.0233 31.1908 30.9602 29.5565 30.4517 28.3256C29.8169 26.7825 28.9753 25.264 27.8004 24.0682C26.6747 22.9249 25.2649 22.2656 24.1392 21.1434C21.7755 18.7832 20.2851 15.5463 20.0887 12.2077C19.8011 7.44524 22.1823 2.72139 26.0715 0Z" fill="#8807F7"/>
<path d="M4.55995 16.6265C4.55995 16.6265 4.45124 14.5468 6.57996 14.6521C6.58346 14.6521 7.3585 16.9246 4.55995 16.6265Z" fill="white" stroke="#8807F7" stroke-width="0.5" stroke-miterlimit="10"/>
<path d="M3.85855 34.2208C5.807 34.2208 7.38654 32.6412 7.38654 30.6928C7.38654 28.7443 5.807 27.1648 3.85855 27.1648C1.9101 27.1648 0.330566 28.7443 0.330566 30.6928C0.330566 32.6412 1.9101 34.2208 3.85855 34.2208Z" fill="#8807F7"/>
<path d="M41 34.2336L46.8691 18.5493H50.0149L55.884 34.2336H52.8161L51.3821 30.432H45.5352L44.1013 34.2336H41ZM46.5134 27.8865H50.4262L48.4476 21.8951L46.5134 27.8865ZM57.4625 34.2336V23.607H60.2414V26.108C60.5008 25.1965 60.9047 24.5147 61.453 24.0627C62.0014 23.6032 62.6017 23.3735 63.2538 23.3735C63.9133 23.3735 64.4951 23.5032 64.999 23.7626L64.521 26.2636C64.0986 26.071 63.5613 25.9746 62.9092 25.9746C61.1307 25.9746 60.2414 27.4752 60.2414 30.4765V34.2336H57.4625ZM66.3662 31.2101C66.0846 30.5136 65.9438 29.754 65.9438 28.9314C65.9438 28.1088 66.0846 27.3456 66.3662 26.6416C66.6478 25.9376 67.0258 25.3484 67.5 24.8742C67.9743 24.3999 68.5264 24.0331 69.1563 23.7737C69.7936 23.5069 70.4605 23.3735 71.1571 23.3735C71.8833 23.3735 72.5503 23.518 73.158 23.807C73.7656 24.096 74.214 24.4999 74.503 25.0187V17.8156H77.2597V34.2336H74.503V32.7997C74.214 33.3184 73.7619 33.726 73.1468 34.0224C72.5392 34.3115 71.8759 34.456 71.1571 34.456C70.4605 34.456 69.7973 34.3263 69.1674 34.0669C68.5375 33.8001 67.9817 33.4333 67.5 32.9664C67.0258 32.4922 66.6478 31.9067 66.3662 31.2101ZM68.8117 28.887C68.8117 29.7466 69.0785 30.4469 69.612 30.9878C70.153 31.5288 70.8199 31.7993 71.6129 31.7993C72.3984 31.7993 73.069 31.5325 73.6248 30.999C74.1806 30.458 74.4585 29.754 74.4585 28.887C74.4585 28.0199 74.1732 27.327 73.6026 26.8083C73.0394 26.2822 72.3761 26.0191 71.6129 26.0191C70.8199 26.0191 70.153 26.2859 69.612 26.8194C69.0785 27.3456 68.8117 28.0347 68.8117 28.887ZM79.9942 19.483C79.9942 19.0161 80.172 18.6234 80.5277 18.3047C80.8834 17.9787 81.3058 17.8156 81.7949 17.8156C82.2766 17.8156 82.6879 17.9787 83.0288 18.3047C83.3771 18.6234 83.5512 19.0161 83.5512 19.483C83.5512 19.9573 83.3771 20.3574 83.0288 20.6835C82.6879 21.0022 82.2766 21.1615 81.7949 21.1615C81.2984 21.1615 80.8723 21.0022 80.5166 20.6835C80.1683 20.3574 79.9942 19.9573 79.9942 19.483ZM80.4054 34.2336V23.607H83.1622V34.2336H80.4054ZM86.2968 34.2336V17.8156H89.0758V34.2336H86.2968ZM92.2104 34.2336V17.8156H94.9894V34.2336H92.2104ZM97.4682 28.9092C97.4682 28.0792 97.6164 27.3122 97.9128 26.6082C98.2166 25.9042 98.6205 25.3188 99.1244 24.8519C99.6283 24.3851 100.203 24.0219 100.847 23.7626C101.499 23.5032 102.178 23.3735 102.882 23.3735C103.467 23.3735 104.075 23.4995 104.705 23.7515C105.334 23.996 105.827 24.3851 106.183 24.9186V23.607H108.962V34.2336H106.183V32.8664C105.872 33.3703 105.39 33.7594 104.738 34.0336C104.093 34.3003 103.474 34.4337 102.882 34.4337C101.94 34.4337 101.059 34.2151 100.236 33.7779C99.4208 33.3333 98.7539 32.6848 98.2352 31.8326C97.7238 30.973 97.4682 29.9985 97.4682 28.9092ZM100.336 28.9092C100.336 29.7392 100.629 30.4246 101.214 30.9656C101.8 31.5066 102.485 31.7771 103.271 31.7771C104.064 31.7771 104.745 31.5177 105.316 30.999C105.894 30.4802 106.183 29.7836 106.183 28.9092C106.183 28.0347 105.89 27.3382 105.305 26.8194C104.727 26.3007 104.049 26.0413 103.271 26.0413C102.478 26.0413 101.789 26.3118 101.203 26.8528C100.625 27.3863 100.336 28.0718 100.336 28.9092Z" fill="#3D0072"/>
<rect x="85" y="15.2336" width="6" height="6" fill="#FBF3FA"/>
</svg>
