<svg width="111" height="42" viewBox="0 0 111 42" fill="none" xmlns="http://www.w3.org/2000/svg">
<path d="M14.3864 9.36897C14.3934 12.0378 14.3934 14.7065 14.4004 17.3753C14.4074 19.6759 13.6534 21.9168 11.5212 23.0916C9.02428 24.4558 5.48577 24.1122 2.70126 23.8246C2.59605 23.8176 2.49786 23.8036 2.39966 23.7965C2.49084 21.8747 2.45577 19.9354 2.36459 18.0206C2.24536 15.4255 3.81998 12.3323 6.60449 11.894C9.63098 11.417 12.2612 11.0944 13.6885 9.42508C13.7376 9.37599 13.7797 9.32689 13.8218 9.27078C14.0322 8.98672 14.2566 8.70967 14.4811 8.43262C14.4109 8.73421 14.3864 9.05335 14.3864 9.36897Z" fill="#8807F7"/>
<path d="M5.24023 41.205C7.32336 41.3382 9.42051 41.3067 11.5071 41.3418C13.941 41.3838 16.4309 41.6854 18.7805 41.2576C22.1507 40.6439 25.9417 38.445 27.1937 35.1871C28.3545 32.1711 27.8074 28.5695 25.8085 26.0374C25.6682 25.8621 25.5209 25.6938 25.3596 25.5254C23.3396 23.3161 20.2044 22.1623 17.227 22.5586C13.5201 23.0495 10.2552 25.9638 9.29426 29.5724C8.69457 31.8239 9.21711 34.2227 8.86641 36.5162C8.57884 38.417 6.95864 40.3633 5.24023 41.205Z" fill="#8807F7"/>
<path d="M26.0716 0.766418C25.8857 1.33104 26.1102 1.94475 26.3521 2.48833C29.4418 9.38298 37.7287 14.0472 37.4446 22.3271C37.3148 26.0725 35.4456 30.4737 32.321 32.6936C32.093 32.855 31.8861 32.9987 31.6196 33.0724C31.0234 31.9572 30.9603 30.3229 30.4518 29.092C29.817 27.549 28.9753 26.0304 27.8005 24.8346C26.6748 23.6913 25.265 23.032 24.1393 21.9098C21.7756 19.5496 20.2851 16.3127 20.0887 12.9741C19.8012 8.21166 22.1824 3.48781 26.0716 0.766418Z" fill="#8807F7"/>
<path d="M4.55989 17.3928C4.55989 17.3928 4.45118 15.3132 6.57989 15.4184C6.5834 15.4184 7.35844 17.6909 4.55989 17.3928Z" fill="white" stroke="#8807F7" stroke-width="0.5" stroke-miterlimit="10"/>
<path d="M3.85855 34.9872C5.807 34.9872 7.38654 33.4077 7.38654 31.4592C7.38654 29.5107 5.807 27.9312 3.85855 27.9312C1.9101 27.9312 0.330566 29.5107 0.330566 31.4592C0.330566 33.4077 1.9101 34.9872 3.85855 34.9872Z" fill="#8807F7"/>
<path d="M41 35L46.8691 19.3156H50.0149L55.884 35H52.8161L51.3821 31.1984H45.5352L44.1013 35H41ZM46.5134 28.6529H50.4262L48.4476 22.6615L46.5134 28.6529ZM57.4625 35V24.3733H60.2414V26.8744C60.5008 25.9629 60.9047 25.2811 61.453 24.8291C62.0014 24.3696 62.6017 24.1399 63.2538 24.1399C63.9133 24.1399 64.4951 24.2696 64.999 24.5289L64.521 27.03C64.0986 26.8373 63.5613 26.741 62.9092 26.741C61.1307 26.741 60.2414 28.2416 60.2414 31.2429V35H57.4625ZM66.3662 31.9765C66.0846 31.2799 65.9438 30.5203 65.9438 29.6978C65.9438 28.8752 66.0846 28.1119 66.3662 27.4079C66.6478 26.7039 67.0258 26.1148 67.5 25.6405C67.9743 25.1662 68.5264 24.7994 69.1563 24.54C69.7936 24.2733 70.4605 24.1399 71.1571 24.1399C71.8833 24.1399 72.5503 24.2844 73.158 24.5734C73.7656 24.8624 74.214 25.2663 74.503 25.785V18.582H77.2597V35H74.503V33.5661C74.214 34.0848 73.7619 34.4924 73.1468 34.7888C72.5392 35.0778 71.8759 35.2223 71.1571 35.2223C70.4605 35.2223 69.7973 35.0926 69.1674 34.8333C68.5375 34.5665 67.9817 34.1997 67.5 33.7328C67.0258 33.2585 66.6478 32.6731 66.3662 31.9765ZM68.8117 29.6533C68.8117 30.5129 69.0785 31.2132 69.612 31.7542C70.153 32.2952 70.8199 32.5656 71.6129 32.5656C72.3984 32.5656 73.069 32.2989 73.6248 31.7653C74.1806 31.2243 74.4585 30.5203 74.4585 29.6533C74.4585 28.7863 74.1732 28.0934 73.6026 27.5747C73.0394 27.0485 72.3761 26.7854 71.6129 26.7854C70.8199 26.7854 70.153 27.0522 69.612 27.5858C69.0785 28.1119 68.8117 28.8011 68.8117 29.6533ZM79.9942 20.2494C79.9942 19.7825 80.172 19.3897 80.5277 19.0711C80.8834 18.745 81.3058 18.582 81.7949 18.582C82.2766 18.582 82.6879 18.745 83.0288 19.0711C83.3771 19.3897 83.5512 19.7825 83.5512 20.2494C83.5512 20.7236 83.3771 21.1238 83.0288 21.4499C82.6879 21.7685 82.2766 21.9278 81.7949 21.9278C81.2984 21.9278 80.8723 21.7685 80.5166 21.4499C80.1683 21.1238 79.9942 20.7236 79.9942 20.2494ZM80.4054 35V24.3733H83.1622V35H80.4054ZM86.2968 35V18.582H89.0758V35H86.2968ZM92.2104 35V18.582H94.9894V35H92.2104ZM97.4682 29.6755C97.4682 28.8456 97.6164 28.0786 97.9128 27.3746C98.2166 26.6706 98.6205 26.0851 99.1244 25.6183C99.6283 25.1514 100.203 24.7883 100.847 24.5289C101.499 24.2696 102.178 24.1399 102.882 24.1399C103.467 24.1399 104.075 24.2659 104.705 24.5178C105.334 24.7624 105.827 25.1514 106.183 25.685V24.3733H108.962V35H106.183V33.6328C105.872 34.1367 105.39 34.5257 104.738 34.7999C104.093 35.0667 103.474 35.2001 102.882 35.2001C101.94 35.2001 101.059 34.9815 100.236 34.5443C99.4208 34.0996 98.7539 33.4512 98.2352 32.599C97.7238 31.7394 97.4682 30.7649 97.4682 29.6755ZM100.336 29.6755C100.336 30.5055 100.629 31.191 101.214 31.732C101.8 32.2729 102.485 32.5434 103.271 32.5434C104.064 32.5434 104.745 32.284 105.316 31.7653C105.894 31.2466 106.183 30.55 106.183 29.6755C106.183 28.8011 105.89 28.1045 105.305 27.5858C104.727 27.067 104.049 26.8077 103.271 26.8077C102.478 26.8077 101.789 27.0782 101.203 27.6191C100.625 28.1527 100.336 28.8382 100.336 29.6755Z" fill="#3D0072"/>
<rect x="85" y="16" width="6" height="6" fill="#FBF3FA"/>
</svg>
