<svg width="111" height="42" viewBox="0 0 111 42" fill="none" xmlns="http://www.w3.org/2000/svg">
<path d="M14.0558 8.60262C14.0628 11.2714 14.0628 13.9402 14.0699 16.609C14.0769 18.9095 13.3229 21.1505 11.1907 22.3253C8.69371 23.6895 5.15521 23.3458 2.37069 23.0582C2.26548 23.0512 2.16729 23.0372 2.0691 23.0302C2.16028 21.1084 2.12521 19.169 2.03403 17.2542C1.91479 14.6591 3.48941 11.566 6.27392 11.1276C9.30042 10.6507 11.9306 10.328 13.3579 8.65873C13.407 8.60963 13.4491 8.56053 13.4912 8.50442C13.7016 8.22036 13.9261 7.94331 14.1505 7.66626C14.0804 7.96786 14.0558 8.28699 14.0558 8.60262Z" fill="#8807F7"/>
<path d="M4.90967 40.4386C6.99279 40.5718 9.08994 40.5403 11.1766 40.5753C13.6104 40.6174 16.1003 40.919 18.45 40.4912C21.8202 39.8775 25.6112 37.6786 26.8631 34.4206C28.0239 31.4047 27.4769 27.803 25.4779 25.271C25.3376 25.0957 25.1903 24.9273 25.029 24.759C23.009 22.5496 19.8738 21.3959 16.8964 21.7921C13.1896 22.2831 9.9246 25.1974 8.9637 28.806C8.36401 31.0575 8.88654 33.4562 8.53585 35.7498C8.24828 37.6505 6.62807 39.5969 4.90967 40.4386Z" fill="#8807F7"/>
<path d="M25.741 0C25.5551 0.564618 25.7796 1.17833 26.0216 1.72191C29.1112 8.61656 37.3981 13.2808 37.114 21.5607C36.9843 25.3061 35.1151 29.7073 31.9904 31.9272C31.7624 32.0885 31.5555 32.2323 31.289 32.306C30.6928 31.1908 30.6297 29.5565 30.1212 28.3256C29.4864 26.7825 28.6448 25.264 27.4699 24.0682C26.3442 22.9249 24.9344 22.2656 23.8087 21.1434C21.445 18.7832 19.9546 15.5463 19.7582 12.2077C19.4706 7.44524 21.8518 2.72139 25.741 0Z" fill="#8807F7"/>
<path d="M4.22933 16.6265C4.22933 16.6265 4.12061 14.5468 6.24933 14.6521C6.25284 14.6521 7.02787 16.9246 4.22933 16.6265Z" fill="white" stroke="#8807F7" stroke-width="0.5" stroke-miterlimit="10"/>
<path d="M3.52799 34.2208C5.47644 34.2208 7.05597 32.6412 7.05597 30.6928C7.05597 28.7443 5.47644 27.1648 3.52799 27.1648C1.57953 27.1648 0 28.7443 0 30.6928C0 32.6412 1.57953 34.2208 3.52799 34.2208Z" fill="#8807F7"/>
<path d="M40.6694 34.2336L46.5386 18.5493H49.6843L55.5535 34.2336H52.4855L51.0516 30.432H45.2047L43.7707 34.2336H40.6694ZM46.1829 27.8865H50.0956L48.117 21.8951L46.1829 27.8865ZM57.1319 34.2336V23.607H59.9109V26.108C60.1702 25.1965 60.5741 24.5147 61.1225 24.0627C61.6709 23.6032 62.2711 23.3735 62.9232 23.3735C63.5828 23.3735 64.1645 23.5032 64.6684 23.7626L64.1904 26.2636C63.768 26.071 63.2308 25.9746 62.5786 25.9746C60.8001 25.9746 59.9109 27.4752 59.9109 30.4765V34.2336H57.1319ZM66.0356 31.2101C65.754 30.5136 65.6132 29.754 65.6132 28.9314C65.6132 28.1088 65.754 27.3456 66.0356 26.6416C66.3172 25.9376 66.6952 25.3484 67.1695 24.8742C67.6437 24.3999 68.1958 24.0331 68.8257 23.7737C69.463 23.5069 70.13 23.3735 70.8266 23.3735C71.5528 23.3735 72.2197 23.518 72.8274 23.807C73.4351 24.096 73.8834 24.4999 74.1724 25.0187V17.8156H76.9291V34.2336H74.1724V32.7997C73.8834 33.3184 73.4313 33.726 72.8163 34.0224C72.2086 34.3115 71.5454 34.456 70.8266 34.456C70.13 34.456 69.4667 34.3263 68.8368 34.0669C68.2069 33.8001 67.6511 33.4333 67.1695 32.9664C66.6952 32.4922 66.3172 31.9067 66.0356 31.2101ZM68.4811 28.887C68.4811 29.7466 68.7479 30.4469 69.2815 30.9878C69.8224 31.5288 70.4894 31.7993 71.2823 31.7993C72.0678 31.7993 72.7385 31.5325 73.2943 30.999C73.85 30.458 74.1279 29.754 74.1279 28.887C74.1279 28.0199 73.8426 27.327 73.272 26.8083C72.7088 26.2822 72.0456 26.0191 71.2823 26.0191C70.4894 26.0191 69.8224 26.2859 69.2815 26.8194C68.7479 27.3456 68.4811 28.0347 68.4811 28.887ZM79.6636 19.483C79.6636 19.0161 79.8415 18.6234 80.1972 18.3047C80.5529 17.9787 80.9753 17.8156 81.4644 17.8156C81.946 17.8156 82.3573 17.9787 82.6982 18.3047C83.0465 18.6234 83.2206 19.0161 83.2206 19.483C83.2206 19.9573 83.0465 20.3574 82.6982 20.6835C82.3573 21.0022 81.946 21.1615 81.4644 21.1615C80.9678 21.1615 80.5417 21.0022 80.186 20.6835C79.8377 20.3574 79.6636 19.9573 79.6636 19.483ZM80.0749 34.2336V23.607H82.8316V34.2336H80.0749ZM85.9662 34.2336V17.8156H88.7452V34.2336H85.9662ZM91.8798 34.2336V17.8156H94.6588V34.2336H91.8798ZM97.1376 28.9092C97.1376 28.0792 97.2858 27.3122 97.5822 26.6082C97.8861 25.9042 98.2899 25.3188 98.7939 24.8519C99.2978 24.3851 99.8721 24.0219 100.517 23.7626C101.169 23.5032 101.847 23.3735 102.551 23.3735C103.136 23.3735 103.744 23.4995 104.374 23.7515C105.004 23.996 105.497 24.3851 105.852 24.9186V23.607H108.631V34.2336H105.852V32.8664C105.541 33.3703 105.059 33.7594 104.407 34.0336C103.763 34.3003 103.144 34.4337 102.551 34.4337C101.61 34.4337 100.728 34.2151 99.9054 33.7779C99.0903 33.3333 98.4233 32.6848 97.9046 31.8326C97.3933 30.973 97.1376 29.9985 97.1376 28.9092ZM100.005 28.9092C100.005 29.7392 100.298 30.4246 100.884 30.9656C101.469 31.5066 102.155 31.7771 102.94 31.7771C103.733 31.7771 104.415 31.5177 104.985 30.999C105.563 30.4802 105.852 29.7836 105.852 28.9092C105.852 28.0347 105.56 27.3382 104.974 26.8194C104.396 26.3007 103.718 26.0413 102.94 26.0413C102.147 26.0413 101.458 26.3118 100.873 26.8528C100.294 27.3863 100.005 28.0718 100.005 28.9092Z" fill="#3D0072"/>
<rect x="84.6694" y="15.2336" width="6" height="6" fill="#FBF3FA"/>
</svg>
