<svg width="150" height="150" viewBox="0 0 150 150" fill="none" xmlns="http://www.w3.org/2000/svg">
<path d="M4.08534 96.0452C8.32926 110.147 16.6594 122.673 28.0224 132.04C39.3854 141.407 53.2709 147.194 67.9229 148.67C82.575 150.145 97.3355 147.243 110.338 140.329C123.341 133.416 134.001 122.802 140.971 109.83C147.941 96.8578 150.909 82.1101 149.497 67.4517C148.086 52.7934 142.36 38.8827 133.042 27.4788C123.725 16.0749 111.235 7.68996 97.1528 3.38435C83.0701 -0.921268 68.0269 -0.954209 53.9256 3.28971L57.4706 15.069C69.2423 11.5262 81.8001 11.5537 93.5562 15.148C105.312 18.7422 115.738 25.7419 123.516 35.2617C131.294 44.7816 136.075 56.394 137.253 68.6307C138.431 80.8673 135.954 93.1785 130.135 104.007C124.317 114.836 115.417 123.697 104.563 129.468C93.7088 135.239 81.3868 137.662 69.1555 136.43C56.9241 135.199 45.3327 130.368 35.847 122.548C26.3613 114.729 19.4074 104.272 15.8646 92.5001L4.08534 96.0452Z" fill="#3D0072" fill-opacity="0.26"/>
<path d="M75.3826 6.28143C75.3826 2.88457 72.624 0.104456 69.2387 0.384727C56.6786 1.42459 44.5514 5.63995 34.0166 12.6791C21.7722 20.8605 12.2289 32.4891 6.59347 46.0943C0.958009 59.6995 -0.516484 74.6702 2.35645 89.1134C5.22938 103.557 12.3207 116.824 22.7337 127.237C33.1466 137.65 46.4136 144.741 60.8568 147.614C75.3 150.487 90.2707 149.012 103.876 143.377C117.481 137.741 129.11 128.198 137.291 115.954C144.33 105.419 148.546 93.2916 149.585 80.7315C149.866 77.3462 147.086 74.5876 143.689 74.5876C140.292 74.5876 137.57 77.3481 137.234 80.7284C136.229 90.8522 132.75 100.608 127.063 109.119C120.233 119.341 110.526 127.308 99.1685 132.012C87.811 136.716 75.3136 137.947 63.2566 135.549C51.1996 133.151 40.1245 127.231 31.4319 118.538C22.7393 109.846 16.8195 98.7706 14.4212 86.7136C12.0229 74.6566 13.2538 62.1592 17.9582 50.8017C22.6627 39.4443 30.6293 29.7369 40.8507 22.9071C49.3618 17.2202 59.118 13.7411 69.2418 12.736C72.6221 12.4005 75.3826 9.6783 75.3826 6.28143Z" fill="#E6356D"/>
<path d="M61.2519 79.0084C61.2519 79.7941 61.1148 80.525 60.8407 81.201C60.5667 81.8771 60.1556 82.4618 59.6074 82.9551C59.0593 83.4484 58.3741 83.8321 57.5519 84.1062C56.7479 84.3803 55.8161 84.5173 54.7563 84.5173C53.5138 84.5173 52.4815 84.3437 51.6593 83.9966C50.837 83.6494 50.1793 83.2109 49.6859 82.681C49.1926 82.1511 48.8363 81.5847 48.617 80.9818C48.416 80.3605 48.3156 79.7758 48.3156 79.2277C48.3156 78.6795 48.3886 78.1771 48.5348 77.7203C48.6993 77.2452 48.9185 76.8158 49.1926 76.4321C49.4667 76.0302 49.7773 75.6647 50.1244 75.3358C50.4716 75.0069 50.837 74.7146 51.2207 74.4588C50.3802 73.8741 49.7499 73.2437 49.3296 72.5677C48.9277 71.8734 48.7267 71.0329 48.7267 70.0462C48.7267 69.3336 48.8637 68.6576 49.1378 68.0181C49.4301 67.3603 49.8412 66.7847 50.3711 66.2914C50.901 65.7981 51.5405 65.4052 52.2896 65.1129C53.0388 64.8205 53.8701 64.6743 54.7837 64.6743C55.8617 64.6743 56.7753 64.8297 57.5244 65.1403C58.2919 65.4509 58.9131 65.8529 59.3881 66.3462C59.8815 66.8395 60.2378 67.3877 60.457 67.9906C60.6763 68.5936 60.7859 69.1783 60.7859 69.7447C60.7859 70.7497 60.5119 71.645 59.9637 72.4306C59.4156 73.1981 58.7852 73.8102 58.0726 74.2669C59.1506 74.8516 59.9454 75.5277 60.457 76.2951C60.9869 77.0625 61.2519 77.9669 61.2519 79.0084ZM51.577 79.1729C51.577 79.4469 51.6319 79.7393 51.7415 80.0499C51.8511 80.3605 52.0338 80.6437 52.2896 80.8995C52.5454 81.1553 52.8743 81.3746 53.2763 81.5573C53.6783 81.7218 54.1807 81.804 54.7837 81.804C55.3319 81.804 55.8069 81.7309 56.2089 81.5847C56.6109 81.4385 56.9398 81.2467 57.1956 81.0092C57.4514 80.7534 57.6432 80.4702 57.7711 80.1595C57.899 79.8306 57.963 79.5018 57.963 79.1729C57.963 78.6613 57.8625 78.2136 57.6615 77.8299C57.4605 77.4462 57.1681 77.1173 56.7844 76.8432C56.419 76.5509 55.9805 76.3042 55.4689 76.1032C54.9573 75.884 54.3909 75.6921 53.7696 75.5277C53.1119 75.9479 52.582 76.4595 52.18 77.0625C51.778 77.6472 51.577 78.3506 51.577 79.1729ZM57.5519 69.7995C57.5519 69.562 57.497 69.3062 57.3874 69.0321C57.296 68.7398 57.1316 68.4748 56.8941 68.2373C56.6748 67.9998 56.3916 67.7988 56.0444 67.6343C55.6973 67.4699 55.277 67.3877 54.7837 67.3877C54.2904 67.3877 53.861 67.4699 53.4956 67.6343C53.1484 67.7805 52.8652 67.9815 52.6459 68.2373C52.4267 68.4748 52.2622 68.7398 52.1526 69.0321C52.043 69.3062 51.9881 69.5803 51.9881 69.8543C51.9881 70.5487 52.244 71.2064 52.7556 71.8277C53.2854 72.4489 54.1625 72.9422 55.3867 73.3077C56.0627 72.8874 56.5926 72.4124 56.9763 71.8825C57.36 71.3343 57.5519 70.64 57.5519 69.7995ZM76.9661 74.5958C76.9661 77.7934 76.3815 80.2509 75.2121 81.9684C74.0427 83.6677 72.4257 84.5173 70.361 84.5173C68.2963 84.5173 66.6792 83.6677 65.5099 81.9684C64.3405 80.2509 63.7558 77.7934 63.7558 74.5958C63.7558 73.0062 63.9019 71.5993 64.1943 70.3751C64.5049 69.1326 64.9434 68.0911 65.5099 67.2506C66.0945 66.4102 66.7889 65.7706 67.5928 65.3321C68.415 64.8936 69.3378 64.6743 70.361 64.6743C72.4257 64.6743 74.0427 65.5331 75.2121 67.2506C76.3815 68.9499 76.9661 71.3983 76.9661 74.5958ZM73.5402 74.5958C73.5402 73.6092 73.4854 72.6864 73.3758 71.8277C73.2661 70.9689 73.0834 70.2289 72.8276 69.6077C72.5901 68.9682 72.2703 68.4657 71.8684 68.1003C71.4664 67.7348 70.9639 67.5521 70.361 67.5521C69.758 67.5521 69.2464 67.7348 68.8261 68.1003C68.4242 68.4657 68.0953 68.9682 67.8395 69.6077C67.6019 70.2289 67.4284 70.9689 67.3187 71.8277C67.2274 72.6864 67.1817 73.6092 67.1817 74.5958C67.1817 75.5825 67.2274 76.5052 67.3187 77.364C67.4284 78.2227 67.6019 78.9719 67.8395 79.6114C68.0953 80.2326 68.4242 80.726 68.8261 81.0914C69.2464 81.4568 69.758 81.6395 70.361 81.6395C70.9639 81.6395 71.4664 81.4568 71.8684 81.0914C72.2703 80.726 72.5901 80.2326 72.8276 79.6114C73.0834 78.9719 73.2661 78.2227 73.3758 77.364C73.4854 76.5052 73.5402 75.5825 73.5402 74.5958ZM88.6516 69.8818C88.6516 71.5445 88.2222 72.8235 87.3634 73.7188C86.5229 74.6141 85.4175 75.0618 84.0471 75.0618C83.3711 75.0618 82.7498 74.9521 82.1834 74.7329C81.617 74.4953 81.1328 74.1573 80.7308 73.7188C80.3288 73.2803 80.0091 72.7413 79.7716 72.1018C79.5523 71.444 79.4427 70.704 79.4427 69.8818C79.4427 68.2008 79.8629 66.9218 80.7034 66.0447C81.5622 65.1494 82.6767 64.7018 84.0471 64.7018C85.4175 64.7018 86.5229 65.1494 87.3634 66.0447C88.2222 66.9218 88.6516 68.2008 88.6516 69.8818ZM86.0478 69.8818C86.0478 68.9134 85.8651 68.1916 85.4997 67.7166C85.1525 67.2232 84.6683 66.9766 84.0471 66.9766C83.4259 66.9766 82.9417 67.2232 82.5945 67.7166C82.2474 68.1916 82.0738 68.9134 82.0738 69.8818C82.0738 70.8502 82.2474 71.581 82.5945 72.0743C82.9417 72.5494 83.4259 72.7869 84.0471 72.7869C84.6683 72.7869 85.1525 72.5494 85.4997 72.0743C85.8651 71.581 86.0478 70.8502 86.0478 69.8818ZM94.2153 65.1129H97.3671L86.6508 84.1062H83.499L94.2153 65.1129ZM101.451 79.3647C101.451 81.0274 101.021 82.3064 100.163 83.2018C99.3222 84.0971 98.2167 84.5447 96.8464 84.5447C96.1703 84.5447 95.5491 84.426 94.9827 84.1884C94.4162 83.9692 93.932 83.6403 93.5301 83.2018C93.1281 82.7632 92.8083 82.2242 92.5708 81.5847C92.3516 80.9269 92.2419 80.1869 92.2419 79.3647C92.2419 77.6837 92.6622 76.4047 93.5027 75.5277C94.3614 74.6324 95.476 74.1847 96.8464 74.1847C98.2167 74.1847 99.3222 74.6324 100.163 75.5277C101.021 76.4047 101.451 77.6837 101.451 79.3647ZM98.8471 79.3647C98.8471 78.3963 98.6644 77.6746 98.299 77.1995C97.9518 76.7062 97.4676 76.4595 96.8464 76.4595C96.2251 76.4595 95.7409 76.7062 95.3938 77.1995C95.0466 77.6746 94.873 78.3963 94.873 79.3647C94.873 80.3331 95.0466 81.064 95.3938 81.5573C95.7409 82.0324 96.2251 82.2699 96.8464 82.2699C97.4676 82.2699 97.9518 82.0324 98.299 81.5573C98.6644 81.064 98.8471 80.3331 98.8471 79.3647Z" fill="#E6356D"/>
</svg>
