<svg width="181" height="181" viewBox="0 0 181 181" fill="none" xmlns="http://www.w3.org/2000/svg">
<g filter="url(#filter0_i_1236_16220)">
<path d="M181 90.5C181 140.482 140.482 181 90.5 181C40.5182 181 0 140.482 0 90.5C0 40.5182 40.5182 0 90.5 0C140.482 0 181 40.5182 181 90.5Z" fill="white"/>
</g>
<mask id="mask0_1236_16220" style="mask-type:alpha" maskUnits="userSpaceOnUse" x="0" y="0" width="181" height="181">
<circle cx="90.5" cy="90.5" r="90.5" fill="#D9D9D9"/>
</mask>
<g mask="url(#mask0_1236_16220)">
<path d="M81.0981 117.5C81.0981 117.5 73.4281 119.5 67.7681 115.5L68.7681 118.17C68.7681 118.17 56.7681 112.84 55.7681 91.1702C54.7681 69.5002 62.7681 69.8402 62.7681 69.8402C62.7681 69.8402 84.7681 99.8402 81.0981 117.51V117.5Z" fill="#352C38"/>
<path d="M131.768 83.8301C131.768 83.8301 136.268 102.83 119.268 110.83V104.33C119.268 104.33 115.268 116.33 98.2676 118.33C81.2676 120.33 89.7676 94.8301 89.7676 94.8301L98.2676 72.8301L131.768 81.8301" fill="#352C38"/>
<path d="M156.688 155.3C150.738 139.32 114.378 131.69 108.008 127.06C99.828 121.11 102.438 101.42 102.438 101.42L89.058 101.77L75.678 101.42C75.678 101.42 78.278 121.12 70.108 127.06C63.738 131.69 27.368 139.32 21.428 155.3C15.478 171.28 13.248 185.4 13.248 185.4H164.858C164.858 185.4 162.628 171.28 156.678 155.3H156.688Z" fill="#844C49"/>
<path d="M73.1973 123.39C79.4573 122.75 85.7573 121.48 91.2073 118.43C95.1773 116.21 98.7573 113.58 102.087 110.63C101.887 105.57 102.437 101.42 102.437 101.42L89.0573 101.77L75.6773 101.42C75.6773 101.42 77.5273 115.44 73.1973 123.39Z" fill="#844C49"/>
<path d="M157.739 155.08C152.339 140.56 122.029 132.89 111.419 128.1C111.519 128.04 111.589 128 111.589 128C106.949 125.45 105.789 118.72 105.789 118.72L72.1385 120.34C70.9785 125.45 65.8885 128.75 65.8885 128.75C65.9385 128.78 65.9885 128.81 66.0485 128.84C54.1985 133.67 26.5985 141.29 21.4685 155.08C15.4785 171.18 13.2285 185.4 13.2285 185.4H165.979C165.979 185.4 163.729 171.17 157.739 155.08Z" fill="#E6356D"/>
<path d="M128.458 140.65C129.788 141.93 131.118 143.21 132.448 144.49C132.788 144.82 133.428 144.65 133.738 144.35C135.328 142.81 136.928 141.27 138.518 139.74C138.758 139.51 138.648 139.22 138.348 139.12C138.008 139.01 137.558 139.16 137.308 139.4C135.718 140.94 134.118 142.48 132.528 144.01L133.818 143.87C132.488 142.59 131.158 141.31 129.828 140.03C129.398 139.62 127.998 140.2 128.468 140.65H128.458Z" fill="#FFBE3F"/>
<path d="M111.549 140.63C112.879 141.91 114.209 143.19 115.539 144.47C115.839 144.76 116.549 144.55 116.819 144.3C118.409 142.76 120.009 141.22 121.599 139.69C121.819 139.47 121.759 139.25 121.459 139.18C121.139 139.1 120.649 139.23 120.419 139.46C118.829 141 117.229 142.54 115.639 144.07L116.919 143.9C115.589 142.62 114.259 141.34 112.929 140.06C112.559 139.71 111.169 140.26 111.559 140.63H111.549Z" fill="#FFBE3F"/>
<path d="M94.6281 140.6C95.9581 141.88 97.2881 143.16 98.6181 144.44C98.8981 144.71 99.7581 144.36 99.9881 144.14C101.578 142.6 103.178 141.06 104.768 139.53C105.008 139.3 104.558 139.26 104.418 139.27C104.098 139.29 103.668 139.4 103.428 139.63C101.838 141.17 100.238 142.71 98.6481 144.24L100.018 143.94C98.6881 142.66 97.3581 141.38 96.0281 140.1C95.7381 139.82 94.3881 140.37 94.6381 140.61L94.6281 140.6Z" fill="#FFBE3F"/>
<path d="M77.7388 140.67C79.0688 141.95 80.3988 143.23 81.7288 144.51C82.1088 144.87 82.6788 144.74 83.0188 144.4C84.6088 142.86 86.2088 141.32 87.7988 139.79C88.0588 139.54 87.8988 139.19 87.6088 139.08C87.2488 138.94 86.8288 139.11 86.5688 139.36C84.9788 140.9 83.3788 142.44 81.7888 143.97L83.0788 143.86C81.7488 142.58 80.4188 141.3 79.0888 140.02C78.8188 139.76 78.4188 139.75 78.0888 139.91C77.8688 140.01 77.4688 140.4 77.7388 140.67Z" fill="#FFBE3F"/>
<path d="M60.8173 140.65C62.1473 141.93 63.4773 143.21 64.8073 144.49C65.1573 144.83 65.7773 144.67 66.0973 144.36C67.6873 142.82 69.2873 141.28 70.8773 139.75C71.1273 139.51 70.9973 139.21 70.7073 139.1C70.3573 138.98 69.9173 139.13 69.6673 139.38C68.0773 140.92 66.4773 142.46 64.8873 143.99L66.1773 143.86C64.8473 142.58 63.5173 141.3 62.1873 140.02C61.9273 139.77 61.5073 139.8 61.1973 139.94C60.9973 140.03 60.5673 140.39 60.8273 140.64L60.8173 140.65Z" fill="#FFBE3F"/>
<path d="M43.9081 140.66C45.2381 141.94 46.5681 143.22 47.8981 144.5C48.2581 144.85 48.8581 144.7 49.1881 144.38C50.7781 142.84 52.3781 141.3 53.9681 139.77C54.2181 139.53 54.0781 139.2 53.7881 139.1C53.4381 138.97 52.9981 139.13 52.7481 139.38C51.1581 140.92 49.5581 142.46 47.9681 143.99L49.2581 143.87C47.9281 142.59 46.5981 141.31 45.2681 140.03C44.9981 139.77 44.5881 139.79 44.2681 139.94C44.0581 140.04 43.6381 140.41 43.9081 140.66Z" fill="#FFBE3F"/>
<path d="M111.549 140.659C112.879 141.939 114.209 143.219 115.539 144.499C115.899 144.839 116.509 144.679 116.829 144.369C118.419 142.829 120.019 141.289 121.609 139.759C121.859 139.519 121.729 139.209 121.429 139.109C121.079 138.989 120.639 139.139 120.389 139.389C118.799 140.929 117.199 142.469 115.609 143.999L116.899 143.869C115.569 142.589 114.239 141.309 112.909 140.029C112.649 139.779 112.229 139.799 111.919 139.949C111.719 140.039 111.289 140.399 111.559 140.659H111.549Z" fill="#FFBE3F"/>
<path d="M94.6296 140.62C95.9596 141.9 97.2896 143.18 98.6196 144.46C98.9096 144.74 99.6396 144.52 99.8896 144.28C101.48 142.74 103.08 141.2 104.67 139.67C104.89 139.46 104.84 139.26 104.54 139.19C104.24 139.12 103.73 139.24 103.5 139.47C101.91 141.01 100.31 142.55 98.7196 144.08L99.9896 143.9C98.6596 142.62 97.3296 141.34 95.9996 140.06C95.6496 139.72 94.2596 140.27 94.6196 140.62H94.6296Z" fill="#FFBE3F"/>
<path d="M77.7294 140.649C79.0594 141.929 80.3894 143.209 81.7194 144.489C82.0694 144.829 82.6894 144.669 83.0094 144.359C84.5994 142.819 86.1994 141.279 87.7894 139.749C88.0394 139.509 87.9094 139.209 87.6194 139.109C87.2694 138.989 86.8294 139.149 86.5794 139.389C84.9894 140.929 83.3894 142.469 81.7994 143.999L83.0894 143.869C81.7594 142.589 80.4294 141.309 79.0994 140.029C78.8394 139.779 78.4194 139.809 78.1094 139.959C77.9094 140.049 77.4794 140.399 77.7394 140.659L77.7294 140.649Z" fill="#FFBE3F"/>
<path d="M60.819 140.629C62.149 141.909 63.479 143.189 64.809 144.469C65.119 144.769 65.819 144.559 66.089 144.299C67.679 142.759 69.279 141.219 70.869 139.689C71.099 139.469 71.029 139.239 70.729 139.159C70.409 139.079 69.929 139.209 69.689 139.439C68.099 140.979 66.499 142.519 64.909 144.049L66.189 143.879C64.859 142.599 63.529 141.319 62.199 140.039C61.829 139.679 60.429 140.239 60.829 140.619L60.819 140.629Z" fill="#FFBE3F"/>
<path d="M120.438 182.61C121.768 183.89 123.098 185.17 124.428 186.45C124.678 186.69 125.268 186.59 125.488 186.37C127.078 184.83 128.678 183.29 130.268 181.76C130.988 181.07 129.838 180.5 129.278 181.04C127.688 182.58 126.088 184.12 124.498 185.65L125.558 185.57C124.228 184.29 122.898 183.01 121.568 181.73C121.068 181.25 119.808 182 120.438 182.61Z" fill="#FFBE3F"/>
<path d="M103.409 182.46C104.739 183.74 106.069 185.02 107.399 186.3C107.709 186.6 108.409 186.39 108.679 186.13C110.269 184.59 111.869 183.05 113.459 181.52C113.689 181.3 113.619 181.08 113.319 181C112.999 180.92 112.509 181.05 112.279 181.28C110.689 182.82 109.089 184.36 107.499 185.89L108.779 185.72C107.449 184.44 106.119 183.16 104.789 181.88C104.419 181.52 103.019 182.08 103.419 182.46H103.409Z" fill="#FFBE3F"/>
<path d="M86.4986 182.48C87.8286 183.76 89.1586 185.04 90.4886 186.32C90.8486 186.66 91.4486 186.51 91.7786 186.19C93.3686 184.65 94.9686 183.11 96.5586 181.58C96.8086 181.34 96.6786 181.03 96.3786 180.92C96.0286 180.79 95.5886 180.95 95.3386 181.2C93.7486 182.74 92.1486 184.28 90.5586 185.81L91.8486 185.68C90.5186 184.4 89.1886 183.12 87.8586 181.84C87.5986 181.59 87.1786 181.61 86.8586 181.76C86.6586 181.85 86.2286 182.21 86.4986 182.47V182.48Z" fill="#FFBE3F"/>
<path d="M69.5984 182.49C70.9284 183.77 72.2584 185.05 73.5884 186.33C73.9684 186.7 74.5284 186.57 74.8784 186.23C76.4684 184.69 78.0684 183.15 79.6584 181.62C79.9184 181.37 79.7584 181.01 79.4584 180.89C79.0884 180.74 78.6784 180.91 78.4184 181.17C76.8284 182.71 75.2284 184.25 73.6384 185.78L74.9284 185.68C73.5984 184.4 72.2684 183.12 70.9384 181.84C70.6684 181.58 70.2684 181.56 69.9384 181.72C69.7184 181.83 69.3184 182.23 69.5884 182.49H69.5984Z" fill="#FFBE3F"/>
<path d="M52.6784 182.461C54.0084 183.741 55.3384 185.021 56.6684 186.301C56.9884 186.611 57.6684 186.411 57.9484 186.141C59.5384 184.601 61.1384 183.061 62.7284 181.531C62.9584 181.311 62.8784 181.061 62.5784 180.981C62.2484 180.891 61.7784 181.031 61.5384 181.261C59.9484 182.801 58.3484 184.341 56.7584 185.871L58.0384 185.711C56.7084 184.431 55.3784 183.151 54.0484 181.871C53.6584 181.501 52.2684 182.061 52.6784 182.461Z" fill="#FFBE3F"/>
<path d="M35.7681 182.491C37.0981 183.771 38.4281 185.051 39.7581 186.331C40.1381 186.701 40.6981 186.571 41.0481 186.231C42.6381 184.691 44.2381 183.151 45.8281 181.621C46.0881 181.371 45.9281 181.011 45.6381 180.891C45.2681 180.751 44.8581 180.911 44.5981 181.171C43.0081 182.711 41.4081 184.251 39.8181 185.781L41.1081 185.681C39.7781 184.401 38.4481 183.121 37.1181 181.841C36.8481 181.581 36.4481 181.561 36.1181 181.721C35.8981 181.831 35.4981 182.231 35.7681 182.491Z" fill="#FFBE3F"/>
<path d="M18.858 182.49C20.188 183.77 21.518 185.05 22.848 186.33C23.228 186.69 23.798 186.56 24.138 186.22C25.728 184.68 27.328 183.14 28.918 181.61C29.178 181.36 29.018 181.01 28.728 180.9C28.368 180.76 27.948 180.93 27.688 181.18C26.098 182.72 24.498 184.26 22.908 185.79L24.198 185.68C22.868 184.4 21.538 183.12 20.208 181.84C19.938 181.58 19.538 181.57 19.208 181.73C18.988 181.83 18.588 182.22 18.858 182.49Z" fill="#FFBE3F"/>
<path d="M154.147 182.491C155.477 183.771 156.807 185.051 158.137 186.331C158.517 186.701 159.077 186.571 159.427 186.231C161.017 184.691 162.617 183.151 164.207 181.621C164.467 181.371 164.307 181.011 164.017 180.901C163.647 180.761 163.237 180.921 162.977 181.181C161.387 182.721 159.787 184.261 158.197 185.791L159.487 185.691C158.157 184.411 156.827 183.131 155.497 181.851C155.227 181.591 154.827 181.571 154.497 181.741C154.277 181.851 153.877 182.241 154.147 182.511V182.491Z" fill="#FFBE3F"/>
<path d="M128.458 168.95C129.788 170.23 131.118 171.51 132.448 172.79C132.798 173.13 133.418 172.97 133.738 172.66C135.328 171.12 136.928 169.58 138.518 168.05C138.768 167.81 138.638 167.51 138.348 167.4C137.998 167.28 137.558 167.44 137.308 167.68C135.718 169.22 134.118 170.76 132.528 172.29L133.818 172.16C132.488 170.88 131.158 169.6 129.828 168.32C129.568 168.07 129.148 168.1 128.838 168.24C128.638 168.33 128.208 168.69 128.468 168.94L128.458 168.95Z" fill="#FFBE3F"/>
<path d="M111.559 168.961C112.889 170.241 114.219 171.521 115.549 172.801C115.919 173.161 116.499 173.021 116.839 172.691C118.429 171.151 120.029 169.611 121.619 168.081C121.879 167.831 121.719 167.491 121.429 167.371C121.069 167.231 120.649 167.401 120.389 167.651C118.799 169.191 117.199 170.731 115.609 172.261L116.899 172.151C115.569 170.871 114.239 169.591 112.909 168.311C112.639 168.051 112.239 168.041 111.909 168.201C111.689 168.301 111.289 168.691 111.559 168.951V168.961Z" fill="#FFBE3F"/>
<path d="M94.6186 168.88C95.9486 170.16 97.2786 171.44 98.6086 172.72C98.8486 172.95 99.7686 172.6 99.9686 172.41C101.559 170.87 103.159 169.33 104.749 167.8C104.979 167.58 104.539 167.58 104.409 167.6C104.109 167.63 103.649 167.72 103.419 167.94C101.829 169.48 100.229 171.02 98.6386 172.55L99.9986 172.24C98.6686 170.96 97.3386 169.68 96.0086 168.4C95.7486 168.15 94.4286 168.71 94.6086 168.89L94.6186 168.88Z" fill="#FFBE3F"/>
<path d="M77.7284 168.94C79.0584 170.22 80.3884 171.5 81.7184 172.78C82.0584 173.11 82.6984 172.93 82.9984 172.64C84.5884 171.1 86.1884 169.56 87.7784 168.03C88.0184 167.8 87.9084 167.52 87.6184 167.43C87.2784 167.32 86.8184 167.47 86.5784 167.71C84.9884 169.25 83.3884 170.79 81.7984 172.32L83.0784 172.18C81.7484 170.9 80.4184 169.62 79.0884 168.34C78.6684 167.94 77.2684 168.51 77.7284 168.95V168.94Z" fill="#FFBE3F"/>
<path d="M60.8097 168.89C62.1397 170.17 63.4697 171.45 64.7997 172.73C65.0597 172.98 65.9497 172.63 66.1597 172.42C67.7497 170.88 69.3497 169.34 70.9397 167.81C71.1797 167.58 70.7297 167.56 70.5897 167.57C70.2797 167.59 69.8397 167.69 69.5997 167.92C68.0097 169.46 66.4097 171 64.8197 172.53L66.1797 172.22C64.8497 170.94 63.5197 169.66 62.1897 168.38C61.9197 168.12 60.5797 168.67 60.7997 168.88L60.8097 168.89Z" fill="#FFBE3F"/>
<path d="M43.8991 168.9C45.2291 170.18 46.5591 171.46 47.8891 172.74C48.2091 173.05 48.9991 172.7 49.2591 172.45C50.8491 170.91 52.4491 169.37 54.0391 167.84C54.2891 167.59 53.8191 167.5 53.6691 167.5C53.3191 167.5 52.9391 167.63 52.6891 167.88C51.0991 169.42 49.4991 170.96 47.9091 172.49L49.2791 172.2C47.9491 170.92 46.6191 169.64 45.2891 168.36C44.9691 168.05 43.5891 168.6 43.9091 168.9H43.8991Z" fill="#FFBE3F"/>
<path d="M26.9895 168.891C28.3195 170.171 29.6495 171.451 30.9795 172.731C31.2395 172.991 32.1195 172.641 32.3395 172.421C33.9295 170.881 35.5295 169.341 37.1195 167.811C37.3595 167.581 36.9095 167.561 36.7695 167.561C36.4495 167.581 36.0195 167.691 35.7795 167.911C34.1895 169.451 32.5895 170.991 30.9995 172.521L32.3595 172.211C31.0295 170.931 29.6995 169.651 28.3695 168.371C28.0895 168.101 26.7495 168.651 26.9795 168.871L26.9895 168.891Z" fill="#FFBE3F"/>
<path d="M10.1988 169.07C11.5288 170.35 12.8588 171.63 14.1888 172.91C14.5188 173.23 15.1188 172.95 15.3788 172.7C16.9688 171.16 18.5688 169.62 20.1588 168.09C20.4188 167.84 20.2588 167.47 19.9588 167.35C19.5888 167.2 19.1788 167.37 18.9188 167.63C17.3288 169.17 15.7288 170.71 14.1388 172.24L15.3288 172.03C13.9988 170.75 12.6688 169.47 11.3388 168.19C10.8488 167.72 9.57883 168.46 10.2088 169.06H10.1988V169.07Z" fill="#FFBE3F"/>
<path d="M145.369 168.941C146.699 170.221 148.029 171.5 149.359 172.78C149.699 173.11 150.339 172.93 150.639 172.64C152.229 171.1 153.829 169.56 155.419 168.03C155.659 167.8 155.549 167.52 155.259 167.42C154.919 167.31 154.469 167.46 154.219 167.7C152.629 169.24 151.029 170.78 149.439 172.31L150.719 172.17C149.389 170.89 148.059 169.611 146.729 168.331C146.309 167.931 144.909 168.501 145.369 168.941Z" fill="#FFBE3F"/>
<path d="M136.61 154.199C137.94 155.479 139.27 156.759 140.6 158.039C140.98 158.409 141.54 158.279 141.89 157.939C143.48 156.399 145.08 154.859 146.67 153.329C146.93 153.079 146.77 152.719 146.47 152.599C146.1 152.449 145.69 152.619 145.43 152.879C143.84 154.419 142.24 155.959 140.65 157.489L141.94 157.389C140.61 156.109 139.28 154.829 137.95 153.549C137.68 153.289 137.28 153.269 136.95 153.429C136.73 153.539 136.33 153.939 136.6 154.199H136.61Z" fill="#FFBE3F"/>
<path d="M119.679 154.129C121.009 155.409 122.339 156.689 123.669 157.969C123.939 158.229 124.809 157.879 125.029 157.669C126.619 156.129 128.219 154.589 129.809 153.059C130.049 152.829 129.599 152.789 129.459 152.799C129.139 152.819 128.709 152.929 128.469 153.159C126.879 154.699 125.279 156.239 123.689 157.769L125.049 157.469C123.719 156.189 122.389 154.909 121.059 153.629C120.779 153.359 119.419 153.899 119.669 154.139L119.679 154.129Z" fill="#FFBE3F"/>
<path d="M102.79 154.189C104.12 155.469 105.45 156.749 106.78 158.029C107.15 158.389 107.73 158.239 108.07 157.919C109.66 156.379 111.26 154.839 112.85 153.309C113.1 153.059 112.96 152.729 112.66 152.619C112.3 152.479 111.88 152.649 111.62 152.899C110.03 154.439 108.43 155.979 106.84 157.509L108.13 157.399C106.8 156.119 105.47 154.839 104.14 153.559C103.87 153.299 103.47 153.309 103.14 153.459C102.93 153.559 102.52 153.939 102.79 154.199V154.189Z" fill="#FFBE3F"/>
<path d="M85.8589 154.129C87.1889 155.409 88.5189 156.689 89.8489 157.969C90.1189 158.229 90.9889 157.879 91.2089 157.669C92.7989 156.129 94.3989 154.589 95.9889 153.059C96.2289 152.829 95.7789 152.789 95.6389 152.799C95.3189 152.819 94.8889 152.929 94.6489 153.159C93.0589 154.699 91.4589 156.239 89.8689 157.769L91.2289 157.469C89.8989 156.189 88.5689 154.909 87.2389 153.629C86.9589 153.359 85.5989 153.899 85.8489 154.139L85.8589 154.129Z" fill="#FFBE3F"/>
<path d="M68.9606 154.169C70.2906 155.449 71.6206 156.729 72.9506 158.009C73.2706 158.319 73.9506 158.129 74.2306 157.859C75.8206 156.319 77.4206 154.779 79.0106 153.249C79.2406 153.029 79.1606 152.769 78.8606 152.689C78.5306 152.589 78.0606 152.729 77.8206 152.969C76.2306 154.509 74.6306 156.049 73.0406 157.579L74.3206 157.429C72.9906 156.149 71.6606 154.869 70.3306 153.589C69.9406 153.209 68.5406 153.769 68.9606 154.179V154.169Z" fill="#FFBE3F"/>
<path d="M52.0403 154.129C53.3703 155.409 54.7003 156.689 56.0303 157.969C56.2903 158.229 57.1703 157.879 57.3903 157.659C58.9803 156.119 60.5803 154.579 62.1703 153.049C62.4103 152.819 61.9603 152.789 61.8203 152.799C61.5003 152.819 61.0703 152.929 60.8303 153.149C59.2403 154.689 57.6403 156.229 56.0503 157.759L57.4103 157.449C56.0803 156.169 54.7503 154.889 53.4203 153.609C53.1403 153.339 51.8003 153.889 52.0303 154.119L52.0403 154.129Z" fill="#FFBE3F"/>
<path d="M35.1296 154.149C36.4596 155.429 37.7896 156.709 39.1196 157.989C39.3996 158.259 40.1496 158.029 40.3896 157.799C41.9796 156.259 43.5796 154.719 45.1696 153.189C45.3796 152.989 45.3496 152.789 45.0496 152.729C44.7496 152.669 44.2396 152.789 44.0096 153.009C42.4196 154.549 40.8196 156.089 39.2296 157.619L40.4996 157.429C39.1696 156.149 37.8396 154.869 36.5096 153.589C36.1696 153.259 34.7896 153.809 35.1296 154.139V154.149Z" fill="#FFBE3F"/>
<path d="M79.1015 33.1699C79.1015 33.1699 62.2715 17.8399 50.7715 38.3399C39.2715 58.8399 54.2715 91.3399 42.7715 105.34C42.7715 105.34 54.7715 118.34 58.7715 98.3399C62.7715 78.3399 64.2715 45.8399 64.2715 45.8399L79.1015 33.1699Z" fill="#352C38"/>
<path d="M76.2108 35.3295C76.2108 35.3295 75.9608 35.0295 75.4408 34.5095C74.9308 33.9895 74.1308 33.2595 73.0608 32.4295C71.9908 31.5995 70.6008 30.6995 68.8708 29.9995C67.1508 29.3295 65.0508 28.8895 62.8508 29.2695C60.6508 29.6095 58.4608 30.8095 56.5508 32.5495C54.6308 34.2595 52.9408 36.5395 51.4908 38.9495C51.1408 39.5895 50.7408 40.2395 50.4308 40.8795C50.1408 41.5295 49.8108 42.1595 49.5408 42.8395C48.9908 44.1995 48.5008 45.6095 48.0908 47.0495C47.2708 49.9395 46.7608 52.9895 46.4608 56.0495C46.1408 59.1195 46.0108 62.2195 45.9708 65.2795C45.9408 68.3395 45.9508 71.3595 45.9708 74.2995C46.0308 80.1595 46.0008 85.6895 45.3908 90.3995C45.1008 92.7495 44.6708 94.8995 44.0808 96.7395C43.5008 98.5795 42.8508 100.139 42.1408 101.339C41.9708 101.639 41.8108 101.929 41.6508 102.189C41.4708 102.439 41.3008 102.669 41.1408 102.889C40.8408 103.329 40.5608 103.689 40.3008 103.949C39.8108 104.499 39.5508 104.789 39.5508 104.789C39.5508 104.789 39.7808 104.469 40.2208 103.879C40.4508 103.599 40.6908 103.219 40.9508 102.749C41.0808 102.519 41.2308 102.279 41.3808 102.019C41.5208 101.749 41.6508 101.459 41.8008 101.149C42.4108 99.9395 42.9308 98.3695 43.3708 96.5395C43.8108 94.7095 44.0808 92.5895 44.2608 90.2795C44.4308 87.9595 44.4708 85.4395 44.4508 82.7595C44.4308 80.0895 44.3108 77.2595 44.2208 74.3295C44.1408 71.3995 44.0108 68.3595 44.0408 65.2595C44.0608 62.1595 44.1608 58.9995 44.4708 55.8395C44.8108 52.6895 45.3508 49.5295 46.2308 46.5095C46.6708 44.9895 47.2108 43.5195 47.8308 42.0995C48.1308 41.3795 48.5208 40.6895 48.8508 39.9895C49.2108 39.3095 49.6008 38.6995 49.9708 38.0595C51.5908 35.4795 53.4208 33.2195 55.5808 31.4195C57.7008 29.6095 60.2208 28.3895 62.7008 28.1395C65.1808 27.8295 67.4208 28.4895 69.1708 29.3195C70.9308 30.1795 72.2808 31.2095 73.3108 32.1295C74.3508 33.0395 75.0508 33.8695 75.5208 34.4395C75.9908 35.0095 76.2108 35.3295 76.2108 35.3295Z" fill="#352C38"/>
<path d="M64.7704 69.4302C62.6104 62.7302 57.4904 64.2802 57.0104 64.4402C56.5104 64.5002 51.2204 65.2802 52.1304 72.2702C53.0504 79.3002 57.1304 83.1002 60.9504 81.9802C64.8804 81.3602 66.9404 76.1702 64.7704 69.4302Z" fill="#76413B"/>
<path d="M110.85 70.7095C113.01 64.0095 118.13 65.5595 118.61 65.7195C119.11 65.7795 124.4 66.5595 123.49 73.5495C122.57 80.5795 118.49 84.3795 114.67 83.2595C110.74 82.6395 108.68 77.4495 110.85 70.7095Z" fill="#76413B"/>
<path d="M115.31 60.1699C112.63 30.7799 90.2896 32.4299 88.1796 32.6499C86.0696 32.4299 63.7296 30.7799 61.0496 60.1699C58.3596 89.7299 71.5196 109.04 88.1796 107.98C104.83 109.04 118 89.7299 115.31 60.1699Z" fill="#965450"/>
<path d="M91.3721 70.1992C91.5321 70.6692 91.6521 71.1492 91.7821 71.6292C91.9221 72.1092 92.0321 72.5792 92.1421 73.0592C92.3621 74.0192 92.5521 74.9792 92.7221 75.9492C92.8821 76.9192 93.0421 77.8792 93.1621 78.8592C93.2921 79.8292 93.3921 80.8092 93.4821 81.7792L93.5021 82.0292L93.3421 82.1592C92.7521 82.6592 92.1521 83.1592 91.5421 83.6392C90.9121 84.0992 90.3121 84.5992 89.6621 85.0292C90.1321 84.3992 90.6621 83.8292 91.1521 83.2292C91.6721 82.6492 92.1921 82.0692 92.7221 81.5092L92.5921 81.8992C92.4021 80.9392 92.2221 79.9692 92.0721 78.9992C91.9121 78.0292 91.8021 77.0592 91.6821 76.0892C91.5721 75.1192 91.4821 74.1392 91.4321 73.1592C91.4021 72.6692 91.3821 72.1792 91.3721 71.6792C91.3721 71.1892 91.3521 70.6892 91.3721 70.1992Z" fill="#B26E59"/>
<path d="M75.252 89.3601L101.762 89.0801C101.762 89.0801 91.162 99.5101 75.252 89.3601Z" fill="white"/>
<path d="M82.0508 94.6895C82.0508 94.6895 82.3308 94.7495 82.8208 94.8795C83.3108 94.9895 84.0008 95.2595 84.8308 95.3895C85.2508 95.4595 85.6908 95.5395 86.1608 95.6395C86.6208 95.7695 87.1408 95.7295 87.6508 95.7995C88.1708 95.8495 88.7008 95.9195 89.2508 95.8695C89.7908 95.8495 90.3508 95.8495 90.8908 95.8095C91.4308 95.7195 91.9808 95.6395 92.5108 95.5495C93.0608 95.4995 93.5508 95.2695 94.0508 95.1495C94.5408 94.9895 95.0408 94.8995 95.4608 94.6695C95.8908 94.4695 96.3108 94.2895 96.7008 94.1195C97.1008 93.9695 97.4108 93.7495 97.7208 93.5795C98.0208 93.3995 98.2808 93.2495 98.4908 93.1195C98.9208 92.8695 99.1908 92.7295 99.1908 92.7295C99.1908 92.7295 98.9908 92.9395 98.6308 93.2895C98.4408 93.4595 98.2208 93.6695 97.9608 93.9195C97.7008 94.1595 97.4208 94.4695 97.0308 94.6695C96.6608 94.9095 96.2608 95.1595 95.8208 95.4195C95.4008 95.7095 94.8908 95.8795 94.3708 96.0795C94.1108 96.1795 93.8408 96.2795 93.5808 96.3795L93.1708 96.5295L92.7408 96.6095C92.1608 96.7095 91.5808 96.8195 91.0008 96.9195C90.4108 96.9495 89.8108 96.9395 89.2308 96.9495C88.6408 96.9895 88.0808 96.8595 87.5308 96.7795C86.9908 96.6795 86.4508 96.6395 85.9708 96.4595C85.4808 96.3095 85.0308 96.1495 84.6208 95.9995C84.1908 95.8795 83.8508 95.6895 83.5408 95.5195C83.2308 95.3495 82.9608 95.2095 82.7408 95.0895C82.3008 94.8495 82.0508 94.6995 82.0508 94.6995V94.6895Z" fill="#B26E59"/>
<path d="M74.2812 70.6399C74.2812 72.8499 75.1013 74.6499 76.1113 74.6499C77.1213 74.6499 77.9413 72.8599 77.9413 70.6399C77.9413 68.4199 77.1213 66.6299 76.1113 66.6299C75.1013 66.6299 74.2812 68.4199 74.2812 70.6399Z" fill="#352C38"/>
<path d="M99.502 70.6399C99.502 72.8499 100.322 74.6499 101.332 74.6499C102.342 74.6499 103.162 72.8599 103.162 70.6399C103.162 68.4199 102.342 66.6299 101.332 66.6299C100.322 66.6299 99.502 68.4199 99.502 70.6399Z" fill="#352C38"/>
<path d="M69.7812 64.0896C69.7812 64.0896 70.1013 63.1296 71.0913 62.0096C71.3513 61.7496 71.6113 61.4296 71.9613 61.1696C72.2913 60.8896 72.6613 60.6197 73.0813 60.3797C73.4813 60.1097 73.9713 59.9496 74.4413 59.7496C74.9513 59.6296 75.4513 59.4496 76.0013 59.4296C76.2713 59.4096 76.5412 59.3996 76.8112 59.3896C77.0812 59.4096 77.3513 59.4597 77.6113 59.4897C78.1513 59.5197 78.6212 59.7696 79.0912 59.9296C79.5612 60.0996 79.9312 60.4197 80.3112 60.6497C80.7012 60.8697 80.9413 61.2297 81.2213 61.4897C81.4813 61.7597 81.7213 62.0096 81.8613 62.2796C82.0313 62.5296 82.1513 62.7696 82.2613 62.9496C82.4713 63.3296 82.5612 63.5496 82.5612 63.5496C82.5612 63.5496 82.3313 63.4396 81.9613 63.2496C81.7812 63.1496 81.5513 63.0296 81.3213 62.8896C81.0913 62.7296 80.7912 62.6196 80.4912 62.4796C80.1812 62.3596 79.8912 62.1497 79.5312 62.0597C79.1812 61.9697 78.8413 61.7896 78.4713 61.7296C78.1013 61.6796 77.7312 61.5397 77.3512 61.5597C77.1612 61.5497 76.9713 61.5396 76.7812 61.5196L76.2012 61.5696C75.8112 61.5496 75.4313 61.6997 75.0312 61.7397C74.6512 61.8697 74.2613 61.9296 73.8913 62.0896C73.5213 62.2196 73.1613 62.3596 72.8213 62.5196C72.4713 62.6596 72.1613 62.8397 71.8413 62.9697C71.5413 63.1297 71.2612 63.2796 71.0112 63.4096C70.7612 63.5496 70.5413 63.6696 70.3613 63.7696C69.9913 63.9796 69.7812 64.0896 69.7812 64.0896Z" fill="#352C38"/>
<path d="M95.1719 64.0896C95.1719 64.0896 95.4919 63.1296 96.4819 62.0096C96.7419 61.7496 97.0019 61.4296 97.3519 61.1696C97.6819 60.8896 98.0519 60.6197 98.4719 60.3797C98.8719 60.1097 99.3619 59.9496 99.8319 59.7496C100.342 59.6296 100.842 59.4496 101.392 59.4296C101.662 59.4096 101.932 59.3996 102.202 59.3896C102.472 59.4096 102.742 59.4597 103.002 59.4897C103.542 59.5197 104.012 59.7696 104.482 59.9296C104.952 60.0996 105.322 60.4197 105.702 60.6497C106.092 60.8697 106.332 61.2297 106.612 61.4897C106.872 61.7597 107.112 62.0096 107.252 62.2796C107.422 62.5296 107.542 62.7696 107.652 62.9496C107.862 63.3296 107.952 63.5496 107.952 63.5496C107.952 63.5496 107.722 63.4396 107.352 63.2496C107.172 63.1496 106.942 63.0296 106.712 62.8896C106.482 62.7296 106.182 62.6196 105.882 62.4796C105.572 62.3596 105.282 62.1497 104.922 62.0597C104.572 61.9697 104.232 61.7896 103.862 61.7296C103.492 61.6796 103.122 61.5397 102.742 61.5597C102.552 61.5497 102.362 61.5396 102.172 61.5196L101.592 61.5696C101.202 61.5496 100.822 61.6997 100.422 61.7397C100.042 61.8697 99.6519 61.9296 99.2819 62.0896C98.9119 62.2196 98.5519 62.3596 98.2119 62.5196C97.8619 62.6596 97.5519 62.8397 97.2319 62.9697C96.9319 63.1297 96.6519 63.2796 96.4019 63.4096C96.1519 63.5496 95.9319 63.6696 95.7519 63.7696C95.3819 63.9796 95.1719 64.0896 95.1719 64.0896Z" fill="#352C38"/>
<path d="M74.7711 40.8298C74.7711 40.8298 86.2711 28.8298 93.2711 38.3298C100.271 47.8298 112.271 83.3298 132.271 85.8298C132.271 85.8298 136.101 44.4998 118.101 28.4998C99.2511 11.7398 74.2711 21.8298 74.7711 40.8298Z" fill="#352C38"/>
<path d="M123.771 86.8299C123.771 86.8299 123.461 86.7999 122.871 86.7499C122.291 86.6699 121.411 86.5599 120.351 86.2299C118.211 85.6099 115.271 84.0899 112.461 81.4399C111.061 80.1199 109.641 78.5799 108.321 76.8199C107.001 75.0599 105.691 73.1499 104.511 71.0899C103.311 69.0299 102.161 66.8599 101.091 64.6199C100.031 62.3699 99.0115 60.0599 98.0315 57.7499C97.0515 55.4399 96.1615 53.0899 95.2515 50.8099C94.3415 48.5299 93.4715 46.2799 92.5915 44.1399C91.6815 42.0099 90.7815 39.9999 89.6415 38.3599C88.5615 36.8099 87.0715 35.6999 85.4815 35.3999C83.8815 35.0799 82.2515 35.4599 80.9015 35.9699C79.5415 36.4999 78.4115 37.1699 77.5015 37.7599C75.7015 38.9599 74.7715 39.8299 74.7715 39.8299C74.7715 39.8299 74.9515 39.5799 75.3315 39.1199C75.7115 38.6699 76.2815 38.0099 77.1115 37.2599C77.9315 36.5099 78.9915 35.6399 80.3915 34.8799C81.7715 34.1199 83.5915 33.4399 85.7315 33.6299C86.7915 33.7299 87.9015 34.0699 88.8815 34.6799C89.8615 35.2699 90.7415 36.0799 91.5115 37.0099C92.9715 38.7999 93.9815 40.9399 95.0015 43.0799C96.0115 45.2299 96.9615 47.4799 97.8815 49.7599C98.8115 52.0299 99.7615 54.3399 100.701 56.6499C101.641 58.9499 102.611 61.2399 103.621 63.4499C104.621 65.6699 105.631 67.8399 106.721 69.8699C107.811 71.8999 108.891 73.8499 110.061 75.5999C111.231 77.3499 112.401 78.9499 113.621 80.3099C114.851 81.6599 116.061 82.8199 117.261 83.7099C118.451 84.5999 119.571 85.2699 120.551 85.7199C121.531 86.1699 122.341 86.4399 122.901 86.6099C123.471 86.7599 123.771 86.8399 123.771 86.8399V86.8299Z" fill="#352C38"/>
<path d="M74.7715 40.8295C74.7715 40.8295 77.8215 36.9795 76.2015 35.3195C72.6315 31.6695 59.9815 29.2295 58.2715 43.3295C55.7715 63.8295 66.2715 96.8295 48.7715 114.329C48.7715 114.329 54.2715 120.829 60.2715 111.829C60.2715 111.829 58.2715 117.829 54.7715 118.329C54.7715 118.329 63.2715 119.829 65.2715 107.829C67.2715 95.8295 61.2715 41.8295 74.7715 40.8295Z" fill="#352C38"/>
</g>
<defs>
<filter id="filter0_i_1236_16220" x="0" y="-8.54525" width="181" height="189.545" filterUnits="userSpaceOnUse" color-interpolation-filters="sRGB">
<feFlood flood-opacity="0" result="BackgroundImageFix"/>
<feBlend mode="normal" in="SourceGraphic" in2="BackgroundImageFix" result="shape"/>
<feColorMatrix in="SourceAlpha" type="matrix" values="0 0 0 0 0 0 0 0 0 0 0 0 0 0 0 0 0 0 127 0" result="hardAlpha"/>
<feOffset dy="-8.54525"/>
<feGaussianBlur stdDeviation="4.27263"/>
<feComposite in2="hardAlpha" operator="arithmetic" k2="-1" k3="1"/>
<feColorMatrix type="matrix" values="0 0 0 0 0.791667 0 0 0 0 0.791667 0 0 0 0 0.791667 0 0 0 0.25 0"/>
<feBlend mode="normal" in2="shape" result="effect1_innerShadow_1236_16220"/>
</filter>
</defs>
</svg>
