<svg width="589" height="404" viewBox="0 0 589 404" fill="none" xmlns="http://www.w3.org/2000/svg">
<circle cx="288.959" cy="199.473" r="58.983" fill="#8807F7" fill-opacity="0.1"/>
<circle cx="295.168" cy="202.133" r="58.983" fill="#8807F7" fill-opacity="0.1"/>
<circle cx="288.516" cy="199.917" r="47.896" fill="white"/>
<path d="M284.787 182.081C284.795 185.078 284.795 188.075 284.803 191.073C284.811 193.656 283.964 196.173 281.57 197.492C278.766 199.024 274.792 198.638 271.665 198.315C271.547 198.307 271.436 198.291 271.326 198.284C271.429 196.125 271.389 193.947 271.287 191.797C271.153 188.883 272.921 185.409 276.048 184.917C279.447 184.381 282.401 184.019 284.004 182.144C284.059 182.089 284.106 182.034 284.153 181.971C284.39 181.652 284.642 181.341 284.894 181.03C284.815 181.368 284.787 181.727 284.787 182.081Z" fill="#8807F7"/>
<path d="M274.516 217.833C276.855 217.983 279.211 217.947 281.554 217.987C284.287 218.034 287.083 218.373 289.722 217.892C293.507 217.203 297.764 214.734 299.17 211.075C300.474 207.688 299.859 203.643 297.614 200.8C297.457 200.603 297.291 200.414 297.11 200.225C294.842 197.744 291.321 196.448 287.977 196.893C283.814 197.445 280.148 200.717 279.069 204.77C278.395 207.298 278.982 209.992 278.588 212.568C278.265 214.702 276.446 216.888 274.516 217.833Z" fill="#8807F7"/>
<path d="M297.91 172.421C297.701 173.055 297.953 173.744 298.225 174.355C301.694 182.097 311.001 187.335 310.682 196.634C310.536 200.84 308.437 205.782 304.928 208.275C304.672 208.457 304.44 208.618 304.14 208.701C303.471 207.448 303.4 205.613 302.829 204.231C302.116 202.498 301.171 200.793 299.851 199.45C298.587 198.166 297.004 197.425 295.74 196.165C293.085 193.515 291.412 189.879 291.191 186.13C290.868 180.782 293.542 175.477 297.91 172.421Z" fill="#8807F7"/>
<path d="M273.752 191.092C273.752 191.092 273.63 188.757 276.021 188.875C276.024 188.875 276.895 191.427 273.752 191.092Z" fill="white" stroke="#8807F7" stroke-width="0.561504" stroke-miterlimit="10"/>
<path d="M272.964 210.851C275.153 210.851 276.926 209.077 276.926 206.889C276.926 204.701 275.153 202.927 272.964 202.927C270.776 202.927 269.002 204.701 269.002 206.889C269.002 209.077 270.776 210.851 272.964 210.851Z" fill="#8807F7"/>
<g filter="url(#filter0_d_562_13857)">
<circle cx="184.451" cy="49.3452" r="38.0844" fill="white"/>
</g>
<path d="M184.235 36.5693L173.437 42.2527V44.526H195.033V42.2527M189.35 46.7993V54.756H192.76V46.7993M173.437 60.4393H195.033V57.0293H173.437M182.53 46.7993V54.756H185.94V46.7993M175.71 46.7993V54.756H179.12V46.7993H175.71Z" fill="#3F0371"/>
<g filter="url(#filter1_d_562_13857)">
<circle cx="402.479" cy="340.698" r="40.2494" fill="white"/>
</g>
<g clip-path="url(#clip0_562_13857)">
<path d="M414 343.6C414 344.2 412.8 344.6 411.4 344.8C410.5 343.1 408.7 341.8 406.6 340.9C406.8 340.6 407 340.4 407.2 340.1H408C411.1 340 414 341.9 414 343.6ZM396.8 340H396C392.9 340 390 341.9 390 343.6C390 344.2 391.2 344.6 392.6 344.8C393.5 343.1 395.3 341.8 397.4 340.9L396.8 340ZM402 341C404.2 341 406 339.2 406 337C406 334.8 404.2 333 402 333C399.8 333 398 334.8 398 337C398 339.2 399.8 341 402 341ZM402 342C397.9 342 394 344.6 394 347C394 349 402 349 402 349C402 349 410 349 410 347C410 344.6 406.1 342 402 342ZM407.7 339H408C409.7 339 411 337.7 411 336C411 334.3 409.7 333 408 333C407.5 333 407.1 333.1 406.7 333.3C407.5 334.3 408 335.6 408 337C408 337.7 407.9 338.4 407.7 339ZM396 339H396.3C396.1 338.4 396 337.7 396 337C396 335.6 396.5 334.3 397.3 333.3C396.9 333.1 396.5 333 396 333C394.3 333 393 334.3 393 336C393 337.7 394.3 339 396 339Z" fill="#3F0371"/>
</g>
<g filter="url(#filter2_d_562_13857)">
<circle cx="371.639" cy="45.2494" r="40.2494" fill="white"/>
</g>
<g clip-path="url(#clip1_562_13857)">
<path d="M376.494 45.2475C379.348 46.67 381.303 49.6365 381.303 53.6647V58.4746H362.064V53.6647C362.064 49.6317 364.025 46.6604 366.874 45.2475M378.899 39.2353C377.095 39.2353 375.291 39.6681 372.886 36.8303C370.481 39.6681 367.475 40.4377 364.469 39.2353M365.672 46.45L371.714 52.7713L377.696 46.45M371.684 52.4623V58.4746M371.684 46.45C372.631 46.45 373.569 46.2634 374.445 45.9008C375.32 45.5382 376.115 45.0068 376.785 44.3368C377.455 43.6669 377.987 42.8715 378.349 41.9962C378.712 41.1209 378.899 40.1827 378.899 39.2353C378.899 38.2878 378.712 37.3496 378.349 36.4743C377.987 35.599 377.455 34.8036 376.785 34.1337C376.115 33.4637 375.32 32.9323 374.445 32.5697C373.569 32.2071 372.631 32.0205 371.684 32.0205C369.77 32.0205 367.935 32.7806 366.582 34.1337C365.229 35.4867 364.469 37.3218 364.469 39.2353C364.469 41.1487 365.229 42.9838 366.582 44.3368C367.935 45.6899 369.77 46.45 371.684 46.45V46.45Z" stroke="#3F0371" stroke-width="2.40492"/>
</g>
<g filter="url(#filter3_d_562_13857)">
<rect x="67.6693" y="338" width="118.705" height="35.6114" rx="2.96762" fill="white"/>
</g>
<path d="M112.138 357.761C112.589 357.761 112.917 357.685 113.123 357.532C113.329 357.38 113.431 357.164 113.431 356.886C113.431 356.72 113.395 356.577 113.322 356.458C113.256 356.338 113.156 356.232 113.023 356.139C112.897 356.04 112.741 355.95 112.556 355.871C112.37 355.784 112.158 355.701 111.919 355.622C111.68 355.536 111.448 355.443 111.222 355.343C111.003 355.237 110.808 355.108 110.635 354.955C110.469 354.802 110.333 354.62 110.227 354.408C110.128 354.195 110.078 353.94 110.078 353.641C110.078 353.018 110.293 352.53 110.725 352.179C111.156 351.82 111.743 351.641 112.486 351.641C112.917 351.641 113.299 351.691 113.63 351.791C113.969 351.883 114.234 351.986 114.427 352.099L114.038 353.114C113.813 352.988 113.564 352.892 113.292 352.825C113.027 352.759 112.751 352.726 112.466 352.726C112.128 352.726 111.862 352.796 111.67 352.935C111.484 353.074 111.391 353.27 111.391 353.522C111.391 353.675 111.421 353.807 111.481 353.92C111.547 354.026 111.637 354.122 111.75 354.209C111.869 354.295 112.005 354.375 112.158 354.448C112.317 354.521 112.489 354.59 112.675 354.657C113 354.776 113.289 354.899 113.541 355.025C113.8 355.144 114.015 355.29 114.188 355.463C114.367 355.628 114.503 355.827 114.596 356.06C114.689 356.285 114.735 356.561 114.735 356.886C114.735 357.509 114.513 357.994 114.068 358.339C113.63 358.677 112.987 358.846 112.138 358.846C111.852 358.846 111.59 358.826 111.352 358.786C111.119 358.753 110.91 358.71 110.725 358.657C110.545 358.604 110.39 358.551 110.257 358.498C110.124 358.438 110.018 358.385 109.938 358.339L110.307 357.314C110.486 357.413 110.728 357.513 111.033 357.612C111.338 357.712 111.706 357.761 112.138 357.761ZM117.611 357.851C117.983 357.851 118.265 357.831 118.457 357.791V356.458C118.391 356.438 118.295 356.418 118.169 356.398C118.043 356.378 117.903 356.368 117.751 356.368C117.618 356.368 117.482 356.378 117.343 356.398C117.21 356.418 117.087 356.454 116.974 356.507C116.868 356.561 116.782 356.637 116.716 356.736C116.649 356.829 116.616 356.949 116.616 357.095C116.616 357.38 116.706 357.579 116.885 357.692C117.064 357.798 117.306 357.851 117.611 357.851ZM117.512 353.363C117.91 353.363 118.245 353.413 118.517 353.512C118.789 353.612 119.005 353.751 119.164 353.93C119.33 354.109 119.446 354.328 119.512 354.587C119.585 354.839 119.622 355.118 119.622 355.423V358.577C119.436 358.617 119.154 358.664 118.776 358.717C118.404 358.776 117.983 358.806 117.512 358.806C117.2 358.806 116.915 358.776 116.656 358.717C116.397 358.657 116.175 358.561 115.989 358.428C115.81 358.295 115.667 358.123 115.561 357.911C115.462 357.698 115.412 357.436 115.412 357.124C115.412 356.826 115.468 356.574 115.581 356.368C115.701 356.162 115.86 355.997 116.059 355.871C116.258 355.738 116.487 355.645 116.746 355.592C117.011 355.532 117.286 355.502 117.572 355.502C117.704 355.502 117.844 355.512 117.989 355.532C118.135 355.546 118.291 355.572 118.457 355.612V355.413C118.457 355.274 118.441 355.141 118.407 355.015C118.374 354.889 118.315 354.779 118.228 354.686C118.149 354.587 118.039 354.511 117.9 354.457C117.767 354.404 117.598 354.378 117.392 354.378C117.114 354.378 116.858 354.398 116.626 354.438C116.394 354.477 116.205 354.524 116.059 354.577L115.91 353.602C116.062 353.549 116.284 353.496 116.576 353.442C116.868 353.389 117.18 353.363 117.512 353.363ZM122.303 358.697C121.972 358.013 121.63 357.231 121.278 356.348C120.933 355.459 120.618 354.507 120.333 353.492H121.617C121.69 353.784 121.773 354.099 121.865 354.438C121.965 354.769 122.068 355.104 122.174 355.443C122.287 355.774 122.399 356.099 122.512 356.418C122.632 356.73 122.741 357.012 122.841 357.264C122.94 357.012 123.046 356.73 123.159 356.418C123.272 356.099 123.381 355.774 123.487 355.443C123.6 355.104 123.706 354.769 123.806 354.438C123.905 354.099 123.992 353.784 124.065 353.492H125.309C125.023 354.507 124.705 355.459 124.353 356.348C124.008 357.231 123.67 358.013 123.338 358.697H122.303ZM127.422 358.697H126.218V353.492H127.422V358.697ZM127.551 351.97C127.551 352.195 127.478 352.374 127.332 352.507C127.186 352.64 127.014 352.706 126.815 352.706C126.609 352.706 126.433 352.64 126.287 352.507C126.141 352.374 126.069 352.195 126.069 351.97C126.069 351.737 126.141 351.555 126.287 351.422C126.433 351.29 126.609 351.223 126.815 351.223C127.014 351.223 127.186 351.29 127.332 351.422C127.478 351.555 127.551 351.737 127.551 351.97ZM128.958 353.661C129.19 353.595 129.492 353.532 129.864 353.472C130.235 353.413 130.646 353.383 131.098 353.383C131.522 353.383 131.877 353.442 132.162 353.562C132.448 353.675 132.673 353.837 132.839 354.049C133.012 354.255 133.131 354.507 133.197 354.806C133.27 355.098 133.307 355.419 133.307 355.771V358.697H132.103V355.96C132.103 355.682 132.083 355.446 132.043 355.254C132.01 355.055 131.95 354.895 131.864 354.776C131.784 354.65 131.671 354.56 131.526 354.507C131.386 354.448 131.214 354.418 131.008 354.418C130.855 354.418 130.696 354.428 130.53 354.448C130.365 354.467 130.242 354.484 130.162 354.497V358.697H128.958V353.661ZM135.725 355.96C135.725 356.471 135.834 356.846 136.053 357.085C136.279 357.317 136.567 357.433 136.919 357.433C137.111 357.433 137.29 357.406 137.456 357.353C137.629 357.3 137.768 357.237 137.874 357.164V354.467C137.788 354.448 137.682 354.431 137.556 354.418C137.43 354.398 137.27 354.388 137.078 354.388C136.64 354.388 136.305 354.534 136.073 354.826C135.841 355.111 135.725 355.489 135.725 355.96ZM139.078 358.169C139.078 358.999 138.866 359.606 138.441 359.99C138.023 360.375 137.38 360.568 136.511 360.568C136.192 360.568 135.881 360.541 135.575 360.488C135.277 360.435 135.005 360.365 134.759 360.279L134.978 359.254C135.184 359.34 135.416 359.41 135.675 359.463C135.94 359.516 136.225 359.543 136.531 359.543C137.015 359.543 137.36 359.443 137.566 359.244C137.771 359.045 137.874 358.75 137.874 358.358V358.159C137.755 358.219 137.595 358.279 137.396 358.339C137.204 358.398 136.982 358.428 136.73 358.428C136.398 358.428 136.093 358.375 135.814 358.269C135.542 358.163 135.307 358.007 135.108 357.801C134.915 357.595 134.763 357.34 134.65 357.035C134.544 356.723 134.491 356.365 134.491 355.96C134.491 355.582 134.547 355.234 134.66 354.915C134.779 354.597 134.948 354.325 135.167 354.099C135.393 353.874 135.665 353.698 135.983 353.572C136.302 353.446 136.663 353.383 137.068 353.383C137.459 353.383 137.831 353.413 138.183 353.472C138.534 353.532 138.833 353.595 139.078 353.661V358.169ZM141.914 357.831C142.232 357.831 142.464 357.795 142.61 357.722C142.756 357.642 142.829 357.509 142.829 357.323C142.829 357.151 142.75 357.008 142.59 356.896C142.438 356.783 142.182 356.66 141.824 356.527C141.605 356.448 141.403 356.365 141.217 356.279C141.038 356.186 140.882 356.08 140.749 355.96C140.617 355.841 140.511 355.698 140.431 355.532C140.358 355.36 140.322 355.151 140.322 354.905C140.322 354.428 140.497 354.053 140.849 353.781C141.201 353.502 141.678 353.363 142.282 353.363C142.587 353.363 142.879 353.393 143.158 353.452C143.436 353.505 143.645 353.559 143.785 353.612L143.566 354.587C143.433 354.527 143.264 354.474 143.058 354.428C142.852 354.375 142.614 354.348 142.342 354.348C142.096 354.348 141.897 354.391 141.745 354.477C141.592 354.557 141.516 354.683 141.516 354.856C141.516 354.942 141.529 355.018 141.555 355.084C141.589 355.151 141.642 355.214 141.715 355.274C141.788 355.327 141.884 355.383 142.003 355.443C142.123 355.496 142.269 355.552 142.441 355.612C142.726 355.718 142.969 355.824 143.168 355.93C143.367 356.03 143.529 356.146 143.655 356.279C143.788 356.405 143.884 356.551 143.944 356.716C144.004 356.882 144.033 357.081 144.033 357.314C144.033 357.811 143.848 358.189 143.476 358.448C143.111 358.7 142.587 358.826 141.904 358.826C141.446 358.826 141.078 358.786 140.799 358.707C140.521 358.634 140.325 358.574 140.212 358.528L140.421 357.523C140.6 357.595 140.812 357.665 141.058 357.731C141.31 357.798 141.595 357.831 141.914 357.831Z" fill="#3D0072"/>
<g filter="url(#filter4_d_562_13857)">
<circle cx="203.277" cy="355.557" r="38.0844" fill="white"/>
</g>
<path d="M203.008 366.483C201.681 366.483 200.427 366.265 199.245 365.83C198.064 365.394 196.996 364.793 196.042 364.026L194.456 365.612C194.207 365.861 193.917 365.98 193.585 365.969C193.254 365.959 192.963 365.83 192.715 365.581C192.466 365.332 192.342 365.037 192.342 364.694C192.342 364.352 192.466 364.057 192.715 363.808L194.27 362.254C193.503 361.3 192.901 360.227 192.466 359.034C192.031 357.843 191.813 356.594 191.813 355.288C191.813 352.178 192.907 349.534 195.094 347.358C197.281 345.181 199.919 344.092 203.008 344.092H211.716C212.4 344.092 212.986 344.336 213.473 344.822C213.96 345.31 214.203 345.896 214.203 346.58V355.288C214.203 358.377 213.115 361.015 210.938 363.203C208.761 365.389 206.118 366.483 203.008 366.483ZM203.008 363.995C205.434 363.995 207.491 363.145 209.181 361.445C210.871 359.745 211.716 357.692 211.716 355.288V346.58H203.008C200.603 346.58 198.551 347.425 196.851 349.114C195.151 350.804 194.301 352.862 194.301 355.288C194.301 357.692 195.151 359.745 196.851 361.445C198.551 363.145 200.603 363.995 203.008 363.995ZM201.36 361.352L207.797 355.599C208.005 355.412 208.067 355.189 207.984 354.929C207.901 354.671 207.714 354.52 207.424 354.479L202.386 353.981L205.403 349.845C205.486 349.742 205.522 349.633 205.511 349.518C205.501 349.405 205.455 349.296 205.372 349.192C205.268 349.089 205.149 349.037 205.015 349.037C204.879 349.037 204.76 349.089 204.656 349.192L198.25 354.946C198.043 355.132 197.981 355.355 198.064 355.613C198.147 355.873 198.333 356.024 198.623 356.065L203.661 356.563L200.614 360.699C200.551 360.802 200.52 360.911 200.52 361.026C200.52 361.139 200.572 361.248 200.676 361.352C200.779 361.455 200.893 361.507 201.018 361.507C201.142 361.507 201.256 361.455 201.36 361.352Z" fill="#3F0371"/>
<path d="M446.776 201.232L450.321 197.687V202.617H446.776V201.232ZM451.503 196.505L455.048 192.96V202.617H451.503V196.505ZM463.32 191.981H464.502V202.617H460.957V194.142L463.32 191.981ZM459.184 195.914L459.775 195.323V202.617H456.23V192.96L459.184 195.914ZM465.684 186.073V190.8H464.502V188.095L459.184 193.403L455.639 189.858L446.776 198.73V197.05L455.639 188.196L459.184 191.741L463.662 187.254H460.957V186.073H465.684Z" fill="black"/>
<g filter="url(#filter5_d_562_13857)">
<circle cx="455.047" cy="194.635" r="38.0844" fill="white"/>
</g>
<g clip-path="url(#clip2_562_13857)">
<path d="M443.791 202.008L447.896 197.904V203.612H443.791V202.008ZM449.264 196.535L453.369 192.43V203.612H449.264V196.535ZM462.947 191.297H464.315V203.612H460.21V193.799L462.947 191.297ZM458.158 195.851L458.842 195.167V203.612H454.737V192.43L458.158 195.851ZM465.684 184.456V189.929H464.315V186.797L458.158 192.943L454.053 188.838L443.791 199.111V197.166L454.053 186.914L458.158 191.019L463.343 185.824H460.21V184.456H465.684Z" fill="#3F0371"/>
</g>
<g filter="url(#filter6_d_562_13857)">
<circle cx="141.619" cy="206.287" r="38.0844" fill="white"/>
</g>
<path d="M137.578 195.609H135.09C134.43 195.609 133.797 195.871 133.331 196.338C132.864 196.805 132.602 197.437 132.602 198.097V213.024C132.602 213.684 132.864 214.317 133.331 214.783C133.797 215.25 134.43 215.512 135.09 215.512H147.529C148.189 215.512 148.822 215.25 149.288 214.783C149.755 214.317 150.017 213.684 150.017 213.024V198.097C150.017 197.437 149.755 196.805 149.288 196.338C148.822 195.871 148.189 195.609 147.529 195.609H145.041" stroke="#3F0371" stroke-width="2.48784" stroke-linecap="round" stroke-linejoin="round"/>
<path d="M142.553 193.122H140.065C138.691 193.122 137.578 194.235 137.578 195.609C137.578 196.983 138.691 198.097 140.065 198.097H142.553C143.927 198.097 145.041 196.983 145.041 195.609C145.041 194.235 143.927 193.122 142.553 193.122Z" stroke="#3F0371" stroke-width="2.48784" stroke-linecap="round" stroke-linejoin="round"/>
<path d="M143.797 203.073H140.688C140.193 203.073 139.718 203.27 139.368 203.62C139.018 203.969 138.822 204.444 138.822 204.939C138.822 205.434 139.018 205.908 139.368 206.258C139.718 206.608 140.193 206.805 140.688 206.805H141.931C142.426 206.805 142.901 207.001 143.251 207.351C143.601 207.701 143.797 208.176 143.797 208.671C143.797 209.166 143.601 209.64 143.251 209.99C142.901 210.34 142.426 210.537 141.931 210.537H138.822M141.309 210.537V211.78M141.309 201.829V203.073" stroke="#3F0371" stroke-width="2.48784" stroke-linecap="round" stroke-linejoin="round"/>
<defs>
<filter id="filter0_d_562_13857" x="138.993" y="6.83696" width="90.9148" height="90.9149" filterUnits="userSpaceOnUse" color-interpolation-filters="sRGB">
<feFlood flood-opacity="0" result="BackgroundImageFix"/>
<feColorMatrix in="SourceAlpha" type="matrix" values="0 0 0 0 0 0 0 0 0 0 0 0 0 0 0 0 0 0 127 0" result="hardAlpha"/>
<feOffset dy="2.94919"/>
<feGaussianBlur stdDeviation="3.68648"/>
<feComposite in2="hardAlpha" operator="out"/>
<feColorMatrix type="matrix" values="0 0 0 0 0.533333 0 0 0 0 0.027451 0 0 0 0 0.968627 0 0 0 0.07 0"/>
<feBlend mode="normal" in2="BackgroundImageFix" result="effect1_dropShadow_562_13857"/>
<feBlend mode="normal" in="SourceGraphic" in2="effect1_dropShadow_562_13857" result="shape"/>
</filter>
<filter id="filter1_d_562_13857" x="354.438" y="295.773" width="96.0829" height="96.0827" filterUnits="userSpaceOnUse" color-interpolation-filters="sRGB">
<feFlood flood-opacity="0" result="BackgroundImageFix"/>
<feColorMatrix in="SourceAlpha" type="matrix" values="0 0 0 0 0 0 0 0 0 0 0 0 0 0 0 0 0 0 127 0" result="hardAlpha"/>
<feOffset dy="3.11683"/>
<feGaussianBlur stdDeviation="3.89604"/>
<feComposite in2="hardAlpha" operator="out"/>
<feColorMatrix type="matrix" values="0 0 0 0 0.533333 0 0 0 0 0.027451 0 0 0 0 0.968627 0 0 0 0.07 0"/>
<feBlend mode="normal" in2="BackgroundImageFix" result="effect1_dropShadow_562_13857"/>
<feBlend mode="normal" in="SourceGraphic" in2="effect1_dropShadow_562_13857" result="shape"/>
</filter>
<filter id="filter2_d_562_13857" x="323.598" y="0.324749" width="96.0829" height="96.0827" filterUnits="userSpaceOnUse" color-interpolation-filters="sRGB">
<feFlood flood-opacity="0" result="BackgroundImageFix"/>
<feColorMatrix in="SourceAlpha" type="matrix" values="0 0 0 0 0 0 0 0 0 0 0 0 0 0 0 0 0 0 127 0" result="hardAlpha"/>
<feOffset dy="3.11683"/>
<feGaussianBlur stdDeviation="3.89604"/>
<feComposite in2="hardAlpha" operator="out"/>
<feColorMatrix type="matrix" values="0 0 0 0 0.533333 0 0 0 0 0.027451 0 0 0 0 0.968627 0 0 0 0.07 0"/>
<feBlend mode="normal" in2="BackgroundImageFix" result="effect1_dropShadow_562_13857"/>
<feBlend mode="normal" in="SourceGraphic" in2="effect1_dropShadow_562_13857" result="shape"/>
</filter>
<filter id="filter3_d_562_13857" x="57.7773" y="332.064" width="138.489" height="55.3955" filterUnits="userSpaceOnUse" color-interpolation-filters="sRGB">
<feFlood flood-opacity="0" result="BackgroundImageFix"/>
<feColorMatrix in="SourceAlpha" type="matrix" values="0 0 0 0 0 0 0 0 0 0 0 0 0 0 0 0 0 0 127 0" result="hardAlpha"/>
<feOffset dy="3.95682"/>
<feGaussianBlur stdDeviation="4.94603"/>
<feComposite in2="hardAlpha" operator="out"/>
<feColorMatrix type="matrix" values="0 0 0 0 0.533333 0 0 0 0 0.027451 0 0 0 0 0.968627 0 0 0 0.07 0"/>
<feBlend mode="normal" in2="BackgroundImageFix" result="effect1_dropShadow_562_13857"/>
<feBlend mode="normal" in="SourceGraphic" in2="effect1_dropShadow_562_13857" result="shape"/>
</filter>
<filter id="filter4_d_562_13857" x="157.82" y="313.048" width="90.9148" height="90.9149" filterUnits="userSpaceOnUse" color-interpolation-filters="sRGB">
<feFlood flood-opacity="0" result="BackgroundImageFix"/>
<feColorMatrix in="SourceAlpha" type="matrix" values="0 0 0 0 0 0 0 0 0 0 0 0 0 0 0 0 0 0 127 0" result="hardAlpha"/>
<feOffset dy="2.94919"/>
<feGaussianBlur stdDeviation="3.68648"/>
<feComposite in2="hardAlpha" operator="out"/>
<feColorMatrix type="matrix" values="0 0 0 0 0.533333 0 0 0 0 0.027451 0 0 0 0 0.968627 0 0 0 0.07 0"/>
<feBlend mode="normal" in2="BackgroundImageFix" result="effect1_dropShadow_562_13857"/>
<feBlend mode="normal" in="SourceGraphic" in2="effect1_dropShadow_562_13857" result="shape"/>
</filter>
<filter id="filter5_d_562_13857" x="409.59" y="152.127" width="90.9148" height="90.9149" filterUnits="userSpaceOnUse" color-interpolation-filters="sRGB">
<feFlood flood-opacity="0" result="BackgroundImageFix"/>
<feColorMatrix in="SourceAlpha" type="matrix" values="0 0 0 0 0 0 0 0 0 0 0 0 0 0 0 0 0 0 127 0" result="hardAlpha"/>
<feOffset dy="2.94919"/>
<feGaussianBlur stdDeviation="3.68648"/>
<feComposite in2="hardAlpha" operator="out"/>
<feColorMatrix type="matrix" values="0 0 0 0 0.533333 0 0 0 0 0.027451 0 0 0 0 0.968627 0 0 0 0.07 0"/>
<feBlend mode="normal" in2="BackgroundImageFix" result="effect1_dropShadow_562_13857"/>
<feBlend mode="normal" in="SourceGraphic" in2="effect1_dropShadow_562_13857" result="shape"/>
</filter>
<filter id="filter6_d_562_13857" x="96.1617" y="163.779" width="90.9148" height="90.9149" filterUnits="userSpaceOnUse" color-interpolation-filters="sRGB">
<feFlood flood-opacity="0" result="BackgroundImageFix"/>
<feColorMatrix in="SourceAlpha" type="matrix" values="0 0 0 0 0 0 0 0 0 0 0 0 0 0 0 0 0 0 127 0" result="hardAlpha"/>
<feOffset dy="2.94919"/>
<feGaussianBlur stdDeviation="3.68648"/>
<feComposite in2="hardAlpha" operator="out"/>
<feColorMatrix type="matrix" values="0 0 0 0 0.533333 0 0 0 0 0.027451 0 0 0 0 0.968627 0 0 0 0.07 0"/>
<feBlend mode="normal" in2="BackgroundImageFix" result="effect1_dropShadow_562_13857"/>
<feBlend mode="normal" in="SourceGraphic" in2="effect1_dropShadow_562_13857" result="shape"/>
</filter>
<clipPath id="clip0_562_13857">
<rect width="24" height="24" fill="white" transform="translate(390 329)"/>
</clipPath>
<clipPath id="clip1_562_13857">
<rect width="28.859" height="28.859" fill="white" transform="translate(357.254 30.8179)"/>
</clipPath>
<clipPath id="clip2_562_13857">
<rect width="21.893" height="21.893" fill="white" transform="translate(443.791 181.719)"/>
</clipPath>
</defs>
</svg>
