<svg width="208" height="209" viewBox="0 0 208 209" fill="none" xmlns="http://www.w3.org/2000/svg">
<mask id="mask0_317_1201" style="mask-type:alpha" maskUnits="userSpaceOnUse" x="0" y="0" width="208" height="209">
<path d="M208 104.28C208 161.718 161.438 208.28 104 208.28C46.5624 208.28 0 161.718 0 104.28C0 46.8428 46.5624 0.280396 104 0.280396C161.438 0.280396 208 46.8428 208 104.28Z" fill="white"/>
</mask>
<g mask="url(#mask0_317_1201)">
<path d="M182.063 192.016C175.356 173.982 134.311 165.371 127.125 160.143C117.898 153.43 120.836 131.207 120.836 131.207L105.74 131.605L90.6439 131.207C90.6439 131.207 93.5815 153.435 84.3552 160.143C77.169 165.371 36.1242 173.982 29.4167 192.016C22.7037 210.049 20.1904 225.989 20.1904 225.989H104.908H106.583H191.3C191.289 225.989 188.776 210.049 182.063 192.016Z" fill="#965450"/>
<path d="M87.8423 156.003C94.9088 155.279 102.013 153.849 108.166 150.405C112.654 147.897 116.691 144.933 120.439 141.598C120.216 135.886 120.83 131.202 120.83 131.202L105.734 131.599L90.6385 131.202C90.6385 131.202 92.7274 147.021 87.8423 156.003Z" fill="#76413B"/>
<path d="M183.254 191.766C176.716 174.2 137.847 165.507 128.74 160.192C121.549 164.375 112.774 166.839 103.297 166.839C95.0612 166.839 87.3581 164.979 80.7594 161.748C67.9972 167.182 35.4061 175.815 29.4657 191.766C22.7037 209.93 20.1687 225.989 20.1687 225.989H105.511H107.203H192.546C192.551 225.989 190.016 209.935 183.254 191.766Z" fill="#E8356D"/>
<path d="M15 195.143H194.422" stroke="#FFEEF6" stroke-miterlimit="10"/>
<path d="M15 205.745H194.422" stroke="#FFEEF6" stroke-miterlimit="10"/>
<path d="M15 184.546H194.422" stroke="#FFEEF6" stroke-miterlimit="10"/>
<path d="M80.3841 96.5546C77.947 88.9876 72.1697 90.7392 71.6312 90.9242C71.0654 90.9895 65.0977 91.8762 66.1259 99.7588C67.1649 107.685 71.7617 111.982 76.0756 110.72C80.5147 110.013 82.8376 104.165 80.3841 96.5546Z" fill="#76413B"/>
<path d="M130.329 96.5546C132.766 88.9876 138.543 90.7392 139.082 90.9242C139.647 90.9895 145.615 91.8762 144.587 99.7588C143.548 107.685 138.951 111.982 134.637 110.72C130.198 110.013 127.875 104.165 130.329 96.5546Z" fill="#76413B"/>
<path d="M135.366 84.6519C132.347 51.4896 107.133 53.3447 104.755 53.5949C102.378 53.3447 77.1637 51.4896 74.1445 84.6519C71.1035 118.015 85.9656 139.803 104.755 138.606C123.545 139.803 138.407 118.015 135.366 84.6519Z" fill="#965450"/>
<path d="M106.425 112.722C107.459 111.286 108.716 110.068 110.065 108.941L109.994 109.154L109.145 102.571C108.884 100.373 108.601 98.1812 108.357 95.978C108.737 98.1594 109.085 100.341 109.45 102.528L110.478 109.083L110.494 109.192C109.265 110.514 107.954 111.743 106.425 112.722Z" fill="#76413B"/>
<path d="M89.0664 96.473C89.0664 98.97 89.9912 100.994 91.139 100.994C92.2814 100.994 93.2117 98.97 93.2117 96.473C93.2117 93.9761 92.2869 91.9524 91.139 91.9524C89.9912 91.9524 89.0664 93.9761 89.0664 96.473Z" fill="#352C38"/>
<path d="M117.523 96.473C117.523 98.97 118.448 100.994 119.596 100.994C120.738 100.994 121.668 98.97 121.668 96.473C121.668 93.9761 120.743 91.9524 119.596 91.9524C118.448 91.9524 117.523 93.9761 117.523 96.473Z" fill="#352C38"/>
<path d="M83.9854 89.0746C87.4887 83.5313 94.7402 82.4922 98.4122 88.4762C93.3313 84.0535 88.8977 85.0381 83.9854 89.0746Z" fill="#352C38"/>
<path d="M112.638 89.0746C116.141 83.5313 123.393 82.4922 127.065 88.4762C121.984 84.0535 117.55 85.0381 112.638 89.0746Z" fill="#352C38"/>
<path d="M92.1292 117.553L120.074 117.286C120.074 117.286 107.927 128.558 92.1292 117.553Z" fill="white"/>
<path d="M72.3818 65.6391C72.3818 65.6391 70.6899 107.114 75.4826 126.578C79.0947 141.233 89.5885 145.199 89.5885 145.199C89.5885 145.199 114.417 154.79 128.24 139.275C132.222 134.809 138.396 111.346 135.573 69.3057L125.416 65.0733C125.416 65.0733 127.108 85.6692 132.189 88.2097C132.189 88.2097 130.693 125.017 124.29 129.401C118.932 133.068 127.957 112.472 117.517 112.755C107.078 113.038 106.795 113.321 106.795 113.321C106.795 113.321 88.1741 110.22 88.457 117.553C88.7399 124.886 90.7146 129.684 88.1741 129.684C85.6336 129.684 76.3258 123.76 78.0176 85.1089C78.0176 85.1089 83.376 83.1341 83.376 69.594C83.3815 51.7834 72.3818 65.6391 72.3818 65.6391Z" fill="#352C38"/>
<path d="M92 119.28L118.51 119C118.51 119 107.91 129.43 92 119.28V119.28Z" fill="white"/>
<path d="M82.2554 63.3869C82.2554 63.3869 90.3719 74.3921 100.028 74.3921C105.386 74.3921 100.028 65.0842 100.028 65.0842C100.028 65.0842 107.644 76.9325 115.543 76.6497C123.442 76.3668 116.669 65.0842 116.669 65.0842C116.669 65.0842 122.593 77.2154 129.932 76.6497C137.265 76.0839 131.058 64.2356 131.058 64.2356C131.058 64.2356 134.441 76.9325 141.497 75.2407C148.553 73.5489 139.805 62.5437 139.805 62.5437C139.805 62.5437 145.729 68.185 148.27 67.9021C150.81 67.6193 150.81 60.0033 142.063 56.3367C142.063 56.3367 150.81 56.0538 151.093 51.8215C151.414 47.0289 145.735 45.3316 132.755 46.7405C132.755 46.7405 143.477 42.2253 141.22 38.2759C138.962 34.3265 129.371 39.9677 129.371 39.9677C129.371 39.9677 138.962 34.6093 133.321 30.377C128.691 26.9063 104.543 26.9933 89.8714 44.4829C89.8714 44.4829 120.341 28.4023 116.674 26.1447C114.085 24.5508 77.6314 32.6945 72.0989 48.1495C65.3261 67.0535 70.4071 77.7757 72.594 90.6468L82.2554 63.3869Z" fill="#352C38"/>
</g>
</svg>
