<svg width="86" height="86" viewBox="0 0 86 86" fill="none" xmlns="http://www.w3.org/2000/svg">
<g filter="url(#filter0_d_477_1537)">
<rect x="9.76834" y="5.86328" width="65.8475" height="65.8475" rx="9.68345" fill="#FFD5E2"/>
</g>
<path d="M36.882 48.4705C36.3494 48.4705 35.8937 48.281 35.5147 47.9021C35.1351 47.5225 34.9453 47.0664 34.9453 46.5338V36.8504C34.9453 36.3178 35.1351 35.8617 35.5147 35.4821C35.8937 35.1031 36.3494 34.9137 36.882 34.9137H37.8504V32.977C37.8504 31.6374 38.3226 30.4954 39.2671 29.551C40.2109 28.6072 41.3525 28.1353 42.6921 28.1353C44.0316 28.1353 45.1736 28.6072 46.1181 29.551C47.0619 30.4954 47.5338 31.6374 47.5338 32.977V34.9137H48.5022C49.0348 34.9137 49.4908 35.1031 49.8704 35.4821C50.2494 35.8617 50.4389 36.3178 50.4389 36.8504V46.5338C50.4389 47.0664 50.2494 47.5225 49.8704 47.9021C49.4908 48.281 49.0348 48.4705 48.5022 48.4705H36.882ZM42.6921 43.6288C43.2247 43.6288 43.6808 43.4393 44.0604 43.0604C44.4393 42.6808 44.6288 42.2247 44.6288 41.6921C44.6288 41.1595 44.4393 40.7034 44.0604 40.3238C43.6808 39.9449 43.2247 39.7554 42.6921 39.7554C42.1595 39.7554 41.7037 39.9449 41.3248 40.3238C40.9452 40.7034 40.7554 41.1595 40.7554 41.6921C40.7554 42.2247 40.9452 42.6808 41.3248 43.0604C41.7037 43.4393 42.1595 43.6288 42.6921 43.6288ZM39.7871 34.9137H45.5971V32.977C45.5971 32.17 45.3147 31.4841 44.7498 30.9192C44.185 30.3544 43.499 30.0719 42.6921 30.0719C41.8851 30.0719 41.1992 30.3544 40.6344 30.9192C40.0695 31.4841 39.7871 32.17 39.7871 32.977V34.9137Z" fill="#E8356D"/>
<defs>
<filter id="filter0_d_477_1537" x="0.0848885" y="0.0532098" width="85.2144" height="85.2146" filterUnits="userSpaceOnUse" color-interpolation-filters="sRGB">
<feFlood flood-opacity="0" result="BackgroundImageFix"/>
<feColorMatrix in="SourceAlpha" type="matrix" values="0 0 0 0 0 0 0 0 0 0 0 0 0 0 0 0 0 0 127 0" result="hardAlpha"/>
<feOffset dy="3.87338"/>
<feGaussianBlur stdDeviation="4.84173"/>
<feComposite in2="hardAlpha" operator="out"/>
<feColorMatrix type="matrix" values="0 0 0 0 0.533333 0 0 0 0 0.027451 0 0 0 0 0.968627 0 0 0 0.07 0"/>
<feBlend mode="normal" in2="BackgroundImageFix" result="effect1_dropShadow_477_1537"/>
<feBlend mode="normal" in="SourceGraphic" in2="effect1_dropShadow_477_1537" result="shape"/>
</filter>
</defs>
</svg>
