<svg width="82" height="76" viewBox="0 0 82 76" fill="none" xmlns="http://www.w3.org/2000/svg">
<g filter="url(#filter0_d_711_13894)">
<rect x="13" y="8" width="56" height="50" rx="9.73913" fill="white" shape-rendering="crispEdges"/>
<path d="M43.754 31C44.72 31 45.504 31.784 45.504 32.75V37.499C45.504 38.6927 45.0298 39.8376 44.1857 40.6817C43.3416 41.5258 42.1967 42 41.003 42C39.8093 42 38.6644 41.5258 37.8203 40.6817C36.9762 39.8376 36.502 38.6927 36.502 37.499V32.75C36.502 31.784 37.285 31 38.252 31H43.754ZM43.754 32.5H38.252C38.1857 32.5 38.1221 32.5263 38.0752 32.5732C38.0283 32.6201 38.002 32.6837 38.002 32.75V37.499C38.002 38.2949 38.3182 39.0582 38.881 39.621C39.4438 40.1838 40.2071 40.5 41.003 40.5C41.7989 40.5 42.5622 40.1838 43.125 39.621C43.6878 39.0582 44.004 38.2949 44.004 37.499V32.75C44.004 32.6837 43.9777 32.6201 43.9308 32.5732C43.8839 32.5263 43.8203 32.5 43.754 32.5ZM32.75 31H36.131C35.7782 31.4261 35.5627 31.949 35.513 32.5H32.75C32.6837 32.5 32.6201 32.5263 32.5732 32.5732C32.5263 32.6201 32.5 32.6837 32.5 32.75V35.999C32.4999 36.3769 32.5855 36.7499 32.7503 37.0899C32.915 37.43 33.1547 37.7283 33.4513 37.9625C33.7479 38.1966 34.0937 38.3605 34.4628 38.4418C34.8318 38.5231 35.2145 38.5198 35.582 38.432C35.667 38.936 35.822 39.417 36.035 39.864C35.4423 40.0226 34.821 40.0427 34.2193 39.9228C33.6176 39.8029 33.0514 39.5463 32.5647 39.1727C32.078 38.7991 31.6838 38.3185 31.4125 37.7682C31.1411 37.2179 31 36.6126 31 35.999V32.75C31 31.784 31.784 31 32.75 31ZM45.875 31H49.25C50.216 31 51 31.784 51 32.75V36C51.0001 36.6132 50.8593 37.2182 50.5884 37.7682C50.3175 38.3183 49.9237 38.7987 49.4376 39.1724C48.9514 39.546 48.3858 39.8029 47.7846 39.9232C47.1833 40.0435 46.5625 40.0239 45.97 39.866C46.184 39.418 46.339 38.937 46.425 38.433C46.7921 38.5198 47.174 38.5223 47.5423 38.4405C47.9105 38.3587 48.2554 38.1946 48.5512 37.9606C48.847 37.7265 49.086 37.4286 49.2503 37.089C49.4147 36.7495 49.5 36.3772 49.5 36V32.75C49.5 32.6837 49.4737 32.6201 49.4268 32.5732C49.3799 32.5263 49.3163 32.5 49.25 32.5H46.493C46.4433 31.949 46.2278 31.4261 45.875 31ZM41 24C41.7956 24 42.5587 24.3161 43.1213 24.8787C43.6839 25.4413 44 26.2044 44 27C44 27.7956 43.6839 28.5587 43.1213 29.1213C42.5587 29.6839 41.7956 30 41 30C40.2044 30 39.4413 29.6839 38.8787 29.1213C38.3161 28.5587 38 27.7956 38 27C38 26.2044 38.3161 25.4413 38.8787 24.8787C39.4413 24.3161 40.2044 24 41 24ZM47.5 25C48.163 25 48.7989 25.2634 49.2678 25.7322C49.7366 26.2011 50 26.837 50 27.5C50 28.163 49.7366 28.7989 49.2678 29.2678C48.7989 29.7366 48.163 30 47.5 30C46.837 30 46.2011 29.7366 45.7322 29.2678C45.2634 28.7989 45 28.163 45 27.5C45 26.837 45.2634 26.2011 45.7322 25.7322C46.2011 25.2634 46.837 25 47.5 25ZM34.5 25C35.163 25 35.7989 25.2634 36.2678 25.7322C36.7366 26.2011 37 26.837 37 27.5C37 28.163 36.7366 28.7989 36.2678 29.2678C35.7989 29.7366 35.163 30 34.5 30C33.837 30 33.2011 29.7366 32.7322 29.2678C32.2634 28.7989 32 28.163 32 27.5C32 26.837 32.2634 26.2011 32.7322 25.7322C33.2011 25.2634 33.837 25 34.5 25ZM41 25.5C40.6022 25.5 40.2206 25.658 39.9393 25.9393C39.658 26.2206 39.5 26.6022 39.5 27C39.5 27.3978 39.658 27.7794 39.9393 28.0607C40.2206 28.342 40.6022 28.5 41 28.5C41.3978 28.5 41.7794 28.342 42.0607 28.0607C42.342 27.7794 42.5 27.3978 42.5 27C42.5 26.6022 42.342 26.2206 42.0607 25.9393C41.7794 25.658 41.3978 25.5 41 25.5ZM47.5 26.5C47.2348 26.5 46.9804 26.6054 46.7929 26.7929C46.6054 26.9804 46.5 27.2348 46.5 27.5C46.5 27.7652 46.6054 28.0196 46.7929 28.2071C46.9804 28.3946 47.2348 28.5 47.5 28.5C47.7652 28.5 48.0196 28.3946 48.2071 28.2071C48.3946 28.0196 48.5 27.7652 48.5 27.5C48.5 27.2348 48.3946 26.9804 48.2071 26.7929C48.0196 26.6054 47.7652 26.5 47.5 26.5ZM34.5 26.5C34.2348 26.5 33.9804 26.6054 33.7929 26.7929C33.6054 26.9804 33.5 27.2348 33.5 27.5C33.5 27.7652 33.6054 28.0196 33.7929 28.2071C33.9804 28.3946 34.2348 28.5 34.5 28.5C34.7652 28.5 35.0196 28.3946 35.2071 28.2071C35.3946 28.0196 35.5 27.7652 35.5 27.5C35.5 27.2348 35.3946 26.9804 35.2071 26.7929C35.0196 26.6054 34.7652 26.5 34.5 26.5Z" fill="#3D0072"/>
</g>
<defs>
<filter id="filter0_d_711_13894" x="0.826086" y="0.695652" width="80.3478" height="74.3478" filterUnits="userSpaceOnUse" color-interpolation-filters="sRGB">
<feFlood flood-opacity="0" result="BackgroundImageFix"/>
<feColorMatrix in="SourceAlpha" type="matrix" values="0 0 0 0 0 0 0 0 0 0 0 0 0 0 0 0 0 0 127 0" result="hardAlpha"/>
<feOffset dy="4.86957"/>
<feGaussianBlur stdDeviation="6.08696"/>
<feComposite in2="hardAlpha" operator="out"/>
<feColorMatrix type="matrix" values="0 0 0 0 0.533333 0 0 0 0 0.027451 0 0 0 0 0.968627 0 0 0 0.07 0"/>
<feBlend mode="normal" in2="BackgroundImageFix" result="effect1_dropShadow_711_13894"/>
<feBlend mode="normal" in="SourceGraphic" in2="effect1_dropShadow_711_13894" result="shape"/>
</filter>
</defs>
</svg>
