<svg width="328" height="269" viewBox="0 0 328 269" fill="none" xmlns="http://www.w3.org/2000/svg">
<path d="M327.482 39.8319C326.771 46.3778 324.255 52.5974 320.215 57.7969C316.176 62.9964 310.771 66.9714 304.604 69.2784C298.436 71.5854 291.75 72.1337 285.289 70.8622C278.829 69.5907 272.848 66.5494 268.015 62.0775L250.197 64.6737L259.145 49.334C256.939 43.9125 256.118 38.0267 256.758 32.2086C257.229 27.5433 258.618 23.0173 260.846 18.8912C263.073 14.7651 266.095 11.1204 269.737 8.167C273.379 5.21358 277.569 3.00981 282.066 1.68258C286.563 0.355345 291.278 -0.0691308 295.94 0.433616C300.602 0.936363 305.119 2.3564 309.229 4.61193C313.34 6.86746 316.964 9.91393 319.893 13.5759C322.821 17.2379 324.996 21.443 326.293 25.9491C327.589 30.4553 327.982 35.1734 327.447 39.8318L327.482 39.8319Z" fill="white"/>
<path d="M327.482 39.8319C326.778 46.3835 324.275 52.6127 320.251 57.8306C319.251 59.1284 318.173 60.3639 317.022 61.5302C315.83 62.6557 314.572 63.7101 313.255 64.6881C310.633 66.6708 307.742 68.2705 304.669 69.439C301.598 70.6307 298.375 71.3871 295.094 71.686C293.45 71.8352 291.798 71.8613 290.151 71.7641C288.5 71.7204 286.856 71.5463 285.233 71.2435C278.674 70.0181 272.585 66.9902 267.65 62.4991L268.072 62.6296L250.3 65.3081L249.02 65.5388L249.669 64.3669L258.571 48.98L258.569 49.5905C256.508 44.534 255.628 39.0739 255.995 33.6258C256.362 28.1777 257.967 22.8852 260.687 18.1508C263.408 13.4164 267.173 9.36497 271.695 6.30476C276.217 3.24456 281.378 1.2562 286.785 0.490995C292.191 -0.274208 297.701 0.203902 302.895 1.88894C308.089 3.57397 312.83 6.42154 316.758 10.215C320.685 14.0084 323.696 18.6477 325.561 23.78C327.425 28.9122 328.094 34.4022 327.518 39.8321L327.482 39.8319ZM327.482 39.8319C328.057 34.4831 327.399 29.0738 325.558 24.0189C323.717 18.9641 320.743 14.398 316.864 10.6711C312.984 6.94413 308.303 4.15533 303.178 2.51863C298.054 0.88194 292.622 0.440833 287.301 1.22918C282.024 1.99898 276.993 3.96683 272.595 6.98189C268.244 10.0224 264.603 13.9677 261.921 18.5474C259.281 23.1506 257.715 28.2909 257.341 33.5841C256.996 38.8879 257.841 44.2018 259.815 49.1366L259.943 49.454L259.766 49.7352L250.771 65.0514L250.14 64.1101L267.946 61.6782L268.193 61.679L268.368 61.8439C273.104 66.3063 278.989 69.3619 285.364 70.6686C286.954 70.9934 288.566 71.1948 290.187 71.2711C291.805 71.3878 293.429 71.393 295.048 71.2867C298.297 71.0491 301.497 70.3559 304.553 69.2273C307.624 68.1282 310.517 66.5828 313.138 64.6408C314.451 63.6713 315.709 62.6288 316.905 61.5181C318.059 60.364 319.141 59.1403 320.145 57.8537C324.214 52.6422 326.754 46.4029 327.482 39.8319Z" fill="white"/>
<path d="M311.958 37.1637C311.958 38.0165 311.705 38.8499 311.23 39.5585C310.756 40.2672 310.082 40.8191 309.294 41.1445C308.506 41.4699 307.639 41.5542 306.803 41.3865C305.966 41.2189 305.199 40.807 304.597 40.2029C303.995 39.5988 303.586 38.8298 303.422 37.9931C303.257 37.1563 303.344 36.2896 303.673 35.5026C304.001 34.7156 304.555 34.0437 305.266 33.572C305.976 33.1003 306.811 32.85 307.663 32.8527C308.229 32.853 308.788 32.9648 309.31 33.1817C309.832 33.3987 310.306 33.7165 310.705 34.1169C311.104 34.5174 311.421 34.9927 311.636 35.5155C311.851 36.0383 311.96 36.5984 311.958 37.1637Z" fill="#3D0072"/>
<path d="M296.532 37.1149C296.531 37.9681 296.277 38.802 295.803 39.5109C295.328 40.2198 294.653 40.7718 293.864 41.0968C293.075 41.4219 292.208 41.5054 291.371 41.3368C290.535 41.1683 289.767 40.7552 289.166 40.1499C288.565 39.5447 288.156 38.7745 287.993 37.937C287.83 37.0995 287.919 36.2325 288.249 35.4457C288.579 34.6589 289.136 33.9878 289.847 33.5175C290.559 33.0472 291.395 32.7989 292.248 32.8039C293.388 32.8076 294.479 33.2638 295.283 34.0723C296.086 34.8807 296.535 35.9752 296.532 37.1149Z" fill="#3D0072"/>
<path d="M281.116 37.0651C281.116 37.9178 280.862 38.7512 280.388 39.4599C279.914 40.1685 279.24 40.7205 278.452 41.0459C277.663 41.3713 276.796 41.4555 275.96 41.2879C275.124 41.1203 274.357 40.7084 273.755 40.1043C273.153 39.5002 272.744 38.7311 272.579 37.8944C272.415 37.0577 272.502 36.191 272.83 35.404C273.159 34.617 273.713 33.9451 274.424 33.4734C275.134 33.0017 275.968 32.7513 276.821 32.754C277.962 32.7577 279.055 33.2136 279.86 34.0217C280.665 34.8298 281.117 35.9243 281.116 37.0651Z" fill="#3D0072"/>
<mask id="mask0_579_13166" style="mask-type:alpha" maskUnits="userSpaceOnUse" x="0" y="58" width="210" height="211">
<path d="M210 163.246C210 221.236 162.99 268.246 105 268.246C47.0101 268.246 0 221.236 0 163.246C0 105.256 47.0101 58.2461 105 58.2461C162.99 58.2461 210 105.256 210 163.246Z" fill="white"/>
</mask>
<g mask="url(#mask0_579_13166)">
<path d="M183.814 251.824C177.041 233.617 135.602 224.922 128.347 219.644C119.032 212.867 121.998 190.431 121.998 190.431L106.756 190.832L91.5153 190.431C91.5153 190.431 94.4811 212.872 85.1662 219.644C77.9108 224.922 36.4714 233.617 29.6993 251.824C22.9218 270.031 20.3844 286.123 20.3844 286.123H105.916H107.608H193.139C193.128 286.123 190.591 270.031 183.814 251.824Z" fill="#965450"/>
<path d="M88.6868 215.464C95.8213 214.734 102.994 213.289 109.206 209.813C113.737 207.281 117.812 204.287 121.597 200.921C121.371 195.154 121.992 190.425 121.992 190.425L106.751 190.826L91.5098 190.425C91.5098 190.425 93.6189 206.396 88.6868 215.464Z" fill="#76413B"/>
<path d="M185.016 251.572C178.415 233.837 139.172 225.06 129.978 219.694C122.717 223.918 113.858 226.406 104.29 226.406C95.9751 226.406 88.198 224.528 81.5359 221.265C68.6509 226.752 35.7465 235.468 29.7489 251.572C22.922 269.911 20.3625 286.124 20.3625 286.124H106.526H108.234H194.397C194.403 286.124 191.843 269.916 185.016 251.572Z" fill="#D13062"/>
<path d="M15.1442 254.981H196.291" stroke="#FFEEF6" stroke-width="1.00962" stroke-miterlimit="10"/>
<path d="M15.1442 265.686H196.291" stroke="#FFEEF6" stroke-width="1.00962" stroke-miterlimit="10"/>
<path d="M15.1442 244.282H196.291" stroke="#FFEEF6" stroke-width="1.00962" stroke-miterlimit="10"/>
<path d="M81.1568 155.443C78.6963 147.803 72.8634 149.572 72.3197 149.758C71.7485 149.824 65.7234 150.719 66.7615 158.678C67.8105 166.68 72.4515 171.019 76.8069 169.745C81.2886 169.031 83.6339 163.127 81.1568 155.443Z" fill="#76413B"/>
<path d="M131.582 155.443C134.042 147.803 139.875 149.572 140.419 149.758C140.99 149.824 147.015 150.719 145.977 158.678C144.928 166.68 140.287 171.019 135.932 169.745C131.45 169.031 129.105 163.127 131.582 155.443Z" fill="#76413B"/>
<path d="M136.668 143.426C133.619 109.945 108.162 111.818 105.762 112.071C103.362 111.818 77.9054 109.945 74.8571 143.426C71.7869 177.111 86.7919 199.107 105.762 197.899C124.733 199.107 139.738 177.111 136.668 143.426Z" fill="#965450"/>
<path d="M107.448 171.768C108.492 170.318 109.761 169.087 111.123 167.95L111.051 168.165L110.195 161.519C109.931 159.3 109.645 157.087 109.398 154.862C109.783 157.065 110.134 159.267 110.502 161.475L111.54 168.093L111.557 168.203C110.315 169.538 108.992 170.779 107.448 171.768Z" fill="#76413B"/>
<path d="M89.9225 155.362C89.9225 157.883 90.8562 159.926 92.0151 159.926C93.1685 159.926 94.1077 157.883 94.1077 155.362C94.1077 152.841 93.174 150.798 92.0151 150.798C90.8562 150.798 89.9225 152.841 89.9225 155.362Z" fill="#352C38"/>
<path d="M118.653 155.362C118.653 157.883 119.587 159.926 120.745 159.926C121.899 159.926 122.838 157.883 122.838 155.362C122.838 152.841 121.904 150.798 120.745 150.798C119.587 150.798 118.653 152.841 118.653 155.362Z" fill="#352C38"/>
<path d="M84.7927 147.892C88.3297 142.296 95.651 141.247 99.3583 147.288C94.2285 142.823 89.7522 143.817 84.7927 147.892Z" fill="#352C38"/>
<path d="M113.721 147.892C117.258 142.296 124.579 141.247 128.286 147.288C123.156 142.823 118.68 143.817 113.721 147.892Z" fill="#352C38"/>
<path d="M93.0148 176.645L121.229 176.376C121.229 176.376 108.964 187.756 93.0148 176.645Z" fill="white"/>
<path d="M73.0776 124.231C73.0776 124.231 71.3695 166.104 76.2082 185.756C79.8551 200.552 90.4497 204.556 90.4497 204.556C90.4497 204.556 115.517 214.239 129.473 198.575C133.493 194.065 139.727 170.377 136.876 127.933L126.622 123.66C126.622 123.66 128.33 144.453 133.46 147.018C133.46 147.018 131.95 184.179 125.485 188.606C120.075 192.308 129.187 171.514 118.647 171.8C108.108 172.085 107.822 172.371 107.822 172.371C107.822 172.371 89.0217 169.24 89.3073 176.644C89.5929 184.048 91.5866 188.892 89.0217 188.892C86.4568 188.892 77.0595 182.911 78.7676 143.888C78.7676 143.888 84.1775 141.894 84.1775 128.224C84.183 110.242 73.0776 124.231 73.0776 124.231Z" fill="#352C38"/>
<path d="M92.8845 178.388L119.649 178.105C119.649 178.105 108.948 188.636 92.8845 178.388Z" fill="white"/>
<path d="M83.0461 121.957C83.0461 121.957 91.2406 133.068 100.989 133.068C106.399 133.068 100.989 123.671 100.989 123.671C100.989 123.671 108.679 135.633 116.654 135.348C124.628 135.062 117.79 123.671 117.79 123.671C117.79 123.671 123.772 135.919 131.181 135.348C138.584 134.777 132.318 122.814 132.318 122.814C132.318 122.814 135.734 135.633 142.857 133.925C149.981 132.217 141.149 121.106 141.149 121.106C141.149 121.106 147.13 126.802 149.695 126.516C152.26 126.23 152.26 118.541 143.429 114.839C143.429 114.839 152.26 114.554 152.546 110.281C152.87 105.442 147.136 103.728 134.031 105.151C134.031 105.151 144.857 100.592 142.577 96.605C140.298 92.6176 130.615 98.3131 130.615 98.3131C130.615 98.3131 140.298 92.9032 134.602 88.6301C129.928 85.126 105.548 85.2139 90.7354 102.872C90.7354 102.872 121.498 86.6364 117.796 84.3571C115.182 82.7479 78.3777 90.9699 72.792 106.574C65.9541 125.659 71.0839 136.485 73.2918 149.479L83.0461 121.957Z" fill="#352C38"/>
</g>
</svg>
