<svg width="58" height="58" viewBox="0 0 58 58" fill="none" xmlns="http://www.w3.org/2000/svg">
<g filter="url(#filter0_d_684_14029)">
<circle cx="29" cy="25" r="18" fill="#D6ABFC"/>
<circle cx="29" cy="25" r="18" stroke="#FFEAFA"/>
</g>
<g clip-path="url(#clip0_684_14029)">
<path d="M25.9062 35.6703V30.7109L22.2046 33.4422C23.2468 34.4125 24.5046 35.1672 25.9062 35.6703ZM33.0937 35.6703C34.4952 35.1672 35.753 34.4125 36.7952 33.4422L33.0937 30.675V35.6703ZM19.3296 29.0938C19.4374 29.4531 19.5812 29.7766 19.7608 30.1359L21.1624 29.0938H19.3296ZM37.8374 29.0938L39.239 30.1359C39.3827 29.8125 39.5265 29.4531 39.6702 29.0938H37.8374Z" fill="#2A5F9E"/>
<path d="M26.4455 27.6562H18.9346C19.0424 28.1594 19.1861 28.6266 19.3299 29.0937H21.1627L19.7611 30.1359C20.0486 30.7469 20.3721 31.2859 20.7674 31.825L24.4689 29.0937H25.9064V29.8125L21.7018 32.9031L22.2049 33.4062L25.9064 30.7109V35.6703C26.3736 35.85 26.8408 35.9578 27.3439 36.0656V27.6562H26.4455ZM40.0658 27.6562H31.6564V36.0656C32.1596 35.9578 32.6268 35.8141 33.0939 35.6703V30.7109L36.7955 33.4062C37.2986 32.9391 37.7299 32.4359 38.1611 31.8969L34.3158 29.0937H36.7596L38.9518 30.7109C39.0596 30.5312 39.1674 30.3156 39.2393 30.1359L37.8377 29.0937H39.6705C39.8143 28.6266 39.958 28.1594 40.0658 27.6562Z" fill="white"/>
<path d="M20.7671 31.825C21.0546 32.2203 21.3421 32.5797 21.6655 32.9391L25.9062 29.8484V29.1297H24.4687L20.7671 31.825ZM34.3515 29.0938L38.1968 31.8969C38.3405 31.7172 38.4483 31.5375 38.5921 31.3578C38.628 31.3219 38.628 31.2859 38.664 31.2859C38.7718 31.1062 38.9155 30.8906 39.0233 30.7109L36.7593 29.0938H34.3515Z" fill="#ED4C5C"/>
<path d="M33.0937 15.3301V20.2895L36.7952 17.5582C35.753 16.5879 34.4952 15.8332 33.0937 15.3301ZM25.9062 15.3301C24.5046 15.8332 23.2468 16.5879 22.2046 17.5582L25.9062 20.3254V15.3301ZM39.6702 21.9066C39.5624 21.5473 39.4187 21.2238 39.239 20.8645L37.8374 21.9066H39.6702ZM21.1624 21.9066L19.7608 20.8645C19.6171 21.2238 19.4733 21.5473 19.3296 21.9066H21.1624Z" fill="#2A5F9E"/>
<path d="M32.5549 23.3439H40.0299C39.9221 22.8408 39.7783 22.3736 39.6346 21.9064H37.8018L39.2033 20.8643C38.9158 20.2533 38.5924 19.7143 38.1971 19.1752L34.5314 21.9064H33.0939V21.1877L37.2986 18.0971L36.7955 17.5939L33.0939 20.2893V15.3299C32.6268 15.1502 32.1596 15.0424 31.6564 14.9346V23.3439H32.5549ZM18.9346 23.3439H27.3439V14.9346C26.8408 15.0424 26.3736 15.1861 25.9064 15.3299V20.2893L22.2049 17.5939C21.7018 18.0611 21.2705 18.5643 20.8393 19.1033L24.6846 21.9064H22.2408L20.0486 20.2893C19.9408 20.4689 19.833 20.6846 19.7611 20.8643L21.1627 21.9064H19.3299C19.1861 22.3736 19.0424 22.8408 18.9346 23.3439Z" fill="white"/>
<path d="M38.233 19.1746C37.9455 18.7793 37.658 18.4199 37.3346 18.0605L33.0939 21.1512V21.8699H34.5314L38.233 19.1746ZM24.6486 21.9059L20.8393 19.1027C20.6955 19.2824 20.5877 19.4621 20.4439 19.6418C20.408 19.6777 20.408 19.7137 20.3721 19.7137C20.2643 19.8934 20.1205 20.109 20.0127 20.2887L22.2049 21.9059H24.6486Z" fill="#ED4C5C"/>
<path d="M40.0656 23.3438H31.6562V14.9344C30.9734 14.7906 30.2547 14.7188 29.5 14.7188C28.7453 14.7188 28.0266 14.7906 27.3438 14.9344V23.3438H18.9344C18.7906 24.0266 18.7188 24.7453 18.7188 25.5C18.7188 26.2547 18.7906 26.9734 18.9344 27.6562H27.3438V36.0656C28.0266 36.2094 28.7453 36.2812 29.5 36.2812C30.2547 36.2812 30.9734 36.2094 31.6562 36.0656V27.6562H40.0656C40.2094 26.9734 40.2812 26.2547 40.2812 25.5C40.2812 24.7453 40.2094 24.0266 40.0656 23.3438Z" fill="#ED4C5C"/>
</g>
<defs>
<filter id="filter0_d_684_14029" x="0.5" y="0.5" width="57" height="57" filterUnits="userSpaceOnUse" color-interpolation-filters="sRGB">
<feFlood flood-opacity="0" result="BackgroundImageFix"/>
<feColorMatrix in="SourceAlpha" type="matrix" values="0 0 0 0 0 0 0 0 0 0 0 0 0 0 0 0 0 0 127 0" result="hardAlpha"/>
<feOffset dy="4"/>
<feGaussianBlur stdDeviation="5"/>
<feComposite in2="hardAlpha" operator="out"/>
<feColorMatrix type="matrix" values="0 0 0 0 0.533333 0 0 0 0 0.027451 0 0 0 0 0.968627 0 0 0 0.07 0"/>
<feBlend mode="normal" in2="BackgroundImageFix" result="effect1_dropShadow_684_14029"/>
<feBlend mode="normal" in="SourceGraphic" in2="effect1_dropShadow_684_14029" result="shape"/>
</filter>
<clipPath id="clip0_684_14029">
<rect width="23" height="23" fill="white" transform="translate(18 14)"/>
</clipPath>
</defs>
</svg>
