<svg width="58" height="58" viewBox="0 0 58 58" fill="none" xmlns="http://www.w3.org/2000/svg">
<g filter="url(#filter0_d_684_14026)">
<circle cx="29" cy="25" r="18" fill="#D6ABFC"/>
<circle cx="29" cy="25" r="18" stroke="#FFEAFA"/>
</g>
<g clip-path="url(#clip0_684_14026)">
<path d="M34 17.0625C32.5312 16.1562 30.8438 15.625 29 15.625V17.0625H34Z" fill="#ED4C5C"/>
<path d="M29 18.5H35.75C35.2187 17.9687 34.625 17.4688 34 17.0625H29V18.5Z" fill="white"/>
<path d="M29 19.9375H36.9062C36.5625 19.4063 36.1875 18.9375 35.7812 18.5H29V19.9375Z" fill="#ED4C5C"/>
<path d="M29 21.375H37.6562C37.4375 20.875 37.1875 20.375 36.9062 19.9375H29V21.375Z" fill="white"/>
<path d="M29 22.8125H38.125C38 22.3125 37.8438 21.8438 37.6562 21.375H29V22.8125Z" fill="#ED4C5C"/>
<path d="M29 24.2813H38.3438C38.3125 23.7813 38.2187 23.3125 38.125 22.8438H29V24.2813Z" fill="white"/>
<path d="M38.3438 24.2812H29V25H19.625C19.625 25.25 19.625 25.4687 19.6562 25.7187H38.3438C38.375 25.4687 38.375 25.25 38.375 25C38.375 24.75 38.375 24.5 38.3438 24.2812Z" fill="#ED4C5C"/>
<path d="M19.875 27.1563H38.125C38.25 26.6875 38.3125 26.2188 38.3438 25.7188H19.6562C19.6875 26.1875 19.75 26.6875 19.875 27.1563Z" fill="white"/>
<path d="M20.3438 28.5937H37.6562C37.8438 28.125 38 27.6562 38.125 27.1562H19.875C20 27.6562 20.1563 28.125 20.3438 28.5937Z" fill="#ED4C5C"/>
<path d="M21.0937 30.0312H36.9062C37.1875 29.5625 37.4375 29.0938 37.6562 28.5938H20.3438C20.5625 29.0938 20.8125 29.5625 21.0937 30.0312Z" fill="white"/>
<path d="M22.2188 31.4688H35.7812C36.1875 31.0313 36.5938 30.5312 36.9062 30.0312H21.0938C21.4062 30.5625 21.8125 31.0313 22.2188 31.4688Z" fill="#ED4C5C"/>
<path d="M23.9687 32.9062H34.0312C34.6875 32.5 35.25 32 35.7812 31.4688H22.2188C22.75 32.0312 23.3437 32.5 23.9687 32.9062Z" fill="white"/>
<path d="M29 34.375C30.8438 34.375 32.5625 33.8438 34.0312 32.9062H23.9688C25.4375 33.8438 27.1562 34.375 29 34.375Z" fill="#ED4C5C"/>
<path d="M24 17.0625C23.3438 17.4688 22.75 17.9688 22.2188 18.5C21.7812 18.9375 21.4062 19.4375 21.0938 19.9375C20.8125 20.4062 20.5313 20.875 20.3438 21.375C20.1563 21.8438 20 22.3125 19.875 22.8125C19.75 23.2812 19.6875 23.75 19.6562 24.25C19.625 24.5 19.625 24.75 19.625 25H29V15.625C27.1562 15.625 25.4688 16.1562 24 17.0625Z" fill="#428BC1"/>
<path d="M26.8125 15.9375L26.9688 16.4062H27.4375L27.0625 16.7188L27.1875 17.1875L26.8125 16.9062L26.4375 17.1875L26.5625 16.7188L26.1875 16.4062H26.6562L26.8125 15.9375ZM28.0625 17.8125L28.2188 18.2812H28.6875L28.3125 18.5938L28.4375 19.0625L28.0625 18.7812L27.6875 19.0625L27.8125 18.5938L27.4375 18.2812H27.9062L28.0625 17.8125ZM25.5625 17.8125L25.7188 18.2812H26.1875L25.8125 18.5938L25.9375 19.0625L25.5625 18.7812L25.1875 19.0625L25.3125 18.5938L24.9375 18.2812H25.4062L25.5625 17.8125ZM26.8125 19.6875L26.9688 20.1562H27.4375L27.0625 20.4688L27.1875 20.9375L26.8125 20.6562L26.4375 20.9375L26.5625 20.4688L26.1875 20.1562H26.6562L26.8125 19.6875ZM24.3125 19.6875L24.4688 20.1562H24.9375L24.5625 20.4688L24.6875 20.9375L24.3125 20.6562L23.9375 20.9375L24.0625 20.4688L23.6875 20.1562H24.1562L24.3125 19.6875ZM21.8125 19.6875L21.9688 20.1562H22.4375L22.0625 20.4688L22.1875 20.9375L21.8125 20.6562L21.4375 20.9375L21.5625 20.4688L21.1875 20.1562H21.6562L21.8125 19.6875ZM28.0625 21.5625L28.2188 22.0312H28.6875L28.3125 22.3438L28.4375 22.8125L28.0625 22.5312L27.6875 22.8125L27.8125 22.3438L27.4375 22.0312H27.9062L28.0625 21.5625ZM25.5625 21.5625L25.7188 22.0312H26.1875L25.8125 22.3438L25.9375 22.8125L25.5625 22.5312L25.1875 22.8125L25.3125 22.3438L24.9375 22.0312H25.4062L25.5625 21.5625ZM23.0625 21.5625L23.2188 22.0312H23.6875L23.3125 22.3438L23.4375 22.8125L23.0625 22.5312L22.6875 22.8125L22.8125 22.3438L22.4375 22.0312H22.9062L23.0625 21.5625ZM26.8125 23.4375L26.9688 23.9062H27.4375L27.0625 24.2188L27.1875 24.6875L26.8125 24.4062L26.4375 24.6875L26.5625 24.2188L26.1875 23.9062H26.6562L26.8125 23.4375ZM24.3125 23.4375L24.4688 23.9062H24.9375L24.5625 24.2188L24.6875 24.6875L24.3125 24.4062L23.9375 24.6875L24.0625 24.2188L23.6875 23.9062H24.1562L24.3125 23.4375ZM21.8125 23.4375L21.9688 23.9062H22.4375L22.0625 24.2188L22.1875 24.6875L21.8125 24.4062L21.4375 24.6875L21.5625 24.2188L21.1875 23.9062H21.6562L21.8125 23.4375ZM22.6875 19.0625L23.0625 18.7812L23.4375 19.0625L23.2812 18.5938L23.6562 18.2812H23.1875L23.0625 17.8125L22.9062 18.2812H22.4688L22.8438 18.5625L22.6875 19.0625ZM20.1875 22.8125L20.5625 22.5312L20.9375 22.8125L20.7812 22.3438L21.1562 22.0312H20.7188L20.5625 21.5625L20.4062 22.0312H20.0937C20.0937 22.0625 20.0625 22.0937 20.0625 22.125L20.3125 22.3125L20.1875 22.8125Z" fill="white"/>
</g>
<defs>
<filter id="filter0_d_684_14026" x="0.5" y="0.5" width="57" height="57" filterUnits="userSpaceOnUse" color-interpolation-filters="sRGB">
<feFlood flood-opacity="0" result="BackgroundImageFix"/>
<feColorMatrix in="SourceAlpha" type="matrix" values="0 0 0 0 0 0 0 0 0 0 0 0 0 0 0 0 0 0 127 0" result="hardAlpha"/>
<feOffset dy="4"/>
<feGaussianBlur stdDeviation="5"/>
<feComposite in2="hardAlpha" operator="out"/>
<feColorMatrix type="matrix" values="0 0 0 0 0.533333 0 0 0 0 0.027451 0 0 0 0 0.968627 0 0 0 0.07 0"/>
<feBlend mode="normal" in2="BackgroundImageFix" result="effect1_dropShadow_684_14026"/>
<feBlend mode="normal" in="SourceGraphic" in2="effect1_dropShadow_684_14026" result="shape"/>
</filter>
<clipPath id="clip0_684_14026">
<rect width="20" height="20" fill="white" transform="translate(19 15)"/>
</clipPath>
</defs>
</svg>
