<svg width="182" height="181" viewBox="0 0 182 181" fill="none" xmlns="http://www.w3.org/2000/svg">
<g filter="url(#filter0_i_1227_16115)">
<path d="M181.455 90.5C181.455 140.482 140.937 181 90.9551 181C40.9733 181 0.455078 140.482 0.455078 90.5C0.455078 40.5182 40.9733 0 90.9551 0C140.937 0 181.455 40.5182 181.455 90.5Z" fill="white"/>
</g>
<mask id="mask0_1227_16115" style="mask-type:alpha" maskUnits="userSpaceOnUse" x="0" y="0" width="182" height="181">
<circle cx="90.9551" cy="90.5" r="90.5" fill="#D9D9D9"/>
</mask>
<g mask="url(#mask0_1227_16115)">
<path d="M162.262 147.807C156.021 131.046 117.886 123.044 111.204 118.188C102.625 111.947 105.362 91.2954 105.362 91.2954L91.3289 91.6625L77.2955 91.2954C77.2955 91.2954 80.0225 111.958 71.4534 118.188C64.7723 123.044 26.626 131.046 20.3959 147.807C14.1553 164.567 11.8164 179.377 11.8164 179.377H170.841C170.841 179.377 168.503 164.567 162.262 147.807Z" fill="#965450"/>
<path d="M74.6953 114.338C81.261 113.667 87.8687 112.335 93.5849 109.136C97.7488 106.808 101.504 104.049 104.996 100.955C104.787 95.6481 105.363 91.2954 105.363 91.2954L91.3299 91.6625L77.2964 91.2954C77.2964 91.2954 79.2368 106 74.6953 114.338Z" fill="#76413B"/>
<path d="M163.646 147.576C161.359 141.44 154.836 136.469 147.127 132.389C133.355 141.786 113.847 147.66 92.1885 147.66C70.53 147.66 51.0215 141.786 37.2503 132.389C29.5413 136.469 23.007 141.43 20.7206 147.576C14.438 164.462 12.0781 179.377 12.0781 179.377H172.288C172.288 179.377 169.929 164.452 163.646 147.576Z" fill="#E6356D"/>
<path d="M125.248 168.117C130.792 168.117 135.286 163.623 135.286 158.08C135.286 152.536 130.792 148.042 125.248 148.042C119.705 148.042 115.211 152.536 115.211 158.08C115.211 163.623 119.705 168.117 125.248 168.117Z" fill="#352C38"/>
<path d="M89.9554 168.117C95.4989 168.117 99.9928 163.623 99.9928 158.08C99.9928 152.536 95.4989 148.042 89.9554 148.042C84.4119 148.042 79.918 152.536 79.918 158.08C79.918 163.623 84.4119 168.117 89.9554 168.117Z" fill="#352C38"/>
<path d="M54.6741 168.117C60.2176 168.117 64.7115 163.623 64.7115 158.08C64.7115 152.536 60.2176 148.042 54.6741 148.042C49.1306 148.042 44.6367 152.536 44.6367 158.08C44.6367 163.623 49.1306 168.117 54.6741 168.117Z" fill="#352C38"/>
<path d="M19.3792 168.117C24.9227 168.117 29.4166 163.623 29.4166 158.08C29.4166 152.536 24.9227 148.042 19.3792 148.042C13.8357 148.042 9.3418 152.536 9.3418 158.08C9.3418 163.623 13.8357 168.117 19.3792 168.117Z" fill="#352C38"/>
<path d="M160.533 168.117C166.077 168.117 170.571 163.623 170.571 158.08C170.571 152.536 166.077 148.042 160.533 148.042C154.99 148.042 150.496 152.536 150.496 158.08C150.496 163.623 154.99 168.117 160.533 168.117Z" fill="#352C38"/>
<path d="M141.778 195.282C147.321 195.282 151.815 190.788 151.815 185.245C151.815 179.701 147.321 175.208 141.778 175.208C136.234 175.208 131.74 179.701 131.74 185.245C131.74 190.788 136.234 195.282 141.778 195.282Z" fill="#352C38"/>
<path d="M106.494 195.282C112.038 195.282 116.532 190.788 116.532 185.245C116.532 179.701 112.038 175.208 106.494 175.208C100.951 175.208 96.457 179.701 96.457 185.245C96.457 190.788 100.951 195.282 106.494 195.282Z" fill="#352C38"/>
<path d="M71.2015 195.282C76.745 195.282 81.2389 190.788 81.2389 185.245C81.2389 179.701 76.745 175.208 71.2015 175.208C65.658 175.208 61.1641 179.701 61.1641 185.245C61.1641 190.788 65.658 195.282 71.2015 195.282Z" fill="#352C38"/>
<path d="M35.9183 195.282C41.4618 195.282 45.9557 190.788 45.9557 185.245C45.9557 179.701 41.4618 175.208 35.9183 175.208C30.3748 175.208 25.8809 179.701 25.8809 185.245C25.8809 190.788 30.3748 195.282 35.9183 195.282Z" fill="#352C38"/>
<path d="M177.073 195.282C182.616 195.282 187.11 190.788 187.11 185.245C187.11 179.701 182.616 175.208 177.073 175.208C171.529 175.208 167.035 179.701 167.035 185.245C167.035 190.788 171.529 195.282 177.073 195.282Z" fill="#352C38"/>
<path d="M114.186 59.0854C116.452 52.0582 121.822 53.6839 122.325 53.8517C122.85 53.9146 128.398 54.7327 127.444 62.0641C126.479 69.4374 122.2 73.423 118.193 72.2483C114.071 71.598 111.91 66.1546 114.186 59.0854Z" fill="#76413B"/>
<path d="M118.863 48.0305C116.053 17.2051 92.6215 18.9357 90.4084 19.1664C88.1954 18.9357 64.7643 17.2051 61.9534 48.0305C59.132 79.0342 72.9348 99.2873 90.4084 98.1755C107.872 99.2873 121.685 79.0342 118.863 48.0305Z" fill="#965450"/>
<path d="M93.7642 58.5503C93.932 59.0432 94.0579 59.5467 94.1942 60.0501C94.3411 60.5536 94.4565 61.0465 94.5718 61.55C94.8026 62.5569 95.0018 63.5637 95.1802 64.5811C95.348 65.5985 95.5158 66.6054 95.6416 67.6332C95.778 68.6506 95.8829 69.6785 95.9773 70.6959L95.9983 70.9581L95.8304 71.0944C95.2116 71.6188 94.5823 72.1433 93.9425 72.6467C93.2818 73.1292 92.6524 73.6536 91.9707 74.1046C92.4637 73.4438 93.0195 72.846 93.5335 72.2167C94.0789 71.6084 94.6243 71 95.1802 70.4127L95.0438 70.8217C94.8445 69.8148 94.6557 68.7975 94.4984 67.7801C94.3306 66.7627 94.2152 65.7453 94.0894 64.728C93.974 63.7106 93.8796 62.6827 93.8272 61.6549C93.7957 61.1409 93.7747 60.627 93.7642 60.1026C93.7642 59.5886 93.7432 59.0642 93.7642 58.5503Z" fill="#76413B"/>
<path d="M76.8477 78.6462L104.652 78.3525C104.652 78.3525 93.5347 89.2919 76.8477 78.6462Z" fill="white"/>
<path d="M83.9785 84.2364C83.9785 84.2364 84.2722 84.2993 84.7861 84.4357C85.3001 84.551 86.0133 84.8342 86.8943 84.9706C87.3348 85.044 87.7963 85.1279 88.2892 85.2328C88.7717 85.3691 89.3171 85.3272 89.852 85.4006C90.3974 85.453 90.9533 85.5265 91.5302 85.474C92.0965 85.453 92.6839 85.453 93.2503 85.4111C93.8166 85.3167 94.3935 85.2328 94.9494 85.1384C95.5158 85.0859 96.0402 84.8447 96.5646 84.7189C97.0785 84.551 97.6029 84.4566 98.0435 84.2154C98.4945 84.0056 98.935 83.8169 99.344 83.6386C99.7635 83.4812 100.089 83.2505 100.414 83.0722C100.728 82.8834 101.001 82.7261 101.221 82.5897C101.672 82.3275 101.956 82.1807 101.956 82.1807C101.956 82.1807 101.746 82.4009 101.368 82.768C101.169 82.9463 100.938 83.1666 100.666 83.4288C100.393 83.6805 100.099 84.0056 99.6901 84.2154C99.3021 84.4671 98.8825 84.7293 98.421 85.002C97.9805 85.3062 97.4456 85.4845 96.9002 85.6943C96.6275 85.7992 96.3443 85.904 96.0716 86.0089L95.6416 86.1663L95.1906 86.2502C94.5823 86.3551 93.974 86.4704 93.3656 86.5753C92.7468 86.6068 92.1175 86.5963 91.5092 86.6068C90.8904 86.6487 90.303 86.5124 89.7262 86.4285C89.1598 86.3236 88.5934 86.2816 88.09 86.0928C87.576 85.9355 87.1041 85.7677 86.674 85.6104C86.223 85.4845 85.8664 85.2852 85.5413 85.1069C85.2161 84.9286 84.933 84.7818 84.7022 84.6559C84.2407 84.4042 83.9785 84.2469 83.9785 84.2469V84.2364Z" fill="#76413B"/>
<path d="M75.8398 59.0223C75.8398 61.3402 76.6999 63.2281 77.7592 63.2281C78.8186 63.2281 79.6786 61.3507 79.6786 59.0223C79.6786 56.6938 78.8186 54.8164 77.7592 54.8164C76.6999 54.8164 75.8398 56.6938 75.8398 59.0223Z" fill="#352C38"/>
<path d="M102.281 59.0223C102.281 61.3402 103.141 63.2281 104.201 63.2281C105.26 63.2281 106.12 61.3507 106.12 59.0223C106.12 56.6938 105.26 54.8164 104.201 54.8164C103.141 54.8164 102.281 56.6938 102.281 59.0223Z" fill="#352C38"/>
<path d="M71.1094 52.142C71.1094 52.142 71.445 51.1351 72.4834 49.9604C72.7561 49.6877 73.0288 49.352 73.3958 49.0793C73.742 48.7857 74.13 48.5025 74.5705 48.2508C74.9901 47.9676 75.504 47.7998 75.997 47.59C76.5319 47.4641 77.0563 47.2753 77.6332 47.2544C77.9163 47.2334 78.1995 47.2229 78.4827 47.2124C78.7659 47.2334 79.0491 47.2858 79.3218 47.3173C79.8882 47.3487 80.3811 47.611 80.8741 47.7788C81.367 47.9571 81.7551 48.2927 82.1537 48.5339C82.5627 48.7647 82.8144 49.1423 83.1081 49.415C83.3808 49.6982 83.6325 49.9604 83.7794 50.2435C83.9577 50.5058 84.0835 50.7575 84.1989 50.9463C84.4192 51.3448 84.5135 51.5756 84.5135 51.5756C84.5135 51.5756 84.2723 51.4602 83.8842 51.2609C83.6955 51.156 83.4542 51.0302 83.213 50.8833C82.9718 50.7155 82.6571 50.6002 82.3424 50.4533C82.0173 50.3275 81.7131 50.1072 81.3356 50.0128C80.9685 49.9184 80.6119 49.7296 80.2238 49.6667C79.8357 49.6142 79.4477 49.4674 79.0491 49.4884C78.8498 49.4779 78.6505 49.4674 78.4513 49.4464L77.8429 49.4989C77.4339 49.4779 77.0353 49.6352 76.6158 49.6772C76.2172 49.8135 75.8082 49.8765 75.4201 50.0443C75.032 50.1806 74.6545 50.3275 74.2978 50.4953C73.9308 50.6421 73.6056 50.8309 73.27 50.9672C72.9553 51.1351 72.6617 51.2924 72.3994 51.4287C72.1372 51.5756 71.9065 51.7014 71.7177 51.8063C71.3296 52.0266 71.1094 52.142 71.1094 52.142Z" fill="#352C38"/>
<path d="M97.75 52.142C97.75 52.142 98.0856 51.1351 99.124 49.9604C99.3967 49.6877 99.6694 49.352 100.036 49.0793C100.383 48.7857 100.771 48.5025 101.211 48.2508C101.631 47.9676 102.145 47.7998 102.638 47.59C103.172 47.4641 103.697 47.2753 104.274 47.2544C104.557 47.2334 104.84 47.2229 105.123 47.2124C105.407 47.2334 105.69 47.2858 105.962 47.3173C106.529 47.3487 107.022 47.611 107.515 47.7788C108.008 47.9571 108.396 48.2927 108.794 48.5339C109.203 48.7647 109.455 49.1423 109.749 49.415C110.021 49.6982 110.273 49.9604 110.42 50.2435C110.598 50.5058 110.724 50.7575 110.84 50.9463C111.06 51.3448 111.154 51.5756 111.154 51.5756C111.154 51.5756 110.913 51.4602 110.525 51.2609C110.336 51.156 110.095 51.0302 109.854 50.8833C109.612 50.7155 109.298 50.6002 108.983 50.4533C108.658 50.3275 108.354 50.1072 107.976 50.0128C107.609 49.9184 107.252 49.7296 106.864 49.6667C106.476 49.6142 106.088 49.4674 105.69 49.4884C105.49 49.4779 105.291 49.4674 105.092 49.4464L104.484 49.4989C104.075 49.4779 103.676 49.6352 103.256 49.6772C102.858 49.8135 102.449 49.8765 102.061 50.0443C101.673 50.1806 101.295 50.3275 100.938 50.4953C100.571 50.6421 100.246 50.8309 99.9106 50.9672C99.596 51.1351 99.3023 51.2924 99.0401 51.4287C98.7779 51.5756 98.5471 51.7014 98.3583 51.8063C97.9703 52.0266 97.75 52.142 97.75 52.142Z" fill="#352C38"/>
<path d="M71.5044 24.2429C71.5044 24.2429 72.1966 43.7304 95.5123 47.202L87.5097 37.8044C87.5097 37.8044 98.6378 47.5482 111.171 46.1532C111.171 46.1532 109.43 39.8916 102.823 33.9762C102.823 33.9762 127.523 44.7582 111.864 91.3792C111.864 91.3792 129.956 68.7662 125.436 41.2761C120.055 8.61523 91.9882 5.3009 79.8531 11.3737C69.4172 16.5969 71.5044 24.2429 71.5044 24.2429Z" fill="#352C38"/>
<path d="M75.3348 16.9326C75.3348 16.9326 56.6969 11.3948 50.6346 38.5073C45.4114 61.823 55.8578 83.3871 73.9503 97.6513C73.9503 97.6513 63.5144 87.5615 62.8221 61.8125C62.1299 36.0635 78.1352 23.5403 84.0402 21.107C89.9556 18.6737 75.3453 16.9326 75.3453 16.9326H75.3348Z" fill="#352C38"/>
<path opacity="0.4" d="M125.437 41.2866C124.923 38.182 124.21 35.3607 123.319 32.77C121.819 39.0735 119.113 45.0729 115.368 50.7786C117.928 59.5679 118.19 72.542 111.865 91.3792C111.865 91.3792 129.958 68.7662 125.437 41.2761V41.2866Z" fill="#352C38"/>
<path opacity="0.4" d="M62.8129 61.8122C62.6555 56.0016 63.3583 50.8728 64.5959 46.3733C63.9981 46.0062 63.4002 45.6286 62.8234 45.2405C58.649 42.4611 54.7158 39.4824 51.821 35.329C51.7371 35.2031 51.6532 35.0668 51.5693 34.9409C51.2337 36.0632 50.9295 37.2379 50.6463 38.4965C45.4231 61.8122 55.8696 83.3763 73.962 97.6406C73.962 97.6406 63.5261 87.5507 62.8339 61.8017L62.8129 61.8122Z" fill="#352C38"/>
<path d="M56.2777 55.4668C55.0505 56.631 54.0646 58.6238 54.5156 62.0745C55.2393 67.5704 57.7985 71.1889 60.7142 72.1853C58.711 66.3642 57.3999 60.3019 56.2777 55.4773V55.4668Z" fill="#76413B"/>
</g>
<defs>
<filter id="filter0_i_1227_16115" x="0.455078" y="-8.54525" width="181" height="189.545" filterUnits="userSpaceOnUse" color-interpolation-filters="sRGB">
<feFlood flood-opacity="0" result="BackgroundImageFix"/>
<feBlend mode="normal" in="SourceGraphic" in2="BackgroundImageFix" result="shape"/>
<feColorMatrix in="SourceAlpha" type="matrix" values="0 0 0 0 0 0 0 0 0 0 0 0 0 0 0 0 0 0 127 0" result="hardAlpha"/>
<feOffset dy="-8.54525"/>
<feGaussianBlur stdDeviation="4.27263"/>
<feComposite in2="hardAlpha" operator="arithmetic" k2="-1" k3="1"/>
<feColorMatrix type="matrix" values="0 0 0 0 0.791667 0 0 0 0 0.791667 0 0 0 0 0.791667 0 0 0 0.25 0"/>
<feBlend mode="normal" in2="shape" result="effect1_innerShadow_1227_16115"/>
</filter>
</defs>
</svg>
