<svg width="81" height="74" viewBox="0 0 81 74" fill="none" xmlns="http://www.w3.org/2000/svg">
<g filter="url(#filter0_d_652_30711)">
<rect x="13" y="7.91309" width="55.3871" height="49" rx="9.73913" fill="white" shape-rendering="crispEdges"/>
<path d="M40.6039 20.6354C40.7648 20.4368 40.964 20.2716 41.1901 20.1495C41.4161 20.0273 41.6645 19.9506 41.9208 19.9238C42.1771 19.897 42.4362 19.9206 42.6832 19.9932C42.9302 20.0659 43.1601 20.1861 43.3597 20.347L49.7171 25.4686C50.0667 25.7502 50.3064 26.1428 50.3952 26.5793C50.4841 27.0158 50.4166 27.4693 50.2043 27.8622C49.6485 27.6946 49.0704 27.6097 48.4892 27.6103H47.9046L48.4853 26.9567L45.1371 24.2593L42.3755 27.6122H39.8633L43.6267 23.0443L42.126 21.835L37.4525 27.6103H34.9579L40.6039 20.6354ZM45.5659 37.223C45.3074 37.223 45.0596 37.3242 44.8768 37.5045C44.6941 37.6848 44.5914 37.9293 44.5914 38.1842C44.5914 38.4392 44.6941 38.6837 44.8768 38.8639C45.0596 39.0442 45.3074 39.1455 45.5659 39.1455H47.5148C47.7732 39.1455 48.0211 39.0442 48.2038 38.8639C48.3866 38.6837 48.4892 38.4392 48.4892 38.1842C48.4892 37.9293 48.3866 37.6848 48.2038 37.5045C48.0211 37.3242 47.7732 37.223 47.5148 37.223H45.5659ZM30.9489 28.5716C30.9489 28.3166 31.0516 28.0721 31.2343 27.8919C31.4171 27.7116 31.6649 27.6103 31.9234 27.6103H33.0109L34.5603 25.6878H31.9234C31.1481 25.6878 30.4045 25.9916 29.8562 26.5324C29.308 27.0732 29 27.8068 29 28.5716V40.1068C29 41.3815 29.5133 42.604 30.4271 43.5053C31.3408 44.4067 32.5801 44.9131 33.8723 44.9131H48.4892C49.523 44.9131 50.5145 44.508 51.2454 43.7869C51.9764 43.0658 52.3871 42.0878 52.3871 41.068V33.3779C52.3871 32.3581 51.9764 31.3801 51.2454 30.659C50.5145 29.9379 49.523 29.5328 48.4892 29.5328H31.9234C31.6649 29.5328 31.4171 29.4316 31.2343 29.2513C31.0516 29.071 30.9489 28.8265 30.9489 28.5716ZM30.9489 40.1068V31.292C31.253 31.3977 31.5823 31.4554 31.9234 31.4554H48.4892C49.0061 31.4554 49.5019 31.6579 49.8673 32.0185C50.2328 32.379 50.4382 32.868 50.4382 33.3779V41.068C50.4382 41.5779 50.2328 42.0669 49.8673 42.4275C49.5019 42.788 49.0061 42.9906 48.4892 42.9906H33.8723C33.097 42.9906 32.3534 42.6867 31.8052 42.1459C31.2569 41.6051 30.9489 40.8716 30.9489 40.1068Z" fill="#3D0072"/>
</g>
<defs>
<filter id="filter0_d_652_30711" x="0.826086" y="0.608737" width="79.7349" height="73.3478" filterUnits="userSpaceOnUse" color-interpolation-filters="sRGB">
<feFlood flood-opacity="0" result="BackgroundImageFix"/>
<feColorMatrix in="SourceAlpha" type="matrix" values="0 0 0 0 0 0 0 0 0 0 0 0 0 0 0 0 0 0 127 0" result="hardAlpha"/>
<feOffset dy="4.86957"/>
<feGaussianBlur stdDeviation="6.08696"/>
<feComposite in2="hardAlpha" operator="out"/>
<feColorMatrix type="matrix" values="0 0 0 0 0.533333 0 0 0 0 0.027451 0 0 0 0 0.968627 0 0 0 0.07 0"/>
<feBlend mode="normal" in2="BackgroundImageFix" result="effect1_dropShadow_652_30711"/>
<feBlend mode="normal" in="SourceGraphic" in2="effect1_dropShadow_652_30711" result="shape"/>
</filter>
</defs>
</svg>
