<svg width="32" height="32" viewBox="0 0 32 32" fill="none" xmlns="http://www.w3.org/2000/svg">
<path d="M15.9998 18.6666C15.6702 18.6666 15.348 18.7644 15.0739 18.9475C14.7998 19.1306 14.5862 19.3909 14.46 19.6955C14.3339 20 14.3009 20.3351 14.3652 20.6584C14.4295 20.9817 14.5882 21.2787 14.8213 21.5118C15.0544 21.7449 15.3514 21.9036 15.6747 21.9679C15.998 22.0322 16.3331 21.9992 16.6376 21.8731C16.9422 21.7469 17.2025 21.5333 17.3856 21.2592C17.5688 20.9852 17.6665 20.6629 17.6665 20.3333C17.6665 19.8913 17.4909 19.4673 17.1784 19.1548C16.8658 18.8422 16.4419 18.6666 15.9998 18.6666ZM15.9998 16.6666C16.3535 16.6666 16.6926 16.5261 16.9427 16.2761C17.1927 16.0261 17.3332 15.6869 17.3332 15.3333V11.3333C17.3332 10.9797 17.1927 10.6405 16.9427 10.3905C16.6926 10.1404 16.3535 9.99996 15.9998 9.99996C15.6462 9.99996 15.3071 10.1404 15.057 10.3905C14.807 10.6405 14.6665 10.9797 14.6665 11.3333V15.3333C14.6665 15.6869 14.807 16.0261 15.057 16.2761C15.3071 16.5261 15.6462 16.6666 15.9998 16.6666ZM15.9998 2.66663C13.3628 2.66663 10.7849 3.44861 8.59224 4.9137C6.39958 6.37878 4.69062 8.46116 3.68145 10.8975C2.67228 13.3339 2.40824 16.0147 2.92271 18.6012C3.43718 21.1876 4.70705 23.5633 6.57175 25.428C8.43645 27.2927 10.8122 28.5626 13.3986 29.0771C15.9851 29.5916 18.6659 29.3275 21.1023 28.3184C23.5386 27.3092 25.621 25.6002 27.0861 23.4076C28.5512 21.2149 29.3332 18.637 29.3332 16C29.3293 12.4649 27.9233 9.0758 25.4236 6.57616C22.924 4.07651 19.5349 2.67051 15.9998 2.66663ZM15.9998 26.6666C13.8902 26.6666 11.8279 26.041 10.0738 24.869C8.31964 23.6969 6.95246 22.031 6.14513 20.0819C5.33779 18.1328 5.12656 15.9881 5.53813 13.919C5.94971 11.8499 6.96561 9.94925 8.45737 8.45749C9.94913 6.96573 11.8497 5.94983 13.9189 5.53825C15.988 5.12667 18.1327 5.33791 20.0818 6.14524C22.0309 6.95258 23.6968 8.31975 24.8689 10.0739C26.0409 11.828 26.6665 13.8903 26.6665 16C26.663 18.8279 25.538 21.5389 23.5384 23.5385C21.5388 25.5382 18.8277 26.6631 15.9998 26.6666Z" fill="#ED3C3C"/>
</svg>
