<svg width="62" height="60" viewBox="0 0 62 60" fill="none" xmlns="http://www.w3.org/2000/svg">
<circle cx="27.4395" cy="27.4395" r="27.4395" fill="#3A006F" fill-opacity="0.17"/>
<circle cx="34.4395" cy="32.1639" r="27.4395" fill="#3A006F"/>
<path d="M40.3224 41.9778C39.4606 41.9778 38.25 41.6661 36.4372 40.6533C34.2327 39.4171 32.5276 38.2758 30.335 36.089C28.2211 33.9764 27.1924 32.6086 25.7526 29.9886C24.1261 27.0305 24.4034 25.4799 24.7133 24.8172C25.0824 24.0252 25.6272 23.5514 26.3314 23.0812C26.7314 22.8192 27.1547 22.5945 27.5959 22.4101C27.6401 22.3911 27.6811 22.373 27.7178 22.3567C27.9363 22.2582 28.2674 22.1095 28.6869 22.2684C28.9668 22.3735 29.2167 22.5885 29.6079 22.9748C30.4101 23.766 31.5064 25.5281 31.9108 26.3934C32.1823 26.9767 32.362 27.3617 32.3625 27.7935C32.3625 28.299 32.1081 28.6888 31.7995 29.1096C31.7417 29.1886 31.6843 29.2641 31.6287 29.3374C31.2927 29.7789 31.2189 29.9065 31.2675 30.1343C31.366 30.5922 32.1002 31.9551 33.3068 33.1591C34.5135 34.3631 35.8371 35.051 36.2968 35.149C36.5343 35.1998 36.6645 35.123 37.1202 34.7751C37.1855 34.7252 37.2526 34.6735 37.3228 34.6219C37.7935 34.2717 38.1652 34.024 38.6588 34.024H38.6615C39.0911 34.024 39.4588 34.2104 40.0681 34.5177C40.8628 34.9185 42.6779 36.0007 43.4739 36.8038C43.8611 37.1941 44.077 37.4431 44.1826 37.7226C44.3415 38.1433 44.1918 38.4731 44.0943 38.6939C44.0779 38.7305 44.0598 38.7707 44.0408 38.8153C43.855 39.2557 43.629 39.6781 43.3658 40.0772C42.8964 40.7792 42.4209 41.3226 41.6271 41.6922C41.2195 41.885 40.7733 41.9827 40.3224 41.9778Z" fill="white"/>
</svg>
