<svg width="183" height="188" viewBox="0 0 183 188" fill="none" xmlns="http://www.w3.org/2000/svg">
<path d="M80.8614 5.16341C80.8614 2.42581 78.6399 0.190517 75.9075 0.360279C62.9673 1.16427 50.3902 5.10859 39.278 11.8838C28.1658 18.6591 18.8992 28.0331 12.258 39.1682C10.8557 41.5194 11.8253 44.518 14.2589 45.7718L40.9505 59.5234C43.3841 60.7772 46.349 59.7987 47.8945 57.539C51.078 52.8841 55.2227 48.94 60.0697 45.9847C64.9167 43.0294 70.3211 41.1514 75.9172 40.4532C78.6337 40.1143 80.8614 37.9268 80.8614 35.1892V5.16341Z" fill="#E6356D"/>
<path d="M43.3726 25.9548V33.8857H41.6958V27.5464H41.6493L39.8331 28.6849V27.1979L41.7965 25.9548H43.3726ZM48.708 25.9548V33.8857H47.0312V27.5464H46.9847L45.1685 28.6849V27.1979L47.1319 25.9548H48.708ZM54.9341 32.3987V31.9804C54.9341 31.6629 55.0012 31.3712 55.1354 31.1053C55.2723 30.8368 55.4698 30.6225 55.7279 30.4624C55.9887 30.2998 56.3062 30.2184 56.6806 30.2184C57.0601 30.2184 57.3789 30.2985 57.6371 30.4585C57.8979 30.6186 58.0941 30.8329 58.2257 31.1014C58.36 31.3673 58.4271 31.6603 58.4271 31.9804V32.3987C58.4271 32.7162 58.36 33.0093 58.2257 33.2778C58.0915 33.5437 57.894 33.7567 57.6332 33.9167C57.3725 34.0794 57.0549 34.1607 56.6806 34.1607C56.3011 34.1607 55.9822 34.0794 55.7241 33.9167C55.4659 33.7567 55.2697 33.5437 55.1354 33.2778C55.0012 33.0093 54.9341 32.7162 54.9341 32.3987ZM56.061 31.9804V32.3987C56.061 32.582 56.1049 32.755 56.1926 32.9176C56.283 33.0803 56.4456 33.1616 56.6806 33.1616C56.9155 33.1616 57.0756 33.0815 57.1608 32.9215C57.2486 32.7614 57.2924 32.5871 57.2924 32.3987V31.9804C57.2924 31.792 57.2511 31.6164 57.1685 31.4538C57.0859 31.2911 56.9233 31.2098 56.6806 31.2098C56.4482 31.2098 56.2869 31.2911 56.1965 31.4538C56.1062 31.6164 56.061 31.792 56.061 31.9804ZM50.864 27.8601V27.4418C50.864 27.1217 50.9324 26.8287 51.0693 26.5628C51.2061 26.2943 51.4036 26.08 51.6618 25.9199C51.9225 25.7599 52.2375 25.6798 52.6067 25.6798C52.9888 25.6798 53.3089 25.7599 53.5671 25.9199C53.8252 26.08 54.0214 26.2943 54.1557 26.5628C54.2899 26.8287 54.3571 27.1217 54.3571 27.4418V27.8601C54.3571 28.1802 54.2886 28.4732 54.1518 28.7391C54.0176 29.005 53.8201 29.218 53.5593 29.3781C53.3011 29.5356 52.9836 29.6143 52.6067 29.6143C52.2297 29.6143 51.9109 29.5343 51.6501 29.3742C51.392 29.2116 51.1958 28.9986 51.0615 28.7353C50.9299 28.4693 50.864 28.1776 50.864 27.8601ZM51.9987 27.4418V27.8601C51.9987 28.0485 52.0426 28.2228 52.1303 28.3829C52.2207 28.5429 52.3795 28.623 52.6067 28.623C52.8442 28.623 53.0055 28.5429 53.0907 28.3829C53.1785 28.2228 53.2224 28.0485 53.2224 27.8601V27.4418C53.2224 27.2534 53.1811 27.0778 53.0985 26.9152C53.0159 26.7525 52.8519 26.6712 52.6067 26.6712C52.3769 26.6712 52.2181 26.7538 52.1303 26.919C52.0426 27.0843 51.9987 27.2585 51.9987 27.4418ZM51.3752 33.8857L56.8277 25.9548H57.8423L52.3898 33.8857H51.3752Z" fill="white"/>
<path d="M177.271 97.8544C180.009 97.8544 182.243 95.6333 182.089 92.9001C181.533 83.0183 179.315 73.2884 175.519 64.1226C171.089 53.4283 164.596 43.7112 156.411 35.5262C148.226 27.3411 138.509 20.8484 127.815 16.4187C118.649 12.622 108.919 10.4046 99.0373 9.84832C96.304 9.69445 94.0829 11.9282 94.0829 14.6658V39.1342C94.0829 41.8718 96.3068 44.0674 99.0328 44.3194C104.396 44.8153 109.664 46.1153 114.657 48.1836C121.18 50.8854 127.107 54.8456 132.099 59.838C137.092 64.8304 141.052 70.7572 143.754 77.2801C145.822 82.2735 147.122 87.5413 147.618 92.9045C147.87 95.6305 150.065 97.8544 152.803 97.8544H177.271Z" fill="#962DFF"/>
<path d="M137.094 56.3389V55.1306L139.917 52.5167C140.157 52.2843 140.359 52.0752 140.521 51.8893C140.686 51.7034 140.812 51.5214 140.897 51.3433C140.982 51.1626 141.025 50.9676 141.025 50.7585C141.025 50.5262 140.972 50.3261 140.866 50.1583C140.76 49.9879 140.615 49.8575 140.432 49.7672C140.249 49.6742 140.041 49.6277 139.809 49.6277C139.566 49.6277 139.354 49.6768 139.174 49.7749C138.993 49.873 138.853 50.0137 138.755 50.197C138.657 50.3803 138.608 50.5985 138.608 50.8515H137.017C137.017 50.3325 137.134 49.882 137.369 49.5C137.604 49.1179 137.933 48.8223 138.356 48.6131C138.78 48.404 139.268 48.2995 139.82 48.2995C140.388 48.2995 140.883 48.4001 141.303 48.6015C141.727 48.8003 142.056 49.0766 142.291 49.4302C142.526 49.7839 142.643 50.1893 142.643 50.6462C142.643 50.9457 142.584 51.2413 142.465 51.533C142.349 51.8248 142.141 52.1488 141.842 52.505C141.542 52.8587 141.12 53.2834 140.575 53.7791L139.418 54.9138V54.968H142.748V56.3389H137.094ZM143.673 54.9448V53.6242L146.984 48.4079H148.122V50.2357H147.448L145.361 53.539V53.601H150.066V54.9448H143.673ZM147.479 56.3389V54.542L147.51 53.9573V48.4079H149.082V56.3389H147.479ZM155.524 54.8518V54.4336C155.524 54.116 155.592 53.8243 155.726 53.5584C155.863 53.2899 156.06 53.0756 156.318 52.9155C156.579 52.7529 156.897 52.6716 157.271 52.6716C157.65 52.6716 157.969 52.7516 158.227 52.9117C158.488 53.0717 158.684 53.286 158.816 53.5545C158.95 53.8204 159.017 54.1134 159.017 54.4336V54.8518C159.017 55.1694 158.95 55.4624 158.816 55.7309C158.682 55.9968 158.484 56.2098 158.224 56.3698C157.963 56.5325 157.645 56.6138 157.271 56.6138C156.891 56.6138 156.573 56.5325 156.314 56.3698C156.056 56.2098 155.86 55.9968 155.726 55.7309C155.592 55.4624 155.524 55.1694 155.524 54.8518ZM156.651 54.4336V54.8518C156.651 55.0351 156.695 55.2081 156.783 55.3707C156.873 55.5334 157.036 55.6147 157.271 55.6147C157.506 55.6147 157.666 55.5347 157.751 55.3746C157.839 55.2145 157.883 55.0403 157.883 54.8518V54.4336C157.883 54.2451 157.842 54.0696 157.759 53.9069C157.676 53.7443 157.514 53.6629 157.271 53.6629C157.039 53.6629 156.877 53.7443 156.787 53.9069C156.697 54.0696 156.651 54.2451 156.651 54.4336ZM151.454 50.3132V49.895C151.454 49.5748 151.523 49.2818 151.66 49.0159C151.796 48.7474 151.994 48.5331 152.252 48.373C152.513 48.213 152.828 48.1329 153.197 48.1329C153.579 48.1329 153.899 48.213 154.157 48.373C154.416 48.5331 154.612 48.7474 154.746 49.0159C154.88 49.2818 154.947 49.5748 154.947 49.895V50.3132C154.947 50.6333 154.879 50.9263 154.742 51.1923C154.608 51.4582 154.41 51.6712 154.15 51.8312C153.892 51.9887 153.574 52.0674 153.197 52.0674C152.82 52.0674 152.501 51.9874 152.241 51.8274C151.982 51.6647 151.786 51.4517 151.652 51.1884C151.52 50.9225 151.454 50.6307 151.454 50.3132ZM152.589 49.895V50.3132C152.589 50.5016 152.633 50.6759 152.721 50.836C152.811 50.996 152.97 51.0761 153.197 51.0761C153.435 51.0761 153.596 50.996 153.681 50.836C153.769 50.6759 153.813 50.5016 153.813 50.3132V49.895C153.813 49.7065 153.771 49.5309 153.689 49.3683C153.606 49.2056 153.442 49.1243 153.197 49.1243C152.967 49.1243 152.808 49.2069 152.721 49.3722C152.633 49.5374 152.589 49.7117 152.589 49.895ZM151.966 56.3389L157.418 48.4079H158.433L152.98 56.3389H151.966Z" fill="white"/>
<path d="M92.1454 183.043C92.1454 185.781 94.367 188.014 97.1002 187.861C118.672 186.647 139.115 177.541 154.474 162.183C169.832 146.824 178.938 126.381 180.152 104.809C180.305 102.076 178.072 99.8544 175.334 99.8544H150.866C148.128 99.8544 145.932 102.079 145.681 104.805C144.53 117.248 139.071 128.962 130.162 137.871C121.253 146.78 109.539 152.239 97.0956 153.389C94.3697 153.641 92.1454 155.837 92.1454 158.575V183.043Z" fill="#FAC828"/>
<path d="M131.354 153.415V152.206L134.177 149.592C134.417 149.36 134.618 149.151 134.781 148.965C134.946 148.779 135.071 148.597 135.157 148.419C135.242 148.238 135.284 148.043 135.284 147.834C135.284 147.602 135.231 147.402 135.126 147.234C135.02 147.064 134.875 146.933 134.692 146.843C134.509 146.75 134.301 146.703 134.068 146.703C133.826 146.703 133.614 146.752 133.433 146.851C133.253 146.949 133.113 147.089 133.015 147.273C132.917 147.456 132.868 147.674 132.868 147.927H131.276C131.276 147.408 131.394 146.958 131.629 146.576C131.864 146.194 132.193 145.898 132.616 145.689C133.04 145.48 133.528 145.375 134.08 145.375C134.648 145.375 135.142 145.476 135.563 145.677C135.987 145.876 136.316 146.152 136.551 146.506C136.786 146.86 136.903 147.265 136.903 147.722C136.903 148.021 136.844 148.317 136.725 148.609C136.609 148.9 136.401 149.224 136.102 149.581C135.802 149.934 135.38 150.359 134.835 150.855L133.677 151.989V152.044H137.008V153.415H131.354ZM141.267 153.523C140.859 153.52 140.465 153.452 140.085 153.318C139.708 153.183 139.37 152.965 139.071 152.663C138.771 152.361 138.534 151.961 138.358 151.463C138.185 150.965 138.099 150.353 138.099 149.627C138.101 148.961 138.178 148.366 138.327 147.842C138.48 147.315 138.696 146.869 138.978 146.502C139.262 146.135 139.601 145.857 139.996 145.666C140.391 145.472 140.834 145.375 141.325 145.375C141.854 145.375 142.321 145.478 142.726 145.685C143.132 145.889 143.457 146.166 143.702 146.518C143.95 146.869 144.1 147.262 144.152 147.699H142.498C142.433 147.422 142.298 147.206 142.091 147.048C141.885 146.891 141.629 146.812 141.325 146.812C140.808 146.812 140.416 147.036 140.147 147.486C139.881 147.935 139.746 148.545 139.741 149.317H139.795C139.914 149.082 140.074 148.882 140.275 148.717C140.479 148.549 140.71 148.422 140.968 148.334C141.229 148.243 141.504 148.198 141.793 148.198C142.263 148.198 142.681 148.309 143.048 148.531C143.415 148.751 143.704 149.053 143.915 149.437C144.127 149.822 144.233 150.262 144.233 150.758C144.233 151.295 144.108 151.773 143.857 152.191C143.609 152.609 143.262 152.937 142.816 153.174C142.371 153.409 141.855 153.526 141.267 153.523ZM141.259 152.206C141.517 152.206 141.748 152.144 141.952 152.02C142.156 151.897 142.316 151.729 142.432 151.517C142.548 151.305 142.606 151.068 142.606 150.804C142.606 150.541 142.548 150.305 142.432 150.096C142.319 149.887 142.161 149.72 141.96 149.596C141.758 149.472 141.529 149.41 141.27 149.41C141.077 149.41 140.897 149.446 140.732 149.519C140.569 149.591 140.426 149.692 140.302 149.821C140.181 149.95 140.085 150.1 140.016 150.27C139.946 150.438 139.911 150.617 139.911 150.808C139.911 151.064 139.969 151.298 140.085 151.509C140.204 151.721 140.364 151.89 140.566 152.017C140.77 152.143 141.001 152.206 141.259 152.206ZM149.763 151.927V151.509C149.763 151.192 149.83 150.9 149.964 150.634C150.101 150.366 150.299 150.151 150.557 149.991C150.818 149.829 151.135 149.747 151.509 149.747C151.889 149.747 152.208 149.827 152.466 149.987C152.727 150.147 152.923 150.362 153.055 150.63C153.189 150.896 153.256 151.189 153.256 151.509V151.927C153.256 152.245 153.189 152.538 153.055 152.807C152.92 153.072 152.723 153.285 152.462 153.446C152.201 153.608 151.884 153.69 151.509 153.69C151.13 153.69 150.811 153.608 150.553 153.446C150.295 153.285 150.099 153.072 149.964 152.807C149.83 152.538 149.763 152.245 149.763 151.927ZM150.89 151.509V151.927C150.89 152.111 150.934 152.284 151.021 152.446C151.112 152.609 151.274 152.69 151.509 152.69C151.744 152.69 151.904 152.61 151.99 152.45C152.077 152.29 152.121 152.116 152.121 151.927V151.509C152.121 151.321 152.08 151.145 151.997 150.983C151.915 150.82 151.752 150.739 151.509 150.739C151.277 150.739 151.116 150.82 151.025 150.983C150.935 151.145 150.89 151.321 150.89 151.509ZM145.693 147.389V146.971C145.693 146.651 145.761 146.357 145.898 146.092C146.035 145.823 146.232 145.609 146.491 145.449C146.751 145.289 147.066 145.209 147.435 145.209C147.818 145.209 148.138 145.289 148.396 145.449C148.654 145.609 148.85 145.823 148.985 146.092C149.119 146.357 149.186 146.651 149.186 146.971V147.389C149.186 147.709 149.117 148.002 148.981 148.268C148.846 148.534 148.649 148.747 148.388 148.907C148.13 149.064 147.812 149.143 147.435 149.143C147.059 149.143 146.74 149.063 146.479 148.903C146.221 148.74 146.025 148.527 145.89 148.264C145.759 147.998 145.693 147.706 145.693 147.389ZM146.828 146.971V147.389C146.828 147.577 146.871 147.752 146.959 147.912C147.05 148.072 147.208 148.152 147.435 148.152C147.673 148.152 147.834 148.072 147.92 147.912C148.007 147.752 148.051 147.577 148.051 147.389V146.971C148.051 146.782 148.01 146.607 147.927 146.444C147.845 146.281 147.681 146.2 147.435 146.2C147.206 146.2 147.047 146.283 146.959 146.448C146.871 146.613 146.828 146.787 146.828 146.971ZM146.204 153.415L151.657 145.484H152.671L147.219 153.415H146.204Z" fill="white"/>
<path d="M15.6688 64.2076C13.1953 63.0346 10.2252 64.0843 9.19298 66.6198C4.24843 78.7658 2.06839 91.8831 2.83876 105.016C3.70604 119.801 8.28485 134.13 16.1523 146.678C24.0198 159.226 34.9222 169.589 47.8528 176.811C59.3384 183.226 72.0953 186.978 85.1822 187.819C87.9142 187.994 90.153 185.778 90.1746 183.04L90.3682 158.573C90.3899 155.835 88.1834 153.622 85.4595 153.349C78.1543 152.615 71.0583 150.39 64.6177 146.793C56.7308 142.388 50.081 136.067 45.2823 128.414C40.4837 120.76 37.6909 112.021 37.1619 103.003C36.7299 95.6384 37.8189 88.2821 40.3409 81.3868C41.2813 78.8158 40.2505 75.8656 37.777 74.6925L15.6688 64.2076Z" fill="#325BEE"/>
<path d="M25.2345 142.618C24.6562 142.618 24.1412 142.519 23.6894 142.32C23.2402 142.119 22.8852 141.842 22.6244 141.491C22.3663 141.138 22.2333 140.73 22.2255 140.268H23.914C23.9243 140.461 23.9876 140.632 24.1037 140.779C24.2225 140.923 24.38 141.036 24.5762 141.116C24.7724 141.196 24.9931 141.236 25.2384 141.236C25.494 141.236 25.7199 141.191 25.9161 141.1C26.1123 141.01 26.2659 140.885 26.3769 140.725C26.4879 140.564 26.5434 140.38 26.5434 140.171C26.5434 139.959 26.4841 139.772 26.3653 139.609C26.2491 139.444 26.0813 139.315 25.8619 139.222C25.645 139.129 25.3868 139.083 25.0874 139.083H24.3477V137.851H25.0874C25.3404 137.851 25.5637 137.807 25.7573 137.719C25.9535 137.632 26.1058 137.51 26.2143 137.355C26.3227 137.198 26.3769 137.015 26.3769 136.806C26.3769 136.607 26.3292 136.432 26.2336 136.283C26.1407 136.13 26.009 136.012 25.8386 135.926C25.6708 135.841 25.4746 135.799 25.25 135.799C25.0228 135.799 24.815 135.84 24.6265 135.923C24.4381 136.003 24.287 136.117 24.1734 136.267C24.0598 136.417 23.9992 136.593 23.9914 136.794H22.3843C22.3921 136.337 22.5224 135.934 22.7754 135.586C23.0285 135.237 23.3692 134.965 23.7978 134.769C24.2289 134.57 24.7156 134.47 25.2578 134.47C25.8051 134.47 26.284 134.57 26.6945 134.769C27.105 134.967 27.4238 135.236 27.651 135.574C27.8808 135.91 27.9944 136.287 27.9918 136.705C27.9944 137.149 27.8562 137.519 27.5774 137.816C27.3012 138.113 26.941 138.302 26.497 138.382V138.444C27.0804 138.518 27.5245 138.721 27.8291 139.052C28.1363 139.379 28.2887 139.79 28.2861 140.283C28.2887 140.735 28.1583 141.136 27.895 141.487C27.6342 141.839 27.2741 142.115 26.8145 142.316C26.355 142.518 25.8283 142.618 25.2345 142.618ZM32.361 134.47C32.7689 134.47 33.1613 134.539 33.5382 134.676C33.9177 134.812 34.2559 135.031 34.5528 135.33C34.8523 135.63 35.0885 136.027 35.2615 136.523C35.4371 137.016 35.5261 137.621 35.5287 138.339C35.5287 139.013 35.4526 139.614 35.3002 140.144C35.1505 140.67 34.9349 141.118 34.6535 141.487C34.3721 141.857 34.0326 142.138 33.635 142.332C33.2375 142.523 32.7934 142.618 32.3029 142.618C31.7736 142.618 31.3063 142.516 30.901 142.312C30.4957 142.106 30.1691 141.826 29.9213 141.472C29.676 141.116 29.5276 140.715 29.4759 140.271H31.1295C31.194 140.561 31.3296 140.785 31.5361 140.945C31.7427 141.103 31.9982 141.181 32.3029 141.181C32.8192 141.181 33.2116 140.957 33.4801 140.508C33.7486 140.056 33.8842 139.438 33.8868 138.653H33.8325C33.7138 138.885 33.5537 139.085 33.3523 139.253C33.151 139.418 32.9199 139.546 32.6592 139.636C32.401 139.727 32.126 139.772 31.8343 139.772C31.367 139.772 30.9501 139.662 30.5835 139.443C30.2169 139.223 29.9277 138.921 29.716 138.537C29.5043 138.152 29.3985 137.713 29.3985 137.22C29.3959 136.688 29.5185 136.214 29.7664 135.799C30.0142 135.383 30.3602 135.058 30.8042 134.823C31.2508 134.585 31.7698 134.468 32.361 134.47ZM32.3726 135.787C32.1118 135.787 31.8795 135.849 31.6755 135.973C31.4742 136.097 31.3141 136.263 31.1953 136.472C31.0792 136.682 31.0224 136.915 31.0249 137.173C31.0249 137.434 31.0817 137.669 31.1953 137.878C31.3115 138.085 31.469 138.25 31.6678 138.374C31.8692 138.495 32.0989 138.556 32.3571 138.556C32.5507 138.556 32.7302 138.52 32.8954 138.447C33.0606 138.375 33.2039 138.276 33.3252 138.149C33.4492 138.02 33.546 137.872 33.6157 137.704C33.6854 137.536 33.7202 137.358 33.7202 137.17C33.7176 136.919 33.6583 136.689 33.5421 136.48C33.4259 136.271 33.2659 136.103 33.0619 135.977C32.8579 135.85 32.6282 135.787 32.3726 135.787ZM41.0316 141.023V140.604C41.0316 140.287 41.0987 139.995 41.233 139.729C41.3698 139.461 41.5673 139.247 41.8255 139.086C42.0862 138.924 42.4038 138.842 42.7781 138.842C43.1576 138.842 43.4765 138.922 43.7346 139.083C43.9954 139.243 44.1916 139.457 44.3233 139.725C44.4575 139.991 44.5246 140.284 44.5246 140.604V141.023C44.5246 141.34 44.4575 141.633 44.3233 141.902C44.189 142.168 43.9915 142.381 43.7308 142.541C43.47 142.703 43.1525 142.785 42.7781 142.785C42.3986 142.785 42.0798 142.703 41.8216 142.541C41.5634 142.381 41.3672 142.168 41.233 141.902C41.0987 141.633 41.0316 141.34 41.0316 141.023ZM42.1585 140.604V141.023C42.1585 141.206 42.2024 141.379 42.2902 141.542C42.3805 141.704 42.5432 141.786 42.7781 141.786C43.0131 141.786 43.1731 141.706 43.2583 141.546C43.3461 141.385 43.39 141.211 43.39 141.023V140.604C43.39 140.416 43.3487 140.24 43.2661 140.078C43.1834 139.915 43.0208 139.834 42.7781 139.834C42.5458 139.834 42.3844 139.915 42.294 140.078C42.2037 140.24 42.1585 140.416 42.1585 140.604ZM36.9616 136.484V136.066C36.9616 135.746 37.03 135.453 37.1668 135.187C37.3036 134.918 37.5011 134.704 37.7593 134.544C38.02 134.384 38.335 134.304 38.7042 134.304C39.0863 134.304 39.4064 134.384 39.6646 134.544C39.9228 134.704 40.119 134.918 40.2532 135.187C40.3875 135.453 40.4546 135.746 40.4546 136.066V136.484C40.4546 136.804 40.3862 137.097 40.2493 137.363C40.1151 137.629 39.9176 137.842 39.6568 138.002C39.3987 138.16 39.0811 138.238 38.7042 138.238C38.3273 138.238 38.0084 138.158 37.7477 137.998C37.4895 137.836 37.2933 137.623 37.1591 137.359C37.0274 137.093 36.9616 136.802 36.9616 136.484ZM38.0962 136.066V136.484C38.0962 136.673 38.1401 136.847 38.2279 137.007C38.3182 137.167 38.477 137.247 38.7042 137.247C38.9417 137.247 39.1031 137.167 39.1883 137.007C39.276 136.847 39.3199 136.673 39.3199 136.484V136.066C39.3199 135.877 39.2786 135.702 39.196 135.539C39.1134 135.377 38.9495 135.295 38.7042 135.295C38.4744 135.295 38.3157 135.378 38.2279 135.543C38.1401 135.708 38.0962 135.883 38.0962 136.066ZM37.4727 142.51L42.9253 134.579H43.9399L38.4873 142.51H37.4727Z" fill="white"/>
</svg>
