<svg width="24" height="24" viewBox="0 0 24 24" fill="none" xmlns="http://www.w3.org/2000/svg">
<path d="M11.7507 1.91748C6.35153 1.91748 1.95898 6.21851 1.95898 11.5052V15.4773C1.95898 16.4591 2.8373 17.2578 3.91732 17.2578H4.89648C5.15618 17.2578 5.40523 17.1567 5.58886 16.9769C5.77249 16.7971 5.87565 16.5533 5.87565 16.299V11.368C5.87565 11.1138 5.77249 10.8699 5.58886 10.6901C5.40523 10.5103 5.15618 10.4093 4.89648 10.4093H4.0074C4.55182 6.69885 7.81244 3.83502 11.7507 3.83502C15.6889 3.83502 18.9495 6.69885 19.4939 10.4093H18.6048C18.3451 10.4093 18.0961 10.5103 17.9124 10.6901C17.7288 10.8699 17.6257 11.1138 17.6257 11.368V17.2578C17.6257 18.3153 16.7473 19.1753 15.6673 19.1753H13.709V18.2165H9.79232V21.0928H15.6673C17.8274 21.0928 19.584 19.3728 19.584 17.2578C20.664 17.2578 21.5423 16.4591 21.5423 15.4773V11.5052C21.5423 6.21851 17.1498 1.91748 11.7507 1.91748Z" fill="#3D0072"/>
</svg>
