<svg width="56" height="60" viewBox="0 0 56 60" fill="none" xmlns="http://www.w3.org/2000/svg">
<circle cx="27.4395" cy="27.4395" r="27.4395" fill="#3A006F" fill-opacity="0.17"/>
<circle cx="28.0001" cy="32.1639" r="27.4395" fill="#3A006F"/>
<path d="M28.2603 23.5046C22.8105 23.5046 18.3516 27.052 18.3516 31.4316C18.3764 32.4846 18.6336 33.5191 19.1046 34.4612C19.5757 35.4033 20.249 36.2297 21.0765 36.8814C21.0765 37.4759 20.6603 39.0316 18.3516 41.3403C20.6999 41.2313 22.9492 40.3495 24.7625 38.8631C25.8921 39.1901 27.0811 39.3586 28.2603 39.3586C33.7101 39.3586 38.169 35.8113 38.169 31.4316C38.169 27.052 33.7101 23.5046 28.2603 23.5046ZM28.2603 37.3768C23.8806 37.3768 20.3333 34.7114 20.3333 31.4316C20.3333 28.1518 23.8806 25.4864 28.2603 25.4864C32.6399 25.4864 36.1873 28.1518 36.1873 31.4316C36.1873 34.7114 32.6399 37.3768 28.2603 37.3768ZM33.2146 32.4225V30.4407H31.2329V32.4225H33.2146ZM29.2511 32.4225V30.4407H27.2694V32.4225H29.2511ZM25.2877 32.4225V30.4407H23.3059V32.4225H25.2877Z" fill="white"/>
</svg>
