<svg width="142" height="89" viewBox="0 0 142 89" fill="none" xmlns="http://www.w3.org/2000/svg">
<path d="M85.2755 0H52.9277V85.1222H85.2755V0Z" fill="#8807F7"/>
<path opacity="0.5" d="M85.379 0H61.2578V85.1222H85.379V0Z" fill="black"/>
<path d="M127.535 29.0208H95.1875V85.1173H127.535V29.0208Z" fill="#8807F7"/>
<path opacity="0.3" d="M127.535 28.8884H103.414V85.1221H127.535V28.8884Z" fill="black"/>
<path d="M42.8106 15.1792H10.4629V85.1173H42.8106V15.1792Z" fill="#8807F7"/>
<path opacity="0.4" d="M42.8106 15.0076H18.6895V85.1172H42.8106V15.0076Z" fill="black"/>
<path d="M23.0551 85.2104C23.011 86.254 26.3085 87.2389 30.4047 87.4153C34.5008 87.5917 37.8865 86.8861 37.9306 85.8425C37.9747 84.7988 34.6772 83.8189 30.581 83.6425C26.4849 83.4661 23.0992 84.1717 23.0551 85.2104Z" fill="#8807F7"/>
<path d="M23.1347 83.3197L23.0547 85.2043L37.9461 85.8363L38.0261 83.9516L23.1347 83.3197Z" fill="#8807F7"/>
<path d="M23.1332 83.3242C23.0892 84.3678 26.3866 85.3527 30.4828 85.529C34.5789 85.7054 37.9646 84.9999 38.0087 83.9562C38.0528 82.9126 34.7553 81.9327 30.6592 81.7563C26.563 81.5799 23.1773 82.2855 23.1332 83.3242Z" fill="#8807F7"/>
<path opacity="0.4" d="M23.1332 83.3242C23.0892 84.3678 26.3866 85.3527 30.4828 85.529C34.5789 85.7054 37.9646 84.9999 38.0087 83.9562C38.0528 82.9126 34.7553 81.9327 30.6592 81.7563C26.563 81.5799 23.1773 82.2855 23.1332 83.3242Z" fill="white"/>
<path d="M24.084 83.2947C24.084 83.3621 24.1064 83.4276 24.1477 83.4809C24.6377 82.8684 27.3668 82.5009 30.6202 82.643C33.8736 82.7851 36.5635 83.3731 36.9898 84.0247C37.0383 83.9767 37.0664 83.9117 37.0681 83.8435C37.0975 83.1379 34.2165 82.4323 30.6251 82.2805C27.0336 82.1286 24.1134 82.5891 24.084 83.2947Z" fill="#8807F7"/>
<path opacity="0.4" d="M24.084 83.2947C24.084 83.3621 24.1064 83.4276 24.1477 83.4809C24.6377 82.8684 27.3668 82.5009 30.6202 82.643C33.8736 82.7851 36.5635 83.3731 36.9898 84.0247C37.0383 83.9767 37.0664 83.9117 37.0681 83.8435C37.0975 83.1379 34.2165 82.4323 30.6251 82.2805C27.0336 82.1286 24.1134 82.5891 24.084 83.2947Z" fill="#8807F7"/>
<path opacity="0.4" d="M24.1484 83.4809C24.5943 84.1325 27.2744 84.7205 30.518 84.8577C33.7616 84.9949 36.5005 84.6372 36.9905 84.0247C36.5544 83.3731 33.8743 82.7851 30.6209 82.643C27.3675 82.5009 24.6482 82.8684 24.1484 83.4809Z" fill="#8807F7"/>
<path d="M21.4731 82.3537C21.429 83.3974 24.7265 84.3822 28.8226 84.5586C32.9188 84.735 36.3044 84.0294 36.3485 82.9907C36.3926 81.9519 33.0951 80.9622 28.999 80.7858C24.9029 80.6094 21.5368 81.315 21.4731 82.3537Z" fill="#8807F7"/>
<path d="M21.5741 80.473L21.4941 82.3577L36.3856 82.9896L36.4656 81.1049L21.5741 80.473Z" fill="#8807F7"/>
<path d="M21.5707 80.4726C21.5267 81.5114 24.8241 82.4962 28.9203 82.6726C33.0164 82.849 36.4021 82.1434 36.4462 81.1047C36.4903 80.066 33.1928 79.0762 29.0967 78.8998C25.0005 78.7234 21.6148 79.429 21.5707 80.4726Z" fill="#8807F7"/>
<path opacity="0.4" d="M21.5707 80.4726C21.5267 81.5114 24.8241 82.4962 28.9203 82.6726C33.0164 82.849 36.4021 82.1434 36.4462 81.1047C36.4903 80.066 33.1928 79.0762 29.0967 78.8998C25.0005 78.7234 21.6148 79.429 21.5707 80.4726Z" fill="white"/>
<path d="M22.5216 80.4383C22.5196 80.506 22.5422 80.5722 22.5853 80.6244C23.0753 80.012 25.8044 79.6445 29.0578 79.7915C32.3112 79.9385 35.0011 80.5166 35.4274 81.1683C35.472 81.1196 35.4995 81.0577 35.5058 80.9919C35.5352 80.2864 32.6542 79.5759 29.0627 79.424C25.4712 79.2721 22.551 79.7327 22.5216 80.4383Z" fill="#8807F7"/>
<path opacity="0.4" d="M22.5216 80.4383C22.5196 80.506 22.5422 80.5722 22.5853 80.6244C23.0753 80.012 25.8044 79.6445 29.0578 79.7915C32.3112 79.9385 35.0011 80.5166 35.4274 81.1683C35.472 81.1196 35.4995 81.0577 35.5058 80.9919C35.5352 80.2864 32.6542 79.5759 29.0627 79.424C25.4712 79.2721 22.551 79.7327 22.5216 80.4383Z" fill="#8807F7"/>
<path opacity="0.4" d="M22.5859 80.6244C23.0269 81.276 25.7119 81.864 28.9555 82.0012C32.1991 82.1384 34.938 81.7807 35.428 81.1682C34.9919 80.5166 32.3118 79.9286 29.0584 79.7914C25.805 79.6542 23.0808 80.0119 22.5859 80.6244Z" fill="#8807F7"/>
<path d="M21.6938 78.9143C21.6497 79.9579 24.9472 80.9427 29.0433 81.1191C33.1395 81.2955 36.5251 80.59 36.5692 79.5463C36.6133 78.5027 33.3158 77.5228 29.2197 77.3464C25.1236 77.17 21.7379 77.8755 21.6938 78.9143Z" fill="#8807F7"/>
<path d="M21.7753 77.0296L21.6953 78.9143L36.5868 79.5463L36.6667 77.6616L21.7753 77.0296Z" fill="#8807F7"/>
<path d="M21.7719 77.028C21.7278 78.0717 25.0253 79.0565 29.1214 79.2329C33.2176 79.4093 36.5984 78.7037 36.6425 77.665C36.6866 76.6263 33.3891 75.6365 29.2929 75.4601C25.1968 75.2838 21.816 75.9893 21.7719 77.028Z" fill="#8807F7"/>
<path opacity="0.4" d="M21.7719 77.028C21.7278 78.0717 25.0253 79.0565 29.1214 79.2329C33.2176 79.4093 36.5984 78.7037 36.6425 77.665C36.6866 76.6263 33.3891 75.6365 29.2929 75.4601C25.1968 75.2838 21.816 75.9893 21.7719 77.028Z" fill="white"/>
<path d="M22.7227 76.9986C22.7226 77.066 22.745 77.1315 22.7863 77.1847C23.2763 76.5723 26.0054 76.2048 29.2588 76.3518C32.5122 76.4988 35.2022 77.0769 35.6284 77.7286C35.6767 77.6824 35.7048 77.619 35.7068 77.5522C35.7362 76.8467 32.8552 76.1362 29.2637 75.9843C25.6723 75.8324 22.7521 76.293 22.7227 76.9986Z" fill="#8807F7"/>
<path opacity="0.4" d="M22.7227 76.9986C22.7226 77.066 22.745 77.1315 22.7863 77.1847C23.2763 76.5723 26.0054 76.2048 29.2588 76.3518C32.5122 76.4988 35.2022 77.0769 35.6284 77.7286C35.6767 77.6824 35.7048 77.619 35.7068 77.5522C35.7362 76.8467 32.8552 76.1362 29.2637 75.9843C25.6723 75.8324 22.7521 76.293 22.7227 76.9986Z" fill="#8807F7"/>
<path opacity="0.4" d="M22.7871 77.1846C23.233 77.8363 25.9131 78.4243 29.1567 78.5614C32.4003 78.6986 35.1392 78.341 35.6292 77.7285C35.1931 77.0768 32.513 76.4889 29.2596 76.3517C26.0062 76.2145 23.2869 76.582 22.7871 77.1846Z" fill="#8807F7"/>
<path d="M20.1313 76.0627C20.0872 77.1014 23.3847 78.0863 27.4808 78.2627C31.577 78.4391 34.9626 77.7335 35.0067 76.6948C35.0508 75.656 31.7533 74.6663 27.6572 74.4899C23.5611 74.3135 20.1754 75.0191 20.1313 76.0627Z" fill="#8807F7"/>
<path d="M20.2069 74.1634L20.127 76.0481L35.0184 76.68L35.0984 74.7954L20.2069 74.1634Z" fill="#8807F7"/>
<path d="M20.2075 74.1764C20.1634 75.2152 23.4609 76.2 27.557 76.3764C31.6531 76.5528 35.0388 75.8472 35.0829 74.8085C35.127 73.7698 31.8295 72.78 27.7334 72.6036C23.6372 72.4272 20.2516 73.1524 20.2075 74.1764Z" fill="#8807F7"/>
<path opacity="0.4" d="M20.2075 74.1764C20.1634 75.2152 23.4609 76.2 27.557 76.3764C31.6531 76.5528 35.0388 75.8472 35.0829 74.8085C35.127 73.7698 31.8295 72.78 27.7334 72.6036C23.6372 72.4272 20.2516 73.1524 20.2075 74.1764Z" fill="white"/>
<path d="M21.1585 74.1322C21.1555 74.2 21.1782 74.2665 21.2222 74.3184C21.7121 73.7059 24.4413 73.3384 27.6946 73.4854C30.948 73.6324 33.638 74.2106 34.0642 74.8622C34.1088 74.8135 34.1364 74.7516 34.1426 74.6858C34.172 73.9803 31.291 73.2698 27.6995 73.1179C24.1081 72.966 21.1879 73.4364 21.1585 74.1322Z" fill="#8807F7"/>
<path opacity="0.4" d="M21.1585 74.1322C21.1555 74.2 21.1782 74.2665 21.2222 74.3184C21.7121 73.7059 24.4413 73.3384 27.6946 73.4854C30.948 73.6324 33.638 74.2106 34.0642 74.8622C34.1088 74.8135 34.1364 74.7516 34.1426 74.6858C34.172 73.9803 31.291 73.2698 27.6995 73.1179C24.1081 72.966 21.1879 73.4364 21.1585 74.1322Z" fill="#8807F7"/>
<path opacity="0.4" d="M21.2227 74.3282C21.6636 74.9799 24.3487 75.5678 27.5922 75.705C30.8358 75.8422 33.5748 75.4845 34.0647 74.8721C33.6287 74.2204 30.9485 73.6325 27.6951 73.4953C24.4417 73.3581 21.7175 73.7157 21.2227 74.3282Z" fill="#8807F7"/>
<path d="M22.5161 73.6423C22.472 74.681 25.7695 75.6659 29.8656 75.8423C33.9617 76.0186 37.3474 75.3131 37.3915 74.2744C37.4356 73.2356 34.1381 72.2459 30.042 72.0695C25.9458 71.8931 22.5602 72.5987 22.5161 73.6423Z" fill="#8807F7"/>
<path d="M22.5995 71.7552L22.5195 73.6399L37.411 74.2718L37.4909 72.3872L22.5995 71.7552Z" fill="#8807F7"/>
<path d="M22.5981 71.7559C22.554 72.7946 25.8515 73.7794 29.9476 73.9558C34.0438 74.1322 37.4294 73.4267 37.4735 72.3879C37.5176 71.3492 34.2201 70.3595 30.124 70.1831C26.0279 70.0067 22.6422 70.7024 22.5981 71.7559Z" fill="#8807F7"/>
<path opacity="0.4" d="M22.5981 71.7559C22.554 72.7946 25.8515 73.7794 29.9476 73.9558C34.0438 74.1322 37.4294 73.4267 37.4735 72.3879C37.5176 71.3492 34.2201 70.3595 30.124 70.1831C26.0279 70.0067 22.6422 70.7024 22.5981 71.7559Z" fill="white"/>
<path d="M23.5449 71.7217C23.5466 71.7888 23.5688 71.8538 23.6086 71.9079C24.0986 71.2954 26.8326 70.9279 30.0811 71.0749C33.3296 71.2219 36.0293 71.8001 36.4507 72.4517C36.4984 72.4046 36.5279 72.3421 36.534 72.2754C36.5634 71.5698 33.6824 70.8594 30.0909 70.7075C26.4994 70.5556 23.5792 71.0161 23.5449 71.7217Z" fill="#8807F7"/>
<path opacity="0.4" d="M23.5449 71.7217C23.5466 71.7888 23.5688 71.8538 23.6086 71.9079C24.0986 71.2954 26.8326 70.9279 30.0811 71.0749C33.3296 71.2219 36.0293 71.8001 36.4507 72.4517C36.4984 72.4046 36.5279 72.3421 36.534 72.2754C36.5634 71.5698 33.6824 70.8594 30.0909 70.7075C26.4994 70.5556 23.5792 71.0161 23.5449 71.7217Z" fill="#8807F7"/>
<path opacity="0.4" d="M23.6094 71.9078C24.0552 72.5594 26.7354 73.1474 29.979 73.2846C33.2226 73.4218 35.9664 73.0641 36.4515 72.4517C36.0203 71.8 33.3353 71.212 30.0819 71.0749C26.8285 70.9377 24.1091 71.2953 23.6094 71.9078Z" fill="#8807F7"/>
<path d="M20.9536 70.7857C20.9095 71.8244 24.207 72.8142 28.3031 72.9857C32.3992 73.1572 35.7849 72.4565 35.829 71.4178C35.8731 70.379 32.5756 69.3893 28.4795 69.2129C24.3833 69.0365 20.983 69.7225 20.9536 70.7857Z" fill="#8807F7"/>
<path d="M21.0312 68.8936L20.9512 70.7783L35.8426 71.4103L35.9226 69.5256L21.0312 68.8936Z" fill="#8807F7"/>
<path d="M21.0317 68.8994C20.9876 69.9381 24.2851 70.9279 28.3812 71.0994C32.4774 71.2708 35.863 70.5751 35.9071 69.5314C35.9512 68.4878 32.6537 67.503 28.5576 67.3266C24.4615 67.1502 21.0758 67.8558 21.0317 68.8994Z" fill="#8807F7"/>
<path opacity="0.4" d="M21.0317 68.8994C20.9876 69.9381 24.2851 70.9279 28.3812 71.0994C32.4774 71.2708 35.863 70.5751 35.9071 69.5314C35.9512 68.4878 32.6537 67.503 28.5576 67.3266C24.4615 67.1502 21.0758 67.8558 21.0317 68.8994Z" fill="white"/>
<path d="M21.963 68.8652C21.9614 68.9329 21.9839 68.9989 22.0267 69.0514C22.5166 68.439 25.2458 68.0715 28.4991 68.2185C31.7525 68.3655 34.4425 68.9436 34.8687 69.6002C34.9165 69.5516 34.9444 69.487 34.9471 69.4189C34.9765 68.7133 32.0955 68.0078 28.5041 67.851C24.9126 67.6942 22.012 68.1597 21.963 68.8652Z" fill="#8807F7"/>
<path opacity="0.4" d="M21.963 68.8652C21.9614 68.9329 21.9839 68.9989 22.0267 69.0514C22.5166 68.439 25.2458 68.0715 28.4991 68.2185C31.7525 68.3655 34.4425 68.9436 34.8687 69.6002C34.9165 69.5516 34.9444 69.487 34.9471 69.4189C34.9765 68.7133 32.0955 68.0078 28.5041 67.851C24.9126 67.6942 22.012 68.1597 21.963 68.8652Z" fill="#8807F7"/>
<path opacity="0.4" d="M22.0449 69.0514C22.4908 69.703 25.1709 70.291 28.4145 70.4331C31.6581 70.5752 34.397 70.2126 34.887 69.6001C34.4509 68.9436 31.7708 68.3556 28.5174 68.2184C25.264 68.0812 22.5447 68.4389 22.0449 69.0514Z" fill="#8807F7"/>
<path d="M0.850148 84.2992C0.801152 85.3428 4.09864 86.3277 8.19968 86.4991C12.3007 86.6706 15.6766 85.9749 15.7207 84.9312C15.7648 83.8876 12.4722 82.9028 8.37116 82.7313C4.27013 82.5598 0.894246 83.2556 0.850148 84.2992Z" fill="#8807F7"/>
<path d="M0.925683 82.4034L0.845703 84.2881L15.7371 84.92L15.8171 83.0354L0.925683 82.4034Z" fill="#8807F7"/>
<path d="M0.928172 82.4127C0.884074 83.4563 4.18156 84.4412 8.2777 84.6176C12.3738 84.7939 15.7595 84.0884 15.8036 83.0448C15.8477 82.0011 12.5502 81.0163 8.45409 80.8448C4.35795 80.6733 0.972269 81.3691 0.928172 82.4127Z" fill="#8807F7"/>
<path opacity="0.4" d="M0.928172 82.4127C0.884074 83.4563 4.18156 84.4412 8.2777 84.6176C12.3738 84.7939 15.7595 84.0884 15.8036 83.0448C15.8477 82.0011 12.5502 81.0163 8.45409 80.8448C4.35795 80.6733 0.972269 81.3691 0.928172 82.4127Z" fill="white"/>
<path d="M1.8735 82.3784C1.86948 82.4464 1.89236 82.5133 1.93719 82.5646C2.42716 81.9521 5.15629 81.5847 8.40968 81.7317C11.6631 81.8786 14.353 82.4617 14.7793 83.1134C14.8239 83.0628 14.8514 82.9993 14.8577 82.9321C14.8871 82.2265 12.006 81.521 8.41458 81.3691C4.82311 81.2172 1.9078 81.6728 1.8735 82.3784Z" fill="#8807F7"/>
<path opacity="0.4" d="M1.8735 82.3784C1.86948 82.4464 1.89236 82.5133 1.93719 82.5646C2.42716 81.9521 5.15629 81.5847 8.40968 81.7317C11.6631 81.8786 14.353 82.4617 14.7793 83.1134C14.8239 83.0628 14.8514 82.9993 14.8577 82.9321C14.8871 82.2265 12.006 81.521 8.41458 81.3691C4.82311 81.2172 1.9078 81.6728 1.8735 82.3784Z" fill="#8807F7"/>
<path opacity="0.4" d="M1.94336 82.5647C2.38433 83.2164 5.06936 83.8093 8.31295 83.9465C11.5565 84.0836 14.2955 83.726 14.7854 83.1135C14.3494 82.4618 11.6692 81.869 8.41584 81.7318C5.16245 81.5946 2.43823 81.9719 1.94336 82.5647Z" fill="#8807F7"/>
<path d="M7.32823 82.4619C7.08324 83.4761 10.1357 85.0685 14.1388 86.019C18.1418 86.9696 21.5863 86.9206 21.8264 85.9063C22.0665 84.8921 19.014 83.2997 15.0109 82.3492C11.0079 81.3986 7.56831 81.4476 7.32823 82.4619Z" fill="#8807F7"/>
<path d="M7.76269 80.636L7.32617 82.4712L21.8265 85.9203L22.263 84.0851L7.76269 80.636Z" fill="#8807F7"/>
<path d="M7.75401 80.6244C7.50902 81.6386 10.5615 83.231 14.5646 84.1864C18.5676 85.1419 22.0121 85.088 22.2522 84.0738C22.4923 83.0595 19.4545 81.4818 15.4465 80.5019C11.4386 79.5219 8.00389 79.6101 7.75401 80.6244Z" fill="#8807F7"/>
<path opacity="0.4" d="M7.75401 80.6244C7.50902 81.6386 10.5615 83.231 14.5646 84.1864C18.5676 85.1419 22.0121 85.088 22.2522 84.0738C22.4923 83.0595 19.4545 81.4818 15.4465 80.5019C11.4386 79.5219 8.00389 79.6101 7.75401 80.6244Z" fill="white"/>
<path d="M8.69972 80.7714C8.68523 80.8381 8.69569 80.9079 8.72912 80.9674C9.33178 80.4774 12.0756 80.6244 15.2408 81.379C18.406 82.1335 20.9391 83.2212 21.2429 83.9415C21.2983 83.9025 21.3381 83.8453 21.3556 83.7798C21.5173 83.0939 18.8225 81.8542 15.3241 81.0213C11.8257 80.1883 8.86631 80.0855 8.69972 80.7714Z" fill="#8807F7"/>
<path opacity="0.4" d="M8.69972 80.7714C8.68523 80.8381 8.69569 80.9079 8.72912 80.9674C9.33178 80.4774 12.0756 80.6244 15.2408 81.379C18.406 82.1335 20.9391 83.2212 21.2429 83.9415C21.2983 83.9025 21.3381 83.8453 21.3556 83.7798C21.5173 83.0939 18.8225 81.8542 15.3241 81.0213C11.8257 80.1883 8.86631 80.0855 8.69972 80.7714Z" fill="#8807F7"/>
<path opacity="0.4" d="M8.73242 80.9918C9.046 81.717 11.5644 82.8047 14.7345 83.5544C17.9046 84.304 20.6485 84.4755 21.2462 83.966C20.9424 83.2457 18.4191 82.158 15.2441 81.4034C12.0691 80.6489 9.33018 80.4578 8.73242 80.9918Z" fill="#8807F7"/>
<path d="M26.2243 70.1637C29.9315 70.1637 32.9369 67.1583 32.9369 63.4511C32.9369 59.7439 29.9315 56.7385 26.2243 56.7385C22.517 56.7385 19.5117 59.7439 19.5117 63.4511C19.5117 67.1583 22.517 70.1637 26.2243 70.1637Z" fill="#8807F7"/>
<path d="M27.029 70.1637C30.7362 70.1637 33.7415 67.1583 33.7415 63.4511C33.7415 59.7439 30.7362 56.7385 27.029 56.7385C23.3217 56.7385 20.3164 59.7439 20.3164 63.4511C20.3164 67.1583 23.3217 70.1637 27.029 70.1637Z" fill="#8807F7"/>
<path opacity="0.5" d="M27.029 70.1637C30.7362 70.1637 33.7415 67.1583 33.7415 63.4511C33.7415 59.7439 30.7362 56.7385 27.029 56.7385C23.3217 56.7385 20.3164 59.7439 20.3164 63.4511C20.3164 67.1583 23.3217 70.1637 27.029 70.1637Z" fill="white"/>
<path d="M30.584 67.0054C32.5472 65.0422 32.5472 61.8592 30.584 59.896C28.6208 57.9328 25.4378 57.9328 23.4746 59.896C21.5114 61.8592 21.5114 65.0422 23.4746 67.0054C25.4378 68.9686 28.6208 68.9686 30.584 67.0054Z" fill="#8807F7"/>
<path d="M121.069 86.1315C121.03 87.1702 117.669 87.8954 113.553 87.7484C109.437 87.6014 106.14 86.6361 106.174 85.5974C106.208 84.5587 109.579 83.8286 113.69 83.9756C117.801 84.1226 121.108 85.0878 121.069 86.1315Z" fill="#8807F7"/>
<path d="M106.235 83.6949L106.168 85.5801L121.063 86.1132L121.131 84.2281L106.235 83.6949Z" fill="#8807F7"/>
<path d="M121.137 84.2453C121.098 85.284 117.737 86.0091 113.621 85.8621C109.506 85.7152 106.208 84.7499 106.242 83.7112C106.277 82.6724 109.643 81.9424 113.759 82.0894C117.874 82.2364 121.177 83.2016 121.137 84.2453Z" fill="#8807F7"/>
<path opacity="0.4" d="M121.137 84.2453C121.098 85.284 117.737 86.0091 113.621 85.8621C109.506 85.7152 106.208 84.7499 106.242 83.7112C106.277 82.6724 109.643 81.9424 113.759 82.0894C117.874 82.2364 121.177 83.2016 121.137 84.2453Z" fill="white"/>
<path d="M120.191 84.1373C120.188 84.2054 120.161 84.27 120.113 84.3186C119.667 83.667 116.982 83.0937 113.743 82.981C110.505 82.8683 107.761 83.2407 107.276 83.8531C107.233 83.8024 107.208 83.7384 107.207 83.6718C107.236 82.9663 110.147 82.4861 113.753 82.6135C117.359 82.7409 120.216 83.4416 120.191 84.1373Z" fill="#8807F7"/>
<path opacity="0.4" d="M120.191 84.1373C120.188 84.2054 120.161 84.27 120.113 84.3186C119.667 83.667 116.982 83.0937 113.743 82.981C110.505 82.8683 107.761 83.2407 107.276 83.8531C107.233 83.8024 107.208 83.7384 107.207 83.6718C107.236 82.9663 110.147 82.4861 113.753 82.6135C117.359 82.7409 120.216 83.4416 120.191 84.1373Z" fill="#8807F7"/>
<path opacity="0.4" d="M120.115 84.3187C119.625 84.9312 116.9 85.2986 113.647 85.1909C110.394 85.0831 107.699 84.5049 107.277 83.8532C107.767 83.2408 110.482 82.8733 113.745 82.9811C117.008 83.0889 119.669 83.6671 120.115 84.3187Z" fill="#8807F7"/>
<path d="M122.852 83.4073C122.813 84.446 119.452 85.1712 115.336 85.0242C111.22 84.8772 107.923 83.912 107.957 82.8683C107.992 81.8247 111.363 81.1045 115.473 81.2515C119.584 81.3984 122.896 82.3637 122.852 83.4073Z" fill="#8807F7"/>
<path d="M108.035 80.9976L107.967 82.8828L122.862 83.4186L122.93 81.5334L108.035 80.9976Z" fill="#8807F7"/>
<path d="M122.921 81.5211C122.882 82.5598 119.52 83.285 115.405 83.138C111.289 82.991 107.987 82.0258 108.026 80.9821C108.065 79.9385 111.426 79.2182 115.542 79.3652C119.658 79.5122 122.955 80.5019 122.921 81.5211Z" fill="#8807F7"/>
<path opacity="0.4" d="M122.921 81.5211C122.882 82.5598 119.52 83.285 115.405 83.138C111.289 82.991 107.987 82.0258 108.026 80.9821C108.065 79.9385 111.426 79.2182 115.542 79.3652C119.658 79.5122 122.955 80.5019 122.921 81.5211Z" fill="white"/>
<path d="M121.976 81.4132C121.974 81.48 121.946 81.5433 121.898 81.5896C121.452 80.9428 118.767 80.3696 115.528 80.2569C112.29 80.1442 109.541 80.5166 109.061 81.129C109.018 81.0783 108.994 81.0143 108.992 80.9477C109.022 80.2422 111.932 79.762 115.538 79.8894C119.144 80.0168 122.001 80.7076 121.976 81.4132Z" fill="#8807F7"/>
<path opacity="0.4" d="M121.976 81.4132C121.974 81.48 121.946 81.5433 121.898 81.5896C121.452 80.9428 118.767 80.3696 115.528 80.2569C112.29 80.1442 109.541 80.5166 109.061 81.129C109.018 81.0783 108.994 81.0143 108.992 80.9477C109.022 80.2422 111.932 79.762 115.538 79.8894C119.144 80.0168 122.001 80.7076 121.976 81.4132Z" fill="#8807F7"/>
<path opacity="0.4" d="M121.917 81.5894C121.427 82.2068 118.703 82.5694 115.45 82.4665C112.196 82.3636 109.501 81.7805 109.08 81.1289C109.57 80.5164 112.284 80.1489 115.548 80.2567C118.811 80.3645 121.452 80.9427 121.917 81.5894Z" fill="#8807F7"/>
<path d="M122.921 79.9581C122.882 81.0017 119.515 81.7269 115.405 81.5799C111.294 81.4329 107.987 80.4676 108.026 79.424C108.065 78.3804 111.426 77.6601 115.542 77.8071C119.658 77.9541 122.955 78.9194 122.921 79.9581Z" fill="#8807F7"/>
<path d="M108.097 77.5516L108.029 79.4368L122.925 79.9725L122.992 78.0874L108.097 77.5516Z" fill="#8807F7"/>
<path d="M122.989 78.0521C122.95 79.0957 119.584 79.8209 115.473 79.6739C111.362 79.5269 108.055 78.5616 108.094 77.518C108.133 76.4744 111.494 75.7541 115.605 75.9011C119.716 76.0481 123.023 77.0329 122.989 78.0521Z" fill="#8807F7"/>
<path opacity="0.4" d="M122.989 78.0521C122.95 79.0957 119.584 79.8209 115.473 79.6739C111.362 79.5269 108.055 78.5616 108.094 77.518C108.133 76.4744 111.494 75.7541 115.605 75.9011C119.716 76.0481 123.023 77.0329 122.989 78.0521Z" fill="white"/>
<path d="M122.044 77.9688C122.038 78.0345 122.01 78.0965 121.965 78.1452C121.515 77.4984 118.83 76.9251 115.596 76.8075C112.362 76.69 109.613 77.0672 109.128 77.6846C109.086 77.6321 109.063 77.5661 109.065 77.4984C109.065 76.7929 112.004 76.3176 115.611 76.445C119.217 76.5724 122.068 77.2632 122.044 77.9688Z" fill="#8807F7"/>
<path opacity="0.4" d="M122.044 77.9688C122.038 78.0345 122.01 78.0965 121.965 78.1452C121.515 77.4984 118.83 76.9251 115.596 76.8075C112.362 76.69 109.613 77.0672 109.128 77.6846C109.086 77.6321 109.063 77.5661 109.065 77.4984C109.065 76.7929 112.004 76.3176 115.611 76.445C119.217 76.5724 122.068 77.2632 122.044 77.9688Z" fill="#8807F7"/>
<path opacity="0.4" d="M121.964 78.1453C121.474 78.7626 118.75 79.1252 115.497 79.0223C112.243 78.9194 109.548 78.3363 109.127 77.6847C109.617 77.0673 112.331 76.7047 115.595 76.8076C118.858 76.9105 121.513 77.4985 121.964 78.1453Z" fill="#8807F7"/>
<path d="M124.704 77.2339C124.665 78.2776 121.299 79.0027 117.188 78.8558C113.077 78.7088 109.77 77.7435 109.809 76.6999C109.848 75.6563 113.209 74.936 117.325 75.083C121.441 75.23 124.738 76.1952 124.704 77.2339Z" fill="#8807F7"/>
<path d="M109.864 74.8045L109.797 76.6897L124.692 77.2229L124.76 75.3377L109.864 74.8045Z" fill="#8807F7"/>
<path d="M124.767 75.3472C124.733 76.3909 121.367 77.116 117.256 76.969C113.145 76.822 109.838 75.8568 109.877 74.8132C109.916 73.7695 113.278 73.0493 117.389 73.1963C121.499 73.3433 124.807 74.3085 124.767 75.3472Z" fill="#8807F7"/>
<path opacity="0.4" d="M124.767 75.3472C124.733 76.3909 121.367 77.116 117.256 76.969C113.145 76.822 109.838 75.8568 109.877 74.8132C109.916 73.7695 113.278 73.0493 117.389 73.1963C121.499 73.3433 124.807 74.3085 124.767 75.3472Z" fill="white"/>
<path d="M123.827 75.2446C123.821 75.3104 123.793 75.3723 123.749 75.421C123.298 74.7743 120.613 74.201 117.379 74.0834C114.145 73.9658 111.397 74.3431 110.911 74.9605C110.869 74.908 110.846 74.842 110.848 74.7743C110.872 74.0687 113.788 73.5935 117.394 73.7209C121 73.8482 123.876 74.5391 123.827 75.2446Z" fill="#8807F7"/>
<path opacity="0.4" d="M123.827 75.2446C123.821 75.3104 123.793 75.3723 123.749 75.421C123.298 74.7743 120.613 74.201 117.379 74.0834C114.145 73.9658 111.397 74.3431 110.911 74.9605C110.869 74.908 110.846 74.842 110.848 74.7743C110.872 74.0687 113.788 73.5935 117.394 73.7209C121 73.8482 123.876 74.5391 123.827 75.2446Z" fill="#8807F7"/>
<path opacity="0.4" d="M123.749 75.4209C123.259 76.0383 120.535 76.4008 117.282 76.2979C114.028 76.195 111.333 75.612 110.912 74.9603C111.402 74.343 114.116 73.9804 117.38 74.0833C120.643 74.1862 123.299 74.7741 123.749 75.4209Z" fill="#8807F7"/>
<path d="M65.5708 84.0346C65.5267 85.0783 68.8192 86.0631 72.9203 86.2395C77.0213 86.4159 80.3972 85.7103 80.4413 84.6667C80.4854 83.6231 77.1928 82.6382 73.0918 82.4667C68.9907 82.2953 65.6001 82.9959 65.5708 84.0346Z" fill="#8807F7"/>
<path d="M65.6269 82.1417L65.5469 84.0264L80.4383 84.6583L80.5183 82.7736L65.6269 82.1417Z" fill="#8807F7"/>
<path d="M65.6332 82.1482C65.5892 83.1918 68.8866 84.1766 72.9828 84.353C77.0789 84.5294 80.4646 83.8239 80.5087 82.7802C80.5528 81.7366 77.2553 80.7518 73.1592 80.5803C69.063 80.4088 65.6773 81.1094 65.6332 82.1482Z" fill="#8807F7"/>
<path opacity="0.4" d="M65.6332 82.1482C65.5892 83.1918 68.8866 84.1766 72.9828 84.353C77.0789 84.5294 80.4646 83.8239 80.5087 82.7802C80.5528 81.7366 77.2553 80.7518 73.1592 80.5803C69.063 80.4088 65.6773 81.1094 65.6332 82.1482Z" fill="white"/>
<path d="M66.5842 82.1189C66.5815 82.1853 66.6043 82.2501 66.6479 82.3002C67.1379 81.6877 69.867 81.3203 73.1204 81.4673C76.3738 81.6142 79.0637 82.1973 79.49 82.849C79.5347 82.7984 79.5621 82.7349 79.5684 82.6677C79.5978 81.9621 76.7168 81.2566 73.1253 81.1047C69.5338 80.9528 66.6136 81.4133 66.5842 82.1189Z" fill="#8807F7"/>
<path opacity="0.4" d="M66.5842 82.1189C66.5815 82.1853 66.6043 82.2501 66.6479 82.3002C67.1379 81.6877 69.867 81.3203 73.1204 81.4673C76.3738 81.6142 79.0637 82.1973 79.49 82.849C79.5347 82.7984 79.5621 82.7349 79.5684 82.6677C79.5978 81.9621 76.7168 81.2566 73.1253 81.1047C69.5338 80.9528 66.6136 81.4133 66.5842 82.1189Z" fill="#8807F7"/>
<path opacity="0.4" d="M66.6484 82.3C67.0894 82.9565 69.7744 83.5445 73.018 83.6817C76.2616 83.8189 79.0005 83.4612 79.4905 82.8487C79.0544 82.1971 76.3743 81.6091 73.1209 81.467C69.8675 81.3249 67.1433 81.6875 66.6484 82.3Z" fill="#8807F7"/>
<path d="M63.9887 81.1782C63.9446 82.2218 67.2421 83.2067 71.3382 83.3831C75.4344 83.5594 78.8201 82.8539 78.8642 81.8103C78.9083 80.7666 75.6108 79.7818 71.5146 79.6103C67.4185 79.4388 64.0328 80.1395 63.9887 81.1782Z" fill="#8807F7"/>
<path d="M64.0683 79.2999L63.9883 81.1846L78.8797 81.8165L78.9597 79.9318L64.0683 79.2999Z" fill="#8807F7"/>
<path d="M64.0707 79.2917C64.0267 80.3353 67.3241 81.3202 71.4203 81.4966C75.5164 81.673 78.9021 80.9674 78.9462 79.9238C78.9903 78.8801 75.6928 77.9002 71.5967 77.7238C67.5005 77.5474 64.1001 78.253 64.0707 79.2917Z" fill="#8807F7"/>
<path opacity="0.4" d="M64.0707 79.2917C64.0267 80.3353 67.3241 81.3202 71.4203 81.4966C75.5164 81.673 78.9021 80.9674 78.9462 79.9238C78.9903 78.8801 75.6928 77.9002 71.5967 77.7238C67.5005 77.5474 64.1001 78.253 64.0707 79.2917Z" fill="white"/>
<path d="M65.0156 79.2621C65.0182 79.3291 65.0404 79.3938 65.0793 79.4483C65.5693 78.8359 68.3033 78.4684 71.5518 78.6105C74.8003 78.7526 77.5 79.3405 77.9214 79.9922C77.9694 79.9433 77.9989 79.8792 78.0047 79.8109C78.0341 79.1054 75.1531 78.3998 71.5616 78.2479C67.9701 78.096 65.0499 78.5419 65.0156 79.2621Z" fill="#8807F7"/>
<path opacity="0.4" d="M65.0156 79.2621C65.0182 79.3291 65.0404 79.3938 65.0793 79.4483C65.5693 78.8359 68.3033 78.4684 71.5518 78.6105C74.8003 78.7526 77.5 79.3405 77.9214 79.9922C77.9694 79.9433 77.9989 79.8792 78.0047 79.8109C78.0341 79.1054 75.1531 78.3998 71.5616 78.2479C67.9701 78.096 65.0499 78.5419 65.0156 79.2621Z" fill="#8807F7"/>
<path opacity="0.4" d="M65.0801 79.4484C65.5259 80.1001 68.2061 80.688 71.4497 80.8252C74.6933 80.9624 77.4371 80.6047 77.9221 79.9923C77.491 79.3406 74.806 78.7526 71.5526 78.6106C68.2992 78.4685 65.57 78.8359 65.0801 79.4484Z" fill="#8807F7"/>
<path d="M64.1938 77.7385C64.1497 78.7821 67.4472 79.767 71.5433 79.9433C75.6395 80.1197 79.0251 79.4142 79.0692 78.3706C79.1133 77.3269 75.8158 76.3421 71.7197 76.1706C67.6236 75.9991 64.2379 76.6998 64.1938 77.7385Z" fill="#8807F7"/>
<path d="M64.2694 75.8516L64.1895 77.7363L79.0809 78.3683L79.1609 76.4836L64.2694 75.8516Z" fill="#8807F7"/>
<path d="M64.2719 75.852C64.2278 76.8957 67.5253 77.8805 71.6214 78.0569C75.7176 78.2333 79.1033 77.5277 79.1474 76.4841C79.1915 75.4404 75.894 74.4556 71.7978 74.2841C67.7017 74.1126 64.316 74.8133 64.2719 75.852Z" fill="#8807F7"/>
<path opacity="0.4" d="M64.2719 75.852C64.2278 76.8957 67.5253 77.8805 71.6214 78.0569C75.7176 78.2333 79.1033 77.5277 79.1474 76.4841C79.1915 75.4404 75.894 74.4556 71.7978 74.2841C67.7017 74.1126 64.316 74.8133 64.2719 75.852Z" fill="white"/>
<path d="M65.2229 75.8227C65.2201 75.8891 65.2429 75.954 65.2866 76.004C65.7765 75.3965 68.5057 75.0241 71.7591 75.1711C75.0125 75.3181 77.7024 75.9011 78.1287 76.5528C78.1733 76.5022 78.2008 76.4387 78.207 76.3715C78.2364 75.666 75.3554 74.9604 71.764 74.8085C68.1725 74.6566 65.2523 75.1123 65.2229 75.8227Z" fill="#8807F7"/>
<path opacity="0.4" d="M65.2229 75.8227C65.2201 75.8891 65.2429 75.954 65.2866 76.004C65.7765 75.3965 68.5057 75.0241 71.7591 75.1711C75.0125 75.3181 77.7024 75.9011 78.1287 76.5528C78.1733 76.5022 78.2008 76.4387 78.207 76.3715C78.2364 75.666 75.3554 74.9604 71.764 74.8085C68.1725 74.6566 65.2523 75.1123 65.2229 75.8227Z" fill="#8807F7"/>
<path opacity="0.4" d="M65.2852 76.0041C65.7261 76.6606 68.4112 77.2486 71.6547 77.3858C74.8983 77.523 77.6373 77.1653 78.1272 76.5528C77.6912 75.9012 75.011 75.3132 71.7576 75.1711C68.5043 75.029 65.78 75.3965 65.2852 76.0041Z" fill="#8807F7"/>
<path d="M62.6293 74.8818C62.5852 75.9254 65.8827 76.9103 69.9789 77.0867C74.075 77.2631 77.4607 76.5575 77.5048 75.5139C77.5489 74.4702 74.2514 73.4903 70.1553 73.3139C66.0591 73.1375 62.6685 73.8431 62.6293 74.8818Z" fill="#8807F7"/>
<path d="M62.7011 72.9906L62.6211 74.8752L77.5125 75.5072L77.5925 73.6225L62.7011 72.9906Z" fill="#8807F7"/>
<path d="M62.7094 72.9956C62.6653 74.0392 65.9628 75.024 70.0589 75.2004C74.1551 75.3768 77.5408 74.6713 77.5849 73.6276C77.629 72.584 74.3315 71.6041 70.2353 71.4277C66.1392 71.2513 62.7535 71.9568 62.7094 72.9956Z" fill="#8807F7"/>
<path opacity="0.4" d="M62.7094 72.9956C62.6653 74.0392 65.9628 75.024 70.0589 75.2004C74.1551 75.3768 77.5408 74.6713 77.5849 73.6276C77.629 72.584 74.3315 71.6041 70.2353 71.4277C66.1392 71.2513 62.7535 71.9568 62.7094 72.9956Z" fill="white"/>
<path d="M63.6603 72.9661C63.6585 73.033 63.6792 73.0985 63.7191 73.1523C64.209 72.5398 66.9431 72.1723 70.1964 72.3193C73.4498 72.4663 76.1398 73.0445 76.566 73.6961C76.6116 73.6461 76.6392 73.5823 76.6444 73.5148C76.6738 72.8142 73.7928 72.1037 70.2013 71.9518C66.6099 71.8 63.6897 72.2605 63.6603 72.9661Z" fill="#8807F7"/>
<path opacity="0.4" d="M63.6603 72.9661C63.6585 73.033 63.6792 73.0985 63.7191 73.1523C64.209 72.5398 66.9431 72.1723 70.1964 72.3193C73.4498 72.4663 76.1398 73.0445 76.566 73.6961C76.6116 73.6461 76.6392 73.5823 76.6444 73.5148C76.6738 72.8142 73.7928 72.1037 70.2013 71.9518C66.6099 71.8 63.6897 72.2605 63.6603 72.9661Z" fill="#8807F7"/>
<path opacity="0.4" d="M63.7168 73.1524C64.1627 73.8041 66.8428 74.3921 70.0864 74.5292C73.33 74.6664 76.0738 74.3088 76.5638 73.6963C76.1277 73.0446 73.4427 72.4567 70.1942 72.3195C66.9457 72.1823 64.2166 72.54 63.7168 73.1524Z" fill="#8807F7"/>
<path d="M65.0161 72.4616C64.972 73.5053 68.2695 74.4901 72.3656 74.6665C76.4617 74.8429 79.8474 74.1373 79.8915 73.0937C79.9356 72.0501 76.6381 71.0701 72.542 70.8937C68.4458 70.7173 65.0798 71.4229 65.0161 72.4616Z" fill="#8807F7"/>
<path d="M65.0995 70.5775L65.0195 72.4622L79.911 73.0941L79.991 71.2094L65.0995 70.5775Z" fill="#8807F7"/>
<path d="M65.0805 70.5751C65.0364 71.6188 68.3339 72.6036 72.43 72.78C76.5262 72.9564 79.9119 72.2508 79.956 71.2072C80 70.1636 76.7026 69.1836 72.6064 69.0073C68.5103 68.8309 65.1393 69.5364 65.0805 70.5751Z" fill="#8807F7"/>
<path opacity="0.4" d="M65.0805 70.5751C65.0364 71.6188 68.3339 72.6036 72.43 72.78C76.5262 72.9564 79.9119 72.2508 79.956 71.2072C80 70.1636 76.7026 69.1836 72.6064 69.0073C68.5103 68.8309 65.1393 69.5364 65.0805 70.5751Z" fill="white"/>
<path d="M66.0605 70.5457C66.0605 70.6131 66.0829 70.6786 66.1242 70.7319C66.6142 70.1194 69.3433 69.7519 72.5967 69.8989C75.8501 70.0459 78.54 70.6241 78.9663 71.2757C78.9908 71.2523 79.0103 71.2241 79.0238 71.193C79.0373 71.1619 79.0444 71.1284 79.0447 71.0944C79.0741 70.3938 76.1931 69.6833 72.6016 69.5314C69.0102 69.3795 66.0605 69.8401 66.0605 70.5457Z" fill="#8807F7"/>
<path opacity="0.4" d="M66.0605 70.5457C66.0605 70.6131 66.0829 70.6786 66.1242 70.7319C66.6142 70.1194 69.3433 69.7519 72.5967 69.8989C75.8501 70.0459 78.54 70.6241 78.9663 71.2757C78.9908 71.2523 79.0103 71.2241 79.0238 71.193C79.0373 71.1619 79.0444 71.1284 79.0447 71.0944C79.0741 70.3938 76.1931 69.6833 72.6016 69.5314C69.0102 69.3795 66.0605 69.8401 66.0605 70.5457Z" fill="#8807F7"/>
<path opacity="0.4" d="M66.1094 70.732C66.5552 71.3837 69.2354 71.9716 72.479 72.1088C75.7226 72.246 78.4615 71.8884 78.9514 71.2759C78.5154 70.6242 75.8352 70.0363 72.5819 69.8991C69.3285 69.7619 66.6091 70.1196 66.1094 70.732Z" fill="#8807F7"/>
<path d="M63.4536 69.6098C63.4095 70.6486 66.707 71.6334 70.8031 71.8098C74.8992 71.9862 78.28 71.2806 78.329 70.2419C78.378 69.2032 75.0756 68.2134 70.9795 68.037C66.8833 67.8607 63.4977 68.5662 63.4536 69.6098Z" fill="#8807F7"/>
<path d="M63.5272 67.7159L63.4473 69.6006L78.3387 70.2325L78.4187 68.3478L63.5272 67.7159Z" fill="#8807F7"/>
<path d="M63.5317 67.7236C63.4876 68.7624 66.7851 69.7472 70.8812 69.9236C74.9774 70.1 78.363 69.3944 78.4071 68.3557C78.4512 67.3169 75.1537 66.3272 71.0576 66.1508C66.9615 65.9744 63.5758 66.68 63.5317 67.7236Z" fill="#8807F7"/>
<path opacity="0.4" d="M63.5317 67.7236C63.4876 68.7624 66.7851 69.7472 70.8812 69.9236C74.9774 70.1 78.363 69.3944 78.4071 68.3557C78.4512 67.3169 75.1537 66.3272 71.0576 66.1508C66.9615 65.9744 63.5758 66.68 63.5317 67.7236Z" fill="white"/>
<path d="M64.4827 67.6892C64.4797 67.7571 64.5024 67.8236 64.5464 67.8754C65.0364 67.263 67.7655 66.8955 71.0189 67.0425C74.2723 67.1895 76.9622 67.7676 77.3885 68.4193C77.4331 68.3706 77.4606 68.3087 77.4669 68.2429C77.4962 67.5373 74.6152 66.8269 71.0238 66.675C67.4323 66.5231 64.5121 66.9837 64.4827 67.6892Z" fill="#8807F7"/>
<path opacity="0.4" d="M64.4827 67.6892C64.4797 67.7571 64.5024 67.8236 64.5464 67.8754C65.0364 67.263 67.7655 66.8955 71.0189 67.0425C74.2723 67.1895 76.9622 67.7676 77.3885 68.4193C77.4331 68.3706 77.4606 68.3087 77.4669 68.2429C77.4962 67.5373 74.6152 66.8269 71.0238 66.675C67.4323 66.5231 64.5121 66.9837 64.4827 67.6892Z" fill="#8807F7"/>
<path opacity="0.4" d="M64.5469 67.8753C64.9878 68.527 67.6729 69.1149 70.9165 69.2521C74.1601 69.3893 76.899 69.0316 77.3889 68.4192C76.9529 67.7675 74.2727 67.1796 71.0194 67.0424C67.766 66.9052 65.0417 67.2727 64.5469 67.8753Z" fill="#8807F7"/>
<path d="M79.9029 67.5815C79.947 68.6202 76.6495 69.61 72.5534 69.7815C68.4572 69.953 65.0814 69.2327 65.0128 68.2136C64.9442 67.1944 68.2612 66.1851 72.3623 66.0087C76.4633 65.8323 79.8539 66.5379 79.9029 67.5815Z" fill="#8807F7"/>
<path d="M79.4888 66.1865L64.584 66.7827L64.6594 68.6691L79.5643 68.0729L79.4888 66.1865Z" fill="#8807F7"/>
<path d="M79.8173 65.695C79.8614 66.7338 76.5639 67.7235 72.4678 67.895C68.3716 68.0665 64.9859 67.3707 64.9418 66.3271C64.8977 65.2835 68.1952 64.2986 72.2914 64.1222C76.3875 63.9459 79.7781 64.6514 79.8173 65.695Z" fill="#8807F7"/>
<path opacity="0.4" d="M79.8173 65.695C79.8614 66.7338 76.5639 67.7235 72.4678 67.895C68.3716 68.0665 64.9859 67.3707 64.9418 66.3271C64.8977 65.2835 68.1952 64.2986 72.2914 64.1222C76.3875 63.9459 79.7781 64.6514 79.8173 65.695Z" fill="white"/>
<path d="M78.8672 65.6609C78.8712 65.7289 78.8483 65.7958 78.8035 65.8471C78.3135 65.2346 75.5844 64.8671 72.331 65.0141C69.0776 65.1611 66.3877 65.7393 65.9614 66.3958C65.9176 66.3447 65.8902 66.2815 65.883 66.2145C65.8536 65.509 68.7347 64.8034 72.3261 64.6515C75.9176 64.4996 78.8378 64.9553 78.8672 65.6609Z" fill="#8807F7"/>
<path opacity="0.4" d="M78.8672 65.6609C78.8712 65.7289 78.8483 65.7958 78.8035 65.8471C78.3135 65.2346 75.5844 64.8671 72.331 65.0141C69.0776 65.1611 66.3877 65.7393 65.9614 66.3958C65.9176 66.3447 65.8902 66.2815 65.883 66.2145C65.8536 65.509 68.7347 64.8034 72.3261 64.6515C75.9176 64.4996 78.8378 64.9553 78.8672 65.6609Z" fill="#8807F7"/>
<path opacity="0.4" d="M78.7991 65.847C78.3581 66.4987 75.6731 67.0866 72.4295 67.2287C69.1859 67.3708 66.447 67.0082 65.957 66.3958C66.3931 65.7392 69.0732 65.1513 72.3266 65.0141C75.58 64.8769 78.3091 65.2345 78.7991 65.847Z" fill="#8807F7"/>
<path d="M81.4657 64.725C81.5098 65.7686 78.2123 66.7534 74.1162 66.9249C70.0201 67.0964 66.6344 66.4006 66.5903 65.357C66.5462 64.3134 69.8437 63.3286 73.9398 63.1571C78.0359 62.9856 81.4216 63.6813 81.4657 64.725Z" fill="#8807F7"/>
<path d="M81.3856 62.8339L66.4941 63.4658L66.5741 65.3505L81.4656 64.7186L81.3856 62.8339Z" fill="#8807F7"/>
<path d="M81.3807 62.8631C81.4248 63.9068 78.1323 64.8916 74.0312 65.068C69.9302 65.2444 66.5543 64.5388 66.5102 63.4952C66.4661 62.4516 69.7587 61.4667 73.8597 61.2952C77.9608 61.1237 81.3366 61.795 81.3807 62.8631Z" fill="#8807F7"/>
<path opacity="0.4" d="M81.3807 62.8631C81.4248 63.9068 78.1323 64.8916 74.0312 65.068C69.9302 65.2444 66.5543 64.5388 66.5102 63.4952C66.4661 62.4516 69.7587 61.4667 73.8597 61.2952C77.9608 61.1237 81.3366 61.795 81.3807 62.8631Z" fill="white"/>
<path d="M80.4356 62.8042C80.4346 62.8714 80.4123 62.9366 80.3719 62.9904C79.882 62.3779 77.148 62.0104 73.8995 62.1574C70.651 62.3044 67.9512 62.8875 67.5299 63.5391C67.4813 63.4911 67.4532 63.4261 67.4515 63.3578C67.4172 62.6523 70.3031 61.9467 73.8897 61.7948C77.4762 61.643 80.4013 62.0986 80.4356 62.8042Z" fill="#8807F7"/>
<path opacity="0.4" d="M80.4356 62.8042C80.4346 62.8714 80.4123 62.9366 80.3719 62.9904C79.882 62.3779 77.148 62.0104 73.8995 62.1574C70.651 62.3044 67.9512 62.8875 67.5299 63.5391C67.4813 63.4911 67.4532 63.4261 67.4515 63.3578C67.4172 62.6523 70.3031 61.9467 73.8897 61.7948C77.4762 61.643 80.4013 62.0986 80.4356 62.8042Z" fill="#8807F7"/>
<path opacity="0.4" d="M80.3714 62.9903C79.9255 63.642 77.2454 64.2349 74.0018 64.372C70.7582 64.5092 68.0144 64.1516 67.5293 63.5391C67.9605 62.8874 70.6455 62.2946 73.8989 62.1574C77.1523 62.0202 79.8716 62.373 80.3714 62.9903Z" fill="#8807F7"/>
<path d="M81.2499 61.2854C81.294 62.3241 78.0014 63.3138 73.9004 63.4853C69.7993 63.6568 66.4234 62.9611 66.3793 61.9174C66.3352 60.8738 69.6278 59.889 73.7289 59.7126C77.8299 59.5362 81.2156 60.2417 81.2499 61.2854Z" fill="#8807F7"/>
<path d="M81.1805 59.401L66.2891 60.033L66.369 61.9176L81.2605 61.2857L81.1805 59.401Z" fill="#8807F7"/>
<path d="M81.1806 59.399C81.2247 60.4427 77.9272 61.4275 73.831 61.599C69.7349 61.7705 66.3492 61.0747 66.3051 60.0311C66.261 58.9875 69.5585 58.0026 73.6547 57.8311C77.7508 57.6596 81.1365 58.3554 81.1806 59.399Z" fill="#8807F7"/>
<path opacity="0.4" d="M81.1806 59.399C81.2247 60.4427 77.9272 61.4275 73.831 61.599C69.7349 61.7705 66.3492 61.0747 66.3051 60.0311C66.261 58.9875 69.5585 58.0026 73.6547 57.8311C77.7508 57.6596 81.1365 58.3554 81.1806 59.399Z" fill="white"/>
<path d="M80.2305 59.3647C80.2345 59.4327 80.2116 59.4996 80.1668 59.5509C79.6768 58.9385 76.9477 58.571 73.6943 58.718C70.4409 58.865 67.751 59.448 67.3247 60.0997C67.2809 60.0486 67.2535 59.9854 67.2463 59.9184C67.2169 59.2128 70.0979 58.5073 73.6894 58.3554C77.2809 58.2035 80.2011 58.6592 80.2305 59.3647Z" fill="#8807F7"/>
<path opacity="0.4" d="M80.2305 59.3647C80.2345 59.4327 80.2116 59.4996 80.1668 59.5509C79.6768 58.9385 76.9477 58.571 73.6943 58.718C70.4409 58.865 67.751 59.448 67.3247 60.0997C67.2809 60.0486 67.2535 59.9854 67.2463 59.9184C67.2169 59.2128 70.0979 58.5073 73.6894 58.3554C77.2809 58.2035 80.2011 58.6592 80.2305 59.3647Z" fill="#8807F7"/>
<path opacity="0.4" d="M80.1663 59.5508C79.7253 60.2025 77.0403 60.7954 73.7967 60.9326C70.5531 61.0697 67.8142 60.7121 67.3242 60.0996C67.7603 59.4479 70.4404 58.8551 73.6938 58.7179C76.9472 58.5807 79.6714 58.9433 80.1663 59.5508Z" fill="#8807F7"/>
<path d="M82.8271 58.4532C82.8711 59.4968 79.5737 60.4817 75.4775 60.6581C71.3814 60.8345 67.9957 60.1289 67.9516 59.0853C67.9075 58.0416 71.205 57.0568 75.3011 56.8853C79.3973 56.7138 82.783 57.3851 82.8271 58.4532Z" fill="#8807F7"/>
<path d="M82.7332 56.5492L67.8418 57.1812L67.9218 59.0658L82.8132 58.4339L82.7332 56.5492Z" fill="#8807F7"/>
<path d="M82.745 56.5424C82.7891 57.5861 79.4916 58.5709 75.3955 58.7473C71.2994 58.9237 67.9137 58.2181 67.8696 57.1745C67.8255 56.1309 71.123 55.146 75.2191 54.9745C79.3152 54.803 82.7205 55.5135 82.745 56.5424Z" fill="#8807F7"/>
<path opacity="0.4" d="M82.745 56.5424C82.7891 57.5861 79.4916 58.5709 75.3955 58.7473C71.2994 58.9237 67.9137 58.2181 67.8696 57.1745C67.8255 56.1309 71.123 55.146 75.2191 54.9745C79.3152 54.803 82.7205 55.5135 82.745 56.5424Z" fill="white"/>
<path d="M81.7979 56.4933C81.7961 56.5589 81.7739 56.6223 81.7342 56.6746C81.2442 56.0622 78.5102 55.6947 75.2617 55.8417C72.0132 55.9887 69.3135 56.5717 68.8921 57.2234C68.8441 57.1745 68.8146 57.1104 68.8088 57.0421C68.7794 56.3365 71.6604 55.631 75.2519 55.4791C78.8434 55.3272 81.7636 55.8074 81.7979 56.4933Z" fill="#8807F7"/>
<path opacity="0.4" d="M81.7979 56.4933C81.7961 56.5589 81.7739 56.6223 81.7342 56.6746C81.2442 56.0622 78.5102 55.6947 75.2617 55.8417C72.0132 55.9887 69.3135 56.5717 68.8921 57.2234C68.8441 57.1745 68.8146 57.1104 68.8088 57.0421C68.7794 56.3365 71.6604 55.631 75.2519 55.4791C78.8434 55.3272 81.7636 55.8074 81.7979 56.4933Z" fill="#8807F7"/>
<path opacity="0.4" d="M81.7386 56.6942C81.2927 57.3507 78.6126 57.9387 75.369 58.0759C72.1254 58.2131 69.3816 57.8554 68.8965 57.2429C69.3277 56.5913 72.0127 55.9984 75.2661 55.8612C78.5195 55.724 81.2486 56.0817 81.7386 56.6942Z" fill="#8807F7"/>
<path d="M80.436 56.0034C80.4801 57.047 77.1826 58.0318 73.0864 58.2082C68.9903 58.3846 65.5703 57.684 65.5703 56.6403C65.5703 55.5967 68.8237 54.6119 72.9198 54.4404C77.016 54.2689 80.3919 54.9695 80.436 56.0034Z" fill="#8807F7"/>
<path d="M80.3602 54.1195L65.4688 54.7515L65.5487 56.6362L80.4402 56.0042L80.3602 54.1195Z" fill="#8807F7"/>
<path d="M80.3583 54.1219C80.4024 55.1655 77.1049 56.1503 73.0088 56.3267C68.9126 56.5031 65.527 55.7976 65.4829 54.7539C65.4388 53.7103 68.7363 52.7255 72.8324 52.554C76.9285 52.3825 80.3142 53.0635 80.3583 54.1219Z" fill="#8807F7"/>
<path opacity="0.4" d="M80.3583 54.1219C80.4024 55.1655 77.1049 56.1503 73.0088 56.3267C68.9126 56.5031 65.527 55.7976 65.4829 54.7539C65.4388 53.7103 68.7363 52.7255 72.8324 52.554C76.9285 52.3825 80.3142 53.0635 80.3583 54.1219Z" fill="white"/>
<path d="M79.4063 54.0925C79.409 54.1589 79.3862 54.2238 79.3426 54.2738C78.8526 53.6614 76.1235 53.2939 72.8701 53.4409C69.6167 53.5879 66.9268 54.1709 66.5005 54.8226C66.4539 54.7732 66.4261 54.7091 66.4221 54.6413C66.3927 53.9358 69.2737 53.2302 72.8652 53.0783C76.4567 52.9264 79.3769 53.387 79.4063 54.0925Z" fill="#8807F7"/>
<path opacity="0.4" d="M79.4063 54.0925C79.409 54.1589 79.3862 54.2238 79.3426 54.2738C78.8526 53.6614 76.1235 53.2939 72.8701 53.4409C69.6167 53.5879 66.9268 54.1709 66.5005 54.8226C66.4539 54.7732 66.4261 54.7091 66.4221 54.6413C66.3927 53.9358 69.2737 53.2302 72.8652 53.0783C76.4567 52.9264 79.3769 53.387 79.4063 54.0925Z" fill="#8807F7"/>
<path opacity="0.4" d="M79.344 54.2739C78.8982 54.9304 76.218 55.5184 72.9744 55.6556C69.7308 55.7928 66.9919 55.4351 66.502 54.8226C66.938 54.171 69.6182 53.583 72.8715 53.4409C76.1249 53.2988 78.8443 53.6614 79.344 54.2739Z" fill="#8807F7"/>
<path d="M82.0038 53.1518C82.0479 54.1955 78.7504 55.1803 74.6543 55.3567C70.5581 55.5331 67.1773 54.8275 67.1333 53.7839C67.0892 52.7402 70.3817 51.7554 74.4828 51.5839C78.5838 51.4124 81.9548 52.1131 82.0038 53.1518Z" fill="#8807F7"/>
<path d="M81.9188 51.2728L67.0273 51.9048L67.1073 53.7895L81.9988 53.1575L81.9188 51.2728Z" fill="#8807F7"/>
<path d="M81.9208 51.2653C81.9649 52.309 78.6674 53.2938 74.5713 53.4702C70.4751 53.6466 67.0895 52.941 67.0454 51.8974C67.0013 50.8538 70.2988 49.8738 74.3949 49.6974C78.491 49.5211 81.8767 50.2266 81.9208 51.2653Z" fill="#8807F7"/>
<path opacity="0.4" d="M81.9208 51.2653C81.9649 52.309 78.6674 53.2938 74.5713 53.4702C70.4751 53.6466 67.0895 52.941 67.0454 51.8974C67.0013 50.8538 70.2988 49.8738 74.3949 49.6974C78.491 49.5211 81.8767 50.2266 81.9208 51.2653Z" fill="white"/>
<path d="M80.9688 51.2361C80.9708 51.3038 80.9482 51.37 80.9051 51.4223C80.4151 50.8098 77.686 50.4423 74.4326 50.5844C71.1792 50.7265 68.4893 51.3145 68.063 51.9662C68.0183 51.9156 67.9909 51.8521 67.9846 51.7849C67.9552 51.0793 70.8362 50.3738 74.4277 50.2219C78.0191 50.07 80.9394 50.5305 80.9688 51.2361Z" fill="#8807F7"/>
<path opacity="0.4" d="M80.9688 51.2361C80.9708 51.3038 80.9482 51.37 80.9051 51.4223C80.4151 50.8098 77.686 50.4423 74.4326 50.5844C71.1792 50.7265 68.4893 51.3145 68.063 51.9662C68.0183 51.9156 67.9909 51.8521 67.9846 51.7849C67.9552 51.0793 70.8362 50.3738 74.4277 50.2219C78.0191 50.07 80.9394 50.5305 80.9688 51.2361Z" fill="#8807F7"/>
<path opacity="0.4" d="M80.9065 51.4223C80.4656 52.0739 77.7805 52.6619 74.5369 52.7991C71.2933 52.9363 68.5544 52.5786 68.0645 51.9661C68.5005 51.3145 71.1807 50.7265 74.434 50.5844C77.6874 50.4423 80.4117 50.8098 80.9065 51.4223Z" fill="#8807F7"/>
<path d="M75.7968 51.0171C79.2681 49.7157 81.0273 45.8467 79.7259 42.3754C78.4246 38.904 74.5556 37.1449 71.0842 38.4462C67.6129 39.7476 65.8538 43.6166 67.1551 47.0879C68.4564 50.5593 72.3255 52.3184 75.7968 51.0171Z" fill="#8807F7"/>
<path d="M79.293 49.4139C81.6958 46.5907 81.3549 42.3542 78.5317 39.9515C75.7085 37.5488 71.472 37.8896 69.0693 40.7128C66.6666 43.536 67.0074 47.7725 69.8306 50.1753C72.6538 52.578 76.8903 52.2371 79.293 49.4139Z" fill="#8807F7"/>
<path opacity="0.4" d="M79.293 49.4139C81.6958 46.5907 81.3549 42.3542 78.5317 39.9515C75.7085 37.5488 71.472 37.8896 69.0693 40.7128C66.6666 43.536 67.0074 47.7725 69.8306 50.1753C72.6538 52.578 76.8903 52.2371 79.293 49.4139Z" fill="white"/>
<path d="M78.755 47.1301C78.3435 48.034 77.6732 48.7955 76.829 49.3184C75.9848 49.8414 75.0044 50.1023 74.0119 50.0683C73.0194 50.0342 72.0593 49.7066 71.2529 49.127C70.4466 48.5473 69.8301 47.7416 69.4816 46.8117C69.133 45.8818 69.068 44.8694 69.2947 43.9025C69.5214 42.9357 70.0297 42.0577 70.7553 41.3797C71.4809 40.7016 72.3912 40.2539 73.3712 40.0931C74.3512 39.9323 75.3568 40.0657 76.2611 40.4764C77.4737 41.0285 78.4174 42.0395 78.8851 43.2871C79.3527 44.5347 79.3059 45.917 78.755 47.1301Z" fill="#8807F7"/>
<path d="M137.447 83.0595C137.295 83.6719 135.218 83.6768 132.807 83.0595C130.396 82.4421 128.564 81.4671 128.716 80.8595C128.868 80.2519 130.95 80.2421 133.361 80.8595C135.771 81.4769 137.594 82.4617 137.447 83.0595Z" fill="#8807F7"/>
<path d="M129 79.7712L128.723 80.8787L137.454 83.0653L137.731 81.9579L129 79.7712Z" fill="#8807F7"/>
<path d="M137.728 81.9717C137.572 82.5841 135.494 82.589 133.083 81.9717C130.673 81.3543 128.845 80.3842 128.997 79.7717C129.149 79.1593 131.226 79.1544 133.637 79.7717C136.048 80.3891 137.88 81.3445 137.728 81.9717Z" fill="#8807F7"/>
<path opacity="0.4" d="M137.728 81.9717C137.572 82.5841 135.494 82.589 133.083 81.9717C130.673 81.3543 128.845 80.3842 128.997 79.7717C129.149 79.1593 131.226 79.1544 133.637 79.7717C136.048 80.3891 137.88 81.3445 137.728 81.9717Z" fill="white"/>
<path d="M137.179 81.7711C137.175 81.7912 137.166 81.8103 137.155 81.8271C137.143 81.844 137.128 81.8582 137.11 81.8691C136.929 81.4281 135.415 80.7519 133.509 80.2767C131.603 79.8014 129.942 79.6789 129.589 79.9827C129.58 79.9441 129.58 79.9037 129.589 79.8651C129.697 79.4486 131.485 79.5368 133.592 80.0611C135.699 80.5853 137.287 81.3595 137.179 81.7711Z" fill="#8807F7"/>
<path opacity="0.4" d="M137.179 81.7711C137.175 81.7912 137.166 81.8103 137.155 81.8271C137.143 81.844 137.128 81.8582 137.11 81.8691C136.929 81.4281 135.415 80.7519 133.509 80.2767C131.603 79.8014 129.942 79.6789 129.589 79.9827C129.58 79.9441 129.58 79.9037 129.589 79.8651C129.697 79.4486 131.485 79.5368 133.592 80.0611C135.699 80.5853 137.287 81.3595 137.179 81.7711Z" fill="#8807F7"/>
<path opacity="0.4" d="M137.106 81.8689C136.739 82.1678 135.087 82.0502 133.186 81.5749C131.285 81.0997 129.756 80.4186 129.58 79.9825C129.948 79.6788 131.599 79.7964 133.5 80.2765C135.401 80.7567 136.93 81.428 137.106 81.8689Z" fill="#8807F7"/>
<path d="M141.642 85.0682C141.671 85.6954 139.682 86.2932 137.193 86.396C134.704 86.4989 132.675 86.0776 132.651 85.4504C132.626 84.8233 134.61 84.2255 137.1 84.1177C139.589 84.0099 141.617 84.4215 141.642 85.0682Z" fill="#8807F7"/>
<path d="M141.584 83.9382L132.592 84.3198L132.64 85.4604L141.633 85.0788L141.584 83.9382Z" fill="#8807F7"/>
<path d="M141.593 83.9317C141.622 84.5638 139.633 85.1566 137.149 85.2644C134.665 85.3722 132.631 84.9459 132.602 84.3139C132.572 83.6818 134.562 83.0889 137.051 82.9861C139.54 82.8832 141.568 83.2996 141.593 83.9317Z" fill="#8807F7"/>
<path opacity="0.4" d="M141.593 83.9317C141.622 84.5638 139.633 85.1566 137.149 85.2644C134.665 85.3722 132.631 84.9459 132.602 84.3139C132.572 83.6818 134.562 83.0889 137.051 82.9861C139.54 82.8832 141.568 83.2996 141.593 83.9317Z" fill="white"/>
<path d="M141.025 83.9316C141.027 83.9521 141.025 83.9728 141.018 83.9922C141.011 84.0117 141 84.0295 140.986 84.0443C140.687 83.6768 139.026 83.4563 137.066 83.5543C135.106 83.6523 133.475 83.9953 133.21 84.3873C133.183 84.3578 133.167 84.3195 133.166 84.2795C133.166 83.8532 134.886 83.4269 137.056 83.3338C139.227 83.2407 141.025 83.4808 141.025 83.9316Z" fill="#8807F7"/>
<path opacity="0.4" d="M141.025 83.9316C141.027 83.9521 141.025 83.9728 141.018 83.9922C141.011 84.0117 141 84.0295 140.986 84.0443C140.687 83.6768 139.026 83.4563 137.066 83.5543C135.106 83.6523 133.475 83.9953 133.21 84.3873C133.183 84.3578 133.167 84.3195 133.166 84.2795C133.166 83.8532 134.886 83.4269 137.056 83.3338C139.227 83.2407 141.025 83.4808 141.025 83.9316Z" fill="#8807F7"/>
<path opacity="0.4" d="M140.982 84.0198C140.717 84.4118 139.095 84.7695 137.131 84.8528C135.166 84.9361 133.52 84.7205 133.211 84.3628C133.476 83.9709 135.097 83.6132 137.067 83.5299C139.037 83.4466 140.683 83.6524 140.982 84.0198Z" fill="#8807F7"/>
<path d="M136.911 82.8232C138.945 79.7239 138.082 75.5624 134.982 73.5281C131.883 71.4938 127.722 72.3572 125.687 75.4564C123.653 78.5557 124.516 82.7172 127.616 84.7515C130.715 86.7858 134.876 85.9225 136.911 82.8232Z" fill="#8807F7"/>
<path d="M136.919 84.1668C136.036 85.1581 134.878 85.865 133.593 86.1984C132.308 86.5318 130.953 86.4765 129.699 86.0396C128.445 85.6028 127.349 84.8039 126.55 83.744C125.75 82.6842 125.282 81.411 125.206 80.0855C125.13 78.76 125.449 77.4417 126.122 76.2973C126.795 75.1529 127.793 74.2339 128.988 73.6564C130.184 73.079 131.524 72.869 132.839 73.0531C134.154 73.2373 135.384 73.8072 136.375 74.6909C137.704 75.8755 138.507 77.5392 138.609 79.3162C138.711 81.0932 138.103 82.838 136.919 84.1668Z" fill="#8807F7"/>
<path opacity="0.4" d="M136.919 84.1668C136.036 85.1581 134.878 85.865 133.593 86.1984C132.308 86.5318 130.953 86.4765 129.699 86.0396C128.445 85.6028 127.349 84.8039 126.55 83.744C125.75 82.6842 125.282 81.411 125.206 80.0855C125.13 78.76 125.449 77.4417 126.122 76.2973C126.795 75.1529 127.793 74.2339 128.988 73.6564C130.184 73.079 131.524 72.869 132.839 73.0531C134.154 73.2373 135.384 73.8072 136.375 74.6909C137.704 75.8755 138.507 77.5392 138.609 79.3162C138.711 81.0932 138.103 82.838 136.919 84.1668Z" fill="white"/>
<path d="M135.636 83.0448C134.975 83.7873 134.108 84.317 133.145 84.5668C132.183 84.8166 131.168 84.7753 130.229 84.4481C129.29 84.121 128.469 83.5226 127.87 82.7288C127.271 81.935 126.921 80.9814 126.864 79.9886C126.807 78.9958 127.046 78.0084 127.55 77.1513C128.054 76.2943 128.802 75.6061 129.697 75.1737C130.593 74.7414 131.596 74.5844 132.581 74.7226C133.566 74.8608 134.488 75.2879 135.23 75.95C135.722 76.389 136.124 76.9207 136.411 77.515C136.698 78.1092 136.866 78.7542 136.903 79.4131C136.941 80.072 136.849 80.7319 136.631 81.3551C136.414 81.9782 136.076 82.5524 135.636 83.0448Z" fill="#8807F7"/>
<path d="M48.803 85.6906C48.7785 86.3178 50.7628 86.9155 53.2519 87.0184C55.7409 87.1213 57.7694 86.6999 57.7939 86.0728C57.8184 85.4456 55.834 84.8479 53.3499 84.7401C50.8657 84.6323 48.8324 85.0585 48.803 85.6906Z" fill="#8807F7"/>
<path d="M48.855 84.554L48.8066 85.6946L57.7993 86.0762L57.8477 84.9356L48.855 84.554Z" fill="#8807F7"/>
<path d="M48.8519 84.549C48.8225 85.181 50.8118 85.7739 53.3008 85.8817C55.7898 85.9895 57.8183 85.5632 57.8428 84.9312C57.8673 84.2991 55.8829 83.7062 53.3939 83.6033C50.9048 83.5004 48.8764 83.9316 48.8519 84.549Z" fill="#8807F7"/>
<path opacity="0.4" d="M48.8519 84.549C48.8225 85.181 50.8118 85.7739 53.3008 85.8817C55.7898 85.9895 57.8183 85.5632 57.8428 84.9312C57.8673 84.2991 55.8829 83.7062 53.3939 83.6033C50.9048 83.5004 48.8764 83.9316 48.8519 84.549Z" fill="white"/>
<path d="M49.4258 84.5294C49.4261 84.5703 49.4399 84.6099 49.465 84.6421C49.7639 84.2747 51.4249 84.0542 53.3847 84.1522C55.3446 84.2502 56.9713 84.5931 57.2359 84.99C57.2639 84.9587 57.281 84.9192 57.2849 84.8773C57.2849 84.451 55.5602 84.0248 53.3945 83.9366C51.2289 83.8484 49.4454 84.1032 49.4258 84.5294Z" fill="#8807F7"/>
<path opacity="0.4" d="M49.4258 84.5294C49.4261 84.5703 49.4399 84.6099 49.465 84.6421C49.7639 84.2747 51.4249 84.0542 53.3847 84.1522C55.3446 84.2502 56.9713 84.5931 57.2359 84.99C57.2639 84.9587 57.281 84.9192 57.2849 84.8773C57.2849 84.451 55.5602 84.0248 53.3945 83.9366C51.2289 83.8484 49.4454 84.1032 49.4258 84.5294Z" fill="#8807F7"/>
<path opacity="0.4" d="M49.4648 84.6423C49.7343 85.0391 51.3512 85.3919 53.316 85.4752C55.2808 85.5585 56.932 85.3429 57.2357 84.9852C56.9712 84.5883 55.3543 84.2356 53.3846 84.1474C51.4149 84.0592 49.7637 84.2748 49.4648 84.6423Z" fill="#8807F7"/>
<path d="M47.8574 83.9661C47.8574 84.5933 49.8173 85.191 52.3063 85.2939C54.7954 85.3968 56.8238 84.9754 56.8483 84.3483C56.8728 83.7211 54.8885 83.1233 52.4043 83.0156C49.9202 82.9078 47.8868 83.3389 47.8574 83.9661Z" fill="#8807F7"/>
<path d="M47.9 82.8142L47.8516 83.9548L56.8442 84.3365L56.8926 83.1959L47.9 82.8142Z" fill="#8807F7"/>
<path d="M47.9316 82.8244C47.9316 83.4564 49.8915 84.0493 52.3806 84.1571C54.8696 84.2649 56.8981 83.8386 56.9226 83.2066C56.9471 82.5745 54.9627 81.9816 52.4785 81.8787C49.9944 81.7758 47.9316 82.1972 47.9316 82.8244Z" fill="#8807F7"/>
<path opacity="0.4" d="M47.9316 82.8244C47.9316 83.4564 49.8915 84.0493 52.3806 84.1571C54.8696 84.2649 56.8981 83.8386 56.9226 83.2066C56.9471 82.5745 54.9627 81.9816 52.4785 81.8787C49.9944 81.7758 47.9316 82.1972 47.9316 82.8244Z" fill="white"/>
<path d="M48.4805 82.8046C48.4808 82.8455 48.4946 82.8851 48.5197 82.9173C48.8185 82.5498 50.4795 82.3342 52.4394 82.4273C54.3993 82.5204 56.026 82.8634 56.2906 83.2603C56.3186 83.2289 56.3357 83.1894 56.3396 83.1476C56.3396 82.7262 54.6149 82.295 52.4492 82.2069C50.2836 82.1187 48.5001 82.3783 48.4805 82.8046Z" fill="#8807F7"/>
<path opacity="0.4" d="M48.4805 82.8046C48.4808 82.8455 48.4946 82.8851 48.5197 82.9173C48.8185 82.5498 50.4795 82.3342 52.4394 82.4273C54.3993 82.5204 56.026 82.8634 56.2906 83.2603C56.3186 83.2289 56.3357 83.1894 56.3396 83.1476C56.3396 82.7262 54.6149 82.295 52.4492 82.2069C50.2836 82.1187 48.5001 82.3783 48.4805 82.8046Z" fill="#8807F7"/>
<path opacity="0.4" d="M48.5195 82.9173C48.789 83.3142 50.4059 83.667 52.3707 83.7503C54.3355 83.8336 55.9867 83.618 56.2904 83.2603C56.0258 82.8634 54.409 82.5106 52.4393 82.4273C50.4696 82.344 48.8184 82.5498 48.5195 82.9173Z" fill="#8807F7"/>
<path d="M47.9785 81.8884C47.9785 82.5156 49.9384 83.1134 52.4274 83.2163C54.9165 83.3192 56.9449 82.8978 56.9694 82.2706C56.9939 81.6435 55.0096 81.0457 52.5254 80.9379C50.0413 80.8301 48.0079 81.2613 47.9785 81.8884Z" fill="#8807F7"/>
<path d="M48.0191 80.7368L47.9707 81.8774L56.9633 82.2591L57.0117 81.1185L48.0191 80.7368Z" fill="#8807F7"/>
<path d="M48.0293 80.7467C48.0293 81.3788 49.9892 81.9717 52.4782 82.0795C54.9673 82.1872 56.9957 81.761 57.0202 81.1289C57.0447 80.4969 55.0603 79.904 52.5762 79.8011C50.0921 79.6982 48.0587 80.1196 48.0293 80.7467Z" fill="#8807F7"/>
<path opacity="0.4" d="M48.0293 80.7467C48.0293 81.3788 49.9892 81.9717 52.4782 82.0795C54.9673 82.1872 56.9957 81.761 57.0202 81.1289C57.0447 80.4969 55.0603 79.904 52.5762 79.8011C50.0921 79.6982 48.0587 80.1196 48.0293 80.7467Z" fill="white"/>
<path d="M48.6016 80.7273C48.6019 80.7681 48.6157 80.8077 48.6408 80.8399C48.9396 80.4725 50.6006 80.2569 52.5605 80.35C54.5204 80.4431 56.1471 80.7861 56.4117 81.1829C56.4397 81.1516 56.4568 81.1121 56.4607 81.0702C56.4607 80.6489 54.736 80.2177 52.5703 80.1295C50.4046 80.0413 48.6212 80.3059 48.6016 80.7273Z" fill="#8807F7"/>
<path opacity="0.4" d="M48.6016 80.7273C48.6019 80.7681 48.6157 80.8077 48.6408 80.8399C48.9396 80.4725 50.6006 80.2569 52.5605 80.35C54.5204 80.4431 56.1471 80.7861 56.4117 81.1829C56.4397 81.1516 56.4568 81.1121 56.4607 81.0702C56.4607 80.6489 54.736 80.2177 52.5703 80.1295C50.4046 80.0413 48.6212 80.3059 48.6016 80.7273Z" fill="#8807F7"/>
<path opacity="0.4" d="M48.6426 80.8399C48.9121 81.2368 50.529 81.5896 52.4937 81.6729C54.4585 81.7562 56.1097 81.5406 56.4135 81.1829C56.1489 80.786 54.532 80.4332 52.5623 80.3499C50.5927 80.2666 48.9415 80.4724 48.6426 80.8399Z" fill="#8807F7"/>
<path d="M47.0352 80.1638C47.0352 80.791 48.995 81.3887 51.4841 81.4916C53.9731 81.5945 56.0016 81.1731 56.031 80.546C56.0604 79.9188 54.0711 79.321 51.5821 79.2133C49.093 79.1055 47.0646 79.5219 47.0352 80.1638Z" fill="#8807F7"/>
<path d="M47.0816 79.0166L47.0332 80.1572L56.0258 80.5388L56.0742 79.3982L47.0816 79.0166Z" fill="#8807F7"/>
<path d="M47.0842 79.0319C47.0597 79.664 49.0441 80.2569 51.5331 80.3647C54.0222 80.4724 56.0506 80.0462 56.0751 79.4141C56.0996 78.7821 54.1153 78.1941 51.6311 78.0863C49.147 77.9785 47.1136 78.395 47.0842 79.0319Z" fill="#8807F7"/>
<path opacity="0.4" d="M47.0842 79.0319C47.0597 79.664 49.0441 80.2569 51.5331 80.3647C54.0222 80.4724 56.0506 80.0462 56.0751 79.4141C56.0996 78.7821 54.1153 78.1941 51.6311 78.0863C49.147 77.9785 47.1136 78.395 47.0842 79.0319Z" fill="white"/>
<path d="M47.6562 79.0026C47.6566 79.0435 47.6704 79.0831 47.6954 79.1153C47.9992 78.7479 49.6553 78.5323 51.6152 78.6254C53.5751 78.7185 55.2067 79.0614 55.4663 79.4583C55.4953 79.4296 55.5128 79.3912 55.5153 79.3505C55.5153 78.9242 53.7907 78.4931 51.625 78.4049C49.4593 78.3167 47.6758 78.5813 47.6562 79.0026Z" fill="#8807F7"/>
<path opacity="0.4" d="M47.6562 79.0026C47.6566 79.0435 47.6704 79.0831 47.6954 79.1153C47.9992 78.7479 49.6553 78.5323 51.6152 78.6254C53.5751 78.7185 55.2067 79.0614 55.4663 79.4583C55.4953 79.4296 55.5128 79.3912 55.5153 79.3505C55.5153 78.9242 53.7907 78.4931 51.625 78.4049C49.4593 78.3167 47.6758 78.5813 47.6562 79.0026Z" fill="#8807F7"/>
<path opacity="0.4" d="M47.6953 79.1153C47.9648 79.5122 49.5817 79.8649 51.5465 79.9482C53.5112 80.0315 55.1624 79.8159 55.4662 79.4583C55.2065 79.0614 53.5847 78.7086 51.6151 78.6253C49.6454 78.542 47.9991 78.7478 47.6953 79.1153Z" fill="#8807F7"/>
<path d="M48.4808 78.7036C48.4514 79.3308 50.4407 79.9286 52.9297 80.0315C55.4187 80.1343 57.4472 79.713 57.4717 79.0858C57.4962 78.4586 55.5118 77.8609 53.0228 77.7531C50.5338 77.6453 48.5053 78.052 48.4808 78.7036Z" fill="#8807F7"/>
<path d="M48.5191 77.5498L48.4707 78.6904L57.4633 79.072L57.5117 77.9314L48.5191 77.5498Z" fill="#8807F7"/>
<path d="M48.5277 77.5619C48.4983 78.194 50.4875 78.7868 52.9717 78.8946C55.4558 79.0024 57.4892 78.5762 57.5186 77.9441C57.548 77.312 55.5587 76.7192 53.0697 76.6163C50.5806 76.5134 48.5522 76.9348 48.5277 77.5619Z" fill="#8807F7"/>
<path opacity="0.4" d="M48.5277 77.5619C48.4983 78.194 50.4875 78.7868 52.9717 78.8946C55.4558 79.0024 57.4892 78.5762 57.5186 77.9441C57.548 77.312 55.5587 76.7192 53.0697 76.6163C50.5806 76.5134 48.5522 76.9348 48.5277 77.5619Z" fill="white"/>
<path d="M49.1023 77.5619C49.1002 77.5824 49.1027 77.6031 49.1095 77.6226C49.1162 77.6421 49.1271 77.6598 49.1414 77.6746C49.4403 77.3072 51.1013 77.0867 53.0612 77.1847C55.0211 77.2827 56.6527 77.6256 56.9172 78.0176C56.9444 77.9882 56.9601 77.9499 56.9613 77.9098C56.9613 77.4835 55.2416 77.0573 53.071 76.9642C50.9004 76.8711 49.117 77.1161 49.1023 77.5619Z" fill="#8807F7"/>
<path opacity="0.4" d="M49.1023 77.5619C49.1002 77.5824 49.1027 77.6031 49.1095 77.6226C49.1162 77.6421 49.1271 77.6598 49.1414 77.6746C49.4403 77.3072 51.1013 77.0867 53.0612 77.1847C55.0211 77.2827 56.6527 77.6256 56.9172 78.0176C56.9444 77.9882 56.9601 77.9499 56.9613 77.9098C56.9613 77.4835 55.2416 77.0573 53.071 76.9642C50.9004 76.8711 49.117 77.1161 49.1023 77.5619Z" fill="#8807F7"/>
<path opacity="0.4" d="M49.1426 77.6551C49.4072 78.0471 51.029 78.4048 52.9937 78.488C54.9585 78.5713 56.6048 78.3558 56.9135 77.9981C56.6489 77.6061 55.0271 77.2484 53.0574 77.1651C51.0878 77.0818 49.4415 77.2876 49.1426 77.6551Z" fill="#8807F7"/>
<path d="M42.1397 85.5877C42.2915 86.2001 44.3739 86.205 46.7846 85.5877C49.1952 84.9703 51.0228 84.0002 50.8709 83.3877C50.719 82.7752 48.6415 82.7703 46.2309 83.3877C43.8203 84.0051 41.9878 84.9801 42.1397 85.5877Z" fill="#8807F7"/>
<path d="M50.5963 82.2943L41.8652 84.481L42.1426 85.5884L50.8737 83.4018L50.5963 82.2943Z" fill="#8807F7"/>
<path d="M41.8648 84.4852C42.0167 85.0928 44.0942 85.1026 46.5048 84.4852C48.9155 83.8679 50.748 82.8977 50.5912 82.2902C50.4344 81.6826 48.3618 81.6728 45.9512 82.2902C43.5405 82.9075 41.708 83.8728 41.8648 84.4852Z" fill="#8807F7"/>
<path opacity="0.4" d="M41.8648 84.4852C42.0167 85.0928 44.0942 85.1026 46.5048 84.4852C48.9155 83.8679 50.748 82.8977 50.5912 82.2902C50.4344 81.6826 48.3618 81.6728 45.9512 82.2902C43.5405 82.9075 41.708 83.8728 41.8648 84.4852Z" fill="white"/>
<path d="M42.409 84.3041C42.4196 84.3425 42.444 84.3756 42.4776 84.3972C42.6589 83.9611 44.1729 83.2849 46.0838 82.8048C47.9946 82.3246 49.6458 82.207 50.0035 82.5108C50.0183 82.473 50.0183 82.431 50.0035 82.3932C49.9006 81.9816 48.1073 82.0649 46.0054 82.5941C43.9034 83.1232 42.3061 83.8876 42.409 84.3041Z" fill="#8807F7"/>
<path opacity="0.4" d="M42.409 84.3041C42.4196 84.3425 42.444 84.3756 42.4776 84.3972C42.6589 83.9611 44.1729 83.2849 46.0838 82.8048C47.9946 82.3246 49.6458 82.207 50.0035 82.5108C50.0183 82.473 50.0183 82.431 50.0035 82.3932C49.9006 81.9816 48.1073 82.0649 46.0054 82.5941C43.9034 83.1232 42.3061 83.8876 42.409 84.3041Z" fill="#8807F7"/>
<path opacity="0.4" d="M42.4785 84.4216C42.846 84.7254 44.5021 84.6078 46.3983 84.1276C48.2944 83.6475 49.828 82.9762 50.0044 82.5352C49.637 82.2315 47.9858 82.354 46.0847 82.8292C44.1836 83.3045 42.6598 83.961 42.4785 84.4216Z" fill="#8807F7"/>
<path d="M37.9688 85.6906C37.9688 86.3178 39.9286 86.9155 42.4177 87.0184C44.9067 87.1213 46.9352 86.6999 46.9597 86.0728C46.9842 85.4456 44.9998 84.8479 42.5157 84.7401C40.0315 84.6323 37.9981 85.0585 37.9688 85.6906Z" fill="#8807F7"/>
<path d="M38.0132 84.5393L37.9648 85.6799L46.9575 86.0616L47.0059 84.921L38.0132 84.5393Z" fill="#8807F7"/>
<path d="M38.0198 84.549C37.9953 85.181 39.9796 85.7739 42.4687 85.8817C44.9577 85.9895 46.9862 85.5632 47.0107 84.9312C47.0352 84.2991 45.0508 83.7062 42.5667 83.6033C40.0825 83.5004 38.0492 83.9316 38.0198 84.549Z" fill="#8807F7"/>
<path opacity="0.4" d="M38.0198 84.549C37.9953 85.181 39.9796 85.7739 42.4687 85.8817C44.9577 85.9895 46.9862 85.5632 47.0107 84.9312C47.0352 84.2991 45.0508 83.7062 42.5667 83.6033C40.0825 83.5004 38.0492 83.9316 38.0198 84.549Z" fill="white"/>
<path d="M38.5938 84.5294C38.5941 84.5703 38.6079 84.6099 38.6329 84.6421C38.9318 84.2747 40.5928 84.0542 42.5527 84.1522C44.5126 84.2502 46.1393 84.5931 46.4038 84.99C46.4318 84.9587 46.449 84.9192 46.4528 84.8773C46.4528 84.451 44.7282 84.0248 42.5625 83.9366C40.3968 83.8484 38.6231 84.1032 38.5938 84.5294Z" fill="#8807F7"/>
<path opacity="0.4" d="M38.5938 84.5294C38.5941 84.5703 38.6079 84.6099 38.6329 84.6421C38.9318 84.2747 40.5928 84.0542 42.5527 84.1522C44.5126 84.2502 46.1393 84.5931 46.4038 84.99C46.4318 84.9587 46.449 84.9192 46.4528 84.8773C46.4528 84.451 44.7282 84.0248 42.5625 83.9366C40.3968 83.8484 38.6231 84.1032 38.5938 84.5294Z" fill="#8807F7"/>
<path opacity="0.4" d="M38.6211 84.6423C38.8906 85.0391 40.5075 85.3919 42.4722 85.4752C44.437 85.5585 46.0882 85.3429 46.392 84.9852C46.1274 84.5883 44.5105 84.2356 42.5408 84.1474C40.5712 84.0592 38.9298 84.2748 38.6211 84.6423Z" fill="#8807F7"/>
<path d="M84.4144 85.6368C84.385 86.2835 86.4331 86.896 88.9858 87.0038C91.5385 87.1116 93.6307 86.6755 93.6601 86.0238C93.6895 85.3722 91.6365 84.7695 89.0838 84.6568C86.531 84.5441 84.4389 84.99 84.4144 85.6368Z" fill="#8807F7"/>
<path d="M84.452 84.4509L84.4023 85.6208L93.6495 86.0133L93.6992 84.8433L84.452 84.4509Z" fill="#8807F7"/>
<path d="M84.4632 84.4656C84.4338 85.1124 86.4819 85.7249 89.0346 85.8327C91.5874 85.9404 93.6795 85.5044 93.7089 84.8527C93.7383 84.2011 91.6902 83.5984 89.1326 83.4857C86.575 83.373 84.4877 83.8189 84.4632 84.4656Z" fill="#8807F7"/>
<path opacity="0.4" d="M84.4632 84.4656C84.4338 85.1124 86.4819 85.7249 89.0346 85.8327C91.5874 85.9404 93.6795 85.5044 93.7089 84.8527C93.7383 84.2011 91.6902 83.5984 89.1326 83.4857C86.575 83.373 84.4877 83.8189 84.4632 84.4656Z" fill="white"/>
<path d="M85.0508 84.4461C85.0518 84.4884 85.0654 84.5294 85.09 84.5637C85.3987 84.1816 87.089 83.9611 89.1126 84.0444C91.1362 84.1277 92.8021 84.4951 93.0716 84.9018C93.1017 84.8719 93.1192 84.8316 93.1206 84.7891C93.1206 84.353 91.3518 83.9121 89.1224 83.8092C86.8931 83.7063 85.0704 84.0101 85.0508 84.4461Z" fill="#8807F7"/>
<path opacity="0.4" d="M85.0508 84.4461C85.0518 84.4884 85.0654 84.5294 85.09 84.5637C85.3987 84.1816 87.089 83.9611 89.1126 84.0444C91.1362 84.1277 92.8021 84.4951 93.0716 84.9018C93.1017 84.8719 93.1192 84.8316 93.1206 84.7891C93.1206 84.353 91.3518 83.9121 89.1224 83.8092C86.8931 83.7063 85.0704 84.0101 85.0508 84.4461Z" fill="#8807F7"/>
<path opacity="0.4" d="M85.0898 84.5636C85.3691 84.9654 87.0497 85.3328 89.0537 85.421C91.0577 85.5092 92.7677 85.2838 93.0714 84.9017C92.802 84.495 91.1361 84.1324 89.1125 84.0442C87.0889 83.956 85.3985 84.1814 85.0898 84.5636Z" fill="#8807F7"/>
<path d="M83.4397 83.8631C83.4152 84.5099 85.4632 85.1223 88.016 85.235C90.5687 85.3477 92.6609 84.9067 92.6854 84.2551C92.7099 83.6034 90.6667 82.9959 88.114 82.8832C85.5612 82.7705 83.4691 83.2163 83.4397 83.8631Z" fill="#8807F7"/>
<path d="M83.4871 82.6892L83.4375 83.8591L92.6847 84.2516L92.7343 83.0816L83.4871 82.6892Z" fill="#8807F7"/>
<path d="M83.4925 82.692C83.4631 83.3387 85.5112 83.9512 88.0639 84.0639C90.6167 84.1766 92.7088 83.7356 92.7382 83.0839C92.7676 82.4323 90.7146 81.8247 88.1619 81.712C85.6092 81.5993 83.517 82.0452 83.4925 82.692Z" fill="#8807F7"/>
<path opacity="0.4" d="M83.4925 82.692C83.4631 83.3387 85.5112 83.9512 88.0639 84.0639C90.6167 84.1766 92.7088 83.7356 92.7382 83.0839C92.7676 82.4323 90.7146 81.8247 88.1619 81.712C85.6092 81.5993 83.517 82.0452 83.4925 82.692Z" fill="white"/>
<path d="M84.082 82.6725C84.083 82.7147 84.0967 82.7557 84.1212 82.7901C84.4299 82.4079 86.1203 82.1874 88.139 82.2707C90.1576 82.354 91.8333 82.7214 92.1028 83.1281C92.1308 83.0968 92.148 83.0573 92.1518 83.0154C92.1518 82.5794 90.3781 82.1384 88.1488 82.0355C85.9194 81.9326 84.1016 82.2364 84.082 82.6725Z" fill="#8807F7"/>
<path opacity="0.4" d="M84.082 82.6725C84.083 82.7147 84.0967 82.7557 84.1212 82.7901C84.4299 82.4079 86.1203 82.1874 88.139 82.2707C90.1576 82.354 91.8333 82.7214 92.1028 83.1281C92.1308 83.0968 92.148 83.0573 92.1518 83.0154C92.1518 82.5794 90.3781 82.1384 88.1488 82.0355C85.9194 81.9326 84.1016 82.2364 84.082 82.6725Z" fill="#8807F7"/>
<path opacity="0.4" d="M84.1211 82.7902C84.3955 83.1919 86.081 83.5594 88.08 83.6476C90.0791 83.7358 91.7989 83.5104 92.1027 83.1282C91.8332 82.7215 90.1673 82.359 88.1388 82.2708C86.1104 82.1826 84.4298 82.408 84.1211 82.7902Z" fill="#8807F7"/>
<path d="M85.5257 82.5548C85.4963 83.1966 87.5444 83.8091 90.0971 83.9218C92.6498 84.0345 94.742 83.5935 94.7714 82.9418C94.8008 82.2902 92.7478 81.6826 90.1951 81.5748C87.6424 81.467 85.5502 81.908 85.5257 82.5548Z" fill="#8807F7"/>
<path d="M85.5672 81.3713L85.5176 82.5413L94.7648 82.9337L94.8144 81.7637L85.5672 81.3713Z" fill="#8807F7"/>
<path d="M85.5765 81.379C85.5471 82.0257 87.5952 82.6382 90.1479 82.7509C92.7006 82.8636 94.7928 82.4226 94.8222 81.7709C94.8516 81.1193 92.7986 80.5117 90.2459 80.4039C87.6931 80.2961 85.601 80.7371 85.5765 81.379Z" fill="#8807F7"/>
<path opacity="0.4" d="M85.5765 81.379C85.5471 82.0257 87.5952 82.6382 90.1479 82.7509C92.7006 82.8636 94.7928 82.4226 94.8222 81.7709C94.8516 81.1193 92.7986 80.5117 90.2459 80.4039C87.6931 80.2961 85.601 80.7371 85.5765 81.379Z" fill="white"/>
<path d="M86.1484 81.3595C86.1494 81.4017 86.1631 81.4427 86.1876 81.4771C86.4963 81.0949 88.1867 80.8744 90.2054 80.9577C92.224 81.041 93.8997 81.4085 94.1692 81.8151C94.1972 81.7838 94.2144 81.7443 94.2182 81.7024C94.2182 81.2664 92.4445 80.8254 90.2152 80.7225C87.9858 80.6196 86.1827 80.9234 86.1484 81.3595Z" fill="#8807F7"/>
<path opacity="0.4" d="M86.1484 81.3595C86.1494 81.4017 86.1631 81.4427 86.1876 81.4771C86.4963 81.0949 88.1867 80.8744 90.2054 80.9577C92.224 81.041 93.8997 81.4085 94.1692 81.8151C94.1972 81.7838 94.2144 81.7443 94.2182 81.7024C94.2182 81.2664 92.4445 80.8254 90.2152 80.7225C87.9858 80.6196 86.1827 80.9234 86.1484 81.3595Z" fill="#8807F7"/>
<path opacity="0.4" d="M86.2012 81.4818C86.4756 81.8885 88.1611 82.2511 90.1601 82.3393C92.1592 82.4275 93.879 82.2021 94.1828 81.8199C93.9133 81.4132 92.2474 81.0506 90.2189 80.9625C88.1905 80.8743 86.5099 81.0947 86.2012 81.4818Z" fill="#8807F7"/>
<path d="M85.5511 80.7811C85.5217 81.4278 87.5698 82.0403 90.1225 82.1481C92.6752 82.2559 94.7674 81.8198 94.7968 81.1681C94.8262 80.5165 92.7732 79.9089 90.2205 79.8011C87.6678 79.6933 85.5756 80.1343 85.5511 80.7811Z" fill="#8807F7"/>
<path d="M85.4218 79.0043L85.375 80.1753L94.6305 80.5455L94.6774 79.3745L85.4218 79.0043Z" fill="#8807F7"/>
<path d="M85.5999 79.6102C85.5705 80.2569 87.6186 80.8694 90.1713 80.9772C92.7241 81.085 94.8162 80.6489 94.8456 79.9973C94.875 79.3456 92.8221 78.738 90.2693 78.6302C87.7166 78.5224 85.6244 78.9634 85.5999 79.6102Z" fill="#8807F7"/>
<path opacity="0.4" d="M85.5999 79.6102C85.5705 80.2569 87.6186 80.8694 90.1713 80.9772C92.7241 81.085 94.8162 80.6489 94.8456 79.9973C94.875 79.3456 92.8221 78.738 90.2693 78.6302C87.7166 78.5224 85.6244 78.9634 85.5999 79.6102Z" fill="white"/>
<path d="M86.1875 79.5904C86.1885 79.6312 86.2022 79.6706 86.2267 79.7031C86.5354 79.321 88.2258 79.1005 90.2444 79.1838C92.2631 79.2671 93.9388 79.6394 94.2083 80.0412C94.2384 80.0113 94.2559 79.9709 94.2573 79.9285C94.2573 79.4924 92.4885 79.0515 90.2542 78.9486C88.02 78.8457 86.2071 79.1495 86.1875 79.5904Z" fill="#8807F7"/>
<path opacity="0.4" d="M86.1875 79.5904C86.1885 79.6312 86.2022 79.6706 86.2267 79.7031C86.5354 79.321 88.2258 79.1005 90.2444 79.1838C92.2631 79.2671 93.9388 79.6394 94.2083 80.0412C94.2384 80.0113 94.2559 79.9709 94.2573 79.9285C94.2573 79.4924 92.4885 79.0515 90.2542 78.9486C88.02 78.8457 86.2071 79.1495 86.1875 79.5904Z" fill="#8807F7"/>
<path opacity="0.4" d="M86.2266 79.7032C86.5009 80.1099 88.1864 80.4725 90.1904 80.5607C92.1944 80.6489 93.9044 80.4235 94.2082 80.0413C93.9387 79.6395 92.2728 79.2721 90.2443 79.1839C88.2158 79.0957 86.5352 79.321 86.2266 79.7032Z" fill="#8807F7"/>
<path d="M83.6488 79.3309C83.6194 79.9776 85.6674 80.5901 88.2202 80.6979C90.7729 80.8057 92.8651 80.3696 92.8945 79.718C92.9239 79.0663 90.8758 78.4587 88.3231 78.3509C85.7703 78.2431 83.6977 78.6841 83.6488 79.3309Z" fill="#8807F7"/>
<path d="M83.7061 78.1711L83.6562 79.3411L92.9034 79.7351L92.9532 78.5651L83.7061 78.1711Z" fill="#8807F7"/>
<path d="M83.6995 78.1597C83.6701 78.8065 85.7182 79.419 88.2709 79.5267C90.8237 79.6345 92.9158 79.1985 92.9452 78.5468C92.9746 77.8952 90.9266 77.2876 88.3738 77.1798C85.8211 77.072 83.7289 77.513 83.6995 78.1597Z" fill="#8807F7"/>
<path opacity="0.4" d="M83.6995 78.1597C83.6701 78.8065 85.7182 79.419 88.2709 79.5267C90.8237 79.6345 92.9158 79.1985 92.9452 78.5468C92.9746 77.8952 90.9266 77.2876 88.3738 77.1798C85.8211 77.072 83.7289 77.513 83.6995 78.1597Z" fill="white"/>
<path d="M84.2871 78.1402C84.2881 78.1809 84.3018 78.2203 84.3263 78.2529C84.6399 77.8756 86.3303 77.6502 88.3489 77.7384C90.3676 77.8266 92.0384 78.1892 92.3079 78.591C92.3377 78.5628 92.3553 78.5241 92.3569 78.4832C92.3569 78.0422 90.5881 77.6061 88.3587 77.5033C86.1294 77.4004 84.3067 77.6992 84.2871 78.1402Z" fill="#8807F7"/>
<path opacity="0.4" d="M84.2871 78.1402C84.2881 78.1809 84.3018 78.2203 84.3263 78.2529C84.6399 77.8756 86.3303 77.6502 88.3489 77.7384C90.3676 77.8266 92.0384 78.1892 92.3079 78.591C92.3377 78.5628 92.3553 78.5241 92.3569 78.4832C92.3569 78.0422 90.5881 77.6061 88.3587 77.5033C86.1294 77.4004 84.3067 77.6992 84.2871 78.1402Z" fill="#8807F7"/>
<path opacity="0.4" d="M84.3262 78.253C84.6055 78.6596 86.286 79.0271 88.29 79.1104C90.294 79.1937 92.004 78.9732 92.3078 78.591C92.0383 78.1893 90.3724 77.8218 88.3488 77.7385C86.3252 77.6552 84.6398 77.8757 84.3262 78.253Z" fill="#8807F7"/>
<path d="M95.5861 82.8586C95.3167 83.4319 96.9237 84.7499 99.1727 85.7984C101.422 86.847 103.465 87.2683 103.729 86.6804C103.994 86.0924 102.392 84.794 100.143 83.7406C97.8939 82.6871 95.8507 82.2903 95.5861 82.8586Z" fill="#8807F7"/>
<path d="M96.0715 81.844L95.5859 82.8772L103.732 86.7053L104.218 85.672L96.0715 81.844Z" fill="#8807F7"/>
<path d="M96.0705 81.8298C95.801 82.3981 97.4081 83.7162 99.6571 84.7696C101.906 85.823 103.949 86.2395 104.214 85.6515C104.478 85.0636 102.876 83.7603 100.627 82.7117C98.3783 81.6632 96.3351 81.2565 96.0705 81.8298Z" fill="#8807F7"/>
<path opacity="0.4" d="M96.0705 81.8298C95.801 82.3981 97.4081 83.7162 99.6571 84.7696C101.906 85.823 103.949 86.2395 104.214 85.6515C104.478 85.0636 102.876 83.7603 100.627 82.7117C98.3783 81.6632 96.3351 81.2565 96.0705 81.8298Z" fill="white"/>
<path d="M96.6048 82.0305C96.5901 82.0683 96.5901 82.1103 96.6048 82.1481C97.0213 81.9276 98.6235 82.3588 100.402 83.1966C102.181 84.0345 103.543 84.9899 103.636 85.4554C103.673 85.4383 103.702 85.4088 103.719 85.3721C103.9 84.985 102.46 83.9022 100.495 82.9957C98.5304 82.0893 96.7861 81.6483 96.6048 82.0305Z" fill="#8807F7"/>
<path opacity="0.4" d="M96.6048 82.0305C96.5901 82.0683 96.5901 82.1103 96.6048 82.1481C97.0213 81.9276 98.6235 82.3588 100.402 83.1966C102.181 84.0345 103.543 84.9899 103.636 85.4554C103.673 85.4383 103.702 85.4088 103.719 85.3721C103.9 84.985 102.46 83.9022 100.495 82.9957C98.5304 82.0893 96.7861 81.6483 96.6048 82.0305Z" fill="#8807F7"/>
<path opacity="0.4" d="M96.5996 82.148C96.6927 82.638 98.0695 83.5689 99.8285 84.4068C101.588 85.2446 103.214 85.6807 103.631 85.4553C103.538 84.9898 102.161 84.0344 100.397 83.1966C98.633 82.3587 97.0161 81.9275 96.5996 82.148Z" fill="#8807F7"/>
<path d="M90.8576 84.8823C90.8331 85.5094 92.8175 86.1023 95.3066 86.2101C97.7956 86.3179 99.8241 85.8916 99.8535 85.2644C99.8829 84.6373 97.8936 84.0395 95.4046 83.9317C92.9155 83.8239 90.887 84.2502 90.8576 84.8823Z" fill="#8807F7"/>
<path d="M90.9 83.7246L90.8516 84.8652L99.8442 85.2469L99.8926 84.1062L90.9 83.7246Z" fill="#8807F7"/>
<path d="M90.9062 83.7406C90.9062 84.3678 92.8661 84.9656 95.3552 85.0734C97.8442 85.1811 99.8727 84.75 99.8972 84.1228C99.9217 83.4957 97.9373 82.8979 95.4532 82.795C92.969 82.6921 90.9356 83.1135 90.9062 83.7406Z" fill="#8807F7"/>
<path opacity="0.4" d="M90.9062 83.7406C90.9062 84.3678 92.8661 84.9656 95.3552 85.0734C97.8442 85.1811 99.8727 84.75 99.8972 84.1228C99.9217 83.4957 97.9373 82.8979 95.4532 82.795C92.969 82.6921 90.9356 83.1135 90.9062 83.7406Z" fill="white"/>
<path d="M91.4805 83.7211C91.4808 83.762 91.4946 83.8016 91.5197 83.8338C91.8234 83.4614 93.4795 83.2458 95.4394 83.3438C97.3993 83.4418 99.0309 83.7848 99.2906 84.1768C99.3204 84.1486 99.338 84.11 99.3396 84.069C99.3396 83.6427 97.6149 83.2165 95.4492 83.1234C93.2836 83.0303 91.5001 83.2949 91.4805 83.7211Z" fill="#8807F7"/>
<path opacity="0.4" d="M91.4805 83.7211C91.4808 83.762 91.4946 83.8016 91.5197 83.8338C91.8234 83.4614 93.4795 83.2458 95.4394 83.3438C97.3993 83.4418 99.0309 83.7848 99.2906 84.1768C99.3204 84.1486 99.338 84.11 99.3396 84.069C99.3396 83.6427 97.6149 83.2165 95.4492 83.1234C93.2836 83.0303 91.5001 83.2949 91.4805 83.7211Z" fill="#8807F7"/>
<path opacity="0.4" d="M91.5391 83.8336C91.8085 84.2256 93.4254 84.5832 95.3902 84.6665C97.355 84.7498 99.0062 84.5342 99.31 84.1766C99.0503 83.7846 97.4285 83.4269 95.4588 83.3436C93.4891 83.2603 91.8232 83.4416 91.5391 83.8336Z" fill="#8807F7"/>
<path d="M26.5494 61.3248C26.5505 61.744 26.5505 62.1632 26.5516 62.5823C26.5527 62.9437 26.4342 63.2956 26.0993 63.4802C25.7072 63.6944 25.1514 63.6405 24.714 63.5953C24.6975 63.5942 24.6821 63.592 24.6667 63.5909C24.681 63.289 24.6755 62.9844 24.6611 62.6837C24.6424 62.2761 24.8897 61.7902 25.3271 61.7214C25.8025 61.6465 26.2156 61.5958 26.4398 61.3336C26.4475 61.3259 26.4541 61.3182 26.4607 61.3094C26.4937 61.2648 26.529 61.2212 26.5642 61.1777C26.5532 61.2251 26.5494 61.2752 26.5494 61.3248Z" fill="#B86AFA"/>
<path d="M25.1113 66.3251C25.4385 66.346 25.7679 66.3411 26.0956 66.3466C26.4779 66.3532 26.869 66.4006 27.2381 66.3334C27.7674 66.237 28.3628 65.8916 28.5595 65.3799C28.7418 64.9062 28.6559 64.3405 28.3419 63.9428C28.3199 63.9153 28.2967 63.8888 28.2714 63.8624C27.9541 63.5154 27.4617 63.3341 26.994 63.3964C26.4118 63.4735 25.899 63.9312 25.7481 64.498C25.6539 64.8517 25.736 65.2284 25.6809 65.5887C25.6357 65.8872 25.3812 66.1929 25.1113 66.3251Z" fill="#B86AFA"/>
<path d="M28.3848 59.9736C28.3556 60.0623 28.3908 60.1587 28.4289 60.2441C28.9141 61.327 30.2157 62.0596 30.1711 63.3601C30.1507 63.9484 29.8571 64.6396 29.3664 64.9883C29.3305 65.0137 29.2981 65.0362 29.2562 65.0478C29.1625 64.8726 29.1526 64.616 29.0728 64.4226C28.9731 64.1803 28.8409 63.9418 28.6563 63.7539C28.4795 63.5744 28.2581 63.4708 28.0813 63.2945C27.71 62.9238 27.4759 62.4154 27.4451 61.891C27.3999 61.143 27.7739 60.4011 28.3848 59.9736Z" fill="#B86AFA"/>
<path d="M25.006 62.5851C25.006 62.5851 24.9889 62.2585 25.3233 62.275C25.3238 62.275 25.4456 62.632 25.006 62.5851Z" fill="#8807F7" stroke="#B86AFA" stroke-width="0.078533" stroke-miterlimit="10"/>
<path d="M24.8959 65.3487C25.202 65.3487 25.4501 65.1006 25.4501 64.7946C25.4501 64.4886 25.202 64.2405 24.8959 64.2405C24.5899 64.2405 24.3418 64.4886 24.3418 64.7946C24.3418 65.1006 24.5899 65.3487 24.8959 65.3487Z" fill="#B86AFA"/>
<path d="M73.5494 43.1717C73.5505 43.5909 73.5505 44.0101 73.5516 44.4293C73.5527 44.7906 73.4342 45.1426 73.0993 45.3271C72.7072 45.5414 72.1514 45.4874 71.714 45.4422C71.6975 45.4411 71.6821 45.4389 71.6667 45.4378C71.681 45.136 71.6755 44.8314 71.6611 44.5306C71.6424 44.123 71.8897 43.6372 72.3271 43.5683C72.8025 43.4934 73.2156 43.4427 73.4398 43.1805C73.4475 43.1728 73.4541 43.1651 73.4607 43.1563C73.4937 43.1117 73.529 43.0682 73.5642 43.0247C73.5532 43.072 73.5494 43.1222 73.5494 43.1717Z" fill="#B86AFA"/>
<path d="M72.1113 48.172C72.4385 48.193 72.7679 48.188 73.0956 48.1935C73.4779 48.2001 73.869 48.2475 74.2381 48.1803C74.7674 48.0839 75.3628 47.7385 75.5595 47.2268C75.7418 46.7531 75.6559 46.1874 75.3419 45.7897C75.3199 45.7622 75.2967 45.7357 75.2714 45.7093C74.9541 45.3623 74.4617 45.1811 73.994 45.2433C73.4118 45.3204 72.899 45.7782 72.7481 46.3449C72.6539 46.6986 72.736 47.0753 72.6809 47.4356C72.6357 47.7341 72.3812 48.0398 72.1113 48.172Z" fill="#B86AFA"/>
<path d="M75.3848 41.8206C75.3556 41.9092 75.3908 42.0056 75.4289 42.091C75.9141 43.1739 77.2157 43.9065 77.1711 45.207C77.1507 45.7953 76.8571 46.4866 76.3664 46.8352C76.3305 46.8606 76.2981 46.8832 76.2562 46.8947C76.1625 46.7196 76.1526 46.4629 76.0728 46.2695C75.9731 46.0272 75.8409 45.7887 75.6563 45.6008C75.4795 45.4213 75.2581 45.3177 75.0813 45.1415C74.71 44.7708 74.4759 44.2623 74.4451 43.738C74.3999 42.99 74.7739 42.248 75.3848 41.8206Z" fill="#B86AFA"/>
<path d="M72.006 44.4321C72.006 44.4321 71.9889 44.1054 72.3233 44.1219C72.3238 44.1219 72.4456 44.4789 72.006 44.4321Z" fill="#8807F7" stroke="#B86AFA" stroke-width="0.078533" stroke-miterlimit="10"/>
<path d="M71.8959 47.1957C72.202 47.1957 72.4501 46.9476 72.4501 46.6415C72.4501 46.3355 72.202 46.0874 71.8959 46.0874C71.5899 46.0874 71.3418 46.3355 71.3418 46.6415C71.3418 46.9476 71.5899 47.1957 71.8959 47.1957Z" fill="#B86AFA"/>
<path d="M131.241 77.4889C131.242 77.908 131.242 78.3272 131.243 78.7464C131.244 79.1077 131.126 79.4597 130.791 79.6442C130.399 79.8585 129.843 79.8045 129.405 79.7594C129.389 79.7583 129.373 79.756 129.358 79.7549C129.372 79.4531 129.367 79.1485 129.353 78.8477C129.334 78.4401 129.581 77.9543 130.018 77.8855C130.494 77.8105 130.907 77.7599 131.131 77.4977C131.139 77.49 131.145 77.4823 131.152 77.4734C131.185 77.4288 131.22 77.3853 131.256 77.3418C131.245 77.3892 131.241 77.4393 131.241 77.4889Z" fill="#B86AFA"/>
<path d="M129.803 82.4892C130.13 82.5101 130.459 82.5051 130.787 82.5106C131.169 82.5173 131.56 82.5646 131.929 82.4974C132.459 82.401 133.054 82.0557 133.251 81.544C133.433 81.0702 133.347 80.5046 133.033 80.1069C133.011 80.0793 132.988 80.0529 132.963 80.0264C132.646 79.6794 132.153 79.4982 131.685 79.5604C131.103 79.6376 130.59 80.0953 130.439 80.6621C130.345 81.0157 130.427 81.3925 130.372 81.7527C130.327 82.0513 130.073 82.357 129.803 82.4892Z" fill="#B86AFA"/>
<path d="M133.076 76.1377C133.047 76.2264 133.082 76.3228 133.12 76.4081C133.606 77.4911 134.907 78.2237 134.863 79.5241C134.842 80.1124 134.549 80.8037 134.058 81.1524C134.022 81.1777 133.989 81.2003 133.948 81.2119C133.854 81.0367 133.844 80.78 133.764 80.5867C133.664 80.3443 133.532 80.1058 133.348 79.918C133.171 79.7384 132.95 79.6349 132.773 79.4586C132.401 79.0879 132.167 78.5795 132.136 78.0551C132.091 77.3071 132.465 76.5651 133.076 76.1377Z" fill="#B86AFA"/>
<path d="M129.697 78.7492C129.697 78.7492 129.68 78.4226 130.015 78.4391C130.015 78.4391 130.137 78.796 129.697 78.7492Z" fill="#8807F7" stroke="#B86AFA" stroke-width="0.078533" stroke-miterlimit="10"/>
<path d="M129.587 81.5128C129.893 81.5128 130.141 81.2647 130.141 80.9587C130.141 80.6526 129.893 80.4045 129.587 80.4045C129.281 80.4045 129.033 80.6526 129.033 80.9587C129.033 81.2647 129.281 81.5128 129.587 81.5128Z" fill="#B86AFA"/>
</svg>
