<svg width="22" height="22" viewBox="0 0 22 22" fill="none" xmlns="http://www.w3.org/2000/svg">
<path d="M18.7204 4.19834C18.2605 3.73686 17.7141 3.37071 17.1124 3.12087C16.5107 2.87104 15.8656 2.74243 15.2141 2.74243C14.5626 2.74243 13.9175 2.87104 13.3159 3.12087C12.7142 3.37071 12.1677 3.73686 11.7079 4.19834L11.002 4.91334L10.2962 4.19834C9.83633 3.73686 9.28988 3.37071 8.6882 3.12087C8.08652 2.87104 7.44144 2.74243 6.78995 2.74243C6.13846 2.74243 5.49338 2.87104 4.8917 3.12087C4.29002 3.37071 3.74357 3.73686 3.2837 4.19834C1.34037 6.14167 1.2212 9.42334 3.6687 11.9167L11.002 19.25L18.3354 11.9167C20.7829 9.42334 20.6637 6.14167 18.7204 4.19834Z" stroke="#3D0072" stroke-width="1.83333" stroke-linecap="round" stroke-linejoin="round"/>
<path d="M10.9999 4.91333L8.13072 7.79166C7.76799 8.15736 7.56445 8.65158 7.56445 9.16666C7.56445 9.68175 7.76799 10.176 8.13072 10.5417V10.5417C8.49642 10.9044 8.99064 11.1079 9.50572 11.1079C10.0208 11.1079 10.515 10.9044 10.8807 10.5417L12.9524 8.51583C13.4672 8.00642 14.1623 7.7207 14.8866 7.7207C15.6108 7.7207 16.3059 8.00642 16.8207 8.51583L19.0207 10.7158M16.4999 13.75L14.6666 11.9167M13.7499 16.5L11.9166 14.6667" stroke="#3D0072" stroke-width="1.83333" stroke-linecap="round" stroke-linejoin="round"/>
</svg>
