<svg width="21" height="21" viewBox="0 0 21 21" fill="none" xmlns="http://www.w3.org/2000/svg">
<path d="M17.0625 5.90625H3.9375C2.85019 5.90625 1.96875 6.78769 1.96875 7.875V15.75C1.96875 16.8373 2.85019 17.7188 3.9375 17.7188H17.0625C18.1498 17.7188 19.0312 16.8373 19.0312 15.75V7.875C19.0312 6.78769 18.1498 5.90625 17.0625 5.90625Z" stroke="#3D0072" stroke-width="1.3125" stroke-linejoin="round"/>
<path d="M16.8722 5.90632V4.67585C16.8721 4.37406 16.8054 4.07601 16.6768 3.80297C16.5483 3.52993 16.3611 3.28862 16.1285 3.09627C15.896 2.90392 15.6238 2.76526 15.3315 2.69019C15.0392 2.61512 14.734 2.60549 14.4375 2.66199L3.63563 4.50564C3.16654 4.59503 2.74335 4.84532 2.43905 5.21334C2.13476 5.58136 1.96843 6.04403 1.96875 6.52156V8.53132" stroke="#3D0072" stroke-width="1.3125" stroke-linejoin="round"/>
<path d="M15.0938 13.125C14.8342 13.125 14.5804 13.048 14.3646 12.9038C14.1487 12.7596 13.9805 12.5546 13.8812 12.3148C13.7818 12.0749 13.7558 11.811 13.8065 11.5564C13.8571 11.3018 13.9821 11.068 14.1657 10.8844C14.3492 10.7009 14.5831 10.5759 14.8377 10.5252C15.0923 10.4746 15.3562 10.5006 15.596 10.5999C15.8359 10.6992 16.0408 10.8675 16.1851 11.0833C16.3293 11.2992 16.4063 11.5529 16.4063 11.8125C16.4063 12.1606 16.268 12.4944 16.0218 12.7406C15.7757 12.9867 15.4418 13.125 15.0938 13.125Z" fill="#3D0072"/>
</svg>
