<svg width="182" height="149" viewBox="0 0 182 149" fill="none" xmlns="http://www.w3.org/2000/svg">
<path d="M119.654 43.4726L134.837 47.0153L101.607 189.421L86.4243 185.879C67.8416 181.187 51.8435 169.387 41.8729 153.019C31.9023 136.651 28.7562 117.023 33.1115 98.3581C37.4668 79.6936 48.9754 63.485 65.1608 53.2203C81.3461 42.9555 100.914 39.4552 119.654 43.4726Z" fill="#8807F7"/>
<path opacity="0.1" d="M119.654 43.4726L134.837 47.0153L101.607 189.421L86.4243 185.879C67.8416 181.187 51.8435 169.387 41.8729 153.019C31.9023 136.651 28.7562 117.023 33.1115 98.3581C37.4668 79.6936 48.9754 63.485 65.1608 53.2203C81.3461 42.9555 100.914 39.4552 119.654 43.4726Z" fill="#3D0072"/>
<path opacity="0.3" d="M113.897 136.834L112.394 143.274L30.5545 124.177C30.2266 121.88 30.0298 119.567 29.9648 117.248L113.897 136.834Z" fill="#263238"/>
<path opacity="0.3" d="M37.2559 146.531L107.796 162.991L101.628 189.427L86.4222 185.879C75.8067 183.413 65.8793 178.598 57.3705 171.788C48.8618 164.979 41.9882 156.348 37.2559 146.531Z" fill="#263238"/>
<path d="M162.177 187.032L160.87 184.962C174.585 176.24 185.267 163.49 191.452 148.459L193.685 149.397C187.327 164.899 176.319 178.047 162.177 187.032Z" fill="#8807F7"/>
<path d="M173.955 165.546C200.087 134.77 196.323 88.636 165.546 62.5037C134.77 36.3714 88.6366 40.136 62.5043 70.9123C36.3719 101.689 40.1366 147.822 70.9128 173.954C101.689 200.087 147.823 196.322 173.955 165.546Z" fill="#8807F7"/>
<path d="M116.986 143.464L115.402 123.776C110.1 122.987 105.166 120.596 101.263 116.921C98.0855 113.531 96.1809 109.145 95.8727 104.509C95.3423 99.7385 96.7061 94.9506 99.6704 91.1757C102.776 87.3259 107.22 84.7906 112.114 84.0769L111.726 79.3284L118.573 78.6706L118.96 83.419C123.393 83.4078 127.708 84.8538 131.239 87.5344C134.552 90.3129 136.855 94.1081 137.79 98.3303L126.051 100.837C125.707 99.2225 124.951 97.7244 123.855 96.4891C122.76 95.2539 121.363 94.3237 119.801 93.7893L121.306 112.135C128.967 113.555 134.306 115.782 137.284 118.781C140.398 122.082 142.212 126.397 142.392 130.932C142.97 136.162 141.551 141.417 138.419 145.646C135.023 149.999 130.146 152.953 124.714 153.946L125.102 158.694L118.3 159.265L117.934 154.742C112.933 154.696 108.1 152.937 104.241 149.757C100.277 146.108 97.5949 141.278 96.5938 135.984L108.754 133.673C109.37 135.981 110.507 138.116 112.077 139.916C113.403 141.478 115.087 142.695 116.986 143.464ZM112.962 94.2038C111.246 94.9095 109.799 96.1431 108.831 97.7262C107.875 99.2511 107.455 101.051 107.637 102.841C107.741 104.497 108.368 106.077 109.428 107.353C110.723 108.813 112.404 109.877 114.277 110.422L112.962 94.2038ZM123.85 143.57C126.033 143.035 127.956 141.748 129.283 139.935C130.609 138.119 131.219 135.879 130.997 133.642C130.877 131.669 130.062 129.802 128.696 128.373C126.938 126.768 124.735 125.733 122.377 125.403L123.85 143.57Z" fill="white"/>
<path opacity="0.1" d="M70.5533 82.5186C81.0638 71.613 95.334 65.1207 110.461 64.3624C125.588 63.604 140.436 68.6366 151.985 78.4365C163.533 88.2363 170.915 102.067 172.628 117.116C174.342 132.165 170.258 147.301 161.208 159.447C166.857 153.586 171.244 146.629 174.099 139.007C176.955 131.384 178.218 123.258 177.81 115.128C177.403 106.999 175.333 99.0388 171.73 91.7401C168.126 84.4414 163.065 77.9588 156.859 72.6922C150.653 67.4256 143.433 63.4869 135.645 61.1192C127.857 58.7514 119.667 58.0049 111.579 58.9257C103.492 59.8466 95.6789 62.4151 88.6227 66.4729C81.5665 70.5307 75.4169 75.9917 70.5533 82.5186Z" fill="#3D0072"/>
<path opacity="0.4" d="M71.8873 31.5175C70.2303 31.5527 68.6133 32.0329 67.2057 32.9078C65.7981 33.7828 64.6518 35.0203 63.8869 36.4906C63.696 36.7922 63.416 37.0269 63.0857 37.1622C62.7554 37.2974 62.3912 37.3265 62.0436 37.2454C61.6961 37.1643 61.3823 36.977 61.146 36.7095C60.9097 36.4421 60.7625 36.1076 60.7249 35.7527C60.691 34.099 60.2138 32.4847 59.3431 31.0784C58.4724 29.6721 57.2402 28.5253 55.7751 27.7577C55.4692 27.5725 55.2296 27.2952 55.0909 26.9655C54.9521 26.6359 54.9211 26.2709 55.0024 25.9226C55.0837 25.5743 55.273 25.2607 55.5433 25.0265C55.8137 24.7923 56.1512 24.6497 56.5075 24.619C58.1599 24.5742 59.7704 24.0891 61.1727 23.2139C62.575 22.3387 63.7184 21.1051 64.4847 19.6405C64.6755 19.3389 64.9555 19.1041 65.2858 18.9688C65.6161 18.8336 65.9803 18.8045 66.3279 18.8856C66.6755 18.9667 66.9892 19.154 67.2255 19.4215C67.4618 19.689 67.609 20.0234 67.6466 20.3783C67.6843 22.0347 68.1656 23.6507 69.0403 25.0579C69.915 26.465 71.1511 27.6118 72.6197 28.3787C72.9256 28.564 73.1651 28.8413 73.3039 29.1709C73.4426 29.5005 73.4736 29.8656 73.3924 30.2139C73.3111 30.5621 73.1217 30.8758 72.8514 31.1099C72.5811 31.3441 72.2436 31.4867 71.8873 31.5175Z" fill="#8807F7"/>
</svg>
