<svg width="23" height="23" viewBox="0 0 23 23" fill="none" xmlns="http://www.w3.org/2000/svg">
<path d="M11.1738 1.86206C6.03441 1.86206 1.86328 6.03319 1.86328 11.1726C1.86328 16.3121 6.03441 20.4832 11.1738 20.4832C16.3133 20.4832 20.4844 16.3121 20.4844 11.1726C20.4844 6.03319 16.3133 1.86206 11.1738 1.86206ZM11.1738 18.6211C7.06789 18.6211 3.72539 15.2786 3.72539 11.1726C3.72539 7.06667 7.06789 3.72417 11.1738 3.72417C15.2798 3.72417 18.6223 7.06667 18.6223 11.1726C18.6223 15.2786 15.2798 18.6211 11.1738 18.6211ZM6.05304 16.2934L13.0453 13.0441L16.2947 6.05182L9.30242 9.3012L6.05304 16.2934ZM11.1738 10.1485C11.7418 10.1485 12.198 10.6047 12.198 11.1726C12.198 11.7406 11.7418 12.1968 11.1738 12.1968C10.6059 12.1968 10.1497 11.7406 10.1497 11.1726C10.1497 10.6047 10.6059 10.1485 11.1738 10.1485Z" fill="#3D0072"/>
</svg>
