<svg width="152" height="120" viewBox="0 0 152 120" fill="none" xmlns="http://www.w3.org/2000/svg">
<g clip-path="url(#clip0_1032_14827)">
<path d="M103.052 28.9496C63.32 28.8074 30.9959 60.9008 30.8537 100.632C30.7114 140.364 62.8048 172.688 102.536 172.83C142.268 172.972 174.592 140.879 174.734 101.147C174.876 61.416 142.783 29.0919 103.052 28.9496Z" fill="#E6356D"/>
<g opacity="0.3">
<path d="M103.993 26.9991C64.2614 26.8568 31.9373 58.9502 31.7951 98.6817C31.6528 138.413 63.7462 170.737 103.478 170.88C143.209 171.022 175.533 138.928 175.676 99.1969C175.818 59.4654 143.724 27.1414 103.993 26.9991Z" fill="#3D0072"/>
</g>
<path d="M174.889 91.6631C170.085 52.2229 134.218 24.1448 94.7774 28.9489C55.3372 33.753 27.259 69.6201 32.0631 109.06C36.8672 148.501 72.7344 176.579 112.175 171.775C151.615 166.971 179.693 131.103 174.889 91.6631Z" fill="#E6356D"/>
<path d="M105.53 44.4347C74.6416 43.2993 48.6815 67.4185 47.5461 98.3066C46.4107 129.195 70.5299 155.155 101.418 156.29C132.306 157.426 158.266 133.306 159.402 102.418C160.537 71.5302 136.418 45.5701 105.53 44.4347Z" fill="white"/>
<path d="M127.743 69.3604C110.62 55.9562 85.8733 58.9705 72.4691 76.0932C59.0649 93.2158 62.0793 117.963 79.2019 131.367C96.3245 144.771 121.071 141.757 134.476 124.634C147.88 107.512 144.865 82.7646 127.743 69.3604Z" fill="#E6356D"/>
<path d="M124.102 97.8485C122.715 86.4572 112.356 78.3475 100.964 79.7351C89.573 81.1226 81.4634 91.4819 82.8509 102.873C84.2385 114.265 94.5978 122.374 105.989 120.987C117.38 119.599 125.49 109.24 124.102 97.8485Z" fill="white"/>
<path d="M38.9833 46.5059L23.9836 50.3028L5.50147 36.8146L21.8082 33.6999L38.9833 46.5059Z" fill="#455A64"/>
<path d="M22.8024 14.7027L23.447 30.5932L40.5374 44.5091L40.2933 28.5316L22.8024 14.7027Z" fill="#455A64"/>
<g opacity="0.3">
<path d="M99.3329 99.6172L50.2064 46.1143C47.2332 48.7613 44.4593 51.6242 41.9073 54.6794L96.587 98.9763L99.3329 99.6172Z" fill="#3D0072"/>
</g>
<path d="M23.4672 33.16L30.7134 39.8074L48.1185 55.7658C55.0991 62.1721 62.0856 68.5781 69.078 74.984L87.2627 91.6839C90.2125 94.3905 93.0868 97.2234 96.1304 99.8208L96.2584 99.9312C97.9716 101.506 100.436 98.9038 98.7224 97.3026L91.4762 90.6553L74.0711 74.6968L53.1116 55.4786L34.9003 38.7797C31.9505 36.073 29.0762 33.2401 26.0326 30.6427L25.9046 30.5324C24.1914 28.9576 21.7265 31.5597 23.4406 33.1609L23.4672 33.16Z" fill="#263238"/>
</g>
<defs>
<clipPath id="clip0_1032_14827">
<rect width="171.954" height="173.799" fill="white" transform="translate(20.8926 191.795) rotate(-96.9448)"/>
</clipPath>
</defs>
</svg>
