<svg width="21" height="21" viewBox="0 0 21 21" fill="none" xmlns="http://www.w3.org/2000/svg">
<path d="M14.5358 3.4204C14.3091 3.4204 14.0916 3.33031 13.9312 3.16995C13.7708 3.00959 13.6807 2.79209 13.6807 2.5653C13.6807 2.33852 13.7708 2.12102 13.9312 1.96066C14.0916 1.8003 14.3091 1.71021 14.5358 1.71021H17.9562C18.183 1.71021 18.4005 1.8003 18.5609 1.96066C18.7213 2.12102 18.8113 2.33852 18.8113 2.5653V5.9857C18.8113 6.21249 18.7213 6.42999 18.5609 6.59035C18.4005 6.75071 18.183 6.8408 17.9562 6.8408C17.7295 6.8408 17.512 6.75071 17.3516 6.59035C17.1912 6.42999 17.1011 6.21249 17.1011 5.9857V4.62951L12.1476 9.58311C11.9872 9.74341 11.7697 9.83347 11.543 9.83347C11.3163 9.83347 11.0988 9.74341 10.9384 9.58311L8.55015 7.19481L4.02411 11.7209C3.86283 11.8766 3.64683 11.9628 3.42263 11.9609C3.19843 11.9589 2.98396 11.869 2.82541 11.7104C2.66687 11.5519 2.57694 11.3374 2.57499 11.1132C2.57304 10.889 2.65923 10.673 2.815 10.5117L7.94559 5.38115C8.10595 5.22084 8.32341 5.13079 8.55015 5.13079C8.77689 5.13079 8.99435 5.22084 9.1547 5.38115L11.543 7.76944L15.892 3.4204H14.5358ZM4.27465 15.3918V17.9571C4.27465 18.1839 4.18456 18.4014 4.0242 18.5617C3.86384 18.7221 3.64634 18.8122 3.41955 18.8122C3.19277 18.8122 2.97527 18.7221 2.81491 18.5617C2.65454 18.4014 2.56445 18.1839 2.56445 17.9571V15.3918C2.56445 15.165 2.65454 14.9475 2.81491 14.7872C2.97527 14.6268 3.19277 14.5367 3.41955 14.5367C3.64634 14.5367 3.86384 14.6268 4.0242 14.7872C4.18456 14.9475 4.27465 15.165 4.27465 15.3918ZM8.55015 11.9714C8.55015 11.7446 8.46006 11.5271 8.2997 11.3668C8.13933 11.2064 7.92184 11.1163 7.69505 11.1163C7.46826 11.1163 7.25077 11.2064 7.0904 11.3668C6.93004 11.5271 6.83995 11.7446 6.83995 11.9714V17.9571C6.83995 18.1839 6.93004 18.4014 7.0904 18.5617C7.25077 18.7221 7.46826 18.8122 7.69505 18.8122C7.92184 18.8122 8.13933 18.7221 8.2997 18.5617C8.46006 18.4014 8.55015 18.1839 8.55015 17.9571V11.9714ZM11.9705 12.8265C12.1973 12.8265 12.4148 12.9166 12.5752 13.077C12.7356 13.2373 12.8256 13.4548 12.8256 13.6816V17.9571C12.8256 18.1839 12.7356 18.4014 12.5752 18.5617C12.4148 18.7221 12.1973 18.8122 11.9705 18.8122C11.7438 18.8122 11.5263 18.7221 11.3659 18.5617C11.2055 18.4014 11.1154 18.1839 11.1154 17.9571V13.6816C11.1154 13.4548 11.2055 13.2373 11.3659 13.077C11.5263 12.9166 11.7438 12.8265 11.9705 12.8265ZM17.1011 9.4061C17.1011 9.17931 17.0111 8.96182 16.8507 8.80145C16.6903 8.64109 16.4728 8.551 16.246 8.551C16.0193 8.551 15.8018 8.64109 15.6414 8.80145C15.481 8.96182 15.3909 9.17931 15.3909 9.4061V17.9571C15.3909 18.1839 15.481 18.4014 15.6414 18.5617C15.8018 18.7221 16.0193 18.8122 16.246 18.8122C16.4728 18.8122 16.6903 18.7221 16.8507 18.5617C17.0111 18.4014 17.1011 18.1839 17.1011 17.9571V9.4061Z" fill="#3D0072"/>
</svg>
