<svg width="25" height="26" viewBox="0 0 25 26" fill="none" xmlns="http://www.w3.org/2000/svg">
<g clip-path="url(#clip0_1032_14361)">
<path d="M11.0541 3.14631C11.3907 2.88444 11.8005 2.73394 12.2266 2.71574C12.6527 2.69753 13.0739 2.81252 13.4316 3.04473L13.5743 3.14734L22.1772 9.83764C22.9171 10.4133 22.5569 11.5738 21.6652 11.6693L21.5462 11.6754H20.5231V19.8844C20.5233 20.4021 20.3278 20.9008 19.9757 21.2805C19.6236 21.6601 19.1411 21.8926 18.6248 21.9315L18.4709 21.9366H6.15746C5.63988 21.9365 5.14145 21.7409 4.76203 21.3888C4.3826 21.0368 4.1502 20.5544 4.11138 20.0383L4.10522 19.8844V11.6754H3.08218C2.14533 11.6754 1.71539 10.5385 2.36082 9.91562L2.45112 9.83764L11.0541 3.14734V3.14631ZM12.3142 4.76656L5.77267 9.85406C6.00765 10.0439 6.15746 10.3343 6.15746 10.6596V19.8844H9.23582V14.7538C9.23582 13.9373 9.56014 13.1544 10.1374 12.577C10.7148 11.9997 11.4977 11.6754 12.3142 11.6754C13.1306 11.6754 13.9136 11.9997 14.4909 12.577C15.0682 13.1544 15.3925 13.9373 15.3925 14.7538V19.8844H18.4709V10.6596C18.4709 10.3343 18.6207 10.0439 18.8557 9.85406L12.3142 4.76656ZM12.3142 13.7277C12.042 13.7277 11.781 13.8358 11.5886 14.0282C11.3962 14.2206 11.2881 14.4816 11.2881 14.7538V19.8844H13.3403V14.7538C13.3403 14.4816 13.2322 14.2206 13.0398 14.0282C12.8473 13.8358 12.5863 13.7277 12.3142 13.7277Z" fill="#E7356C"/>
</g>
<defs>
<clipPath id="clip0_1032_14361">
<rect width="24.6269" height="24.6269" fill="white" transform="translate(0 0.387939)"/>
</clipPath>
</defs>
</svg>
