<svg width="66" height="62" viewBox="0 0 66 62" fill="none" xmlns="http://www.w3.org/2000/svg">
<g filter="url(#filter0_d_1164_14666)">
<rect x="12" y="6" width="42" height="37.4182" rx="7.43715" fill="#3D0072" shape-rendering="crispEdges"/>
<path d="M36.9782 18.3453C36.7672 18.3453 36.5649 18.2615 36.4157 18.1123C36.2665 17.9631 36.1827 17.7608 36.1827 17.5498C36.1827 17.3389 36.2665 17.1366 36.4157 16.9874C36.5649 16.8382 36.7672 16.7544 36.9782 16.7544H40.16C40.3709 16.7544 40.5733 16.8382 40.7225 16.9874C40.8716 17.1366 40.9554 17.3389 40.9554 17.5498V20.7317C40.9554 20.9426 40.8716 21.145 40.7225 21.2941C40.5733 21.4433 40.3709 21.5271 40.16 21.5271C39.949 21.5271 39.7467 21.4433 39.5975 21.2941C39.4483 21.145 39.3645 20.9426 39.3645 20.7317V19.4701L34.7565 24.0781C34.6073 24.2273 34.405 24.311 34.1941 24.311C33.9831 24.311 33.7809 24.2273 33.6317 24.0781L31.41 21.8564L27.1996 26.0668C27.0496 26.2117 26.8487 26.2919 26.6401 26.29C26.4315 26.2882 26.232 26.2046 26.0846 26.0571C25.9371 25.9096 25.8534 25.7101 25.8516 25.5015C25.8498 25.293 25.93 25.092 26.0749 24.942L30.8476 20.1693C30.9968 20.0202 31.1991 19.9364 31.41 19.9364C31.6209 19.9364 31.8232 20.0202 31.9724 20.1693L34.1941 22.391L38.2398 18.3453H36.9782ZM27.4327 29.4817V31.868C27.4327 32.079 27.3489 32.2813 27.1997 32.4305C27.0505 32.5797 26.8482 32.6635 26.6373 32.6635C26.4263 32.6635 26.224 32.5797 26.0748 32.4305C25.9256 32.2813 25.8418 32.079 25.8418 31.868V29.4817C25.8418 29.2707 25.9256 29.0684 26.0748 28.9192C26.224 28.77 26.4263 28.6862 26.6373 28.6862C26.8482 28.6862 27.0505 28.77 27.1997 28.9192C27.3489 29.0684 27.4327 29.2707 27.4327 29.4817ZM31.41 26.2999C31.41 26.0889 31.3262 25.8866 31.177 25.7374C31.0278 25.5882 30.8255 25.5044 30.6145 25.5044C30.4036 25.5044 30.2012 25.5882 30.0521 25.7374C29.9029 25.8866 29.8191 26.0889 29.8191 26.2999V31.868C29.8191 32.079 29.9029 32.2813 30.0521 32.4305C30.2012 32.5797 30.4036 32.6635 30.6145 32.6635C30.8255 32.6635 31.0278 32.5797 31.177 32.4305C31.3262 32.2813 31.41 32.079 31.41 31.868V26.2999ZM34.5918 27.0953C34.8028 27.0953 35.0051 27.1791 35.1543 27.3283C35.3034 27.4775 35.3873 27.6798 35.3873 27.8908V31.868C35.3873 32.079 35.3034 32.2813 35.1543 32.4305C35.0051 32.5797 34.8028 32.6635 34.5918 32.6635C34.3808 32.6635 34.1785 32.5797 34.0293 32.4305C33.8801 32.2813 33.7963 32.079 33.7963 31.868V27.8908C33.7963 27.6798 33.8801 27.4775 34.0293 27.3283C34.1785 27.1791 34.3808 27.0953 34.5918 27.0953ZM39.3645 23.9135C39.3645 23.7025 39.2807 23.5002 39.1315 23.351C38.9824 23.2018 38.78 23.118 38.5691 23.118C38.3581 23.118 38.1558 23.2018 38.0066 23.351C37.8574 23.5002 37.7736 23.7025 37.7736 23.9135V31.868C37.7736 32.079 37.8574 32.2813 38.0066 32.4305C38.1558 32.5797 38.3581 32.6635 38.5691 32.6635C38.78 32.6635 38.9824 32.5797 39.1315 32.4305C39.2807 32.2813 39.3645 32.079 39.3645 31.868V23.9135Z" fill="white"/>
</g>
<defs>
<filter id="filter0_d_1164_14666" x="0" y="0" width="66" height="61.4182" filterUnits="userSpaceOnUse" color-interpolation-filters="sRGB">
<feFlood flood-opacity="0" result="BackgroundImageFix"/>
<feColorMatrix in="SourceAlpha" type="matrix" values="0 0 0 0 0 0 0 0 0 0 0 0 0 0 0 0 0 0 127 0" result="hardAlpha"/>
<feOffset dy="6"/>
<feGaussianBlur stdDeviation="6"/>
<feComposite in2="hardAlpha" operator="out"/>
<feColorMatrix type="matrix" values="0 0 0 0 0.525 0 0 0 0 0.520625 0 0 0 0 0.520625 0 0 0 0.06 0"/>
<feBlend mode="normal" in2="BackgroundImageFix" result="effect1_dropShadow_1164_14666"/>
<feBlend mode="normal" in="SourceGraphic" in2="effect1_dropShadow_1164_14666" result="shape"/>
</filter>
</defs>
</svg>
