<svg width="23" height="23" viewBox="0 0 23 23" fill="none" xmlns="http://www.w3.org/2000/svg">
<path d="M11.1725 19.5522C10.1794 19.5522 9.24054 19.3893 8.35603 19.0634C7.47153 18.7376 6.67237 18.2875 5.95856 17.7134L4.77146 18.9005C4.58525 19.0867 4.36801 19.1758 4.11972 19.1677C3.87144 19.1603 3.6542 19.0634 3.46798 18.8772C3.28177 18.691 3.18867 18.4697 3.18867 18.2134C3.18867 17.9576 3.28177 17.7367 3.46798 17.5505L4.63181 16.3866C4.05765 15.6728 3.60764 14.8696 3.28177 13.9771C2.9559 13.0851 2.79297 12.1503 2.79297 11.1727C2.79297 8.84508 3.61168 6.86659 5.2491 5.23724C6.88589 3.60789 8.86036 2.79321 11.1725 2.79321H17.6899C18.202 2.79321 18.6405 2.97539 19.0055 3.33974C19.3698 3.70472 19.552 4.14325 19.552 4.65533V11.1727C19.552 13.4848 18.7373 15.4596 17.108 17.097C15.4786 18.7338 13.5001 19.5522 11.1725 19.5522ZM11.1725 17.6901C12.988 17.6901 14.528 17.0539 15.7924 15.7815C17.0574 14.509 17.6899 12.9728 17.6899 11.1727V4.65533H11.1725C9.37244 4.65533 7.83619 5.28751 6.56375 6.55189C5.2913 7.81688 4.65508 9.35716 4.65508 11.1727C4.65508 12.9728 5.2913 14.509 6.56375 15.7815C7.83619 17.0539 9.37244 17.6901 11.1725 17.6901ZM9.93883 15.7116L14.757 11.4055C14.9122 11.2658 14.9588 11.0989 14.8967 10.9046C14.8346 10.7109 14.695 10.5986 14.4777 10.5675L10.707 10.1951L12.9648 7.09935C13.0268 7.02176 13.0538 6.94014 13.0458 6.85448C13.0383 6.76945 13.0036 6.68813 12.9415 6.61055C12.8639 6.53296 12.7748 6.49416 12.6743 6.49416C12.5731 6.49416 12.4837 6.53296 12.4061 6.61055L7.61119 10.9167C7.45601 11.0563 7.40946 11.223 7.47153 11.4167C7.5336 11.6109 7.67326 11.7236 7.8905 11.7546L11.6613 12.1271L9.3802 15.2228C9.33364 15.3004 9.31037 15.382 9.31037 15.4677C9.31037 15.5527 9.34916 15.634 9.42675 15.7116C9.50434 15.7892 9.58968 15.828 9.68279 15.828C9.77589 15.828 9.86124 15.7892 9.93883 15.7116Z" fill="#3D0072"/>
</svg>
