<svg width="19" height="19" viewBox="0 0 19 19" fill="none" xmlns="http://www.w3.org/2000/svg">
<path d="M8.19927 12.0222C8.19927 10.7453 5.67781 10.5691 5.67781 7.3625C5.67781 4.15585 7.45906 3.8376 7.45906 2.5927C7.45906 1.34781 2.52539 2.86187 2.52539 7.63641C2.52539 12.411 8.19927 13.2992 8.19927 12.0222Z" stroke="#3D0072" stroke-width="0.989998" stroke-linecap="round" stroke-linejoin="round"/>
<path d="M11.9956 10.7736C10.7187 10.7736 10.5425 13.2951 7.33588 13.2951C4.12924 13.2951 3.81099 11.5138 2.56609 11.5138C1.3212 11.5138 2.83526 16.4479 7.6098 16.4479C12.3843 16.4479 13.2726 10.7736 11.9956 10.7736V10.7736ZM7.00497 8.24068C8.28193 8.24068 8.45807 5.71882 11.6647 5.71882C14.8714 5.71882 15.1896 7.50047 16.4345 7.50047C17.6794 7.50047 16.1653 2.56641 11.3908 2.56641C6.61626 2.56641 5.72801 8.24068 7.00497 8.24068Z" stroke="#3D0072" stroke-width="0.989998" stroke-linecap="round" stroke-linejoin="round"/>
<path d="M10.8008 6.97795C10.8008 8.2549 13.3226 8.43105 13.3226 11.6377C13.3226 14.8443 11.5414 15.1626 11.5414 16.4075C11.5414 17.6524 16.4751 16.1383 16.4751 11.3638C16.4751 6.58924 10.8008 5.70099 10.8008 6.97795Z" stroke="#3D0072" stroke-width="0.989998" stroke-linecap="round" stroke-linejoin="round"/>
</svg>
