<svg width="20" height="20" viewBox="0 0 20 20" fill="none" xmlns="http://www.w3.org/2000/svg">
<path d="M9.84923 1.64453L6.56565 5.74901L9.02833 5.74901L9.02833 13.1371L10.6701 13.1371L10.6701 5.74901L13.1328 5.74901L9.84923 1.64453Z" fill="#3D0072"/>
<path d="M17.2383 10.6734C17.2409 9.70271 17.051 8.74114 16.6794 7.84438C16.3078 6.94763 15.762 6.13352 15.0736 5.44922L13.9128 6.60996C14.998 7.69519 15.5965 9.13832 15.5965 10.6734C15.5965 12.2085 14.998 13.6516 13.9128 14.7368C12.8276 15.8221 11.3844 16.4205 9.84937 16.4205C8.3143 16.4205 6.87116 15.8221 5.78594 14.7368C4.70072 13.6516 4.10228 12.2085 4.10228 10.6734C4.10228 9.13832 4.70072 7.69519 5.78594 6.60996L4.62519 5.44922C3.22967 6.84392 2.46049 8.69914 2.46049 10.6734C2.46049 12.6477 3.22967 14.5029 4.62519 15.8976C6.01989 17.2931 7.87512 18.0623 9.84937 18.0623C11.8236 18.0623 13.6789 17.2931 15.0736 15.8976C15.762 15.2133 16.3078 14.3992 16.6794 13.5024C17.051 12.6057 17.2409 11.6441 17.2383 10.6734Z" fill="#3D0072"/>
</svg>
