<svg width="169" height="41" viewBox="0 0 169 41" fill="none" xmlns="http://www.w3.org/2000/svg">
<path d="M52.9564 31V15.3156H59.0812C60.1779 15.3156 61.1746 15.5194 62.0713 15.927C62.968 16.3272 63.7127 16.883 64.3056 17.5944C64.8984 18.2984 65.3542 19.1283 65.6728 20.0843C65.9989 21.0403 66.1619 22.0777 66.1619 23.1967C66.1619 24.3083 65.9989 25.3384 65.6728 26.2869C65.3542 27.2355 64.8984 28.0617 64.3056 28.7657C63.7127 29.4623 62.968 30.0107 62.0713 30.4109C61.1746 30.8036 60.1779 31 59.0812 31H52.9564ZM55.8687 28.3322H59.0812C59.9778 28.3322 60.7448 28.0988 61.3821 27.6319C62.0269 27.1576 62.4974 26.5426 62.7938 25.7867C63.0977 25.0234 63.2496 24.1601 63.2496 23.1967C63.2496 22.2259 63.0977 21.3552 62.7938 20.5845C62.4974 19.8064 62.0269 19.1802 61.3821 18.7059C60.7448 18.2243 59.9778 17.9834 59.0812 17.9834H55.8687V28.3322ZM68.0516 25.6755C68.0516 24.8456 68.1998 24.0786 68.4962 23.3746C68.8001 22.6706 69.2039 22.0851 69.7079 21.6183C70.2118 21.1514 70.7861 20.7883 71.4308 20.5289C72.0829 20.2696 72.761 20.1399 73.465 20.1399C74.0504 20.1399 74.6581 20.2659 75.288 20.5178C75.9179 20.7624 76.4107 21.1514 76.7664 21.685V20.3733H79.5453V31H76.7664V29.6328C76.4551 30.1367 75.9735 30.5257 75.3213 30.7999C74.6766 31.0667 74.0578 31.2001 73.465 31.2001C72.5239 31.2001 71.642 30.9815 70.8194 30.5443C70.0043 30.0996 69.3373 29.4512 68.8186 28.599C68.3073 27.7394 68.0516 26.7649 68.0516 25.6755ZM70.9195 25.6755C70.9195 26.5055 71.2122 27.191 71.7976 27.732C72.3831 28.2729 73.0685 28.5434 73.854 28.5434C74.647 28.5434 75.3287 28.284 75.8994 27.7653C76.4774 27.2466 76.7664 26.55 76.7664 25.6755C76.7664 24.8011 76.4737 24.1045 75.8882 23.5858C75.3102 23.067 74.6322 22.8077 73.854 22.8077C73.0611 22.8077 72.3719 23.0782 71.7865 23.6191C71.2085 24.1527 70.9195 24.8382 70.9195 25.6755ZM81.9463 27.6541H84.5363C84.5734 28.0395 84.7809 28.3656 85.1588 28.6323C85.5441 28.8991 85.9888 29.0214 86.4927 28.9992C86.8855 28.9843 87.2152 28.8806 87.482 28.6879C87.7488 28.4878 87.8822 28.2359 87.8822 27.932C87.9044 27.4355 87.519 27.0984 86.7261 26.9205L85.27 26.5648C84.7364 26.4166 84.2769 26.2462 83.8916 26.0535C83.5137 25.8534 83.2209 25.657 83.0135 25.4643C82.806 25.2643 82.6429 25.0345 82.5244 24.7752C82.4058 24.5158 82.3317 24.2787 82.302 24.0638C82.2724 23.8488 82.2576 23.5969 82.2576 23.3079C82.2576 22.4557 82.6466 21.7146 83.4247 21.0847C84.2028 20.4548 85.1217 20.1399 86.1815 20.1399C86.7076 20.1399 87.2004 20.2029 87.6598 20.3288C88.1267 20.4548 88.5602 20.6438 88.9604 20.8958C89.3606 21.1477 89.6792 21.496 89.9164 21.9406C90.1609 22.3853 90.2943 22.9003 90.3165 23.4857H87.6821C87.6598 23.1226 87.5042 22.8521 87.2152 22.6743C86.9262 22.489 86.6039 22.3964 86.2481 22.3964C85.8628 22.3964 85.5404 22.4779 85.2811 22.6409C85.0291 22.804 84.9031 23.0707 84.9031 23.4413C84.9031 23.6488 85.0069 23.8303 85.2144 23.9859C85.4219 24.1342 85.6887 24.249 86.0147 24.3305L87.7932 24.764C88.2601 24.8826 88.6677 25.0494 89.016 25.2643C89.3717 25.4718 89.6459 25.6904 89.8385 25.9201C90.0312 26.1424 90.1831 26.387 90.2943 26.6537C90.4129 26.9205 90.487 27.1539 90.5166 27.354C90.5537 27.5541 90.5722 27.7542 90.5722 27.9543C90.5722 28.6435 90.361 29.2437 89.9386 29.755C89.5162 30.2589 88.9826 30.6295 88.3379 30.8666C87.6932 31.1037 86.9892 31.2223 86.2259 31.2223C85.1069 31.2223 84.1176 30.9 83.258 30.2552C82.4058 29.6105 81.9686 28.7435 81.9463 27.6541ZM93.0288 31V14.582H95.8077V22.0073C96.0374 21.4145 96.4895 20.955 97.1638 20.629C97.8382 20.3029 98.4866 20.1399 99.1091 20.1399C100.48 20.1399 101.536 20.5734 102.277 21.4404C103.018 22.3 103.389 23.5154 103.389 25.0864V31H100.61V25.2198C100.61 24.4936 100.387 23.9192 99.9428 23.4968C99.4982 23.067 98.972 22.8521 98.3643 22.8521C98.0531 22.8521 97.753 22.8966 97.464 22.9855C97.1824 23.0744 96.9119 23.2115 96.6525 23.3968C96.4006 23.5821 96.1968 23.8414 96.0412 24.1749C95.8855 24.5084 95.8077 24.8937 95.8077 25.331V31H93.0288ZM106.39 31V14.582H109.169V21.785C109.443 21.2663 109.884 20.8624 110.492 20.5734C111.099 20.2844 111.766 20.1399 112.493 20.1399C113.189 20.1399 113.852 20.2733 114.482 20.54C115.12 20.7994 115.675 21.1662 116.15 21.6405C116.624 22.1148 117.002 22.7039 117.283 23.4079C117.565 24.1119 117.706 24.8752 117.706 25.6978C117.706 26.5203 117.565 27.2799 117.283 27.9765C117.002 28.6731 116.62 29.2585 116.138 29.7328C115.664 30.1997 115.112 30.5665 114.482 30.8333C113.852 31.0926 113.189 31.2223 112.493 31.2223C111.774 31.2223 111.107 31.0778 110.492 30.7888C109.884 30.4924 109.443 30.0848 109.169 29.5661V31H106.39ZM109.213 25.6533C109.213 26.5129 109.488 27.2132 110.036 27.7542C110.592 28.2952 111.259 28.5656 112.037 28.5656C112.83 28.5656 113.493 28.2952 114.026 27.7542C114.567 27.2132 114.838 26.5129 114.838 25.6533C114.838 24.8011 114.567 24.1119 114.026 23.5858C113.493 23.0522 112.83 22.7854 112.037 22.7854C111.273 22.7854 110.61 23.0485 110.047 23.5747C109.491 24.0934 109.213 24.7863 109.213 25.6533ZM120.296 28.5656C119.792 27.7134 119.54 26.7427 119.54 25.6533C119.54 24.564 119.792 23.5969 120.296 22.7521C120.8 21.9073 121.47 21.2626 122.308 20.8179C123.145 20.3659 124.068 20.1399 125.076 20.1399C126.076 20.1399 126.995 20.3659 127.832 20.8179C128.67 21.2626 129.34 21.911 129.844 22.7632C130.348 23.608 130.6 24.5714 130.6 25.6533C130.6 26.7352 130.348 27.706 129.844 28.5656C129.34 29.4179 128.67 30.07 127.832 30.522C126.995 30.9741 126.076 31.2001 125.076 31.2001C124.068 31.2001 123.145 30.9741 122.308 30.522C121.47 30.07 120.8 29.4179 120.296 28.5656ZM122.297 25.6533C122.297 26.4981 122.563 27.1836 123.097 27.7097C123.631 28.2359 124.29 28.4989 125.076 28.4989C125.854 28.4989 126.51 28.2359 127.043 27.7097C127.577 27.1836 127.843 26.4981 127.843 25.6533C127.843 24.8233 127.577 24.1527 127.043 23.6414C126.51 23.13 125.854 22.8744 125.076 22.8744C124.297 22.8744 123.638 23.1337 123.097 23.6525C122.563 24.1638 122.297 24.8307 122.297 25.6533ZM132.434 25.6755C132.434 24.8456 132.582 24.0786 132.879 23.3746C133.183 22.6706 133.587 22.0851 134.09 21.6183C134.594 21.1514 135.169 20.7883 135.813 20.5289C136.466 20.2696 137.144 20.1399 137.848 20.1399C138.433 20.1399 139.041 20.2659 139.671 20.5178C140.3 20.7624 140.793 21.1514 141.149 21.685V20.3733H143.928V31H141.149V29.6328C140.838 30.1367 140.356 30.5257 139.704 30.7999C139.059 31.0667 138.44 31.2001 137.848 31.2001C136.906 31.2001 136.025 30.9815 135.202 30.5443C134.387 30.0996 133.72 29.4512 133.201 28.599C132.69 27.7394 132.434 26.7649 132.434 25.6755ZM135.302 25.6755C135.302 26.5055 135.595 27.191 136.18 27.732C136.766 28.2729 137.451 28.5434 138.237 28.5434C139.03 28.5434 139.711 28.284 140.282 27.7653C140.86 27.2466 141.149 26.55 141.149 25.6755C141.149 24.8011 140.856 24.1045 140.271 23.5858C139.693 23.067 139.015 22.8077 138.237 22.8077C137.444 22.8077 136.755 23.0782 136.169 23.6191C135.591 24.1527 135.302 24.8382 135.302 25.6755ZM147.074 31V20.3733H149.853V22.8744C150.112 21.9629 150.516 21.2811 151.064 20.8291C151.613 20.3696 152.213 20.1399 152.865 20.1399C153.525 20.1399 154.106 20.2696 154.61 20.5289L154.132 23.03C153.71 22.8373 153.173 22.741 152.52 22.741C150.742 22.741 149.853 24.2416 149.853 27.2429V31H147.074ZM155.977 27.9765C155.696 27.2799 155.555 26.5203 155.555 25.6978C155.555 24.8752 155.696 24.1119 155.977 23.4079C156.259 22.7039 156.637 22.1148 157.111 21.6405C157.586 21.1662 158.138 20.7994 158.768 20.54C159.405 20.2733 160.072 20.1399 160.768 20.1399C161.495 20.1399 162.162 20.2844 162.769 20.5734C163.377 20.8624 163.825 21.2663 164.114 21.785V14.582H166.871V31H164.114V29.5661C163.825 30.0848 163.373 30.4924 162.758 30.7888C162.15 31.0778 161.487 31.2223 160.768 31.2223C160.072 31.2223 159.409 31.0926 158.779 30.8333C158.149 30.5665 157.593 30.1997 157.111 29.7328C156.637 29.2585 156.259 28.6731 155.977 27.9765ZM158.423 25.6533C158.423 26.5129 158.69 27.2132 159.223 27.7542C159.764 28.2952 160.431 28.5656 161.224 28.5656C162.01 28.5656 162.68 28.2989 163.236 27.7653C163.792 27.2243 164.07 26.5203 164.07 25.6533C164.07 24.7863 163.784 24.0934 163.214 23.5747C162.651 23.0485 161.987 22.7854 161.224 22.7854C160.431 22.7854 159.764 23.0522 159.223 23.5858C158.69 24.1119 158.423 24.8011 158.423 25.6533Z" fill="#3D0072"/>
<path d="M14.0555 8.60262C14.0625 11.2714 14.0625 13.9402 14.0695 16.609C14.0765 18.9095 13.3225 21.1505 11.1903 22.3253C8.69335 23.6895 5.15484 23.3458 2.37033 23.0582C2.26512 23.0512 2.16692 23.0372 2.06873 23.0302C2.15991 21.1084 2.12484 19.169 2.03366 17.2542C1.91442 14.6591 3.48904 11.566 6.27356 11.1276C9.30005 10.6507 11.9303 10.328 13.3576 8.65873C13.4067 8.60963 13.4488 8.56053 13.4908 8.50442C13.7013 8.22036 13.9257 7.94331 14.1502 7.66626C14.08 7.96786 14.0555 8.28699 14.0555 8.60262Z" fill="#8807F7"/>
<path d="M4.91016 40.4386C6.99328 40.5718 9.09043 40.5403 11.1771 40.5753C13.6109 40.6174 16.1008 40.919 18.4505 40.4912C21.8206 39.8775 25.6116 37.6786 26.8636 34.4206C28.0244 31.4047 27.4773 27.803 25.4784 25.271C25.3381 25.0957 25.1908 24.9273 25.0295 24.759C23.0095 22.5496 19.8743 21.3959 16.8969 21.7921C13.1901 22.2831 9.92509 25.1974 8.96418 28.806C8.3645 31.0575 8.88703 33.4562 8.53634 35.7498C8.24877 37.6505 6.62856 39.5969 4.91016 40.4386Z" fill="#8807F7"/>
<path d="M25.7406 0C25.5548 0.564618 25.7792 1.17833 26.0212 1.72191C29.1108 8.61656 37.3977 13.2808 37.1137 21.5607C36.9839 25.3061 35.1147 29.7073 31.99 31.9272C31.7621 32.0885 31.5552 32.2323 31.2886 32.306C30.6925 31.1908 30.6293 29.5565 30.1208 28.3256C29.4861 26.7825 28.6444 25.264 27.4696 24.0682C26.3438 22.9249 24.9341 22.2656 23.8083 21.1434C21.4446 18.7832 19.9542 15.5463 19.7578 12.2077C19.4702 7.44524 21.8514 2.72139 25.7406 0Z" fill="#8807F7"/>
<path d="M4.22945 16.6265C4.22945 16.6265 4.12073 14.5468 6.24945 14.6521C6.25296 14.6521 7.02799 16.9246 4.22945 16.6265Z" fill="white" stroke="#8807F7" stroke-width="0.5" stroke-miterlimit="10"/>
<path d="M3.52799 34.2208C5.47644 34.2208 7.05597 32.6412 7.05597 30.6928C7.05597 28.7443 5.47644 27.1648 3.52799 27.1648C1.57953 27.1648 0 28.7443 0 30.6928C0 32.6412 1.57953 34.2208 3.52799 34.2208Z" fill="#8807F7"/>
</svg>
