<svg width="20" height="20" viewBox="0 0 20 20" fill="none" xmlns="http://www.w3.org/2000/svg">
<path d="M9.84923 1.71924L6.56565 5.82372L9.02833 5.82372L9.02833 13.2118L10.6701 13.2118L10.6701 5.82372L13.1328 5.82372L9.84923 1.71924Z" fill="#3D0072"/>
<path d="M17.2383 10.7481C17.2409 9.77742 17.051 8.81585 16.6794 7.91909C16.3078 7.02234 15.762 6.20823 15.0736 5.52393L13.9128 6.68467C14.998 7.7699 15.5965 9.21303 15.5965 10.7481C15.5965 12.2832 14.998 13.7263 13.9128 14.8115C12.8276 15.8968 11.3844 16.4952 9.84937 16.4952C8.3143 16.4952 6.87116 15.8968 5.78594 14.8115C4.70072 13.7263 4.10228 12.2832 4.10228 10.7481C4.10228 9.21303 4.70072 7.7699 5.78594 6.68467L4.62519 5.52393C3.22967 6.91863 2.46049 8.77385 2.46049 10.7481C2.46049 12.7224 3.22967 14.5776 4.62519 15.9723C6.01989 17.3678 7.87512 18.137 9.84937 18.137C11.8236 18.137 13.6789 17.3678 15.0736 15.9723C15.762 15.288 16.3078 14.4739 16.6794 13.5771C17.051 12.6804 17.2409 11.7188 17.2383 10.7481Z" fill="#3D0072"/>
</svg>
