<svg width="107" height="128" viewBox="0 0 107 128" fill="none" xmlns="http://www.w3.org/2000/svg">
<path d="M88.2616 0.535305H6.44463C5.57051 0.529348 4.70442 0.702495 3.89978 1.04407C3.09513 1.38565 2.36897 1.88842 1.76608 2.52139C1.16318 3.15435 0.696313 3.9041 0.394266 4.7244C0.0922193 5.54471 -0.0386138 6.41818 0.00984202 7.29099L7.68317 166.37C7.79249 168.183 8.58342 169.886 9.89712 171.14C11.2108 172.393 12.95 173.102 14.7654 173.126H96.5823C97.4562 173.132 98.322 172.959 99.1264 172.617C99.9308 172.276 100.657 171.773 101.259 171.14C101.861 170.507 102.328 169.757 102.629 168.937C102.931 168.116 103.061 167.243 103.011 166.37L95.3438 7.29099C95.2344 5.47875 94.4435 3.77498 93.1298 2.52185C91.8161 1.26872 90.0769 0.559023 88.2616 0.535305Z" fill="#3D0072"/>
<path d="M91.2846 0.535307H9.44518C8.57129 0.529302 7.70544 0.702463 6.90108 1.0441C6.09672 1.38574 5.3709 1.88861 4.76845 2.52167C4.16599 3.15472 3.69966 3.90453 3.39826 4.72482C3.09686 5.54511 2.96677 6.41847 3.01603 7.29099L10.6837 166.37C10.793 168.183 11.584 169.886 12.8977 171.14C14.2114 172.393 15.9506 173.102 17.7659 173.126H99.5829C100.457 173.132 101.323 172.959 102.127 172.617C102.931 172.276 103.657 171.773 104.26 171.14C104.862 170.507 105.328 169.757 105.63 168.937C105.931 168.116 106.061 167.243 106.012 166.37L98.3443 7.29099C98.2353 5.48257 97.4475 3.78199 96.1386 2.52942C94.8297 1.27685 93.0961 0.564656 91.2846 0.535307Z" fill="#263238"/>
<path d="M17.5372 168.622C16.9345 168.607 16.3591 168.368 15.9231 167.952C15.487 167.535 15.2215 166.972 15.1784 166.37L7.52192 7.29096C7.50822 7.0006 7.55352 6.71049 7.6551 6.43814C7.75667 6.16579 7.9124 5.91685 8.11288 5.70638C8.31336 5.4959 8.55442 5.32825 8.82151 5.21356C9.0886 5.09886 9.37617 5.0395 9.66685 5.03906H91.4838C92.0872 5.05176 92.6641 5.28997 93.1007 5.70676C93.5373 6.12356 93.802 6.68873 93.8426 7.29096L101.51 166.37C101.524 166.66 101.479 166.95 101.378 167.222C101.276 167.494 101.121 167.743 100.921 167.953C100.721 168.163 100.481 168.331 100.215 168.446C99.9482 168.561 99.6612 168.621 99.371 168.622H17.5372Z" fill="#8807F7"/>
<path opacity="0.1" d="M17.4952 167.496C17.1943 167.486 16.9077 167.366 16.6897 167.158C16.4717 166.951 16.3376 166.67 16.3129 166.37L8.64525 7.29099C8.63999 7.14643 8.66364 7.00228 8.71482 6.86698C8.76601 6.73169 8.8437 6.60798 8.94333 6.50311C9.04295 6.39823 9.16252 6.31431 9.29501 6.25626C9.4275 6.1982 9.57026 6.16719 9.7149 6.16504H91.5318C91.8331 6.17384 92.1204 6.29369 92.3386 6.50153C92.5569 6.70936 92.6906 6.99053 92.7141 7.29099L100.382 166.37C100.387 166.515 100.363 166.659 100.312 166.794C100.261 166.93 100.183 167.053 100.084 167.158C99.9841 167.263 99.8645 167.347 99.732 167.405C99.5995 167.463 99.4568 167.494 99.3121 167.496H17.4952Z" fill="#3D0072"/>
<g opacity="0.3">
<path d="M52.406 68.0696L41.276 69.8486C40.8464 68.7895 40.2785 67.7918 39.5871 66.8818C38.9208 66.1825 38.133 65.6102 37.262 65.1928L37.6786 73.9189C43.8675 75.5478 48.0317 77.2667 50.171 79.0758C51.5348 80.2123 52.6416 81.6257 53.4181 83.2222C54.1945 84.8188 54.6229 86.5621 54.6747 88.3367C54.8237 90.4136 54.4421 92.4942 53.5657 94.383C52.7321 96.145 51.5326 97.7091 50.0471 98.9712C48.6634 100.157 47.0632 101.063 45.335 101.64C43.3064 102.25 41.2039 102.579 39.086 102.619L39.1592 104.156C39.1762 104.441 39.1345 104.726 39.0367 104.993C38.9388 105.261 38.787 105.506 38.5906 105.712C38.3941 105.919 38.1573 106.082 37.8949 106.193C37.6324 106.304 37.3499 106.36 37.0649 106.357C36.4729 106.351 35.9053 106.121 35.4768 105.712C35.0483 105.303 34.791 104.747 34.7567 104.156L34.6836 102.619C32.2127 102.461 29.7732 101.98 27.4268 101.189C25.6294 100.54 23.9672 99.5647 22.5233 98.3126C21.2055 97.1873 20.0897 95.845 19.2243 94.3436C18.3565 92.7289 17.7252 90.9979 17.3496 89.2037L29.4592 87.7906C29.917 89.776 30.48 91.2116 31.1481 92.0973C31.9874 93.1264 33.066 93.9343 34.2895 94.4506L33.7772 83.7991C30.7782 83.0526 27.8419 82.0738 24.9948 80.8717C23.1529 79.9532 21.5699 78.5889 20.3897 76.9027C19.0102 74.9537 18.2473 72.6356 18.1997 70.2483C18.0688 68.6011 18.2982 66.9452 18.8718 65.3955C19.4454 63.8458 20.3495 62.4396 21.5212 61.2745C23.9083 58.8688 27.5676 57.5364 32.4992 57.2774L32.4598 56.4949C32.4428 56.2104 32.4845 55.9255 32.5823 55.6578C32.6802 55.3902 32.832 55.1455 33.0284 54.939C33.2249 54.7326 33.4617 54.5687 33.7241 54.4577C33.9866 54.3467 34.2691 54.2909 34.5541 54.2937C35.1461 54.2998 35.7138 54.5305 36.1422 54.9391C36.5707 55.3478 36.8281 55.9038 36.8623 56.4949L36.9017 57.2774C41.4055 57.5589 44.8978 58.6248 47.3786 60.4751C49.874 62.3569 51.6485 65.0375 52.406 68.0696ZM32.8708 65.0577C31.867 65.3151 30.9608 65.8612 30.2642 66.6284C29.7903 67.2645 29.5606 68.0497 29.6168 68.8409C29.6466 69.6896 29.9552 70.5048 30.495 71.1604C31.2466 71.949 32.1981 72.5191 33.248 72.8099L32.8708 65.0577ZM38.7088 94.7377C40.3977 94.3624 41.6175 93.7318 42.3681 92.8461C42.7285 92.4477 43.0065 91.9819 43.1862 91.4756C43.3659 90.9694 43.4438 90.4326 43.4153 89.8961C43.3579 88.9186 42.9595 87.9922 42.2893 87.2783C41.58 86.4845 40.2288 85.7414 38.2472 85.0602L38.7088 94.7377Z" fill="#FAFAFA"/>
</g>
<path d="M89.9613 74.4487H58.5568C58.3366 74.4451 58.1256 74.3143 57.9663 74.0828C57.807 73.8513 57.7113 73.5363 57.6985 73.2014C57.6926 73.0404 57.7084 72.8792 57.7449 72.7278C57.7814 72.5764 57.8379 72.438 57.9109 72.3211C57.9839 72.2042 58.0718 72.1114 58.1693 72.0483C58.2667 71.9852 58.3716 71.9531 58.4775 71.9541H89.8819C90.1046 71.9521 90.3192 72.0804 90.4816 72.3125C90.644 72.5446 90.7417 72.8628 90.7547 73.2014C90.7607 73.3644 90.7445 73.5274 90.7071 73.6803C90.6697 73.8333 90.6119 73.9727 90.5373 74.0899C90.4628 74.2071 90.3731 74.2995 90.274 74.3612C90.1748 74.423 90.0683 74.4528 89.9613 74.4487Z" fill="#8807F7"/>
<path d="M89.9853 82.5579H58.8635C58.6453 82.5539 58.4362 82.4067 58.2783 82.1463C58.1204 81.8858 58.0256 81.5313 58.0129 81.1545C58.0071 80.9733 58.0227 80.7919 58.0589 80.6216C58.0951 80.4513 58.1511 80.2955 58.2235 80.1641C58.2958 80.0326 58.3829 79.9281 58.4795 79.8571C58.576 79.7861 58.68 79.75 58.7849 79.7511H89.9103C90.1278 79.7567 90.3361 79.9046 90.4932 80.1649C90.6503 80.4252 90.7447 80.7788 90.7573 81.1545C90.7631 81.3358 90.7475 81.5171 90.7113 81.6875C90.6751 81.8578 90.6191 82.0135 90.5467 82.145C90.4744 82.2765 90.3873 82.381 90.2907 82.452C90.1942 82.523 90.0902 82.5591 89.9853 82.5579Z" fill="#8807F7"/>
<path d="M90.2765 90.3542H59.1716C58.9535 90.3506 58.7445 90.2199 58.5867 89.9884C58.429 89.7568 58.3342 89.4419 58.3215 89.107C58.3157 88.9459 58.3313 88.7848 58.3675 88.6334C58.4037 88.482 58.4596 88.3436 58.5319 88.2267C58.6042 88.1099 58.6913 88.017 58.7878 87.9539C58.8843 87.8908 58.9881 87.8588 59.093 87.8598H90.2158C90.4338 87.8634 90.6429 87.9941 90.8006 88.2256C90.9584 88.4572 91.0532 88.7721 91.0659 89.107C91.0718 89.2704 91.0557 89.4339 91.0184 89.5872C90.9812 89.7405 90.9236 89.8802 90.8494 89.9975C90.7752 90.1147 90.6859 90.207 90.5873 90.2684C90.4887 90.3298 90.3829 90.359 90.2765 90.3542Z" fill="#8807F7"/>
<path d="M90.5984 98.4636H59.1802C58.9602 98.4587 58.7496 98.3275 58.5904 98.0962C58.4312 97.8649 58.3351 97.5506 58.3215 97.2161C58.3156 97.0551 58.3314 96.8938 58.368 96.7424C58.4045 96.591 58.4611 96.4526 58.5341 96.3357C58.6071 96.2188 58.695 96.1259 58.7925 96.0628C58.89 95.9997 58.9949 95.9676 59.1008 95.9687H90.519C90.7393 95.9723 90.9504 96.1031 91.1098 96.3346C91.2692 96.5662 91.365 96.8812 91.3777 97.2161C91.3837 97.3772 91.3678 97.5384 91.3313 97.6898C91.2947 97.8413 91.2382 97.9797 91.1652 98.0966C91.0922 98.2134 91.0042 98.3063 90.9067 98.3694C90.8093 98.4326 90.7043 98.4646 90.5984 98.4636Z" fill="#8807F7"/>
<path d="M90.1369 105.949H60.0019C59.6512 105.945 59.3151 105.814 59.0613 105.583C58.8075 105.351 58.6551 105.036 58.6347 104.701C58.6253 104.54 58.6505 104.379 58.7087 104.228C58.7669 104.076 58.8569 103.938 58.9731 103.821C59.0894 103.704 59.2294 103.611 59.3846 103.548C59.5398 103.485 59.7069 103.453 59.8755 103.454H90.0105C90.3612 103.457 90.6973 103.588 90.9511 103.82C91.2048 104.051 91.3573 104.366 91.3777 104.701C91.3871 104.862 91.3619 105.024 91.3037 105.175C91.2455 105.326 91.1555 105.465 91.0392 105.582C90.923 105.699 90.783 105.791 90.6278 105.855C90.4726 105.918 90.3055 105.95 90.1369 105.949Z" fill="#8807F7"/>
<path d="M90.6989 61.69C96.5001 55.7474 96.1474 45.9948 89.9111 39.9069C83.6748 33.819 73.9165 33.7013 68.1153 39.6439C62.3141 45.5865 62.6668 55.3391 68.9031 61.427C75.1394 67.5149 84.8977 67.6326 90.6989 61.69Z" fill="#8807F7"/>
<path d="M92.117 50.6566C92.2234 52.7487 91.7952 54.8334 90.8728 56.7142C89.8728 58.7309 88.3246 60.4249 86.4058 61.6019C84.487 62.7789 82.2753 63.3912 80.0243 63.3685C77.6957 63.351 75.4117 62.7284 73.3963 61.5618C71.3809 60.3952 69.7034 58.7247 68.5284 56.7142C67.4321 54.8751 66.8038 52.7951 66.6987 50.6566C66.6014 49.0137 66.843 47.3683 67.4085 45.8226C67.974 44.277 68.8513 42.8642 69.986 41.672C71.1206 40.4798 72.4883 39.5337 74.0041 38.8925C75.5199 38.2513 77.1513 37.9287 78.797 37.9447C82.213 37.9871 85.4861 39.3219 87.9575 41.6805C90.4289 44.0391 91.9151 47.2463 92.117 50.6566Z" fill="white"/>
<path opacity="0.4" d="M83.9652 55.3416C86.098 53.1568 85.9693 49.5721 83.6776 47.3351C81.386 45.098 77.7993 45.0556 75.6665 47.2404C73.5337 49.4253 73.6624 53.0099 75.954 55.247C78.2456 57.4841 81.8323 57.5264 83.9652 55.3416Z" fill="#8807F7"/>
</svg>
