<svg width="60" height="58" viewBox="0 0 60 58" fill="none" xmlns="http://www.w3.org/2000/svg">
<circle cx="32.4395" cy="27.4395" r="27.4395" fill="#3A006F" fill-opacity="0.17"/>
<circle cx="27.5606" cy="30.1639" r="27.4395" fill="#3A006F"/>
<path d="M35.3504 21.4905H20.716C19.7099 21.4905 18.8959 22.3137 18.8959 23.3198L18.8867 39.7835L22.5453 36.1249H35.3504C36.3565 36.1249 37.1797 35.3017 37.1797 34.2956V23.3198C37.1797 22.3137 36.3565 21.4905 35.3504 21.4905ZM32.6065 31.5516L30.7772 29.7315V31.5516C30.7772 32.0547 30.3656 32.4663 29.8625 32.4663H24.3746C23.8716 32.4663 23.46 32.0547 23.46 31.5516V26.0637C23.46 25.5607 23.8716 25.1491 24.3746 25.1491H29.8625C30.3656 25.1491 30.7772 25.5607 30.7772 26.0637V27.8839L32.6065 26.0637V31.5516Z" fill="white"/>
</svg>
