<svg width="25" height="25" viewBox="0 0 25 25" fill="none" xmlns="http://www.w3.org/2000/svg">
<path d="M21.875 6.771C21.875 8.78142 20.2396 10.4168 18.2292 10.4168C16.2188 10.4168 14.5833 8.78142 14.5833 6.771C14.5833 4.76058 16.2188 3.12517 18.2292 3.12517C20.2396 3.12517 21.875 4.76058 21.875 6.771ZM19.7917 12.2814C19.2708 12.4168 18.75 12.5002 18.2292 12.5002C16.7105 12.4974 15.2549 11.8929 14.1811 10.8191C13.1072 9.74526 12.5028 8.28963 12.5 6.771C12.5 5.23975 13.1042 3.85433 14.0625 2.82308C13.8735 2.59136 13.6351 2.40472 13.3648 2.27678C13.0945 2.14883 12.7991 2.0828 12.5 2.0835C11.3542 2.0835 10.4167 3.021 10.4167 4.16683V4.46892C7.32292 5.38558 5.20833 8.22934 5.20833 11.4585V17.7085L3.125 19.7918V20.8335H21.875V19.7918L19.7917 17.7085V12.2814ZM12.5 23.9585C13.6562 23.9585 14.5833 23.0314 14.5833 21.8752H10.4167C10.4167 22.4277 10.6362 22.9576 11.0269 23.3483C11.4176 23.739 11.9475 23.9585 12.5 23.9585Z" fill="#3D0072"/>
</svg>
