<svg width="22" height="22" viewBox="0 0 22 22" fill="none" xmlns="http://www.w3.org/2000/svg">
<path d="M3.66732 19.2499C3.16315 19.2499 2.73171 19.0706 2.37298 18.7118C2.01365 18.3525 1.83398 17.9208 1.83398 17.4166V7.33325C1.83398 6.82908 2.01365 6.39764 2.37298 6.03892C2.73171 5.67958 3.16315 5.49992 3.66732 5.49992H7.33398V3.66659C7.33398 3.16242 7.51365 2.73067 7.87298 2.37134C8.23171 2.01261 8.66315 1.83325 9.16732 1.83325H12.834C13.3382 1.83325 13.7699 2.01261 14.1292 2.37134C14.488 2.73067 14.6673 3.16242 14.6673 3.66659V5.49992H18.334C18.8382 5.49992 19.2699 5.67958 19.6292 6.03892C19.988 6.39764 20.1673 6.82908 20.1673 7.33325V17.4166C20.1673 17.9208 19.988 18.3525 19.6292 18.7118C19.2699 19.0706 18.8382 19.2499 18.334 19.2499H3.66732ZM3.66732 17.4166H18.334V7.33325H3.66732V17.4166ZM9.16732 5.49992H12.834V3.66659H9.16732V5.49992ZM3.66732 17.4166V7.33325V17.4166Z" fill="#3D0072"/>
</svg>
