<svg width="581" height="366" viewBox="0 0 581 366" fill="none" xmlns="http://www.w3.org/2000/svg">
<path d="M161.226 362.279C161.01 362.279 160.787 362.263 160.555 362.231C160.332 362.207 160.117 362.171 159.909 362.123C159.71 362.083 159.526 362.039 159.359 361.991C159.191 361.936 159.063 361.884 158.976 361.836L159.263 360.603C159.43 360.683 159.674 360.775 159.993 360.878C160.312 360.974 160.707 361.022 161.178 361.022C161.808 361.022 162.263 360.902 162.542 360.663C162.822 360.415 162.961 360.088 162.961 359.681C162.961 359.418 162.905 359.199 162.794 359.023C162.69 358.848 162.542 358.708 162.351 358.604C162.167 358.492 161.952 358.417 161.704 358.377C161.465 358.329 161.21 358.305 160.938 358.305H160.448V357.132H161.046C161.23 357.132 161.413 357.116 161.597 357.084C161.788 357.044 161.96 356.98 162.111 356.893C162.263 356.797 162.387 356.673 162.482 356.522C162.578 356.37 162.626 356.174 162.626 355.935C162.626 355.744 162.59 355.58 162.518 355.444C162.447 355.309 162.351 355.197 162.231 355.109C162.119 355.021 161.988 354.958 161.836 354.918C161.685 354.878 161.525 354.858 161.357 354.858C160.998 354.858 160.679 354.914 160.4 355.025C160.121 355.129 159.873 355.249 159.658 355.384L159.131 354.307C159.243 354.235 159.378 354.16 159.538 354.08C159.698 354 159.873 353.924 160.065 353.852C160.264 353.781 160.476 353.725 160.699 353.685C160.923 353.637 161.158 353.613 161.405 353.613C161.868 353.613 162.267 353.669 162.602 353.781C162.937 353.892 163.213 354.052 163.428 354.259C163.651 354.459 163.815 354.698 163.919 354.978C164.03 355.249 164.086 355.548 164.086 355.875C164.086 356.258 163.979 356.601 163.763 356.905C163.556 357.208 163.284 357.439 162.949 357.599C163.38 357.75 163.735 358.002 164.015 358.353C164.302 358.704 164.445 359.155 164.445 359.705C164.445 360.072 164.382 360.415 164.254 360.735C164.126 361.046 163.931 361.317 163.667 361.549C163.404 361.772 163.069 361.952 162.662 362.087C162.263 362.215 161.784 362.279 161.226 362.279ZM168.004 353.805C168.18 354.108 168.376 354.479 168.591 354.918C168.806 355.357 169.026 355.819 169.249 356.306C169.473 356.785 169.692 357.276 169.908 357.778C170.131 358.273 170.334 358.732 170.518 359.155C170.702 358.732 170.901 358.273 171.116 357.778C171.332 357.276 171.551 356.785 171.775 356.306C171.998 355.819 172.218 355.357 172.433 354.918C172.648 354.479 172.844 354.108 173.02 353.805H174.384C174.456 354.411 174.524 355.057 174.587 355.744C174.651 356.422 174.707 357.12 174.755 357.838C174.811 358.548 174.859 359.266 174.899 359.993C174.947 360.711 174.986 361.413 175.018 362.099H173.534C173.502 361.134 173.462 360.14 173.415 359.119C173.375 358.097 173.311 357.108 173.223 356.151C173.135 356.334 173.031 356.553 172.912 356.809C172.792 357.064 172.664 357.343 172.529 357.647C172.393 357.942 172.254 358.249 172.11 358.568C171.974 358.887 171.839 359.199 171.703 359.502C171.575 359.797 171.456 360.076 171.344 360.34C171.232 360.595 171.136 360.814 171.057 360.998H169.932C169.852 360.814 169.756 360.591 169.644 360.328C169.533 360.064 169.409 359.785 169.273 359.49C169.146 359.187 169.01 358.875 168.866 358.556C168.731 358.237 168.595 357.93 168.459 357.635C168.324 357.339 168.196 357.064 168.076 356.809C167.957 356.545 167.853 356.326 167.765 356.151C167.677 357.108 167.61 358.097 167.562 359.119C167.522 360.14 167.486 361.134 167.454 362.099H165.97C166.002 361.413 166.038 360.703 166.077 359.969C166.125 359.235 166.173 358.508 166.221 357.79C166.277 357.064 166.337 356.362 166.401 355.684C166.464 355.005 166.532 354.379 166.604 353.805H168.004Z" fill="#3D0072"/>
<path d="M296.907 358.066C296.676 358.066 296.452 358.086 296.237 358.125C296.022 358.165 295.826 358.225 295.651 358.305C295.643 358.369 295.635 358.441 295.627 358.52C295.627 358.592 295.627 358.664 295.627 358.736C295.627 359.055 295.647 359.358 295.686 359.645C295.734 359.925 295.81 360.172 295.914 360.388C296.026 360.595 296.173 360.763 296.357 360.89C296.548 361.01 296.784 361.07 297.063 361.07C297.294 361.07 297.49 361.022 297.649 360.926C297.817 360.83 297.953 360.707 298.056 360.555C298.16 360.404 298.236 360.24 298.284 360.064C298.332 359.881 298.356 359.705 298.356 359.538C298.356 359.059 298.24 358.696 298.008 358.449C297.777 358.193 297.41 358.066 296.907 358.066ZM297.087 356.917C297.582 356.917 298 356.988 298.344 357.132C298.695 357.268 298.978 357.455 299.193 357.695C299.409 357.934 299.564 358.213 299.66 358.532C299.764 358.844 299.816 359.171 299.816 359.514C299.816 359.825 299.76 360.144 299.648 360.471C299.544 360.798 299.377 361.098 299.146 361.369C298.922 361.632 298.639 361.852 298.296 362.027C297.953 362.195 297.546 362.279 297.075 362.279C296.125 362.279 295.399 361.967 294.897 361.345C294.402 360.715 294.154 359.849 294.154 358.748C294.154 357.95 294.27 357.244 294.502 356.629C294.741 356.007 295.076 355.484 295.507 355.061C295.946 354.638 296.472 354.319 297.087 354.104C297.709 353.88 298.407 353.765 299.181 353.757L299.265 354.954C298.834 354.962 298.431 355.009 298.056 355.097C297.681 355.177 297.346 355.305 297.051 355.48C296.756 355.656 296.5 355.883 296.285 356.162C296.077 356.442 295.918 356.785 295.806 357.192C296.197 357.008 296.624 356.917 297.087 356.917ZM303.136 353.805C303.311 354.108 303.507 354.479 303.722 354.918C303.937 355.357 304.157 355.819 304.38 356.306C304.604 356.785 304.823 357.276 305.039 357.778C305.262 358.273 305.465 358.732 305.649 359.155C305.833 358.732 306.032 358.273 306.247 357.778C306.463 357.276 306.682 356.785 306.906 356.306C307.129 355.819 307.349 355.357 307.564 354.918C307.78 354.479 307.975 354.108 308.151 353.805H309.515C309.587 354.411 309.655 355.057 309.718 355.744C309.782 356.422 309.838 357.12 309.886 357.838C309.942 358.548 309.99 359.266 310.03 359.993C310.078 360.711 310.117 361.413 310.149 362.099H308.665C308.633 361.134 308.593 360.14 308.546 359.119C308.506 358.097 308.442 357.108 308.354 356.151C308.266 356.334 308.163 356.553 308.043 356.809C307.923 357.064 307.795 357.343 307.66 357.647C307.524 357.942 307.385 358.249 307.241 358.568C307.105 358.887 306.97 359.199 306.834 359.502C306.706 359.797 306.587 360.076 306.475 360.34C306.363 360.595 306.267 360.814 306.188 360.998H305.063C304.983 360.814 304.887 360.591 304.775 360.328C304.664 360.064 304.54 359.785 304.404 359.49C304.277 359.187 304.141 358.875 303.997 358.556C303.862 358.237 303.726 357.93 303.59 357.635C303.455 357.339 303.327 357.064 303.207 356.809C303.088 356.545 302.984 356.326 302.896 356.151C302.808 357.108 302.741 358.097 302.693 359.119C302.653 360.14 302.617 361.134 302.585 362.099H301.101C301.133 361.413 301.169 360.703 301.209 359.969C301.256 359.235 301.304 358.508 301.352 357.79C301.408 357.064 301.468 356.362 301.532 355.684C301.596 355.005 301.663 354.379 301.735 353.805H303.136Z" fill="#3D0072"/>
<path d="M431.654 355.528C432.117 355.345 432.58 355.109 433.043 354.822C433.514 354.535 433.929 354.196 434.288 353.805H435.305V362.099H433.857V355.744C433.641 355.911 433.37 356.075 433.043 356.234C432.716 356.394 432.401 356.526 432.097 356.629L431.654 355.528ZM441.162 357.479C441.521 356.881 441.872 356.274 442.215 355.66C442.559 355.045 442.87 354.427 443.149 353.805H444.825C444.378 354.65 443.911 355.492 443.424 356.33C442.946 357.16 442.431 357.998 441.88 358.844V362.099H440.372V358.867C439.822 358.014 439.303 357.168 438.816 356.33C438.33 355.492 437.863 354.65 437.416 353.805H439.187C439.467 354.427 439.774 355.045 440.109 355.66C440.444 356.274 440.795 356.881 441.162 357.479Z" fill="#3D0072"/>
<path d="M559.597 362.099C559.485 361.772 559.369 361.449 559.249 361.13C559.13 360.81 559.014 360.483 558.902 360.148H555.407C555.296 360.483 555.18 360.814 555.06 361.142C554.949 361.461 554.837 361.78 554.725 362.099H553.157C553.468 361.213 553.764 360.396 554.043 359.645C554.322 358.895 554.593 358.185 554.857 357.515C555.128 356.845 555.395 356.206 555.659 355.6C555.922 354.993 556.193 354.395 556.473 353.805H557.897C558.176 354.395 558.447 354.993 558.711 355.6C558.974 356.206 559.237 356.845 559.501 357.515C559.772 358.185 560.047 358.895 560.327 359.645C560.614 360.396 560.913 361.213 561.224 362.099H559.597ZM557.155 355.408C556.971 355.831 556.76 356.346 556.52 356.952C556.289 357.559 556.046 358.217 555.79 358.927H558.519C558.264 358.217 558.017 357.555 557.777 356.94C557.538 356.326 557.33 355.815 557.155 355.408ZM567.515 360.794V362.099H562.273V353.805H563.781V360.794H567.515ZM573.909 360.794V362.099H568.666V353.805H570.174V360.794H573.909Z" fill="#3D0072"/>
<path d="M21.598 355.473C22.0608 355.289 22.5236 355.054 22.9864 354.767C23.4572 354.48 23.8721 354.14 24.2312 353.749H25.2485V362.044H23.8003V355.688C23.5849 355.856 23.3136 356.02 22.9864 356.179C22.6592 356.339 22.3441 356.47 22.0408 356.574L21.598 355.473ZM30.1243 353.749C30.2998 354.053 30.4953 354.424 30.7107 354.863C30.9262 355.301 31.1456 355.764 31.369 356.251C31.5925 356.73 31.8119 357.22 32.0273 357.723C32.2508 358.218 32.4542 358.677 32.6378 359.1C32.8213 358.677 33.0208 358.218 33.2362 357.723C33.4516 357.22 33.6711 356.73 33.8945 356.251C34.1179 355.764 34.3374 355.301 34.5528 354.863C34.7682 354.424 34.9637 354.053 35.1393 353.749H36.5038C36.5756 354.356 36.6434 355.002 36.7072 355.688C36.7711 356.367 36.8269 357.065 36.8748 357.783C36.9306 358.493 36.9785 359.211 37.0184 359.937C37.0663 360.656 37.1062 361.358 37.1381 362.044H35.6539C35.622 361.078 35.5821 360.085 35.5343 359.064C35.4944 358.042 35.4305 357.053 35.3428 356.095C35.255 356.279 35.1513 356.498 35.0316 356.754C34.9119 357.009 34.7842 357.288 34.6486 357.591C34.5129 357.887 34.3733 358.194 34.2296 358.513C34.094 358.832 33.9583 359.143 33.8227 359.447C33.695 359.742 33.5753 360.021 33.4636 360.284C33.3519 360.54 33.2562 360.759 33.1764 360.943H32.0513C31.9715 360.759 31.8757 360.536 31.764 360.273C31.6523 360.009 31.5286 359.73 31.393 359.435C31.2653 359.131 31.1297 358.82 30.986 358.501C30.8504 358.182 30.7147 357.875 30.5791 357.579C30.4434 357.284 30.3158 357.009 30.1961 356.754C30.0764 356.49 29.9726 356.271 29.8849 356.095C29.7971 357.053 29.7293 358.042 29.6814 359.064C29.6415 360.085 29.6056 361.078 29.5737 362.044H28.0895C28.1214 361.358 28.1573 360.648 28.1972 359.913C28.2451 359.179 28.293 358.453 28.3409 357.735C28.3967 357.009 28.4566 356.307 28.5204 355.629C28.5842 354.95 28.6521 354.324 28.7239 353.749H30.1243Z" fill="#3D0072"/>
<path d="M6.26562 276.465C38.1392 311.795 70.0128 347.124 101.886 296.027C133.76 244.929 165.634 107.404 197.507 91.8554C229.381 76.3067 261.254 182.734 293.128 219.004C325.002 255.274 356.875 221.386 388.749 217.781C420.622 214.176 452.496 240.854 484.37 243.456C516.243 246.057 548.117 224.584 579.99 203.11V337.594C548.117 337.594 516.243 337.594 484.37 337.594C452.496 337.594 420.622 337.594 388.749 337.594C356.875 337.594 325.002 337.594 293.128 337.594C261.254 337.594 229.381 337.594 197.507 337.594C165.634 337.594 133.76 337.594 101.886 337.594C70.0128 337.594 38.1392 337.594 6.26562 337.594V276.465Z" fill="url(#paint0_linear_1794_14424)"/>
<path d="M6.26562 276.465C38.1392 311.795 70.0128 347.124 101.886 296.026C133.76 244.929 165.634 107.404 197.507 91.8554C229.381 76.3067 261.254 182.734 293.128 219.004C325.002 255.274 356.875 221.386 388.749 217.781C420.622 214.176 452.496 240.854 484.37 243.455C516.243 246.057 548.117 224.584 579.99 203.11" stroke="#8807F7" stroke-width="0.960722"/>
<g filter="url(#filter0_d_1794_14424)">
<rect x="222.348" y="10.9238" width="135.414" height="64.3551" rx="10.7259" fill="white"/>
</g>
<path d="M258.191 30.028C258.191 30.2854 258.137 30.5356 258.03 30.7788C257.93 31.0147 257.794 31.2507 257.622 31.4867C257.451 31.7155 257.257 31.9443 257.043 32.1731C256.828 32.3948 256.614 32.6129 256.399 32.8274C256.278 32.949 256.135 33.092 255.97 33.2564C255.813 33.4209 255.663 33.5925 255.52 33.7713C255.377 33.95 255.255 34.1217 255.155 34.2861C255.062 34.4506 255.016 34.5936 255.016 34.7152H258.437V35.5625H253.932C253.925 35.5196 253.922 35.4767 253.922 35.4338C253.922 35.3909 253.922 35.3516 253.922 35.3158C253.922 34.9797 253.975 34.6687 254.083 34.3827C254.197 34.0895 254.344 33.8142 254.522 33.5568C254.701 33.2993 254.901 33.0562 255.123 32.8274C255.345 32.5986 255.563 32.3769 255.777 32.1624C255.956 31.9908 256.124 31.8228 256.281 31.6583C256.446 31.4867 256.589 31.3186 256.71 31.1542C256.839 30.9826 256.939 30.8074 257.011 30.6286C257.089 30.4498 257.129 30.2604 257.129 30.0601C257.129 29.8456 257.093 29.6633 257.021 29.5131C256.957 29.363 256.868 29.2378 256.753 29.1377C256.639 29.0376 256.503 28.9661 256.346 28.9232C256.196 28.8731 256.035 28.8481 255.863 28.8481C255.656 28.8481 255.466 28.8767 255.295 28.9339C255.123 28.9911 254.969 29.0591 254.833 29.1377C254.698 29.2092 254.583 29.2879 254.49 29.3737C254.397 29.4523 254.326 29.5131 254.276 29.556L253.782 28.8481C253.847 28.7766 253.943 28.6908 254.072 28.5907C254.201 28.4834 254.354 28.3833 254.533 28.2904C254.712 28.1974 254.912 28.1188 255.134 28.0544C255.355 27.99 255.595 27.9579 255.852 27.9579C256.632 27.9579 257.215 28.1402 257.601 28.5049C257.994 28.8624 258.191 29.3701 258.191 30.028ZM259.665 32.9883C259.801 32.6737 259.987 32.309 260.223 31.8943C260.459 31.4724 260.723 31.0398 261.016 30.5964C261.317 30.1531 261.635 29.7169 261.971 29.2879C262.314 28.8588 262.657 28.4727 263.001 28.1295H263.955V32.8489H264.835V33.664H263.955V35.5625H262.99V33.664H259.665V32.9883ZM262.99 29.3093C262.775 29.5381 262.557 29.7956 262.336 30.0816C262.121 30.3605 261.91 30.6536 261.703 30.9611C261.495 31.2686 261.299 31.5832 261.113 31.905C260.934 32.2268 260.773 32.5414 260.63 32.8489H262.99V29.3093ZM267.081 29.9851H269.194V30.8217H267.081V33.3959C267.081 33.6747 267.103 33.9071 267.146 34.0931C267.189 34.2718 267.253 34.4148 267.339 34.5221C267.425 34.6222 267.532 34.6937 267.661 34.7366C267.789 34.7795 267.939 34.801 268.111 34.801C268.411 34.801 268.651 34.7688 268.83 34.7044C269.016 34.6329 269.144 34.5829 269.216 34.5543L269.409 35.3802C269.309 35.4302 269.134 35.491 268.883 35.5625C268.633 35.6412 268.347 35.6805 268.025 35.6805C267.646 35.6805 267.332 35.634 267.081 35.541C266.838 35.4409 266.642 35.2944 266.491 35.1013C266.341 34.9082 266.234 34.6723 266.17 34.3934C266.112 34.1074 266.084 33.7784 266.084 33.4066V28.4298L267.081 28.2582V29.9851ZM270.464 35.5625V27.4108L271.461 27.2392V30.0923C271.647 30.0208 271.844 29.9672 272.051 29.9314C272.266 29.8885 272.477 29.8671 272.684 29.8671C273.127 29.8671 273.496 29.9314 273.789 30.0601C274.082 30.1817 274.314 30.3569 274.486 30.5857C274.665 30.8074 274.79 31.0755 274.861 31.3901C274.933 31.7048 274.969 32.0516 274.969 32.4305V35.5625H273.971V32.6451C273.971 32.3018 273.946 32.0087 273.896 31.7655C273.853 31.5224 273.778 31.3258 273.671 31.1756C273.563 31.0255 273.42 30.9182 273.242 30.8538C273.063 30.7823 272.841 30.7466 272.577 30.7466C272.469 30.7466 272.359 30.7537 272.244 30.768C272.13 30.7823 272.019 30.8002 271.912 30.8217C271.812 30.836 271.719 30.8538 271.633 30.8753C271.554 30.8968 271.497 30.9146 271.461 30.9289V35.5625H270.464ZM284.233 35.5625C284.076 35.2979 283.893 35.0012 283.686 34.6723C283.486 34.3433 283.268 34.0037 283.032 33.6533C282.796 33.2958 282.549 32.9347 282.291 32.57C282.041 32.2053 281.791 31.8549 281.541 31.5189C281.29 31.1756 281.047 30.8538 280.811 30.5535C280.575 30.2532 280.357 29.9886 280.157 29.7598V35.5625H279.138V28.1295H279.964C280.3 28.487 280.658 28.9053 281.037 29.3844C281.423 29.8563 281.802 30.3462 282.173 30.8538C282.552 31.3544 282.906 31.8478 283.235 32.334C283.571 32.8203 283.854 33.2529 284.083 33.6318V28.1295H285.102V35.5625H284.233ZM291.8 32.7738C291.8 33.2171 291.736 33.6175 291.607 33.9751C291.479 34.3326 291.296 34.6401 291.06 34.8975C290.831 35.1549 290.556 35.3551 290.234 35.4981C289.913 35.634 289.562 35.7019 289.183 35.7019C288.804 35.7019 288.454 35.634 288.132 35.4981C287.81 35.3551 287.531 35.1549 287.295 34.8975C287.067 34.6401 286.888 34.3326 286.759 33.9751C286.63 33.6175 286.566 33.2171 286.566 32.7738C286.566 32.3376 286.63 31.9407 286.759 31.5832C286.888 31.2185 287.067 30.9075 287.295 30.6501C287.531 30.3926 287.81 30.196 288.132 30.0601C288.454 29.9171 288.804 29.8456 289.183 29.8456C289.562 29.8456 289.913 29.9171 290.234 30.0601C290.556 30.196 290.831 30.3926 291.06 30.6501C291.296 30.9075 291.479 31.2185 291.607 31.5832C291.736 31.9407 291.8 32.3376 291.8 32.7738ZM290.76 32.7738C290.76 32.1445 290.617 31.6476 290.331 31.2829C290.052 30.9111 289.669 30.7251 289.183 30.7251C288.697 30.7251 288.311 30.9111 288.025 31.2829C287.746 31.6476 287.607 32.1445 287.607 32.7738C287.607 33.403 287.746 33.9036 288.025 34.2754C288.311 34.6401 288.697 34.8224 289.183 34.8224C289.669 34.8224 290.052 34.6401 290.331 34.2754C290.617 33.9036 290.76 33.403 290.76 32.7738ZM297.412 29.9851C297.133 31.029 296.804 32.0301 296.425 32.9883C296.053 33.9465 295.692 34.8045 295.342 35.5625H294.441C294.09 34.8045 293.726 33.9465 293.347 32.9883C292.975 32.0301 292.65 31.029 292.371 29.9851H293.443C293.529 30.3354 293.629 30.7108 293.744 31.1113C293.865 31.5045 293.99 31.8978 294.119 32.2911C294.255 32.6772 294.391 33.0526 294.527 33.4173C294.662 33.782 294.791 34.1074 294.913 34.3934C295.034 34.1074 295.163 33.782 295.299 33.4173C295.435 33.0526 295.567 32.6772 295.696 32.2911C295.832 31.8978 295.957 31.5045 296.071 31.1113C296.193 30.7108 296.296 30.3354 296.382 29.9851H297.412ZM305.074 30.028C305.074 30.2854 305.021 30.5356 304.913 30.7788C304.813 31.0147 304.677 31.2507 304.506 31.4867C304.334 31.7155 304.141 31.9443 303.927 32.1731C303.712 32.3948 303.498 32.6129 303.283 32.8274C303.162 32.949 303.019 33.092 302.854 33.2564C302.697 33.4209 302.547 33.5925 302.404 33.7713C302.261 33.95 302.139 34.1217 302.039 34.2861C301.946 34.4506 301.899 34.5936 301.899 34.7152H305.321V35.5625H300.816C300.809 35.5196 300.805 35.4767 300.805 35.4338C300.805 35.3909 300.805 35.3516 300.805 35.3158C300.805 34.9797 300.859 34.6687 300.966 34.3827C301.081 34.0895 301.227 33.8142 301.406 33.5568C301.585 33.2993 301.785 33.0562 302.007 32.8274C302.228 32.5986 302.447 32.3769 302.661 32.1624C302.84 31.9908 303.008 31.8228 303.165 31.6583C303.33 31.4867 303.473 31.3186 303.594 31.1542C303.723 30.9826 303.823 30.8074 303.895 30.6286C303.973 30.4498 304.012 30.2604 304.012 30.0601C304.012 29.8456 303.977 29.6633 303.905 29.5131C303.841 29.363 303.751 29.2378 303.637 29.1377C303.523 29.0376 303.387 28.9661 303.23 28.9232C303.079 28.8731 302.918 28.8481 302.747 28.8481C302.539 28.8481 302.35 28.8767 302.178 28.9339C302.007 28.9911 301.853 29.0591 301.717 29.1377C301.581 29.2092 301.467 29.2879 301.374 29.3737C301.281 29.4523 301.209 29.5131 301.159 29.556L300.666 28.8481C300.73 28.7766 300.827 28.6908 300.956 28.5907C301.084 28.4834 301.238 28.3833 301.417 28.2904C301.596 28.1974 301.796 28.1188 302.017 28.0544C302.239 27.99 302.479 27.9579 302.736 27.9579C303.516 27.9579 304.098 28.1402 304.484 28.5049C304.878 28.8624 305.074 29.3701 305.074 30.028ZM306.656 31.8406C306.656 30.5964 306.874 29.6383 307.31 28.9661C307.754 28.2939 308.365 27.9579 309.144 27.9579C309.924 27.9579 310.532 28.2939 310.968 28.9661C311.411 29.6383 311.633 30.5964 311.633 31.8406C311.633 33.0848 311.411 34.043 310.968 34.7152C310.532 35.3873 309.924 35.7234 309.144 35.7234C308.365 35.7234 307.754 35.3873 307.31 34.7152C306.874 34.043 306.656 33.0848 306.656 31.8406ZM310.582 31.8406C310.582 31.433 310.557 31.0469 310.506 30.6822C310.464 30.3176 310.385 29.9994 310.271 29.7276C310.163 29.4559 310.017 29.2414 309.831 29.0841C309.645 28.9196 309.416 28.8374 309.144 28.8374C308.873 28.8374 308.644 28.9196 308.458 29.0841C308.272 29.2414 308.122 29.4559 308.007 29.7276C307.9 29.9994 307.821 30.3176 307.771 30.6822C307.729 31.0469 307.707 31.433 307.707 31.8406C307.707 32.2482 307.729 32.6343 307.771 32.999C307.821 33.3637 307.9 33.6819 308.007 33.9536C308.122 34.2253 308.272 34.4434 308.458 34.6079C308.644 34.7652 308.873 34.8439 309.144 34.8439C309.416 34.8439 309.645 34.7652 309.831 34.6079C310.017 34.4434 310.163 34.2253 310.271 33.9536C310.385 33.6819 310.464 33.3637 310.506 32.999C310.557 32.6343 310.582 32.2482 310.582 31.8406ZM317.183 30.028C317.183 30.2854 317.129 30.5356 317.022 30.7788C316.922 31.0147 316.786 31.2507 316.614 31.4867C316.443 31.7155 316.25 31.9443 316.035 32.1731C315.821 32.3948 315.606 32.6129 315.392 32.8274C315.27 32.949 315.127 33.092 314.963 33.2564C314.805 33.4209 314.655 33.5925 314.512 33.7713C314.369 33.95 314.248 34.1217 314.147 34.2861C314.054 34.4506 314.008 34.5936 314.008 34.7152H317.43V35.5625H312.925C312.918 35.5196 312.914 35.4767 312.914 35.4338C312.914 35.3909 312.914 35.3516 312.914 35.3158C312.914 34.9797 312.968 34.6687 313.075 34.3827C313.189 34.0895 313.336 33.8142 313.515 33.5568C313.693 33.2993 313.894 33.0562 314.115 32.8274C314.337 32.5986 314.555 32.3769 314.77 32.1624C314.948 31.9908 315.116 31.8228 315.274 31.6583C315.438 31.4867 315.581 31.3186 315.703 31.1542C315.831 30.9826 315.931 30.8074 316.003 30.6286C316.082 30.4498 316.121 30.2604 316.121 30.0601C316.121 29.8456 316.085 29.6633 316.014 29.5131C315.949 29.363 315.86 29.2378 315.746 29.1377C315.631 29.0376 315.495 28.9661 315.338 28.9232C315.188 28.8731 315.027 28.8481 314.855 28.8481C314.648 28.8481 314.458 28.8767 314.287 28.9339C314.115 28.9911 313.962 29.0591 313.826 29.1377C313.69 29.2092 313.575 29.2879 313.482 29.3737C313.389 29.4523 313.318 29.5131 313.268 29.556L312.775 28.8481C312.839 28.7766 312.935 28.6908 313.064 28.5907C313.193 28.4834 313.347 28.3833 313.525 28.2904C313.704 28.1974 313.904 28.1188 314.126 28.0544C314.348 27.99 314.587 27.9579 314.845 27.9579C315.624 27.9579 316.207 28.1402 316.593 28.5049C316.986 28.8624 317.183 29.3701 317.183 30.028ZM323.237 30.028C323.237 30.2854 323.183 30.5356 323.076 30.7788C322.976 31.0147 322.84 31.2507 322.669 31.4867C322.497 31.7155 322.304 31.9443 322.089 32.1731C321.875 32.3948 321.66 32.6129 321.446 32.8274C321.324 32.949 321.181 33.092 321.017 33.2564C320.86 33.4209 320.709 33.5925 320.566 33.7713C320.423 33.95 320.302 34.1217 320.202 34.2861C320.109 34.4506 320.062 34.5936 320.062 34.7152H323.484V35.5625H318.979C318.972 35.5196 318.968 35.4767 318.968 35.4338C318.968 35.3909 318.968 35.3516 318.968 35.3158C318.968 34.9797 319.022 34.6687 319.129 34.3827C319.243 34.0895 319.39 33.8142 319.569 33.5568C319.748 33.2993 319.948 33.0562 320.169 32.8274C320.391 32.5986 320.609 32.3769 320.824 32.1624C321.003 31.9908 321.171 31.8228 321.328 31.6583C321.492 31.4867 321.635 31.3186 321.757 31.1542C321.886 30.9826 321.986 30.8074 322.057 30.6286C322.136 30.4498 322.175 30.2604 322.175 30.0601C322.175 29.8456 322.139 29.6633 322.068 29.5131C322.004 29.363 321.914 29.2378 321.8 29.1377C321.685 29.0376 321.55 28.9661 321.392 28.9232C321.242 28.8731 321.081 28.8481 320.91 28.8481C320.702 28.8481 320.513 28.8767 320.341 28.9339C320.169 28.9911 320.016 29.0591 319.88 29.1377C319.744 29.2092 319.63 29.2879 319.537 29.3737C319.444 29.4523 319.372 29.5131 319.322 29.556L318.829 28.8481C318.893 28.7766 318.99 28.6908 319.118 28.5907C319.247 28.4834 319.401 28.3833 319.58 28.2904C319.758 28.1974 319.959 28.1188 320.18 28.0544C320.402 27.99 320.641 27.9579 320.899 27.9579C321.678 27.9579 322.261 28.1402 322.647 28.5049C323.04 28.8624 323.237 29.3701 323.237 30.028Z" fill="#3D0072" fill-opacity="0.7"/>
<path d="M273.228 56.9121C272.955 56.4536 272.649 55.9629 272.311 55.44C271.973 54.9091 271.624 54.3781 271.262 53.8472C270.9 53.3082 270.53 52.7894 270.151 52.2906C269.781 51.7838 269.427 51.3293 269.09 50.9271V56.9121H267.593V48.55H268.836C269.158 48.8878 269.504 49.29 269.874 49.7566C270.244 50.2152 270.614 50.6938 270.984 51.1925C271.362 51.6913 271.724 52.1941 272.07 52.7009C272.424 53.1996 272.738 53.6662 273.011 54.1006V48.55H274.52V56.9121H273.228ZM280.145 54.5229C280.145 54.2575 280.093 54.0201 279.989 53.811C279.884 53.6018 279.699 53.4249 279.433 53.2801C279.176 53.1353 278.826 53.0267 278.384 52.9543C277.949 52.8819 277.398 52.8457 276.731 52.8457C276.819 52.0734 276.887 51.3414 276.936 50.6495C276.984 49.9497 277.024 49.2498 277.056 48.55H281.328V49.7808H278.299C278.291 49.9175 278.279 50.0744 278.263 50.2514C278.255 50.4203 278.243 50.5932 278.227 50.7702C278.219 50.9472 278.207 51.1161 278.191 51.277C278.175 51.4379 278.158 51.5747 278.142 51.6873C279.333 51.7516 280.21 52.0251 280.773 52.5078C281.344 52.9824 281.63 53.634 281.63 54.4626C281.63 54.8407 281.565 55.1906 281.437 55.5124C281.308 55.8342 281.111 56.1117 280.845 56.345C280.58 56.5783 280.246 56.7633 279.844 56.9C279.442 57.0288 278.971 57.0931 278.432 57.0931C278.215 57.0931 277.994 57.077 277.768 57.0448C277.543 57.0127 277.326 56.9724 277.117 56.9242C276.916 56.884 276.735 56.8397 276.574 56.7914C276.413 56.7432 276.292 56.6989 276.212 56.6587L276.489 55.4279C276.658 55.5084 276.899 55.5969 277.213 55.6934C277.535 55.7819 277.925 55.8261 278.384 55.8261C278.697 55.8261 278.967 55.7939 279.192 55.7296C279.417 55.6572 279.598 55.5607 279.735 55.44C279.88 55.3193 279.985 55.1826 280.049 55.0297C280.113 54.8688 280.145 54.6999 280.145 54.5229ZM288.717 52.725C288.717 54.1328 288.46 55.2147 287.945 55.9709C287.43 56.719 286.718 57.0931 285.809 57.0931C284.9 57.0931 284.188 56.719 283.673 55.9709C283.158 55.2147 282.901 54.1328 282.901 52.725C282.901 52.0251 282.965 51.4057 283.094 50.8667C283.231 50.3197 283.424 49.8612 283.673 49.4912C283.931 49.1211 284.236 48.8396 284.59 48.6465C284.952 48.4534 285.358 48.3569 285.809 48.3569C286.718 48.3569 287.43 48.735 287.945 49.4912C288.46 50.2393 288.717 51.3172 288.717 52.725ZM287.209 52.725C287.209 52.2906 287.185 51.8844 287.136 51.5063C287.088 51.1282 287.008 50.8024 286.895 50.5289C286.79 50.2473 286.65 50.0261 286.473 49.8652C286.296 49.7043 286.074 49.6239 285.809 49.6239C285.544 49.6239 285.318 49.7043 285.133 49.8652C284.956 50.0261 284.811 50.2473 284.699 50.5289C284.594 50.8024 284.518 51.1282 284.47 51.5063C284.429 51.8844 284.409 52.2906 284.409 52.725C284.409 53.1594 284.429 53.5656 284.47 53.9437C284.518 54.3218 284.594 54.6516 284.699 54.9332C284.811 55.2067 284.956 55.4239 285.133 55.5848C285.318 55.7457 285.544 55.8261 285.809 55.8261C286.074 55.8261 286.296 55.7457 286.473 55.5848C286.65 55.4239 286.79 55.2067 286.895 54.9332C287.008 54.6516 287.088 54.3218 287.136 53.9437C287.185 53.5656 287.209 53.1594 287.209 52.725ZM291.678 55.3073C291.694 55.444 291.702 55.5446 291.702 55.6089C291.702 55.6733 291.702 55.7376 291.702 55.802C291.702 56.3007 291.621 56.8156 291.46 57.3465C291.308 57.8774 291.09 58.3802 290.809 58.8548L289.663 58.5411C289.856 58.0745 289.984 57.616 290.049 57.1655C290.121 56.7231 290.157 56.3329 290.157 55.995C290.157 55.8985 290.153 55.7778 290.145 55.6331C290.145 55.4883 290.141 55.3797 290.133 55.3073H291.678ZM298.804 52.725C298.804 54.1328 298.547 55.2147 298.032 55.9709C297.517 56.719 296.805 57.0931 295.896 57.0931C294.987 57.0931 294.275 56.719 293.76 55.9709C293.245 55.2147 292.988 54.1328 292.988 52.725C292.988 52.0251 293.052 51.4057 293.181 50.8667C293.318 50.3197 293.511 49.8612 293.76 49.4912C294.018 49.1211 294.323 48.8396 294.677 48.6465C295.039 48.4534 295.445 48.3569 295.896 48.3569C296.805 48.3569 297.517 48.735 298.032 49.4912C298.547 50.2393 298.804 51.3172 298.804 52.725ZM297.296 52.725C297.296 52.2906 297.271 51.8844 297.223 51.5063C297.175 51.1282 297.095 50.8024 296.982 50.5289C296.877 50.2473 296.737 50.0261 296.56 49.8652C296.383 49.7043 296.161 49.6239 295.896 49.6239C295.63 49.6239 295.405 49.7043 295.22 49.8652C295.043 50.0261 294.898 50.2473 294.786 50.5289C294.681 50.8024 294.605 51.1282 294.556 51.5063C294.516 51.8844 294.496 52.2906 294.496 52.725C294.496 53.1594 294.516 53.5656 294.556 53.9437C294.605 54.3218 294.681 54.6516 294.786 54.9332C294.898 55.2067 295.043 55.4239 295.22 55.5848C295.405 55.7457 295.63 55.8261 295.896 55.8261C296.161 55.8261 296.383 55.7457 296.56 55.5848C296.737 55.4239 296.877 55.2067 296.982 54.9332C297.095 54.6516 297.175 54.3218 297.223 53.9437C297.271 53.5656 297.296 53.1594 297.296 52.725ZM305.662 52.725C305.662 54.1328 305.405 55.2147 304.89 55.9709C304.375 56.719 303.663 57.0931 302.754 57.0931C301.845 57.0931 301.133 56.719 300.618 55.9709C300.103 55.2147 299.846 54.1328 299.846 52.725C299.846 52.0251 299.91 51.4057 300.039 50.8667C300.176 50.3197 300.369 49.8612 300.618 49.4912C300.876 49.1211 301.181 48.8396 301.535 48.6465C301.897 48.4534 302.304 48.3569 302.754 48.3569C303.663 48.3569 304.375 48.735 304.89 49.4912C305.405 50.2393 305.662 51.3172 305.662 52.725ZM304.154 52.725C304.154 52.2906 304.13 51.8844 304.081 51.5063C304.033 51.1282 303.953 50.8024 303.84 50.5289C303.735 50.2473 303.595 50.0261 303.418 49.8652C303.241 49.7043 303.02 49.6239 302.754 49.6239C302.489 49.6239 302.263 49.7043 302.078 49.8652C301.901 50.0261 301.757 50.2473 301.644 50.5289C301.539 50.8024 301.463 51.1282 301.415 51.5063C301.374 51.8844 301.354 52.2906 301.354 52.725C301.354 53.1594 301.374 53.5656 301.415 53.9437C301.463 54.3218 301.539 54.6516 301.644 54.9332C301.757 55.2067 301.901 55.4239 302.078 55.5848C302.263 55.7457 302.489 55.8261 302.754 55.8261C303.02 55.8261 303.241 55.7457 303.418 55.5848C303.595 55.4239 303.735 55.2067 303.84 54.9332C303.953 54.6516 304.033 54.3218 304.081 53.9437C304.13 53.5656 304.154 53.1594 304.154 52.725ZM312.52 52.725C312.52 54.1328 312.263 55.2147 311.748 55.9709C311.233 56.719 310.521 57.0931 309.612 57.0931C308.703 57.0931 307.991 56.719 307.476 55.9709C306.962 55.2147 306.704 54.1328 306.704 52.725C306.704 52.0251 306.769 51.4057 306.897 50.8667C307.034 50.3197 307.227 49.8612 307.476 49.4912C307.734 49.1211 308.04 48.8396 308.393 48.6465C308.755 48.4534 309.162 48.3569 309.612 48.3569C310.521 48.3569 311.233 48.735 311.748 49.4912C312.263 50.2393 312.52 51.3172 312.52 52.725ZM311.012 52.725C311.012 52.2906 310.988 51.8844 310.94 51.5063C310.891 51.1282 310.811 50.8024 310.698 50.5289C310.594 50.2473 310.453 50.0261 310.276 49.8652C310.099 49.7043 309.878 49.6239 309.612 49.6239C309.347 49.6239 309.122 49.7043 308.936 49.8652C308.76 50.0261 308.615 50.2473 308.502 50.5289C308.398 50.8024 308.321 51.1282 308.273 51.5063C308.233 51.8844 308.212 52.2906 308.212 52.725C308.212 53.1594 308.233 53.5656 308.273 53.9437C308.321 54.3218 308.398 54.6516 308.502 54.9332C308.615 55.2067 308.76 55.4239 308.936 55.5848C309.122 55.7457 309.347 55.8261 309.612 55.8261C309.878 55.8261 310.099 55.7457 310.276 55.5848C310.453 55.4239 310.594 55.2067 310.698 54.9332C310.811 54.6516 310.891 54.3218 310.94 53.9437C310.988 53.5656 311.012 53.1594 311.012 52.725Z" fill="#3D0072"/>
<path d="M18.0996 67.474L12.7767 72.7969L7.45378 67.474H18.0996Z" fill="#3D0072"/>
<path d="M32.2577 69.1701C32.2577 70.6605 31.9851 71.806 31.4401 72.6066C30.895 73.3986 30.1413 73.7947 29.1789 73.7947C28.2165 73.7947 27.4628 73.3986 26.9177 72.6066C26.3726 71.806 26.1001 70.6605 26.1001 69.1701C26.1001 68.4292 26.1682 67.7734 26.3045 67.2028C26.4493 66.6236 26.6537 66.1382 26.9177 65.7464C27.1902 65.3546 27.5139 65.0566 27.8886 64.8522C28.2719 64.6478 28.7019 64.5456 29.1789 64.5456C30.1413 64.5456 30.895 64.9458 31.4401 65.7464C31.9851 66.5385 32.2577 67.6797 32.2577 69.1701ZM30.6608 69.1701C30.6608 68.7102 30.6352 68.2801 30.5841 67.8798C30.533 67.4795 30.4479 67.1346 30.3286 66.8451C30.2179 66.547 30.0689 66.3128 29.8815 66.1424C29.6941 65.9721 29.4599 65.8869 29.1789 65.8869C28.8978 65.8869 28.6594 65.9721 28.4635 66.1424C28.2761 66.3128 28.1228 66.547 28.0036 66.8451C27.8929 67.1346 27.812 67.4795 27.7609 67.8798C27.7183 68.2801 27.697 68.7102 27.697 69.1701C27.697 69.63 27.7183 70.0601 27.7609 70.4604C27.812 70.8607 27.8929 71.2098 28.0036 71.5079C28.1228 71.7975 28.2761 72.0274 28.4635 72.1978C28.6594 72.3681 28.8978 72.4533 29.1789 72.4533C29.4599 72.4533 29.6941 72.3681 29.8815 72.1978C30.0689 72.0274 30.2179 71.7975 30.3286 71.5079C30.4479 71.2098 30.533 70.8607 30.5841 70.4604C30.6352 70.0601 30.6608 69.63 30.6608 69.1701ZM35.5326 72.7599C35.5326 73.058 35.4304 73.3007 35.226 73.4881C35.0302 73.6754 34.7917 73.7691 34.5106 73.7691C34.2211 73.7691 33.9784 73.6754 33.7825 73.4881C33.5866 73.3007 33.4886 73.058 33.4886 72.7599C33.4886 72.4618 33.5866 72.2191 33.7825 72.0317C33.9784 71.8358 34.2211 71.7379 34.5106 71.7379C34.7917 71.7379 35.0302 71.8358 35.226 72.0317C35.4304 72.2191 35.5326 72.4618 35.5326 72.7599ZM42.9118 69.1701C42.9118 70.6605 42.6393 71.806 42.0942 72.6066C41.5491 73.3986 40.7954 73.7947 39.833 73.7947C38.8706 73.7947 38.1169 73.3986 37.5719 72.6066C37.0268 71.806 36.7543 70.6605 36.7543 69.1701C36.7543 68.4292 36.8224 67.7734 36.9587 67.2028C37.1034 66.6236 37.3078 66.1382 37.5719 65.7464C37.8444 65.3546 38.168 65.0566 38.5428 64.8522C38.926 64.6478 39.3561 64.5456 39.833 64.5456C40.7954 64.5456 41.5491 64.9458 42.0942 65.7464C42.6393 66.5385 42.9118 67.6797 42.9118 69.1701ZM41.3149 69.1701C41.3149 68.7102 41.2894 68.2801 41.2383 67.8798C41.1872 67.4795 41.102 67.1346 40.9828 66.8451C40.8721 66.547 40.723 66.3128 40.5357 66.1424C40.3483 65.9721 40.1141 65.8869 39.833 65.8869C39.552 65.8869 39.3135 65.9721 39.1176 66.1424C38.9303 66.3128 38.777 66.547 38.6577 66.8451C38.547 67.1346 38.4661 67.4795 38.415 67.8798C38.3724 68.2801 38.3511 68.7102 38.3511 69.1701C38.3511 69.63 38.3724 70.0601 38.415 70.4604C38.4661 70.8607 38.547 71.2098 38.6577 71.5079C38.777 71.7975 38.9303 72.0274 39.1176 72.1978C39.3135 72.3681 39.552 72.4533 39.833 72.4533C40.1141 72.4533 40.3483 72.3681 40.5357 72.1978C40.723 72.0274 40.8721 71.7975 40.9828 71.5079C41.102 71.2098 41.1872 70.8607 41.2383 70.4604C41.2894 70.0601 41.3149 69.63 41.3149 69.1701ZM50.1726 69.1701C50.1726 70.6605 49.9001 71.806 49.355 72.6066C48.8099 73.3986 48.0562 73.7947 47.0938 73.7947C46.1314 73.7947 45.3777 73.3986 44.8326 72.6066C44.2876 71.806 44.015 70.6605 44.015 69.1701C44.015 68.4292 44.0832 67.7734 44.2194 67.2028C44.3642 66.6236 44.5686 66.1382 44.8326 65.7464C45.1052 65.3546 45.4288 65.0566 45.8035 64.8522C46.1868 64.6478 46.6169 64.5456 47.0938 64.5456C48.0562 64.5456 48.8099 64.9458 49.355 65.7464C49.9001 66.5385 50.1726 67.6797 50.1726 69.1701ZM48.5757 69.1701C48.5757 68.7102 48.5502 68.2801 48.4991 67.8798C48.448 67.4795 48.3628 67.1346 48.2436 66.8451C48.1329 66.547 47.9838 66.3128 47.7964 66.1424C47.6091 65.9721 47.3749 65.8869 47.0938 65.8869C46.8128 65.8869 46.5743 65.9721 46.3784 66.1424C46.1911 66.3128 46.0378 66.547 45.9185 66.8451C45.8078 67.1346 45.7269 67.4795 45.6758 67.8798C45.6332 68.2801 45.6119 68.7102 45.6119 69.1701C45.6119 69.63 45.6332 70.0601 45.6758 70.4604C45.7269 70.8607 45.8078 71.2098 45.9185 71.5079C46.0378 71.7975 46.1911 72.0274 46.3784 72.1978C46.5743 72.3681 46.8128 72.4533 47.0938 72.4533C47.3749 72.4533 47.6091 72.3681 47.7964 72.1978C47.9838 72.0274 48.1329 71.7975 48.2436 71.5079C48.3628 71.2098 48.448 70.8607 48.4991 70.4604C48.5502 70.0601 48.5757 69.63 48.5757 69.1701ZM55.6193 66.9728C55.6193 67.7478 55.4192 68.344 55.0189 68.7613C54.6271 69.1786 54.1119 69.3873 53.4731 69.3873C53.158 69.3873 52.8684 69.3362 52.6044 69.234C52.3404 69.1233 52.1147 68.9657 51.9274 68.7613C51.74 68.5569 51.5909 68.3057 51.4802 68.0076C51.378 67.701 51.3269 67.3561 51.3269 66.9728C51.3269 66.1893 51.5228 65.5931 51.9146 65.1843C52.3149 64.767 52.8344 64.5583 53.4731 64.5583C54.1119 64.5583 54.6271 64.767 55.0189 65.1843C55.4192 65.5931 55.6193 66.1893 55.6193 66.9728ZM54.4057 66.9728C54.4057 66.5214 54.3205 66.185 54.1502 65.9636C53.9884 65.7336 53.7627 65.6187 53.4731 65.6187C53.1836 65.6187 52.9579 65.7336 52.7961 65.9636C52.6342 66.185 52.5533 66.5214 52.5533 66.9728C52.5533 67.4242 52.6342 67.7649 52.7961 67.9948C52.9579 68.2162 53.1836 68.327 53.4731 68.327C53.7627 68.327 53.9884 68.2162 54.1502 67.9948C54.3205 67.7649 54.4057 67.4242 54.4057 66.9728ZM58.2127 64.75H59.6818L54.6868 73.603H53.2176L58.2127 64.75ZM61.5853 71.393C61.5853 72.168 61.3851 72.7641 60.9848 73.1815C60.5931 73.5988 60.0778 73.8074 59.4391 73.8074C59.1239 73.8074 58.8344 73.7521 58.5704 73.6414C58.3063 73.5392 58.0806 73.3859 57.8933 73.1815C57.7059 72.9771 57.5569 72.7258 57.4462 72.4277C57.344 72.1211 57.2929 71.7762 57.2929 71.393C57.2929 70.6094 57.4887 70.0133 57.8805 69.6045C58.2808 69.1871 58.8003 68.9785 59.4391 68.9785C60.0778 68.9785 60.5931 69.1871 60.9848 69.6045C61.3851 70.0133 61.5853 70.6094 61.5853 71.393ZM60.3716 71.393C60.3716 70.9416 60.2865 70.6052 60.1161 70.3837C59.9543 70.1538 59.7286 70.0388 59.4391 70.0388C59.1495 70.0388 58.9238 70.1538 58.762 70.3837C58.6002 70.6052 58.5193 70.9416 58.5193 71.393C58.5193 71.8443 58.6002 72.185 58.762 72.415C58.9238 72.6364 59.1495 72.7471 59.4391 72.7471C59.7286 72.7471 59.9543 72.6364 60.1161 72.415C60.2865 72.185 60.3716 71.8443 60.3716 71.393Z" fill="#3D0072"/>
<path d="M13.8114 96.6404C13.1471 96.6404 12.551 96.5382 12.0229 96.3338C11.4949 96.1294 11.0478 95.8313 10.6816 95.4395C10.3153 95.0392 10.0343 94.5538 9.83841 93.9832C9.64252 93.4125 9.54458 92.7568 9.54458 92.0158C9.54458 91.2749 9.6553 90.6191 9.87673 90.0485C10.1067 89.4778 10.4175 88.9966 10.8093 88.6049C11.2011 88.2046 11.661 87.9023 12.189 87.6979C12.717 87.4935 13.2834 87.3913 13.8881 87.3913C14.2543 87.3913 14.5864 87.4211 14.8845 87.4807C15.1826 87.5318 15.4424 87.5914 15.6638 87.6595C15.8852 87.7277 16.0683 87.8001 16.2131 87.8767C16.3579 87.9534 16.4601 88.0087 16.5197 88.0428L16.0471 89.3586C15.8427 89.2309 15.5488 89.1116 15.1656 89.0009C14.7908 88.8817 14.382 88.8221 13.9392 88.8221C13.5559 88.8221 13.1982 88.8902 12.8661 89.0265C12.5339 89.1542 12.2444 89.3501 11.9974 89.6141C11.7589 89.8781 11.5715 90.2103 11.4353 90.6106C11.299 91.0108 11.2309 91.475 11.2309 92.003C11.2309 92.4714 11.282 92.9015 11.3842 93.2933C11.4949 93.6851 11.661 94.0257 11.8824 94.3153C12.1038 94.5964 12.3849 94.8178 12.7256 94.9796C13.0662 95.1329 13.475 95.2096 13.952 95.2096C14.5226 95.2096 14.9867 95.1542 15.3444 95.0435C15.7021 94.9242 15.9789 94.8135 16.1748 94.7113L16.6092 96.0272C16.507 96.0953 16.3664 96.1634 16.1876 96.2316C16.0172 96.2997 15.8128 96.3678 15.5744 96.436C15.3359 96.4956 15.0676 96.5424 14.7696 96.5765C14.4715 96.6191 14.1521 96.6404 13.8114 96.6404ZM20.2972 95.3629C20.7742 95.3629 21.1361 95.3373 21.3831 95.2862V93.5744C21.2979 93.5488 21.1745 93.5233 21.0126 93.4977C20.8508 93.4722 20.672 93.4594 20.4761 93.4594C20.3058 93.4594 20.1312 93.4722 19.9523 93.4977C19.782 93.5233 19.6244 93.5701 19.4796 93.6382C19.3434 93.7064 19.2327 93.8043 19.1475 93.9321C19.0623 94.0513 19.0197 94.2046 19.0197 94.392C19.0197 94.7582 19.1347 95.0137 19.3647 95.1585C19.5946 95.2947 19.9055 95.3629 20.2972 95.3629ZM20.1695 89.6013C20.6805 89.6013 21.1106 89.6652 21.4598 89.793C21.8089 89.9207 22.0857 90.0996 22.2901 90.3295C22.5031 90.5595 22.6521 90.8405 22.7373 91.1727C22.8309 91.4963 22.8778 91.854 22.8778 92.2458V96.2954C22.6393 96.3465 22.2774 96.4061 21.7919 96.4743C21.315 96.5509 20.7742 96.5893 20.1695 96.5893C19.7692 96.5893 19.403 96.5509 19.0708 96.4743C18.7387 96.3976 18.4534 96.2741 18.2149 96.1038C17.985 95.9335 17.8019 95.712 17.6656 95.4395C17.5378 95.167 17.474 94.8306 17.474 94.4303C17.474 94.047 17.5464 93.7234 17.6911 93.4594C17.8444 93.1954 18.0488 92.9824 18.3043 92.8206C18.5598 92.6503 18.8537 92.5311 19.1858 92.4629C19.5265 92.3863 19.8799 92.348 20.2461 92.348C20.4165 92.348 20.5953 92.3607 20.7827 92.3863C20.9701 92.4033 21.1702 92.4374 21.3831 92.4885V92.233C21.3831 92.0541 21.3618 91.8838 21.3192 91.722C21.2767 91.5602 21.2 91.4196 21.0893 91.3004C20.9871 91.1727 20.8466 91.0747 20.6677 91.0066C20.4974 90.9384 20.2802 90.9044 20.0162 90.9044C19.6585 90.9044 19.3306 90.9299 19.0325 90.981C18.7344 91.0321 18.4917 91.0917 18.3043 91.1599L18.1127 89.9079C18.3086 89.8398 18.5939 89.7717 18.9686 89.7035C19.3434 89.6354 19.7437 89.6013 20.1695 89.6013ZM26.4443 95.3373C26.8531 95.3373 27.1512 95.2905 27.3386 95.1968C27.5259 95.0946 27.6196 94.9242 27.6196 94.6858C27.6196 94.4643 27.5174 94.2812 27.313 94.1365C27.1171 93.9917 26.7892 93.8341 26.3293 93.6638C26.0483 93.5616 25.7885 93.4551 25.5501 93.3444C25.3201 93.2252 25.12 93.0889 24.9496 92.9356C24.7793 92.7823 24.643 92.5992 24.5408 92.3863C24.4471 92.1648 24.4003 91.8966 24.4003 91.5815C24.4003 90.9683 24.626 90.4871 25.0774 90.1379C25.5288 89.7802 26.142 89.6013 26.917 89.6013C27.3087 89.6013 27.6835 89.6397 28.0412 89.7163C28.3989 89.7844 28.6672 89.8526 28.846 89.9207L28.565 91.1727C28.3946 91.096 28.1774 91.0279 27.9134 90.9683C27.6494 90.9001 27.3428 90.8661 26.9936 90.8661C26.6785 90.8661 26.423 90.9214 26.2271 91.0321C26.0312 91.1343 25.9333 91.2961 25.9333 91.5176C25.9333 91.6283 25.9503 91.7262 25.9844 91.8114C26.027 91.8966 26.0951 91.9775 26.1888 92.0541C26.2825 92.1223 26.406 92.1947 26.5593 92.2713C26.7126 92.3394 26.8999 92.4118 27.1214 92.4885C27.4876 92.6247 27.7985 92.761 28.054 92.8973C28.3095 93.025 28.5181 93.1741 28.6799 93.3444C28.8503 93.5062 28.9738 93.6936 29.0504 93.9065C29.1271 94.1194 29.1654 94.3749 29.1654 94.673C29.1654 95.3118 28.9269 95.7972 28.45 96.1294C27.9816 96.453 27.3087 96.6148 26.4315 96.6148C25.8439 96.6148 25.3712 96.5637 25.0135 96.4615C24.6558 96.3678 24.4046 96.2912 24.2598 96.2316L24.5281 94.9413C24.758 95.035 25.0305 95.1244 25.3457 95.2096C25.6693 95.2947 26.0355 95.3373 26.4443 95.3373ZM30.6094 96.4487V86.7908L32.1551 86.5353V89.8441C32.3255 89.7844 32.5213 89.7333 32.7428 89.6908C32.9727 89.6482 33.1984 89.6269 33.4199 89.6269C33.9564 89.6269 34.3993 89.7035 34.7485 89.8568C35.1062 90.0016 35.3915 90.2103 35.6044 90.4828C35.8173 90.7468 35.9663 91.0662 36.0515 91.4409C36.1452 91.8157 36.192 92.233 36.192 92.6929V96.4487H34.6463V92.9356C34.6463 92.5779 34.6207 92.2756 34.5696 92.0286C34.527 91.7731 34.4504 91.5687 34.3397 91.4154C34.2375 91.2536 34.0969 91.1386 33.9181 91.0705C33.7392 90.9938 33.5178 90.9555 33.2538 90.9555C33.0494 90.9555 32.8407 90.9768 32.6278 91.0194C32.4149 91.0619 32.2573 91.1003 32.1551 91.1343V96.4487H30.6094ZM40.7914 86.5353C41.1151 86.5353 41.3876 86.5609 41.609 86.612C41.839 86.6631 42.0178 86.7142 42.1456 86.7653L41.9029 88.0172C41.7836 87.9746 41.6388 87.9363 41.4685 87.9023C41.3067 87.8682 41.1278 87.8512 40.932 87.8512C40.421 87.8512 40.0675 87.9874 39.8716 88.26C39.6843 88.5325 39.5906 88.8859 39.5906 89.3203V89.7674H42.0434V91.0577H39.5906V96.4487H38.0448V89.2947C38.0448 88.426 38.2705 87.749 38.7219 87.2635C39.1733 86.7781 39.8631 86.5353 40.7914 86.5353ZM45.5565 96.5765C45.0966 96.568 44.7133 96.5169 44.4068 96.4232C44.1087 96.3295 43.8702 96.1975 43.6914 96.0272C43.5125 95.8483 43.3848 95.6311 43.3081 95.3756C43.24 95.1116 43.2059 94.8135 43.2059 94.4814V86.7908L44.7517 86.5353V94.1876C44.7517 94.3749 44.7645 94.5325 44.79 94.6602C44.8241 94.788 44.8794 94.8987 44.9561 94.9924C45.0327 95.0775 45.1349 95.1457 45.2627 95.1968C45.3989 95.2394 45.5693 95.2734 45.7737 95.299L45.5565 96.5765ZM53.0698 93.1017C53.0698 93.6297 52.9931 94.1109 52.8398 94.5453C52.6865 94.9796 52.4694 95.3501 52.1883 95.6567C51.9073 95.9633 51.5666 96.2017 51.1663 96.3721C50.7746 96.5424 50.3402 96.6276 49.8633 96.6276C49.3863 96.6276 48.952 96.5424 48.5602 96.3721C48.1685 96.2017 47.832 95.9633 47.551 95.6567C47.2699 95.3501 47.0485 94.9796 46.8867 94.5453C46.7334 94.1109 46.6567 93.6297 46.6567 93.1017C46.6567 92.5736 46.7334 92.0967 46.8867 91.6709C47.0485 91.2365 47.2699 90.8661 47.551 90.5595C47.8406 90.2529 48.1812 90.0186 48.573 89.8568C48.9648 89.6865 49.3949 89.6013 49.8633 89.6013C50.3317 89.6013 50.7618 89.6865 51.1535 89.8568C51.5538 90.0186 51.8945 90.2529 52.1755 90.5595C52.4566 90.8661 52.6738 91.2365 52.8271 91.6709C52.9889 92.0967 53.0698 92.5736 53.0698 93.1017ZM51.4857 93.1017C51.4857 92.4374 51.3409 91.9136 51.0513 91.5304C50.7703 91.1386 50.3743 90.9427 49.8633 90.9427C49.3523 90.9427 48.952 91.1386 48.6624 91.5304C48.3814 91.9136 48.2408 92.4374 48.2408 93.1017C48.2408 93.7745 48.3814 94.3068 48.6624 94.6986C48.952 95.0903 49.3523 95.2862 49.8633 95.2862C50.3743 95.2862 50.7703 95.0903 51.0513 94.6986C51.3409 94.3068 51.4857 93.7745 51.4857 93.1017ZM58.5108 92.2458C58.315 92.9952 58.102 93.7277 57.8721 94.4431C57.6507 95.1499 57.4292 95.8185 57.2078 96.4487H55.9431C55.7727 96.057 55.5939 95.6098 55.4065 95.1074C55.2192 94.6049 55.0318 94.0683 54.8444 93.4977C54.6571 92.9271 54.4697 92.3267 54.2823 91.6964C54.095 91.0662 53.9118 90.4232 53.733 89.7674H55.3682C55.4448 90.1251 55.5343 90.5126 55.6365 90.9299C55.7387 91.3387 55.8451 91.7603 55.9558 92.1947C56.0666 92.6205 56.1815 93.0378 56.3008 93.4466C56.42 93.8554 56.5392 94.2301 56.6585 94.5708C56.7862 94.179 56.9097 93.7745 57.0289 93.3572C57.1567 92.9399 57.2759 92.5225 57.3866 92.1052C57.4974 91.6879 57.5996 91.2834 57.6932 90.8916C57.7954 90.4913 57.8849 90.1166 57.9615 89.7674H59.1496C59.2262 90.1166 59.3114 90.4913 59.4051 90.8916C59.4988 91.2834 59.5967 91.6879 59.6989 92.1052C59.8096 92.5225 59.9246 92.9399 60.0438 93.3572C60.1716 93.7745 60.2993 94.179 60.4271 94.5708C60.5378 94.2301 60.6528 93.8554 60.772 93.4466C60.8913 93.0378 61.0062 92.6205 61.1169 92.1947C61.2362 91.7603 61.3469 91.3387 61.4491 90.9299C61.5513 90.5126 61.6407 90.1251 61.7174 89.7674H63.3142C63.1354 90.4232 62.9523 91.0662 62.7649 91.6964C62.5776 92.3267 62.3902 92.9271 62.2028 93.4977C62.0155 94.0683 61.8281 94.6049 61.6407 95.1074C61.4534 95.6098 61.2702 96.057 61.0914 96.4487H59.8394C59.618 95.8185 59.3881 95.1499 59.1496 94.4431C58.9196 93.7277 58.7067 92.9952 58.5108 92.2458Z" fill="#3D0072"/>
<circle cx="205.751" cy="91.8737" r="5.92691" fill="#8608F3"/>
<circle cx="205.751" cy="91.8734" r="4.74153" fill="white"/>
<defs>
<filter id="filter0_d_1794_14424" x="195.533" y="0.197968" width="189.043" height="117.984" filterUnits="userSpaceOnUse" color-interpolation-filters="sRGB">
<feFlood flood-opacity="0" result="BackgroundImageFix"/>
<feColorMatrix in="SourceAlpha" type="matrix" values="0 0 0 0 0 0 0 0 0 0 0 0 0 0 0 0 0 0 127 0" result="hardAlpha"/>
<feOffset dy="16.0888"/>
<feGaussianBlur stdDeviation="13.4073"/>
<feComposite in2="hardAlpha" operator="out"/>
<feColorMatrix type="matrix" values="0 0 0 0 0.0375308 0 0 0 0 0.0278819 0 0 0 0 0.0458333 0 0 0 0.09 0"/>
<feBlend mode="normal" in2="BackgroundImageFix" result="effect1_dropShadow_1794_14424"/>
<feBlend mode="normal" in="SourceGraphic" in2="effect1_dropShadow_1794_14424" result="shape"/>
</filter>
<linearGradient id="paint0_linear_1794_14424" x1="282.44" y1="-267.905" x2="302.807" y2="358.131" gradientUnits="userSpaceOnUse">
<stop stop-color="#8807F7"/>
<stop offset="1" stop-color="white"/>
</linearGradient>
</defs>
</svg>
