<svg width="169" height="41" viewBox="0 0 169 41" fill="none" xmlns="http://www.w3.org/2000/svg">
<path d="M52.9564 31V15.3156H59.3368C60.0112 15.3156 60.6263 15.412 61.1821 15.6046C61.7453 15.7899 62.2158 16.0456 62.5938 16.3716C62.9791 16.6903 63.3015 17.0682 63.5608 17.5054C63.8276 17.9427 64.0203 18.4058 64.1389 18.8949C64.2574 19.3766 64.3167 19.8768 64.3167 20.3955C64.3167 20.9143 64.2574 21.4145 64.1389 21.8962C64.0203 22.3779 63.8276 22.8336 63.5608 23.2634C63.3015 23.6932 62.9791 24.0675 62.5938 24.3861C62.2158 24.7048 61.7453 24.9567 61.1821 25.142C60.6263 25.3272 60.0112 25.4199 59.3368 25.4199H55.8687V31H52.9564ZM55.8687 22.8299H59.1923C59.8963 22.8299 60.441 22.5854 60.8264 22.0963C61.2117 21.5998 61.4044 21.0328 61.4044 20.3955C61.4044 19.7582 61.2191 19.1839 60.8486 18.6726C60.4781 18.1613 59.9556 17.9056 59.2813 17.9056H55.8687V22.8299ZM66.2064 28.5656C65.7025 27.7134 65.4505 26.7427 65.4505 25.6533C65.4505 24.564 65.7025 23.5969 66.2064 22.7521C66.7103 21.9073 67.381 21.2626 68.2183 20.8179C69.0557 20.3659 69.9783 20.1399 70.9862 20.1399C71.9866 20.1399 72.9055 20.3659 73.7429 20.8179C74.5803 21.2626 75.2509 21.911 75.7548 22.7632C76.2588 23.608 76.5107 24.5714 76.5107 25.6533C76.5107 26.7352 76.2588 27.706 75.7548 28.5656C75.2509 29.4179 74.5803 30.07 73.7429 30.522C72.9055 30.9741 71.9866 31.2001 70.9862 31.2001C69.9783 31.2001 69.0557 30.9741 68.2183 30.522C67.381 30.07 66.7103 29.4179 66.2064 28.5656ZM68.2072 25.6533C68.2072 26.4981 68.474 27.1836 69.0076 27.7097C69.5411 28.2359 70.2007 28.4989 70.9862 28.4989C71.7643 28.4989 72.4201 28.2359 72.9537 27.7097C73.4872 27.1836 73.754 26.4981 73.754 25.6533C73.754 24.8233 73.4872 24.1527 72.9537 23.6414C72.4201 23.13 71.7643 22.8744 70.9862 22.8744C70.2081 22.8744 69.5485 23.1337 69.0076 23.6525C68.474 24.1638 68.2072 24.8307 68.2072 25.6533ZM79.0007 31V20.3733H81.7796V22.8744C82.039 21.9629 82.4428 21.2811 82.9912 20.8291C83.5396 20.3696 84.1399 20.1399 84.792 20.1399C85.4515 20.1399 86.0332 20.2696 86.5372 20.5289L86.0592 23.03C85.6368 22.8373 85.0995 22.741 84.4474 22.741C82.6689 22.741 81.7796 24.2416 81.7796 27.2429V31H79.0007ZM87.3153 22.5965V20.3733H89.2494V16.3161H92.0061V20.3733H94.2626V22.5965H92.0061V31H89.2494V22.5965H87.3153ZM95.2964 22.5965V20.3733H97.3195V19.5285C97.3195 17.9575 97.7048 16.7422 98.4755 15.8825C99.2536 15.0155 100.38 14.582 101.855 14.582H103.011V17.2498H101.855C100.699 17.2498 100.121 18.0094 100.121 19.5285V20.3733H102.377V22.5965H100.121V31H97.3195V22.5965H95.2964ZM104.445 28.5656C103.941 27.7134 103.689 26.7427 103.689 25.6533C103.689 24.564 103.941 23.5969 104.445 22.7521C104.949 21.9073 105.619 21.2626 106.457 20.8179C107.294 20.3659 108.217 20.1399 109.224 20.1399C110.225 20.1399 111.144 20.3659 111.981 20.8179C112.819 21.2626 113.489 21.911 113.993 22.7632C114.497 23.608 114.749 24.5714 114.749 25.6533C114.749 26.7352 114.497 27.706 113.993 28.5656C113.489 29.4179 112.819 30.07 111.981 30.522C111.144 30.9741 110.225 31.2001 109.224 31.2001C108.217 31.2001 107.294 30.9741 106.457 30.522C105.619 30.07 104.949 29.4179 104.445 28.5656ZM106.446 25.6533C106.446 26.4981 106.712 27.1836 107.246 27.7097C107.779 28.2359 108.439 28.4989 109.224 28.4989C110.003 28.4989 110.658 28.2359 111.192 27.7097C111.726 27.1836 111.992 26.4981 111.992 25.6533C111.992 24.8233 111.726 24.1527 111.192 23.6414C110.658 23.13 110.003 22.8744 109.224 22.8744C108.446 22.8744 107.787 23.1337 107.246 23.6525C106.712 24.1638 106.446 24.8307 106.446 25.6533ZM117.239 31V14.582H120.018V31H117.239ZM122.741 16.2494C122.741 15.7825 122.919 15.3897 123.275 15.0711C123.631 14.745 124.053 14.582 124.542 14.582C125.024 14.582 125.435 14.745 125.776 15.0711C126.124 15.3897 126.298 15.7825 126.298 16.2494C126.298 16.7236 126.124 17.1238 125.776 17.4499C125.435 17.7685 125.024 17.9278 124.542 17.9278C124.046 17.9278 123.619 17.7685 123.264 17.4499C122.915 17.1238 122.741 16.7236 122.741 16.2494ZM123.153 31V20.3733H125.909V31H123.153ZM129.144 28.5656C128.64 27.7134 128.388 26.7427 128.388 25.6533C128.388 24.564 128.64 23.5969 129.144 22.7521C129.648 21.9073 130.319 21.2626 131.156 20.8179C131.993 20.3659 132.916 20.1399 133.924 20.1399C134.924 20.1399 135.843 20.3659 136.68 20.8179C137.518 21.2626 138.188 21.911 138.692 22.7632C139.196 23.608 139.448 24.5714 139.448 25.6533C139.448 26.7352 139.196 27.706 138.692 28.5656C138.188 29.4179 137.518 30.07 136.68 30.522C135.843 30.9741 134.924 31.2001 133.924 31.2001C132.916 31.2001 131.993 30.9741 131.156 30.522C130.319 30.07 129.648 29.4179 129.144 28.5656ZM131.145 25.6533C131.145 26.4981 131.412 27.1836 131.945 27.7097C132.479 28.2359 133.138 28.4989 133.924 28.4989C134.702 28.4989 135.358 28.2359 135.891 27.7097C136.425 27.1836 136.692 26.4981 136.692 25.6533C136.692 24.8233 136.425 24.1527 135.891 23.6414C135.358 23.13 134.702 22.8744 133.924 22.8744C133.146 22.8744 132.486 23.1337 131.945 23.6525C131.412 24.1638 131.145 24.8307 131.145 25.6533Z" fill="#3D0072"/>
<path d="M14.0555 8.60237C14.0625 11.2712 14.0625 13.9399 14.0695 16.6087C14.0765 18.9093 13.3225 21.1502 11.1903 22.325C8.69335 23.6892 5.15484 23.3456 2.37033 23.058C2.26512 23.051 2.16692 23.037 2.06873 23.0299C2.15991 21.1081 2.12484 19.1688 2.03366 17.254C1.91442 14.6589 3.48904 11.5657 6.27356 11.1274C9.30005 10.6504 11.9303 10.3278 13.3576 8.65848C13.4067 8.60938 13.4488 8.56029 13.4908 8.50418C13.7013 8.22012 13.9257 7.94306 14.1502 7.66602C14.08 7.96761 14.0555 8.28675 14.0555 8.60237Z" fill="#8807F7"/>
<path d="M4.91016 40.4383C6.99328 40.5716 9.09043 40.54 11.1771 40.5751C13.6109 40.6172 16.1008 40.9188 18.4505 40.4909C21.8206 39.8772 25.6116 37.6784 26.8636 34.4204C28.0244 31.4044 27.4773 27.8028 25.4784 25.2708C25.3381 25.0954 25.1908 24.9271 25.0295 24.7588C23.0095 22.5494 19.8743 21.3956 16.8969 21.7919C13.1901 22.2829 9.92509 25.1971 8.96418 28.8058C8.3645 31.0572 8.88703 33.456 8.53634 35.7495C8.24877 37.6503 6.62856 39.5967 4.91016 40.4383Z" fill="#8807F7"/>
<path d="M25.7406 0C25.5548 0.564618 25.7792 1.17833 26.0212 1.72191C29.1108 8.61656 37.3977 13.2808 37.1137 21.5607C36.9839 25.3061 35.1147 29.7073 31.99 31.9272C31.7621 32.0885 31.5552 32.2323 31.2886 32.306C30.6925 31.1908 30.6293 29.5565 30.1208 28.3256C29.4861 26.7825 28.6444 25.264 27.4696 24.0682C26.3438 22.9249 24.9341 22.2656 23.8083 21.1434C21.4446 18.7832 19.9542 15.5463 19.7578 12.2077C19.4702 7.44524 21.8514 2.72139 25.7406 0Z" fill="#8807F7"/>
<path d="M4.22945 16.6262C4.22945 16.6262 4.12073 14.5466 6.24945 14.6518C6.25296 14.6518 7.02799 16.9243 4.22945 16.6262Z" fill="white" stroke="#8807F7" stroke-width="0.5" stroke-miterlimit="10"/>
<path d="M3.52799 34.2205C5.47644 34.2205 7.05597 32.641 7.05597 30.6925C7.05597 28.7441 5.47644 27.1646 3.52799 27.1646C1.57953 27.1646 0 28.7441 0 30.6925C0 32.641 1.57953 34.2205 3.52799 34.2205Z" fill="#8807F7"/>
</svg>
