<svg width="41" height="41" viewBox="0 0 41 41" fill="none" xmlns="http://www.w3.org/2000/svg">
<path d="M21.3433 25.7125L25.7127 21.343C26.0208 21.0349 26.1749 20.6428 26.1749 20.1666C26.1749 19.6905 26.0208 19.2984 25.7127 18.9903L21.3013 14.5788C20.9932 14.2707 20.6083 14.1234 20.1467 14.1368C19.684 14.1514 19.2986 14.3127 18.9905 14.6208C18.6824 14.9289 18.5283 15.321 18.5283 15.7972C18.5283 16.2734 18.6824 16.6655 18.9905 16.9736L20.503 18.4861H15.0832C14.607 18.4861 14.2149 18.6469 13.9068 18.9684C13.5987 19.2911 13.4447 19.6905 13.4447 20.1666C13.4447 20.6428 13.606 21.0416 13.9287 21.3632C14.2502 21.6859 14.6491 21.8472 15.1252 21.8472H20.503L18.9485 23.4017C18.6404 23.7098 18.4931 24.0952 18.5065 24.5579C18.5211 25.0195 18.6824 25.4044 18.9905 25.7125C19.2986 26.0206 19.6907 26.1746 20.1669 26.1746C20.643 26.1746 21.0352 26.0206 21.3433 25.7125ZM20.1669 36.9722C17.8421 36.9722 15.6574 36.5308 13.6127 35.6479C11.568 34.7662 9.78945 33.5691 8.27695 32.0566C6.76445 30.5441 5.56734 28.7655 4.68561 26.7208C3.80275 24.6761 3.36133 22.4914 3.36133 20.1666C3.36133 17.8419 3.80275 15.6571 4.68561 13.6125C5.56734 11.5678 6.76445 9.78921 8.27695 8.27671C9.78945 6.76421 11.568 5.56653 13.6127 4.68368C15.6574 3.80195 17.8421 3.36108 20.1669 3.36108C22.4917 3.36108 24.6764 3.80195 26.7211 4.68368C28.7657 5.56653 30.5443 6.76421 32.0568 8.27671C33.5693 9.78921 34.7664 11.5678 35.6482 13.6125C36.531 15.6571 36.9724 17.8419 36.9724 20.1666C36.9724 22.4914 36.531 24.6761 35.6482 26.7208C34.7664 28.7655 33.5693 30.5441 32.0568 32.0566C30.5443 33.5691 28.7657 34.7662 26.7211 35.6479C24.6764 36.5308 22.4917 36.9722 20.1669 36.9722Z" fill="#3D0072"/>
</svg>
