<svg width="113" height="113" viewBox="0 0 113 113" fill="none" xmlns="http://www.w3.org/2000/svg">
<path d="M12.5968 34.08L12.2852 33.9189C15.0053 28.608 18.6583 23.8295 23.0696 19.8115L23.3077 20.0706C18.9266 24.0606 15.2985 28.8059 12.5968 34.08Z" fill="#7A06DE"/>
<path d="M8.20952 46.5805L7.85938 46.5105C8.36621 44.0345 9.06153 41.6009 9.93924 39.231L10.2684 39.3535C9.39771 41.7061 8.7094 44.1223 8.20952 46.5805Z" fill="#7A06DE"/>
<path opacity="0.9" d="M84.4004 84.4114C99.8644 68.9474 99.8644 43.8753 84.4004 28.4114C68.9364 12.9474 43.8644 12.9474 28.4004 28.4114C12.9364 43.8753 12.9364 68.9474 28.4004 84.4114C43.8644 99.8753 68.9364 99.8753 84.4004 84.4114Z" fill="#FAFAFA"/>
<g opacity="0.4">
<path d="M28.3787 78.5585H19.0684L20.8681 74.1396H26.579L28.3787 78.5585Z" fill="#7A06DE"/>
<path opacity="0.2" d="M28.3787 78.5585H19.0684L20.8681 74.1396H26.579L28.3787 78.5585Z" fill="#FAFAFA"/>
<path d="M42.5292 78.5585H28.3798L26.5801 74.1396H40.7295L42.5292 78.5585Z" fill="#7A06DE"/>
<path opacity="0.3" d="M42.5292 78.5585H28.3798L26.5801 74.1396H40.7295L42.5292 78.5585Z" fill="#3D0072"/>
<path d="M40.2611 78.5585H30.9473L32.747 74.1396H38.4614L40.2611 78.5585Z" fill="#7A06DE"/>
<path opacity="0.2" d="M40.2611 78.5585H30.9473L32.747 74.1396H38.4614L40.2611 78.5585Z" fill="#FAFAFA"/>
<path d="M54.4066 78.5585H40.2607L38.4609 74.1396H52.6068L54.4066 78.5585Z" fill="#7A06DE"/>
<path opacity="0.3" d="M54.4066 78.5585H40.2607L38.4609 74.1396H52.6068L54.4066 78.5585Z" fill="#3D0072"/>
<path d="M52.1424 78.5585H42.832L44.6318 74.1396H50.3427L52.1424 78.5585Z" fill="#7A06DE"/>
<path opacity="0.2" d="M52.1424 78.5585H42.832L44.6318 74.1396H50.3427L52.1424 78.5585Z" fill="#FAFAFA"/>
<path d="M66.2913 78.5585H52.1455L50.3457 74.1396H64.4951L66.2913 78.5585Z" fill="#7A06DE"/>
<path opacity="0.3" d="M66.2913 78.5585H52.1455L50.3457 74.1396H64.4951L66.2913 78.5585Z" fill="#3D0072"/>
<path d="M64.0213 78.5585H54.7109L56.5107 74.1396H62.2216L64.0213 78.5585Z" fill="#7A06DE"/>
<path opacity="0.2" d="M64.0213 78.5585H54.7109L56.5107 74.1396H62.2216L64.0213 78.5585Z" fill="#FAFAFA"/>
<path d="M78.1718 78.5585H64.0224L62.2227 74.1396H76.372L78.1718 78.5585Z" fill="#7A06DE"/>
<path opacity="0.3" d="M78.1718 78.5585H64.0224L62.2227 74.1396H76.372L78.1718 78.5585Z" fill="#3D0072"/>
<path d="M75.9057 78.5585H66.5918L68.3915 74.1396H74.1059L75.9057 78.5585Z" fill="#7A06DE"/>
<path opacity="0.2" d="M75.9057 78.5585H66.5918L68.3915 74.1396H74.1059L75.9057 78.5585Z" fill="#FAFAFA"/>
<path d="M83.4563 78.5585C83.9068 77.0949 84.3153 75.6219 84.6818 74.1396H74.1074L75.9072 78.5585H83.4563Z" fill="#7A06DE"/>
<path opacity="0.3" d="M83.4563 78.5585C83.9068 77.0949 84.3153 75.6219 84.6818 74.1396H74.1074L75.9072 78.5585H83.4563Z" fill="#3D0072"/>
<path d="M84.6811 74.1396H80.2763L78.4766 78.5585H83.4556C83.9085 77.0949 84.317 75.6219 84.6811 74.1396Z" fill="#7A06DE"/>
<path opacity="0.2" d="M84.6811 74.1396H80.2763L78.4766 78.5585H83.4556C83.9085 77.0949 84.317 75.6219 84.6811 74.1396Z" fill="#FAFAFA"/>
<path d="M32.0092 74.1399H22.6953L24.4951 69.7175H30.2094L32.0092 74.1399Z" fill="#7A06DE"/>
<path opacity="0.2" d="M32.0092 74.1399H22.6953L24.4951 69.7175H30.2094L32.0092 74.1399Z" fill="#FAFAFA"/>
<path d="M46.1546 74.1399H32.0087L30.209 69.7175H44.3549L46.1546 74.1399Z" fill="#7A06DE"/>
<path opacity="0.3" d="M46.1546 74.1399H32.0087L30.209 69.7175H44.3549L46.1546 74.1399Z" fill="#3D0072"/>
<path d="M43.8905 74.1399H34.5801L36.3798 69.7175H42.0907L43.8905 74.1399Z" fill="#7A06DE"/>
<path opacity="0.2" d="M43.8905 74.1399H34.5801L36.3798 69.7175H42.0907L43.8905 74.1399Z" fill="#FAFAFA"/>
<path d="M58.0355 74.1399H43.8896L42.0898 69.7175H56.2392L58.0355 74.1399Z" fill="#7A06DE"/>
<path opacity="0.3" d="M58.0355 74.1399H43.8896L42.0898 69.7175H56.2392L58.0355 74.1399Z" fill="#3D0072"/>
<path d="M55.7694 74.1399H46.459L48.2587 69.7175H53.9696L55.7694 74.1399Z" fill="#7A06DE"/>
<path opacity="0.2" d="M55.7694 74.1399H46.459L48.2587 69.7175H53.9696L55.7694 74.1399Z" fill="#FAFAFA"/>
<path d="M69.9198 74.1399H55.7705L53.9707 69.7175H68.1201L69.9198 74.1399Z" fill="#7A06DE"/>
<path opacity="0.3" d="M69.9198 74.1399H55.7705L53.9707 69.7175H68.1201L69.9198 74.1399Z" fill="#3D0072"/>
<path d="M67.6537 74.1399H58.3398L60.1396 69.7175H65.854L67.6537 74.1399Z" fill="#7A06DE"/>
<path opacity="0.2" d="M67.6537 74.1399H58.3398L60.1396 69.7175H65.854L67.6537 74.1399Z" fill="#FAFAFA"/>
<path d="M81.7972 74.1399H67.6513L65.8516 69.7175H79.9975L81.7972 74.1399Z" fill="#7A06DE"/>
<path opacity="0.3" d="M81.7972 74.1399H67.6513L65.8516 69.7175H79.9975L81.7972 74.1399Z" fill="#3D0072"/>
<path d="M79.535 74.1399H70.2246L72.0244 69.7175H77.7352L79.535 74.1399Z" fill="#7A06DE"/>
<path opacity="0.2" d="M79.535 74.1399H70.2246L72.0244 69.7175H77.7352L79.535 74.1399Z" fill="#FAFAFA"/>
<path d="M84.6833 74.1399C85.0334 72.6728 85.3661 71.2021 85.6392 69.7175H77.7539L79.5537 74.1399H84.6833Z" fill="#7A06DE"/>
<path opacity="0.3" d="M84.6833 74.1399C85.0334 72.6728 85.3661 71.2021 85.6392 69.7175H77.7539L79.5537 74.1399H84.6833Z" fill="#3D0072"/>
<path d="M85.6365 69.7175H83.9033L82.1035 74.1399H84.6806C85.0412 72.6728 85.3634 71.2021 85.6365 69.7175Z" fill="#7A06DE"/>
<path opacity="0.2" d="M85.6365 69.7175H83.9033L82.1035 74.1399H84.6806C85.0412 72.6728 85.3634 71.2021 85.6365 69.7175Z" fill="#FAFAFA"/>
<path d="M35.117 69.7179H25.8066L27.6064 65.2991H33.3173L35.117 69.7179Z" fill="#7A06DE"/>
<path opacity="0.2" d="M35.117 69.7179H25.8066L27.6064 65.2991H33.3173L35.117 69.7179Z" fill="#FAFAFA"/>
<path d="M49.2655 69.7179H35.1162L33.3164 65.2991H47.4658L49.2655 69.7179Z" fill="#7A06DE"/>
<path opacity="0.3" d="M49.2655 69.7179H35.1162L33.3164 65.2991H47.4658L49.2655 69.7179Z" fill="#3D0072"/>
<path d="M47.0033 69.7179H37.6895L39.4892 65.2991H45.2001L47.0033 69.7179Z" fill="#7A06DE"/>
<path opacity="0.2" d="M47.0033 69.7179H37.6895L39.4892 65.2991H45.2001L47.0033 69.7179Z" fill="#FAFAFA"/>
<path d="M61.1464 69.7179H47.0005L45.1973 65.2991H59.3467L61.1464 69.7179Z" fill="#7A06DE"/>
<path opacity="0.3" d="M61.1464 69.7179H47.0005L45.1973 65.2991H59.3467L61.1464 69.7179Z" fill="#3D0072"/>
<path d="M58.8826 69.7179H49.5723L51.372 65.2991H57.0829L58.8826 69.7179Z" fill="#7A06DE"/>
<path opacity="0.2" d="M58.8826 69.7179H49.5723L51.372 65.2991H57.0829L58.8826 69.7179Z" fill="#FAFAFA"/>
<path d="M73.0277 69.7179H58.8818L57.082 65.2991H71.2279L73.0277 69.7179Z" fill="#7A06DE"/>
<path opacity="0.3" d="M73.0277 69.7179H58.8818L57.082 65.2991H71.2279L73.0277 69.7179Z" fill="#3D0072"/>
<path d="M70.7615 69.7179H61.4512L63.2509 65.2991H68.9618L70.7615 69.7179Z" fill="#7A06DE"/>
<path opacity="0.2" d="M70.7615 69.7179H61.4512L63.2509 65.2991H68.9618L70.7615 69.7179Z" fill="#FAFAFA"/>
<path d="M84.912 69.7179H70.7626L68.9629 65.2991H83.1123L84.912 69.7179Z" fill="#7A06DE"/>
<path opacity="0.3" d="M84.912 69.7179H70.7626L68.9629 65.2991H83.1123L84.912 69.7179Z" fill="#3D0072"/>
<path d="M82.6479 69.7179H73.334L75.1337 65.2991H80.8481L82.6479 69.7179Z" fill="#7A06DE"/>
<path opacity="0.2" d="M82.6479 69.7179H73.334L75.1337 65.2991H80.8481L82.6479 69.7179Z" fill="#FAFAFA"/>
<path d="M85.6357 69.7179C85.9088 68.2543 86.1422 66.7814 86.336 65.2991H80.8457L82.6525 69.7179H85.6357Z" fill="#7A06DE"/>
<path opacity="0.3" d="M85.6357 69.7179C85.9088 68.2543 86.1422 66.7814 86.336 65.2991H80.8457L82.6525 69.7179H85.6357Z" fill="#3D0072"/>
<path d="M85.9466 67.9177L85.2148 69.7175H85.635C85.7471 69.1199 85.8509 68.52 85.9466 67.9177Z" fill="#7A06DE"/>
<path opacity="0.2" d="M85.9466 67.9177L85.2148 69.7175H85.635C85.7471 69.1199 85.8509 68.52 85.9466 67.9177Z" fill="#FAFAFA"/>
<path d="M38.744 65.2987H29.4336L31.2333 60.8799H36.9477L38.744 65.2987Z" fill="#7A06DE"/>
<path opacity="0.2" d="M38.744 65.2987H29.4336L31.2333 60.8799H36.9477L38.744 65.2987Z" fill="#FAFAFA"/>
<path d="M52.8949 65.2987H38.7455L36.9492 60.8799H51.0951L52.8949 65.2987Z" fill="#7A06DE"/>
<path opacity="0.3" d="M52.8949 65.2987H38.7455L36.9492 60.8799H51.0951L52.8949 65.2987Z" fill="#3D0072"/>
<path d="M50.6307 65.2987H41.3203L43.1201 60.8799H48.8309L50.6307 65.2987Z" fill="#7A06DE"/>
<path opacity="0.2" d="M50.6307 65.2987H41.3203L43.1201 60.8799H48.8309L50.6307 65.2987Z" fill="#FAFAFA"/>
<path d="M64.7777 65.2987H50.6318L48.832 60.8799H62.9814L64.7777 65.2987Z" fill="#7A06DE"/>
<path opacity="0.3" d="M64.7777 65.2987H50.6318L48.832 60.8799H62.9814L64.7777 65.2987Z" fill="#3D0072"/>
<path d="M62.5076 65.2987H53.1973L54.997 60.8799H60.7079L62.5076 65.2987Z" fill="#7A06DE"/>
<path opacity="0.2" d="M62.5076 65.2987H53.1973L54.997 60.8799H60.7079L62.5076 65.2987Z" fill="#FAFAFA"/>
<path d="M76.6601 65.2987H62.5107L60.7109 60.8799H74.8603L76.6601 65.2987Z" fill="#7A06DE"/>
<path opacity="0.3" d="M76.6601 65.2987H62.5107L60.7109 60.8799H74.8603L76.6601 65.2987Z" fill="#3D0072"/>
<path d="M74.3959 65.2987H65.082L66.8818 60.8799H72.5962L74.3959 65.2987Z" fill="#7A06DE"/>
<path opacity="0.2" d="M74.3959 65.2987H65.082L66.8818 60.8799H72.5962L74.3959 65.2987Z" fill="#FAFAFA"/>
<path d="M86.321 65.2987C86.5031 63.8304 86.6373 62.3575 86.7237 60.8799H72.5918L74.3916 65.2987H86.321Z" fill="#7A06DE"/>
<path opacity="0.3" d="M86.321 65.2987C86.5031 63.8304 86.6373 62.3575 86.7237 60.8799H72.5918L74.3916 65.2987H86.321Z" fill="#3D0072"/>
<path d="M86.2733 65.2987H76.9629L78.7626 60.8799H84.4735L86.2733 65.2987Z" fill="#7A06DE"/>
<path opacity="0.2" d="M86.2733 65.2987H76.9629L78.7626 60.8799H84.4735L86.2733 65.2987Z" fill="#FAFAFA"/>
<path d="M86.3234 65.2987C86.5055 63.8304 86.6397 62.3575 86.726 60.8799H84.4746L86.2744 65.2987H86.3234Z" fill="#7A06DE"/>
<path opacity="0.3" d="M86.3234 65.2987C86.5055 63.8304 86.6397 62.3575 86.726 60.8799H84.4746L86.2744 65.2987H86.3234Z" fill="#3D0072"/>
<path d="M36.6821 96.2377H39.8614L38.0617 91.8188H31.0098C33.0118 93.1431 34.9083 94.6205 36.6821 96.2377Z" fill="#7A06DE"/>
<path opacity="0.3" d="M36.6821 96.2377H39.8614L38.0617 91.8188H31.0098C33.0118 93.1431 34.9083 94.6205 36.6821 96.2377Z" fill="#3D0072"/>
<path d="M36.6821 96.2377H37.596L35.7963 91.8188H31.0098C33.0118 93.1431 34.9083 94.6205 36.6821 96.2377Z" fill="#7A06DE"/>
<path opacity="0.2" d="M36.6821 96.2377H37.596L35.7963 91.8188H31.0098C33.0118 93.1431 34.9083 94.6205 36.6821 96.2377Z" fill="#FAFAFA"/>
<path d="M51.7406 96.2377H37.5947L35.7949 91.8188H49.9408L51.7406 96.2377Z" fill="#7A06DE"/>
<path opacity="0.3" d="M51.7406 96.2377H37.5947L35.7949 91.8188H49.9408L51.7406 96.2377Z" fill="#3D0072"/>
<path d="M49.4783 96.2377H40.168L41.9677 91.8188H47.6786L49.4783 96.2377Z" fill="#7A06DE"/>
<path opacity="0.2" d="M49.4783 96.2377H40.168L41.9677 91.8188H47.6786L49.4783 96.2377Z" fill="#FAFAFA"/>
<path d="M63.6214 96.2377H49.4755L47.6758 91.8188H61.8217L63.6214 96.2377Z" fill="#7A06DE"/>
<path opacity="0.3" d="M63.6214 96.2377H49.4755L47.6758 91.8188H61.8217L63.6214 96.2377Z" fill="#3D0072"/>
<path d="M61.3592 96.2377H52.0488L53.8486 91.8188H59.5595L61.3592 96.2377Z" fill="#7A06DE"/>
<path opacity="0.2" d="M61.3592 96.2377H52.0488L53.8486 91.8188H59.5595L61.3592 96.2377Z" fill="#FAFAFA"/>
<path d="M75.4291 96.0486L73.7064 91.8188H59.543L61.3427 96.2377H75.219C75.2995 96.1782 75.3626 96.1116 75.4291 96.0486Z" fill="#7A06DE"/>
<path opacity="0.3" d="M75.4291 96.0486L73.7064 91.8188H59.543L61.3427 96.2377H75.219C75.2995 96.1782 75.3626 96.1116 75.4291 96.0486Z" fill="#3D0072"/>
<path d="M73.2436 96.2377H63.9297L65.7294 91.8188H71.4438L73.2436 96.2377Z" fill="#7A06DE"/>
<path opacity="0.2" d="M73.2436 96.2377H63.9297L65.7294 91.8188H71.4438L73.2436 96.2377Z" fill="#FAFAFA"/>
<path d="M75.2343 96.2377C76.538 94.9526 77.6184 93.4591 78.4311 91.8188H71.4492L73.249 96.2377H75.2343Z" fill="#7A06DE"/>
<path opacity="0.3" d="M75.2343 96.2377C76.538 94.9526 77.6184 93.4591 78.4311 91.8188H71.4492L73.249 96.2377H75.2343Z" fill="#3D0072"/>
<path d="M78.4338 91.8188H77.6144L76.2559 95.1522C77.099 94.1222 77.8292 93.0047 78.4338 91.8188Z" fill="#7A06DE"/>
<path opacity="0.2" d="M78.4338 91.8188H77.6144L76.2559 95.1522C77.099 94.1222 77.8292 93.0047 78.4338 91.8188Z" fill="#FAFAFA"/>
<path d="M25.6899 87.8936C27.3741 89.3187 29.1913 90.5617 31.0086 91.8187H31.6073L29.8076 87.3999H25.1191C25.3082 87.5645 25.4973 87.7325 25.6899 87.8936Z" fill="#7A06DE"/>
<path opacity="0.3" d="M25.6899 87.8936C27.3741 89.3187 29.1913 90.5617 31.0086 91.8187H31.6073L29.8076 87.3999H25.1191C25.3082 87.5645 25.4973 87.7325 25.6899 87.8936Z" fill="#3D0072"/>
<path d="M25.6899 87.8937C26.6493 88.706 27.6542 89.4588 28.6766 90.1872L27.5421 87.386H25.1191C25.3082 87.5646 25.4973 87.7326 25.6899 87.8937Z" fill="#7A06DE"/>
<path opacity="0.2" d="M25.6899 87.8937C26.6493 88.706 27.6542 89.4588 28.6766 90.1872L27.5421 87.386H25.1191C25.3082 87.5646 25.4973 87.7326 25.6899 87.8937Z" fill="#FAFAFA"/>
<path d="M31.011 91.8187H43.4901L41.6869 87.3999H27.541L28.6755 90.2011C29.4493 90.7403 30.2336 91.276 31.011 91.8187Z" fill="#7A06DE"/>
<path opacity="0.3" d="M31.011 91.8187H43.4901L41.6869 87.3999H27.541L28.6755 90.2011C29.4493 90.7403 30.2336 91.276 31.011 91.8187Z" fill="#3D0072"/>
<path d="M41.2244 91.8187H31.9141L33.7138 87.3999H39.4247L41.2244 91.8187Z" fill="#7A06DE"/>
<path opacity="0.2" d="M41.2244 91.8187H31.9141L33.7138 87.3999H39.4247L41.2244 91.8187Z" fill="#FAFAFA"/>
<path d="M55.3749 91.8187H41.2255L39.4258 87.3999H53.5752L55.3749 91.8187Z" fill="#7A06DE"/>
<path opacity="0.3" d="M55.3749 91.8187H41.2255L39.4258 87.3999H53.5752L55.3749 91.8187Z" fill="#3D0072"/>
<path d="M53.1053 91.8187H43.7949L45.5947 87.3999H51.3055L53.1053 91.8187Z" fill="#7A06DE"/>
<path opacity="0.2" d="M53.1053 91.8187H43.7949L45.5947 87.3999H51.3055L53.1053 91.8187Z" fill="#FAFAFA"/>
<path d="M67.2558 91.8187H53.1064L51.3066 87.3999H65.456L67.2558 91.8187Z" fill="#7A06DE"/>
<path opacity="0.3" d="M67.2558 91.8187H53.1064L51.3066 87.3999H65.456L67.2558 91.8187Z" fill="#3D0072"/>
<path d="M64.9881 91.8187H55.6777L57.4775 87.3999H63.1884L64.9881 91.8187Z" fill="#7A06DE"/>
<path opacity="0.2" d="M64.9881 91.8187H55.6777L57.4775 87.3999H63.1884L64.9881 91.8187Z" fill="#FAFAFA"/>
<path d="M78.8219 91.0484L77.3373 87.3999H63.1914L64.9911 91.8187H78.4332C78.5698 91.5631 78.6959 91.3075 78.8219 91.0484Z" fill="#7A06DE"/>
<path opacity="0.3" d="M78.8219 91.0484L77.3373 87.3999H63.1914L64.9911 91.8187H78.4332C78.5698 91.5631 78.6959 91.3075 78.8219 91.0484Z" fill="#3D0072"/>
<path d="M76.869 91.8187H67.5586L69.3583 87.3999H75.0692L76.869 91.8187Z" fill="#7A06DE"/>
<path opacity="0.2" d="M76.869 91.8187H67.5586L69.3583 87.3999H75.0692L76.869 91.8187Z" fill="#FAFAFA"/>
<path d="M78.4317 91.8187C79.1642 90.386 79.8096 88.9104 80.3645 87.3999H75.0703L76.8701 91.8187H78.4317Z" fill="#7A06DE"/>
<path opacity="0.3" d="M78.4317 91.8187C79.1642 90.386 79.8096 88.9104 80.3645 87.3999H75.0703L76.8701 91.8187H78.4317Z" fill="#3D0072"/>
<path d="M25.1227 87.3999H34.7202L32.9344 82.9775H20.8789C22.1704 84.565 23.5898 86.0441 25.1227 87.3999Z" fill="#7A06DE"/>
<path opacity="0.3" d="M25.1227 87.3999H34.7202L32.9344 82.9775H20.8789C22.1704 84.565 23.5898 86.0441 25.1227 87.3999Z" fill="#3D0072"/>
<path d="M25.1211 87.3999H32.4532L30.6534 82.9775H24.9426L23.6855 86.0623C24.1501 86.5222 24.6286 86.968 25.1211 87.3999Z" fill="#7A06DE"/>
<path opacity="0.2" d="M25.1211 87.3999H32.4532L30.6534 82.9775H24.9426L23.6855 86.0623C24.1501 86.5222 24.6286 86.968 25.1211 87.3999Z" fill="#FAFAFA"/>
<path d="M46.6015 87.3999H32.4521L30.6523 82.9775H44.8017L46.6015 87.3999Z" fill="#7A06DE"/>
<path opacity="0.3" d="M46.6015 87.3999H32.4521L30.6523 82.9775H44.8017L46.6015 87.3999Z" fill="#3D0072"/>
<path d="M44.3338 87.3999H35.0234L36.8232 82.9775H42.5376L44.3338 87.3999Z" fill="#7A06DE"/>
<path opacity="0.2" d="M44.3338 87.3999H35.0234L36.8232 82.9775H42.5376L44.3338 87.3999Z" fill="#FAFAFA"/>
<path d="M58.4827 87.3999H44.3334L42.5371 82.9775H56.683L58.4827 87.3999Z" fill="#7A06DE"/>
<path opacity="0.3" d="M58.4827 87.3999H44.3334L42.5371 82.9775H56.683L58.4827 87.3999Z" fill="#3D0072"/>
<path d="M56.2186 87.3999H46.9082L48.708 82.9775H54.4188L56.2186 87.3999Z" fill="#7A06DE"/>
<path opacity="0.2" d="M56.2186 87.3999H46.9082L48.708 82.9775H54.4188L56.2186 87.3999Z" fill="#FAFAFA"/>
<path d="M70.3616 87.3999H56.2158L54.416 82.9775H68.5619L70.3616 87.3999Z" fill="#7A06DE"/>
<path opacity="0.3" d="M70.3616 87.3999H56.2158L54.416 82.9775H68.5619L70.3616 87.3999Z" fill="#3D0072"/>
<path d="M68.0975 87.3999H58.7871L60.5869 82.9775H66.2977L68.0975 87.3999Z" fill="#7A06DE"/>
<path opacity="0.2" d="M68.0975 87.3999H58.7871L60.5869 82.9775H66.2977L68.0975 87.3999Z" fill="#FAFAFA"/>
<path d="M81.2535 84.9524L80.4517 82.9775H66.2988L68.0986 87.3999H80.3537C80.6793 86.5665 80.9699 85.7437 81.2535 84.9524Z" fill="#7A06DE"/>
<path opacity="0.3" d="M81.2535 84.9524L80.4517 82.9775H66.2988L68.0986 87.3999H80.3537C80.6793 86.5665 80.9699 85.7437 81.2535 84.9524Z" fill="#3D0072"/>
<path d="M79.9818 87.3999H70.668L72.4677 82.9775H78.1821L79.9818 87.3999Z" fill="#7A06DE"/>
<path opacity="0.2" d="M79.9818 87.3999H70.668L72.4677 82.9775H78.1821L79.9818 87.3999Z" fill="#FAFAFA"/>
<path d="M80.365 87.3999C80.9427 85.8697 81.447 84.3746 81.9372 83.0511C81.9437 83.0261 81.9519 83.0015 81.9617 82.9775H78.1836L79.9833 87.3999H80.365Z" fill="#7A06DE"/>
<path opacity="0.3" d="M80.365 87.3999C80.9427 85.8697 81.447 84.3746 81.9372 83.0511C81.9437 83.0261 81.9519 83.0015 81.9617 82.9775H78.1836L79.9833 87.3999H80.365Z" fill="#3D0072"/>
<path d="M20.8776 82.9777H24.2005L22.4007 78.5588H17.7578C18.6941 80.1023 19.7365 81.5788 20.8776 82.9777Z" fill="#7A06DE"/>
<path opacity="0.2" d="M20.8776 82.9777H24.2005L22.4007 78.5588H17.7578C18.6941 80.1023 19.7365 81.5788 20.8776 82.9777Z" fill="#FAFAFA"/>
<path d="M38.3476 82.9777H24.1982L22.3984 78.5588H36.5478L38.3476 82.9777Z" fill="#7A06DE"/>
<path opacity="0.3" d="M38.3476 82.9777H24.1982L22.3984 78.5588H36.5478L38.3476 82.9777Z" fill="#3D0072"/>
<path d="M36.0854 82.9777H26.7715L28.5712 78.5588H34.2856L36.0854 82.9777Z" fill="#7A06DE"/>
<path opacity="0.2" d="M36.0854 82.9777H26.7715L28.5712 78.5588H34.2856L36.0854 82.9777Z" fill="#FAFAFA"/>
<path d="M50.2308 82.9777H36.0849L34.2852 78.5588H48.431L50.2308 82.9777Z" fill="#7A06DE"/>
<path opacity="0.3" d="M50.2308 82.9777H36.0849L34.2852 78.5588H48.431L50.2308 82.9777Z" fill="#3D0072"/>
<path d="M47.9647 82.9777H38.6543L40.454 78.5588H46.1649L47.9647 82.9777Z" fill="#7A06DE"/>
<path opacity="0.2" d="M47.9647 82.9777H38.6543L40.454 78.5588H46.1649L47.9647 82.9777Z" fill="#FAFAFA"/>
<path d="M62.1097 82.9777H47.9638L46.1641 78.5588H60.31L62.1097 82.9777Z" fill="#7A06DE"/>
<path opacity="0.3" d="M62.1097 82.9777H47.9638L46.1641 78.5588H60.31L62.1097 82.9777Z" fill="#3D0072"/>
<path d="M59.8455 82.9777H50.5352L52.3349 78.5588H58.0458L59.8455 82.9777Z" fill="#7A06DE"/>
<path opacity="0.2" d="M59.8455 82.9777H50.5352L52.3349 78.5588H58.0458L59.8455 82.9777Z" fill="#FAFAFA"/>
<path d="M73.9941 82.9777H59.8447L58.0449 78.5588H72.1943L73.9941 82.9777Z" fill="#7A06DE"/>
<path opacity="0.3" d="M73.9941 82.9777H59.8447L58.0449 78.5588H72.1943L73.9941 82.9777Z" fill="#3D0072"/>
<path d="M71.7299 82.9777H62.416L64.2158 78.5588H69.9301L71.7299 82.9777Z" fill="#7A06DE"/>
<path opacity="0.2" d="M71.7299 82.9777H62.416L64.2158 78.5588H69.9301L71.7299 82.9777Z" fill="#FAFAFA"/>
<path d="M81.9517 82.9777C82.491 81.5164 82.9893 80.0435 83.4469 78.5588H69.9277L71.7275 82.9777H81.9517Z" fill="#7A06DE"/>
<path opacity="0.3" d="M81.9517 82.9777C82.491 81.5164 82.9893 80.0435 83.4469 78.5588H69.9277L71.7275 82.9777H81.9517Z" fill="#3D0072"/>
<path d="M82.7233 80.8068L81.8094 78.5588H76.0986L74.2988 82.9777H81.953C82.2261 82.2599 82.4782 81.5351 82.7233 80.8068Z" fill="#7A06DE"/>
<path opacity="0.2" d="M82.7233 80.8068L81.8094 78.5588H76.0986L74.2988 82.9777H81.953C82.2261 82.2599 82.4782 81.5351 82.7233 80.8068Z" fill="#FAFAFA"/>
<path d="M83.4562 78.5588H81.8105L82.7244 80.8068C82.9812 80.0621 83.2251 79.3128 83.4562 78.5588Z" fill="#7A06DE"/>
<path opacity="0.3" d="M83.4562 78.5588H81.8105L82.7244 80.8068C82.9812 80.0621 83.2251 79.3128 83.4562 78.5588Z" fill="#3D0072"/>
</g>
<path d="M56.4594 8.08521C46.8936 8.08521 37.5426 10.9218 29.5889 16.2363C21.6352 21.5508 15.4361 29.1044 11.7754 37.9421C8.1147 46.7798 7.15691 56.5045 9.0231 65.8865C10.8893 75.2685 15.4957 83.8864 22.2597 90.6505C29.0238 97.4145 37.6417 102.021 47.0237 103.887C56.4057 105.753 66.1305 104.796 74.9681 101.135C83.8058 97.4742 91.3595 91.275 96.6739 83.3213C101.988 75.3676 104.825 66.0166 104.825 56.4508C104.825 43.6235 99.7294 31.3215 90.6591 22.2512C81.5887 13.1809 69.2868 8.08521 56.4594 8.08521ZM56.3964 96.0103C48.5648 96.0096 40.9093 93.6866 34.3979 89.3351C27.8865 84.9836 22.8116 78.799 19.8151 71.5634C16.8186 64.3277 16.0349 56.366 17.5632 48.685C19.0915 41.004 22.8631 33.9486 28.4011 28.4111C33.9391 22.8736 40.9948 19.1026 48.676 17.5749C56.3571 16.0473 64.3188 16.8317 71.5542 19.8289C78.7896 22.8261 84.9737 27.9014 89.3246 34.4132C93.6756 40.925 95.9978 48.5807 95.9978 56.4123C95.9978 61.6127 94.9735 66.7621 92.9833 71.5666C90.9931 76.3711 88.076 80.7365 84.3986 84.4136C80.7213 88.0906 76.3556 91.0073 71.5509 92.9971C66.7463 94.9869 61.5967 96.0107 56.3964 96.0103Z" fill="#7A06DE"/>
<path opacity="0.4" d="M56.457 102.327C81.7515 102.327 102.326 81.7455 102.326 56.458C102.326 31.1704 81.7445 10.5889 56.457 10.5889C31.1695 10.5889 10.5879 31.1669 10.5879 56.458C10.5879 81.749 31.159 102.327 56.457 102.327ZM56.457 10.939C68.5245 10.9548 80.0933 15.7556 88.6263 24.2886C97.1594 32.8216 101.96 44.3904 101.976 56.458C101.976 81.5599 81.5519 101.977 56.457 101.977C31.362 101.977 10.938 81.5529 10.938 56.458C10.938 31.363 31.3515 10.925 56.457 10.925V10.939Z" fill="#FAFAFA"/>
<path d="M78.063 103.248C66.8793 101.564 58.3848 80.6599 58.3848 56.4508C58.3848 32.2418 66.8793 11.3381 78.063 9.65386L88.4868 8.08521V104.816L78.063 103.248Z" fill="#7A06DE"/>
<path opacity="0.3" d="M78.063 103.248C66.8793 101.564 58.3848 80.6599 58.3848 56.4508C58.3848 32.2418 66.8793 11.3381 78.063 9.65386L88.4868 8.08521V104.816L78.063 103.248Z" fill="#3D0072"/>
<path d="M88.4858 104.816C98.5745 104.816 106.753 83.1624 106.753 56.4508C106.753 29.7392 98.5745 8.08521 88.4858 8.08521C78.3972 8.08521 70.2188 29.7392 70.2188 56.4508C70.2188 83.1624 78.3972 104.816 88.4858 104.816Z" fill="#7A06DE"/>
<path opacity="0.2" d="M91.8696 32.4517C86.2673 32.4517 81.7539 43.1976 81.7539 56.4542C81.7539 69.7107 86.2813 80.4531 91.8696 80.4531C97.4579 80.4531 101.985 69.7107 101.985 56.4542C101.985 43.1976 97.4579 32.4517 91.8696 32.4517ZM99.923 56.4542C99.923 60.2672 99.3067 63.7337 98.2983 66.3353L95.3781 56.2616L98.2423 46.398C99.2927 49.0136 99.937 52.55 99.937 56.4506L99.923 56.4542ZM93.7639 41.8496C94.9999 41.8496 96.1449 42.7109 97.1078 44.192L94.4922 53.2643L91.4739 42.9C92.0735 42.2595 92.9012 41.8808 93.7779 41.8461L93.7639 41.8496ZM87.6118 56.4542C87.6118 51.5171 88.6448 47.1578 90.2239 44.5142L93.6413 56.2616L90.1749 68.2786C88.6308 65.6315 87.6258 61.3212 87.6258 56.4506L87.6118 56.4542ZM93.7639 71.0587C93.3156 71.0342 92.8766 70.9206 92.4726 70.7246C92.0686 70.5286 91.7077 70.2542 91.4109 69.9173L94.5062 59.2483L97.2058 68.5762C96.2254 70.1484 95.0489 71.0552 93.7779 71.0552L93.7639 71.0587Z" fill="#FAFAFA"/>
<path opacity="0.4" d="M88.9814 103.591C80.753 103.591 71.9434 84.6479 71.9434 56.4507C71.9434 28.2534 80.753 9.31055 88.9814 9.31055C97.2099 9.31055 106.023 28.2534 106.023 56.4507C106.023 84.6479 97.2134 103.591 88.9814 103.591ZM88.9814 9.66069C80.9281 9.66069 72.2935 28.46 72.2935 56.4507C72.2935 84.4413 80.9071 103.241 88.9814 103.241C97.0558 103.241 105.673 84.4378 105.673 56.4507C105.673 28.4635 97.0418 9.66069 88.9814 9.66069Z" fill="#FAFAFA"/>
</svg>
