<svg width="67" height="62" viewBox="0 0 67 62" fill="none" xmlns="http://www.w3.org/2000/svg">
<g filter="url(#filter0_d_1147_15810)">
<g filter="url(#filter1_d_1147_15810)">
<rect x="12.4551" y="6" width="42.4326" height="37.8204" rx="7.37958" fill="#3D0072"/>
</g>
<path d="M34.0509 31.668C33.209 31.668 32.4131 31.5299 31.6633 31.2537C30.9135 30.9774 30.236 30.5959 29.6309 30.1092L28.6245 31.1155C28.4667 31.2734 28.2825 31.3489 28.072 31.3421C27.8615 31.3357 27.6774 31.2537 27.5195 31.0958C27.3616 30.9379 27.2827 30.7503 27.2827 30.533C27.2827 30.3162 27.3616 30.1289 27.5195 29.9711L28.5061 28.9844C28.0194 28.3793 27.6379 27.6984 27.3616 26.9417C27.0854 26.1856 26.9473 25.3931 26.9473 24.5644C26.9473 22.5911 27.6413 20.9139 29.0294 19.5326C30.417 18.1513 32.0909 17.4607 34.0509 17.4607H39.576C40.0101 17.4607 40.3819 17.6151 40.6913 17.924C41.0002 18.2334 41.1546 18.6052 41.1546 19.0393V24.5644C41.1546 26.5245 40.464 28.1986 39.0827 29.5867C37.7014 30.9742 36.0242 31.668 34.0509 31.668ZM34.0509 30.0894C35.5901 30.0894 36.8956 29.5501 37.9674 28.4714C39.0398 27.3927 39.576 26.0903 39.576 24.5644V19.0393H34.0509C32.525 19.0393 31.2226 19.5752 30.1439 20.6471C29.0652 21.7195 28.5259 23.0252 28.5259 24.5644C28.5259 26.0903 29.0652 27.3927 30.1439 28.4714C31.2226 29.5501 32.525 30.0894 34.0509 30.0894ZM33.0051 28.4122L37.0897 24.7617C37.2213 24.6433 37.2607 24.5017 37.2081 24.337C37.1555 24.1729 37.0371 24.0776 36.8529 24.0513L33.6563 23.7356L35.5703 21.1112C35.623 21.0454 35.6458 20.9762 35.639 20.9036C35.6327 20.8315 35.6032 20.7626 35.5506 20.6968C35.4848 20.631 35.4093 20.5981 35.3241 20.5981C35.2383 20.5981 35.1625 20.631 35.0968 20.6968L31.0319 24.3473C30.9003 24.4657 30.8609 24.607 30.9135 24.7712C30.9661 24.9359 31.0845 25.0314 31.2687 25.0577L34.4653 25.3734L32.5315 27.9978C32.4921 28.0636 32.4723 28.1328 32.4723 28.2054C32.4723 28.2775 32.5052 28.3464 32.571 28.4122C32.6368 28.478 32.7091 28.5109 32.7881 28.5109C32.867 28.5109 32.9393 28.478 33.0051 28.4122Z" fill="white"/>
</g>
<defs>
<filter id="filter0_d_1147_15810" x="0.455078" y="0" width="66.4316" height="61.8203" filterUnits="userSpaceOnUse" color-interpolation-filters="sRGB">
<feFlood flood-opacity="0" result="BackgroundImageFix"/>
<feColorMatrix in="SourceAlpha" type="matrix" values="0 0 0 0 0 0 0 0 0 0 0 0 0 0 0 0 0 0 127 0" result="hardAlpha"/>
<feOffset dy="6"/>
<feGaussianBlur stdDeviation="6"/>
<feComposite in2="hardAlpha" operator="out"/>
<feColorMatrix type="matrix" values="0 0 0 0 0.525 0 0 0 0 0.520625 0 0 0 0 0.520625 0 0 0 0.06 0"/>
<feBlend mode="normal" in2="BackgroundImageFix" result="effect1_dropShadow_1147_15810"/>
<feBlend mode="normal" in="SourceGraphic" in2="effect1_dropShadow_1147_15810" result="shape"/>
</filter>
<filter id="filter1_d_1147_15810" x="3.2306" y="0.465311" width="60.8806" height="56.2693" filterUnits="userSpaceOnUse" color-interpolation-filters="sRGB">
<feFlood flood-opacity="0" result="BackgroundImageFix"/>
<feColorMatrix in="SourceAlpha" type="matrix" values="0 0 0 0 0 0 0 0 0 0 0 0 0 0 0 0 0 0 127 0" result="hardAlpha"/>
<feOffset dy="3.68979"/>
<feGaussianBlur stdDeviation="4.61224"/>
<feComposite in2="hardAlpha" operator="out"/>
<feColorMatrix type="matrix" values="0 0 0 0 0.533333 0 0 0 0 0.027451 0 0 0 0 0.968627 0 0 0 0.07 0"/>
<feBlend mode="normal" in2="BackgroundImageFix" result="effect1_dropShadow_1147_15810"/>
<feBlend mode="normal" in="SourceGraphic" in2="effect1_dropShadow_1147_15810" result="shape"/>
</filter>
</defs>
</svg>
